<?xml version="1.0" encoding="utf-8" standalone="no"?>
<!DOCTYPE svg PUBLIC "-//W3C//DTD SVG 1.1//EN"
  "http://www.w3.org/Graphics/SVG/1.1/DTD/svg11.dtd">
<svg xmlns:xlink="http://www.w3.org/1999/xlink" width="864pt" height="576pt" viewBox="0 0 864 576" xmlns="http://www.w3.org/2000/svg" version="1.1">
 <metadata>
  <rdf:RDF xmlns:dc="http://purl.org/dc/elements/1.1/" xmlns:cc="http://creativecommons.org/ns#" xmlns:rdf="http://www.w3.org/1999/02/22-rdf-syntax-ns#">
   <cc:Work>
    <dc:type rdf:resource="http://purl.org/dc/dcmitype/StillImage"/>
    <dc:date>2023-08-25T13:36:45.290309</dc:date>
    <dc:format>image/svg+xml</dc:format>
    <dc:creator>
     <cc:Agent>
      <dc:title>Matplotlib v3.7.1, https://matplotlib.org/</dc:title>
     </cc:Agent>
    </dc:creator>
   </cc:Work>
  </rdf:RDF>
 </metadata>
 <defs>
  <style type="text/css">*{stroke-linejoin: round; stroke-linecap: butt}</style>
 </defs>
 <g id="figure_1">
  <g id="patch_1">
   <path d="M 0 576 
L 864 576 
L 864 0 
L 0 0 
z
" style="fill: #ffffff"/>
  </g>
  <g id="axes_1">
   <g id="patch_2">
    <path d="M 388.436975 118.394622 
C 308.362511 118.394622 231.485778 150.238007 174.864582 206.859204 
C 118.243385 263.4804 86.4 340.357132 86.4 420.431597 
L 388.436975 420.431597 
C 388.436975 420.431597 388.436975 420.431597 388.436975 420.431597 
C 388.436975 420.431597 388.436975 420.431597 388.436975 420.431597 
L 388.436975 118.394622 
z
" style="fill: none; opacity: 0"/>
   </g>
   <g id="matplotlib.axis_1">
    <g id="xtick_1">
     <g id="line2d_1">
      <path d="M 388.436975 420.431597 
L 90.98862 367.983426 
" clip-path="url(#p063b1a6871)" style="fill: none; stroke: #b0b0b0; stroke-width: 0.8; stroke-linecap: square"/>
     </g>
     <g id="text_1">
      <!-- -80° -->
      <g transform="translate(55.209616 366.314773) scale(0.1 -0.1)">
       <defs>
        <path id="DejaVuSans-2d" d="M 313 2009 
L 1997 2009 
L 1997 1497 
L 313 1497 
L 313 2009 
z
" transform="scale(0.015625)"/>
        <path id="DejaVuSans-38" d="M 2034 2216 
Q 1584 2216 1326 1975 
Q 1069 1734 1069 1313 
Q 1069 891 1326 650 
Q 1584 409 2034 409 
Q 2484 409 2743 651 
Q 3003 894 3003 1313 
Q 3003 1734 2745 1975 
Q 2488 2216 2034 2216 
z
M 1403 2484 
Q 997 2584 770 2862 
Q 544 3141 544 3541 
Q 544 4100 942 4425 
Q 1341 4750 2034 4750 
Q 2731 4750 3128 4425 
Q 3525 4100 3525 3541 
Q 3525 3141 3298 2862 
Q 3072 2584 2669 2484 
Q 3125 2378 3379 2068 
Q 3634 1759 3634 1313 
Q 3634 634 3220 271 
Q 2806 -91 2034 -91 
Q 1263 -91 848 271 
Q 434 634 434 1313 
Q 434 1759 690 2068 
Q 947 2378 1403 2484 
z
M 1172 3481 
Q 1172 3119 1398 2916 
Q 1625 2713 2034 2713 
Q 2441 2713 2670 2916 
Q 2900 3119 2900 3481 
Q 2900 3844 2670 4047 
Q 2441 4250 2034 4250 
Q 1625 4250 1398 4047 
Q 1172 3844 1172 3481 
z
" transform="scale(0.015625)"/>
        <path id="DejaVuSans-30" d="M 2034 4250 
Q 1547 4250 1301 3770 
Q 1056 3291 1056 2328 
Q 1056 1369 1301 889 
Q 1547 409 2034 409 
Q 2525 409 2770 889 
Q 3016 1369 3016 2328 
Q 3016 3291 2770 3770 
Q 2525 4250 2034 4250 
z
M 2034 4750 
Q 2819 4750 3233 4129 
Q 3647 3509 3647 2328 
Q 3647 1150 3233 529 
Q 2819 -91 2034 -91 
Q 1250 -91 836 529 
Q 422 1150 422 2328 
Q 422 3509 836 4129 
Q 1250 4750 2034 4750 
z
" transform="scale(0.015625)"/>
        <path id="DejaVuSans-b0" d="M 1600 4347 
Q 1350 4347 1178 4173 
Q 1006 4000 1006 3750 
Q 1006 3503 1178 3333 
Q 1350 3163 1600 3163 
Q 1850 3163 2022 3333 
Q 2194 3503 2194 3750 
Q 2194 3997 2020 4172 
Q 1847 4347 1600 4347 
z
M 1600 4750 
Q 1800 4750 1984 4673 
Q 2169 4597 2303 4453 
Q 2447 4313 2519 4134 
Q 2591 3956 2591 3750 
Q 2591 3338 2302 3052 
Q 2013 2766 1594 2766 
Q 1172 2766 890 3047 
Q 609 3328 609 3750 
Q 609 4169 896 4459 
Q 1184 4750 1600 4750 
z
" transform="scale(0.015625)"/>
       </defs>
       <use xlink:href="#DejaVuSans-2d"/>
       <use xlink:href="#DejaVuSans-38" x="36.083984"/>
       <use xlink:href="#DejaVuSans-30" x="99.707031"/>
       <use xlink:href="#DejaVuSans-b0" x="163.330078"/>
      </g>
     </g>
    </g>
    <g id="xtick_2">
     <g id="line2d_2">
      <path d="M 388.436975 420.431597 
L 104.615058 317.128867 
" clip-path="url(#p063b1a6871)" style="fill: none; stroke: #b0b0b0; stroke-width: 0.8; stroke-linecap: square"/>
     </g>
     <g id="text_2">
      <!-- -70° -->
      <g transform="translate(69.98649 311.166729) scale(0.1 -0.1)">
       <defs>
        <path id="DejaVuSans-37" d="M 525 4666 
L 3525 4666 
L 3525 4397 
L 1831 0 
L 1172 0 
L 2766 4134 
L 525 4134 
L 525 4666 
z
" transform="scale(0.015625)"/>
       </defs>
       <use xlink:href="#DejaVuSans-2d"/>
       <use xlink:href="#DejaVuSans-37" x="36.083984"/>
       <use xlink:href="#DejaVuSans-30" x="99.707031"/>
       <use xlink:href="#DejaVuSans-b0" x="163.330078"/>
      </g>
     </g>
    </g>
    <g id="xtick_3">
     <g id="line2d_3">
      <path d="M 388.436975 420.431597 
L 126.865282 269.413109 
" clip-path="url(#p063b1a6871)" style="fill: none; stroke: #b0b0b0; stroke-width: 0.8; stroke-linecap: square"/>
     </g>
     <g id="text_3">
      <!-- -60° -->
      <g transform="translate(94.115228 259.422484) scale(0.1 -0.1)">
       <defs>
        <path id="DejaVuSans-36" d="M 2113 2584 
Q 1688 2584 1439 2293 
Q 1191 2003 1191 1497 
Q 1191 994 1439 701 
Q 1688 409 2113 409 
Q 2538 409 2786 701 
Q 3034 994 3034 1497 
Q 3034 2003 2786 2293 
Q 2538 2584 2113 2584 
z
M 3366 4563 
L 3366 3988 
Q 3128 4100 2886 4159 
Q 2644 4219 2406 4219 
Q 1781 4219 1451 3797 
Q 1122 3375 1075 2522 
Q 1259 2794 1537 2939 
Q 1816 3084 2150 3084 
Q 2853 3084 3261 2657 
Q 3669 2231 3669 1497 
Q 3669 778 3244 343 
Q 2819 -91 2113 -91 
Q 1303 -91 875 529 
Q 447 1150 447 2328 
Q 447 3434 972 4092 
Q 1497 4750 2381 4750 
Q 2619 4750 2861 4703 
Q 3103 4656 3366 4563 
z
" transform="scale(0.015625)"/>
       </defs>
       <use xlink:href="#DejaVuSans-2d"/>
       <use xlink:href="#DejaVuSans-36" x="36.083984"/>
       <use xlink:href="#DejaVuSans-30" x="99.707031"/>
       <use xlink:href="#DejaVuSans-b0" x="163.330078"/>
      </g>
     </g>
    </g>
    <g id="xtick_4">
     <g id="line2d_4">
      <path d="M 388.436975 420.431597 
L 157.063229 226.285972 
" clip-path="url(#p063b1a6871)" style="fill: none; stroke: #b0b0b0; stroke-width: 0.8; stroke-linecap: square"/>
     </g>
     <g id="text_4">
      <!-- -50° -->
      <g transform="translate(126.862689 212.654263) scale(0.1 -0.1)">
       <defs>
        <path id="DejaVuSans-35" d="M 691 4666 
L 3169 4666 
L 3169 4134 
L 1269 4134 
L 1269 2991 
Q 1406 3038 1543 3061 
Q 1681 3084 1819 3084 
Q 2600 3084 3056 2656 
Q 3513 2228 3513 1497 
Q 3513 744 3044 326 
Q 2575 -91 1722 -91 
Q 1428 -91 1123 -41 
Q 819 9 494 109 
L 494 744 
Q 775 591 1075 516 
Q 1375 441 1709 441 
Q 2250 441 2565 725 
Q 2881 1009 2881 1497 
Q 2881 1984 2565 2268 
Q 2250 2553 1709 2553 
Q 1456 2553 1204 2497 
Q 953 2441 691 2322 
L 691 4666 
z
" transform="scale(0.015625)"/>
       </defs>
       <use xlink:href="#DejaVuSans-2d"/>
       <use xlink:href="#DejaVuSans-35" x="36.083984"/>
       <use xlink:href="#DejaVuSans-30" x="99.707031"/>
       <use xlink:href="#DejaVuSans-b0" x="163.330078"/>
      </g>
     </g>
    </g>
    <g id="xtick_5">
     <g id="line2d_5">
      <path d="M 388.436975 420.431597 
L 194.29135 189.05785 
" clip-path="url(#p063b1a6871)" style="fill: none; stroke: #b0b0b0; stroke-width: 0.8; stroke-linecap: square"/>
     </g>
     <g id="text_5">
      <!-- -40° -->
      <g transform="translate(167.233859 172.283092) scale(0.1 -0.1)">
       <defs>
        <path id="DejaVuSans-34" d="M 2419 4116 
L 825 1625 
L 2419 1625 
L 2419 4116 
z
M 2253 4666 
L 3047 4666 
L 3047 1625 
L 3713 1625 
L 3713 1100 
L 3047 1100 
L 3047 0 
L 2419 0 
L 2419 1100 
L 313 1100 
L 313 1709 
L 2253 4666 
z
" transform="scale(0.015625)"/>
       </defs>
       <use xlink:href="#DejaVuSans-2d"/>
       <use xlink:href="#DejaVuSans-34" x="36.083984"/>
       <use xlink:href="#DejaVuSans-30" x="99.707031"/>
       <use xlink:href="#DejaVuSans-b0" x="163.330078"/>
      </g>
     </g>
    </g>
    <g id="xtick_6">
     <g id="line2d_6">
      <path d="M 388.436975 420.431597 
L 237.418487 158.859904 
" clip-path="url(#p063b1a6871)" style="fill: none; stroke: #b0b0b0; stroke-width: 0.8; stroke-linecap: square"/>
     </g>
     <g id="text_6">
      <!-- -30° -->
      <g transform="translate(214.002081 139.535631) scale(0.1 -0.1)">
       <defs>
        <path id="DejaVuSans-33" d="M 2597 2516 
Q 3050 2419 3304 2112 
Q 3559 1806 3559 1356 
Q 3559 666 3084 287 
Q 2609 -91 1734 -91 
Q 1441 -91 1130 -33 
Q 819 25 488 141 
L 488 750 
Q 750 597 1062 519 
Q 1375 441 1716 441 
Q 2309 441 2620 675 
Q 2931 909 2931 1356 
Q 2931 1769 2642 2001 
Q 2353 2234 1838 2234 
L 1294 2234 
L 1294 2753 
L 1863 2753 
Q 2328 2753 2575 2939 
Q 2822 3125 2822 3475 
Q 2822 3834 2567 4026 
Q 2313 4219 1838 4219 
Q 1578 4219 1281 4162 
Q 984 4106 628 3988 
L 628 4550 
Q 988 4650 1302 4700 
Q 1616 4750 1894 4750 
Q 2613 4750 3031 4423 
Q 3450 4097 3450 3541 
Q 3450 3153 3228 2886 
Q 3006 2619 2597 2516 
z
" transform="scale(0.015625)"/>
       </defs>
       <use xlink:href="#DejaVuSans-2d"/>
       <use xlink:href="#DejaVuSans-33" x="36.083984"/>
       <use xlink:href="#DejaVuSans-30" x="99.707031"/>
       <use xlink:href="#DejaVuSans-b0" x="163.330078"/>
      </g>
     </g>
    </g>
    <g id="xtick_7">
     <g id="line2d_7">
      <path d="M 388.436975 420.431597 
L 285.134245 136.60968 
" clip-path="url(#p063b1a6871)" style="fill: none; stroke: #b0b0b0; stroke-width: 0.8; stroke-linecap: square"/>
     </g>
     <g id="text_7">
      <!-- -20° -->
      <g transform="translate(265.746325 115.406893) scale(0.1 -0.1)">
       <defs>
        <path id="DejaVuSans-32" d="M 1228 531 
L 3431 531 
L 3431 0 
L 469 0 
L 469 531 
Q 828 903 1448 1529 
Q 2069 2156 2228 2338 
Q 2531 2678 2651 2914 
Q 2772 3150 2772 3378 
Q 2772 3750 2511 3984 
Q 2250 4219 1831 4219 
Q 1534 4219 1204 4116 
Q 875 4013 500 3803 
L 500 4441 
Q 881 4594 1212 4672 
Q 1544 4750 1819 4750 
Q 2544 4750 2975 4387 
Q 3406 4025 3406 3419 
Q 3406 3131 3298 2873 
Q 3191 2616 2906 2266 
Q 2828 2175 2409 1742 
Q 1991 1309 1228 531 
z
" transform="scale(0.015625)"/>
       </defs>
       <use xlink:href="#DejaVuSans-2d"/>
       <use xlink:href="#DejaVuSans-32" x="36.083984"/>
       <use xlink:href="#DejaVuSans-30" x="99.707031"/>
       <use xlink:href="#DejaVuSans-b0" x="163.330078"/>
      </g>
     </g>
    </g>
    <g id="xtick_8">
     <g id="line2d_8">
      <path d="M 388.436975 420.431597 
L 335.988805 122.983242 
" clip-path="url(#p063b1a6871)" style="fill: none; stroke: #b0b0b0; stroke-width: 0.8; stroke-linecap: square"/>
     </g>
     <g id="text_8">
      <!-- -10° -->
      <g transform="translate(320.89437 100.630019) scale(0.1 -0.1)">
       <defs>
        <path id="DejaVuSans-31" d="M 794 531 
L 1825 531 
L 1825 4091 
L 703 3866 
L 703 4441 
L 1819 4666 
L 2450 4666 
L 2450 531 
L 3481 531 
L 3481 0 
L 794 0 
L 794 531 
z
" transform="scale(0.015625)"/>
       </defs>
       <use xlink:href="#DejaVuSans-2d"/>
       <use xlink:href="#DejaVuSans-31" x="36.083984"/>
       <use xlink:href="#DejaVuSans-30" x="99.707031"/>
       <use xlink:href="#DejaVuSans-b0" x="163.330078"/>
      </g>
     </g>
    </g>
   </g>
   <g id="matplotlib.axis_2">
    <g id="ytick_1">
     <g id="line2d_9">
      <path d="M 388.436975 420.431597 
C 388.436975 420.431597 388.436975 420.431597 388.436975 420.431597 
C 388.436975 420.431597 388.436975 420.431597 388.436975 420.431597 
" clip-path="url(#p063b1a6871)" style="fill: none; stroke: #b0b0b0; stroke-width: 0.8; stroke-linecap: square"/>
     </g>
    </g>
    <g id="ytick_2">
     <g id="line2d_10">
      <path d="M 341.969748 420.431597 
C 341.969748 408.112448 346.86873 396.285259 355.579684 387.574305 
C 364.290637 378.863352 376.117826 373.96437 388.436975 373.96437 
" clip-path="url(#p063b1a6871)" style="fill: none; stroke: #b0b0b0; stroke-width: 0.8; stroke-linecap: square"/>
     </g>
    </g>
    <g id="ytick_3">
     <g id="line2d_11">
      <path d="M 295.502521 420.431597 
C 295.502521 395.7933 305.300486 372.138921 322.722392 354.717014 
C 340.144299 337.295108 363.798678 327.497143 388.436975 327.497143 
" clip-path="url(#p063b1a6871)" style="fill: none; stroke: #b0b0b0; stroke-width: 0.8; stroke-linecap: square"/>
     </g>
    </g>
    <g id="ytick_4">
     <g id="line2d_12">
      <path d="M 249.035294 420.431597 
C 249.035294 383.474152 263.732241 347.992583 289.865101 321.859723 
C 315.997961 295.726863 351.47953 281.029916 388.436975 281.029916 
" clip-path="url(#p063b1a6871)" style="fill: none; stroke: #b0b0b0; stroke-width: 0.8; stroke-linecap: square"/>
     </g>
    </g>
    <g id="ytick_5">
     <g id="line2d_13">
      <path d="M 202.568067 420.431597 
C 202.568067 371.155003 222.163997 323.846245 257.00781 289.002432 
C 291.851623 254.158618 339.160381 234.562689 388.436975 234.562689 
" clip-path="url(#p063b1a6871)" style="fill: none; stroke: #b0b0b0; stroke-width: 0.8; stroke-linecap: square"/>
     </g>
    </g>
    <g id="ytick_6">
     <g id="line2d_14">
      <path d="M 156.10084 420.431597 
C 156.10084 358.835855 180.595752 299.699907 224.150519 256.14514 
C 267.705285 212.590374 326.841233 188.095462 388.436975 188.095462 
" clip-path="url(#p063b1a6871)" style="fill: none; stroke: #b0b0b0; stroke-width: 0.8; stroke-linecap: square"/>
     </g>
    </g>
    <g id="ytick_7">
     <g id="line2d_15">
      <path d="M 109.633613 420.431597 
C 109.633613 346.516707 139.027507 275.553569 191.293227 223.287849 
C 243.558947 171.022129 314.522085 141.628235 388.436975 141.628235 
" clip-path="url(#p063b1a6871)" style="fill: none; stroke: #b0b0b0; stroke-width: 0.8; stroke-linecap: square"/>
     </g>
    </g>
   </g>
   <g id="line2d_16">
    <path d="M 388.436909 420.431483 
L 388.436868 420.431408 
L 388.436804 420.431288 
L 388.436703 420.431096 
L 388.436547 420.430792 
L 388.436309 420.430317 
L 388.435949 420.429583 
L 388.435409 420.428456 
L 388.434609 420.426746 
L 388.433435 420.424176 
L 388.431731 420.420352 
L 388.429281 420.414714 
L 388.425795 420.406486 
L 388.420883 420.394589 
L 388.414034 420.377552 
L 388.404579 420.353386 
L 388.391656 420.319429 
L 388.374171 420.272161 
L 388.350752 420.20698 
L 388.3197 420.117931 
L 388.278941 419.997402 
L 388.225982 419.835772 
L 388.157871 419.621021 
L 388.071168 419.338316 
L 387.961933 418.969569 
L 387.825739 418.493005 
L 387.657712 417.882745 
L 387.452612 417.108445 
L 387.204953 416.135025 
L 386.909172 414.922519 
L 386.55986 413.426109 
L 386.152031 411.596374 
L 385.681453 409.379804 
L 385.145022 406.719627 
L 384.541162 403.556978 
L 383.87025 399.832433 
L 383.135032 395.487915 
L 382.341006 390.468953 
L 381.496755 384.727259 
L 380.614178 378.22356 
L 379.70861 370.93058 
L 378.798789 362.83607 
L 377.906647 353.945721 
L 377.056914 344.285829 
L 376.276526 333.905507 
L 375.59384 322.878301 
L 375.037672 311.30303 
L 374.636195 299.30371 
L 374.415741 287.028471 
L 374.399551 274.647379 
L 374.606555 262.349172 
L 375.050236 250.336954 
L 375.737661 238.822945 
L 376.668729 228.022482 
L 377.835713 218.147475 
L 379.223119 209.399596 
L 380.807901 201.963507 
L 382.560038 196.000426 
L 384.443444 191.64236 
L 386.417191 188.987275 
L 388.436975 188.095462 
" clip-path="url(#p063b1a6871)" style="fill: none; stroke: #90ee90; stroke-width: 1.5; stroke-linecap: square"/>
   </g>
   <g id="line2d_17">
    <path d="M 388.428764 420.40841 
L 388.410287 420.35409 
L 388.381712 420.266433 
L 388.339469 420.131505 
L 388.279178 419.93113 
L 388.195588 419.642056 
L 388.082554 419.235091 
L 387.933066 418.674258 
L 387.739346 417.916028 
L 387.493019 416.908706 
L 387.185384 415.592055 
L 386.80778 413.897251 
L 386.352054 411.747277 
L 385.811136 409.05784 
L 385.179685 405.738913 
L 384.454804 401.696954 
L 383.636772 396.837849 
L 382.729768 391.070564 
L 381.742504 384.311466 
L 380.688741 376.489182 
L 379.587607 367.54986 
L 378.463661 357.462575 
L 377.346668 346.22462 
L 376.271025 333.866365 
L 375.27485 320.455333 
L 374.398716 306.099155 
L 373.684078 290.94708 
L 373.171443 275.189762 
L 372.898381 259.057126 
L 372.897467 242.814207 
L 373.194293 226.754962 
L 373.805671 211.194208 
L 374.738159 196.457938 
L 375.987025 182.872399 
L 377.535747 170.752426 
L 379.356108 160.389601 
L 381.408915 152.040833 
L 383.645322 145.917983 
L 386.008702 142.179109 
L 388.436975 140.921816 
" clip-path="url(#p063b1a6871)" style="fill: none; stroke: #ff0000; stroke-width: 1.5; stroke-linecap: square"/>
   </g>
   <g id="patch_3">
    <path d="M 388.436975 118.394622 
C 308.362511 118.394622 231.485778 150.238007 174.864582 206.859204 
C 118.243385 263.4804 86.4 340.357132 86.4 420.431597 
" style="fill: none; stroke: #000000; stroke-width: 0.8; stroke-linejoin: miter; stroke-linecap: square"/>
   </g>
   <g id="patch_4">
    <path d="M 388.436975 420.431597 
L 86.4 420.431597 
" style="fill: none; stroke: #000000; stroke-width: 0.8; stroke-linejoin: miter; stroke-linecap: square"/>
   </g>
   <g id="patch_5">
    <path d="M 388.436975 420.431597 
L 388.436975 118.394622 
" style="fill: none; stroke: #000000; stroke-width: 0.8; stroke-linejoin: miter; stroke-linecap: square"/>
   </g>
  </g>
  <g id="axes_2">
   <g id="patch_6">
    <path d="M 86.4 466.898824 
L 777.6 466.898824 
L 777.6 109.101176 
L 86.4 109.101176 
L 86.4 466.898824 
z
" style="fill: none; opacity: 0"/>
   </g>
   <g id="matplotlib.axis_3">
    <g id="xtick_9"/>
    <g id="xtick_10"/>
    <g id="xtick_11"/>
    <g id="xtick_12"/>
    <g id="xtick_13"/>
    <g id="xtick_14"/>
    <g id="xtick_15"/>
   </g>
   <g id="matplotlib.axis_4">
    <g id="ytick_8">
     <g id="line2d_18">
      <defs>
       <path id="mfcd4557dde" d="M 0 0 
L 3.5 0 
" style="stroke: #000000; stroke-width: 0.8"/>
      </defs>
      <g>
       <use xlink:href="#mfcd4557dde" x="825.984" y="420.431597" style="stroke: #000000; stroke-width: 0.8"/>
      </g>
     </g>
     <g id="text_9">
      <!-- 0.0 -->
      <g transform="translate(832.984 424.230815) scale(0.1 -0.1)">
       <defs>
        <path id="DejaVuSans-2e" d="M 684 794 
L 1344 794 
L 1344 0 
L 684 0 
L 684 794 
z
" transform="scale(0.015625)"/>
       </defs>
       <use xlink:href="#DejaVuSans-30"/>
       <use xlink:href="#DejaVuSans-2e" x="63.623047"/>
       <use xlink:href="#DejaVuSans-30" x="95.410156"/>
      </g>
     </g>
    </g>
    <g id="ytick_9">
     <g id="line2d_19">
      <g>
       <use xlink:href="#mfcd4557dde" x="825.984" y="366.026341" style="stroke: #000000; stroke-width: 0.8"/>
      </g>
     </g>
     <g id="text_10">
      <!-- 0.5 -->
      <g transform="translate(832.984 369.82556) scale(0.1 -0.1)">
       <use xlink:href="#DejaVuSans-30"/>
       <use xlink:href="#DejaVuSans-2e" x="63.623047"/>
       <use xlink:href="#DejaVuSans-35" x="95.410156"/>
      </g>
     </g>
    </g>
    <g id="ytick_10">
     <g id="line2d_20">
      <g>
       <use xlink:href="#mfcd4557dde" x="825.984" y="311.621086" style="stroke: #000000; stroke-width: 0.8"/>
      </g>
     </g>
     <g id="text_11">
      <!-- 1.0 -->
      <g transform="translate(832.984 315.420305) scale(0.1 -0.1)">
       <use xlink:href="#DejaVuSans-31"/>
       <use xlink:href="#DejaVuSans-2e" x="63.623047"/>
       <use xlink:href="#DejaVuSans-30" x="95.410156"/>
      </g>
     </g>
    </g>
    <g id="ytick_11">
     <g id="line2d_21">
      <g>
       <use xlink:href="#mfcd4557dde" x="825.984" y="257.215831" style="stroke: #000000; stroke-width: 0.8"/>
      </g>
     </g>
     <g id="text_12">
      <!-- 1.5 -->
      <g transform="translate(832.984 261.015049) scale(0.1 -0.1)">
       <use xlink:href="#DejaVuSans-31"/>
       <use xlink:href="#DejaVuSans-2e" x="63.623047"/>
       <use xlink:href="#DejaVuSans-35" x="95.410156"/>
      </g>
     </g>
    </g>
    <g id="ytick_12">
     <g id="line2d_22">
      <g>
       <use xlink:href="#mfcd4557dde" x="825.984" y="202.810575" style="stroke: #000000; stroke-width: 0.8"/>
      </g>
     </g>
     <g id="text_13">
      <!-- 2.0 -->
      <g transform="translate(832.984 206.609794) scale(0.1 -0.1)">
       <use xlink:href="#DejaVuSans-32"/>
       <use xlink:href="#DejaVuSans-2e" x="63.623047"/>
       <use xlink:href="#DejaVuSans-30" x="95.410156"/>
      </g>
     </g>
    </g>
    <g id="ytick_13">
     <g id="line2d_23">
      <g>
       <use xlink:href="#mfcd4557dde" x="825.984" y="148.40532" style="stroke: #000000; stroke-width: 0.8"/>
      </g>
     </g>
     <g id="text_14">
      <!-- 2.5 -->
      <g transform="translate(832.984 152.204539) scale(0.1 -0.1)">
       <use xlink:href="#DejaVuSans-32"/>
       <use xlink:href="#DejaVuSans-2e" x="63.623047"/>
       <use xlink:href="#DejaVuSans-35" x="95.410156"/>
      </g>
     </g>
    </g>
    <g id="text_15">
     <!-- % -->
     <g transform="translate(820.236031 98.27113) scale(0.14 -0.14)">
      <defs>
       <path id="DejaVuSans-25" d="M 4653 2053 
Q 4381 2053 4226 1822 
Q 4072 1591 4072 1178 
Q 4072 772 4226 539 
Q 4381 306 4653 306 
Q 4919 306 5073 539 
Q 5228 772 5228 1178 
Q 5228 1588 5073 1820 
Q 4919 2053 4653 2053 
z
M 4653 2450 
Q 5147 2450 5437 2106 
Q 5728 1763 5728 1178 
Q 5728 594 5436 251 
Q 5144 -91 4653 -91 
Q 4153 -91 3862 251 
Q 3572 594 3572 1178 
Q 3572 1766 3864 2108 
Q 4156 2450 4653 2450 
z
M 1428 4353 
Q 1159 4353 1004 4120 
Q 850 3888 850 3481 
Q 850 3069 1003 2837 
Q 1156 2606 1428 2606 
Q 1700 2606 1854 2837 
Q 2009 3069 2009 3481 
Q 2009 3884 1853 4118 
Q 1697 4353 1428 4353 
z
M 4250 4750 
L 4750 4750 
L 1831 -91 
L 1331 -91 
L 4250 4750 
z
M 1428 4750 
Q 1922 4750 2215 4408 
Q 2509 4066 2509 3481 
Q 2509 2891 2217 2550 
Q 1925 2209 1428 2209 
Q 931 2209 642 2551 
Q 353 2894 353 3481 
Q 353 4063 643 4406 
Q 934 4750 1428 4750 
z
" transform="scale(0.015625)"/>
      </defs>
      <use xlink:href="#DejaVuSans-25"/>
     </g>
    </g>
   </g>
   <g id="line2d_24">
    <path d="M 388.436975 109.101176 
" style="fill: none; stroke: #000000; stroke-width: 1.5; stroke-linecap: square"/>
    <defs>
     <path id="m4e8900191a" d="M 0 -2 
L -2 2 
L 2 2 
z
" style="stroke: #000000; stroke-linejoin: miter"/>
    </defs>
    <g>
     <use xlink:href="#m4e8900191a" x="388.436975" y="109.101176" style="stroke: #000000; stroke-linejoin: miter"/>
    </g>
   </g>
   <g id="line2d_25">
    <path d="M 777.6 420.431597 
" style="fill: none; stroke: #000000; stroke-width: 1.5; stroke-linecap: square"/>
    <defs>
     <path id="m2b5231dc4a" d="M 2 0 
L -2 -2 
L -2 2 
z
" style="stroke: #000000; stroke-linejoin: miter"/>
    </defs>
    <g>
     <use xlink:href="#m2b5231dc4a" x="777.6" y="420.431597" style="stroke: #000000; stroke-linejoin: miter"/>
    </g>
   </g>
   <g id="line2d_26">
    <path d="M 388.436975 188.095462 
L 394.517647 188.978462 
L 400.598319 191.607509 
L 406.678992 195.923493 
L 412.759664 201.830341 
L 418.840336 209.198549 
L 424.921008 217.869871 
L 431.001681 227.662929 
L 437.082353 238.379475 
L 443.163025 249.810988 
L 449.243697 261.745323 
L 455.32437 273.973113 
L 461.405042 286.293649 
L 467.485714 298.520045 
L 473.566387 310.483493 
L 479.647059 322.036518 
L 485.727731 333.055166 
L 491.808403 343.440144 
L 497.889076 353.116966 
L 503.969748 362.035198 
L 510.05042 370.166947 
L 516.131092 377.504746 
L 522.211765 384.058992 
L 528.292437 389.855121 
L 534.373109 394.930658 
L 540.453782 399.332295 
L 546.534454 403.113106 
L 552.615126 406.329998 
L 558.695798 409.041468 
L 564.776471 411.305693 
L 570.857143 413.178983 
L 576.937815 414.714594 
L 583.018487 415.961875 
L 589.09916 416.965719 
L 595.179832 417.766283 
L 601.260504 418.398926 
L 607.341176 418.89433 
L 613.421849 419.27874 
L 619.502521 419.574315 
L 625.583193 419.799517 
L 631.663866 419.969537 
L 637.744538 420.096724 
L 643.82521 420.190999 
L 649.905882 420.260238 
L 655.986555 420.31062 
L 662.067227 420.346942 
L 668.147899 420.372885 
L 674.228571 420.391242 
L 680.309244 420.404109 
L 686.389916 420.413044 
L 692.470588 420.419189 
L 698.551261 420.423375 
L 704.631933 420.4262 
L 710.712605 420.428087 
L 716.793277 420.429336 
L 722.87395 420.430154 
L 728.954622 420.430685 
L 735.035294 420.431027 
L 741.115966 420.431243 
L 747.196639 420.43138 
L 753.277311 420.431465 
" clip-path="url(#p16e1b88347)" style="fill: none; stroke: #90ee90; stroke-width: 1.5; stroke-linecap: square"/>
   </g>
   <g id="line2d_27">
    <path d="M 388.436975 140.921816 
L 394.517647 142.168514 
L 400.598319 145.876167 
L 406.678992 151.94883 
L 412.759664 160.231094 
L 418.840336 170.514561 
L 424.921008 182.546385 
L 431.001681 196.039402 
L 437.082353 210.683272 
L 443.163025 226.156075 
L 449.243697 242.135737 
L 455.32437 258.310754 
L 461.405042 274.389729 
L 467.485714 290.10935 
L 473.566387 305.240539 
L 479.647059 319.592642 
L 485.727731 333.015639 
L 491.808403 345.400468 
L 497.889076 356.677658 
L 503.969748 366.814534 
L 510.05042 375.811299 
L 516.131092 383.69633 
L 522.211765 390.521023 
L 528.292437 396.354494 
L 534.373109 401.278411 
L 540.453782 405.382181 
L 546.534454 408.758664 
L 552.615126 411.500511 
L 558.695798 413.697211 
L 564.776471 415.432832 
L 570.857143 416.784432 
L 576.937815 417.821085 
L 583.018487 418.603438 
L 589.09916 419.183703 
L 595.179832 419.605981 
L 601.260504 419.906843 
L 607.341176 420.116061 
L 613.421849 420.257433 
L 619.502521 420.349625 
L 625.583193 420.406999 
L 631.663866 420.440386 
L 637.744538 420.457775 
L 643.82521 420.464926 
L 649.905882 420.465879 
L 655.986555 420.463384 
L 662.067227 420.459245 
L 668.147899 420.454586 
L 674.228571 420.450064 
L 680.309244 420.446022 
L 686.389916 420.442599 
L 692.470588 420.439814 
L 698.551261 420.43762 
L 704.631933 420.435935 
L 710.712605 420.434672 
L 716.793277 420.433743 
L 722.87395 420.433073 
L 728.954622 420.432598 
L 735.035294 420.432267 
L 741.115966 420.432039 
L 747.196639 420.431885 
L 753.277311 420.431782 
" clip-path="url(#p16e1b88347)" style="fill: none; stroke: #ff0000; stroke-width: 1.5; stroke-linecap: square"/>
   </g>
   <g id="line2d_28">
    <path d="M 825.984 109.101176 
" style="fill: none; stroke: #000000; stroke-width: 1.5; stroke-linecap: square"/>
    <g>
     <use xlink:href="#m4e8900191a" x="825.984" y="109.101176" style="stroke: #000000; stroke-linejoin: miter"/>
    </g>
   </g>
   <g id="line2d_29">
    <path d="M 388.436975 199.502185 
L 394.517647 201.205502 
L 400.598319 206.256964 
L 406.678992 214.484059 
L 412.759664 225.608895 
L 418.840336 239.261992 
L 424.921008 255.000314 
L 431.001681 272.32841 
L 437.082353 290.721339 
L 443.163025 309.648007 
L 449.243697 328.593577 
L 455.32437 347.079716 
L 461.405042 364.681698 
L 467.485714 381.041597 
L 473.566387 395.877148 
L 479.647059 408.986137 
L 485.727731 420.246481 
L 491.808403 429.612424 
L 497.889076 437.107465 
L 503.969748 442.814771 
L 510.05042 446.865918 
L 516.131092 449.428785 
L 522.211765 450.695375 
L 528.292437 450.870257 
L 534.373109 450.160169 
L 540.453782 448.765165 
L 546.534454 446.871565 
L 552.615126 444.646774 
L 558.695798 442.235944 
L 564.776471 439.760324 
L 570.857143 437.317079 
L 576.937815 434.980295 
L 583.018487 432.802889 
L 589.09916 430.819129 
L 595.179832 429.047496 
L 601.260504 427.493655 
L 607.341176 426.15336 
L 613.421849 425.015129 
L 619.502521 424.062619 
L 625.583193 423.276632 
L 631.663866 422.636735 
L 637.744538 422.122515 
L 643.82521 421.714482 
L 649.905882 421.39468 
L 655.986555 421.147042 
L 662.067227 420.957546 
L 668.147899 420.814229 
L 674.228571 420.707082 
L 680.309244 420.627887 
L 686.389916 420.570012 
L 692.470588 420.528191 
L 698.551261 420.498308 
L 704.631933 420.477191 
L 710.712605 420.462434 
L 716.793277 420.452236 
L 722.87395 420.445265 
L 728.954622 420.440553 
L 735.035294 420.437404 
L 741.115966 420.435322 
L 747.196639 420.433961 
L 753.277311 420.433081 
" clip-path="url(#p16e1b88347)" style="fill: none; stroke: #00008b; stroke-width: 1.5; stroke-linecap: square"/>
   </g>
   <g id="patch_7">
    <path d="M 825.984 466.898824 
L 825.984 109.101176 
" style="fill: none; stroke: #000000; stroke-width: 0.8; stroke-linejoin: miter; stroke-linecap: square"/>
   </g>
   <g id="patch_8">
    <path d="M 388.436975 466.898824 
L 388.436975 109.101176 
" style="fill: none; stroke: #000000; stroke-width: 0.8; stroke-linejoin: miter; stroke-linecap: square"/>
   </g>
   <g id="patch_9">
    <path d="M 86.4 420.431597 
L 777.6 420.431597 
" style="fill: none; stroke: #000000; stroke-width: 0.8; stroke-linejoin: miter; stroke-linecap: square"/>
   </g>
   <g id="matplotlib.axis_5">
    <g id="xtick_16">
     <g id="line2d_30">
      <defs>
       <path id="m2f42deb365" d="M 0 0 
L 0 3.5 
" style="stroke: #000000; stroke-width: 0.8"/>
      </defs>
      <g>
       <use xlink:href="#m2f42deb365" x="570.857143" y="420.431597" style="stroke: #000000; stroke-width: 0.8"/>
      </g>
     </g>
     <g id="text_16">
      <g id="patch_10">
       <path d="M 564.494643 440.109722 
L 577.219643 440.109722 
Q 580.219643 440.109722 580.219643 437.109722 
L 580.219643 427.431597 
Q 580.219643 424.431597 577.219643 424.431597 
L 564.494643 424.431597 
Q 561.494643 424.431597 561.494643 427.431597 
L 561.494643 437.109722 
Q 561.494643 440.109722 564.494643 440.109722 
z
" style="fill: #ffffff; opacity: 0.7; stroke: #ffffff; stroke-linejoin: miter"/>
      </g>
      <!-- 15 -->
      <g transform="translate(564.494643 435.030034) scale(0.1 -0.1)">
       <use xlink:href="#DejaVuSans-31"/>
       <use xlink:href="#DejaVuSans-35" x="63.623047"/>
      </g>
     </g>
    </g>
    <g id="xtick_17">
     <g id="line2d_31">
      <g>
       <use xlink:href="#m2f42deb365" x="753.277311" y="420.431597" style="stroke: #000000; stroke-width: 0.8"/>
      </g>
     </g>
     <g id="text_17">
      <g id="patch_11">
       <path d="M 746.914811 440.109722 
L 759.639811 440.109722 
Q 762.639811 440.109722 762.639811 437.109722 
L 762.639811 427.431597 
Q 762.639811 424.431597 759.639811 424.431597 
L 746.914811 424.431597 
Q 743.914811 424.431597 743.914811 427.431597 
L 743.914811 437.109722 
Q 743.914811 440.109722 746.914811 440.109722 
z
" style="fill: #ffffff; opacity: 0.7; stroke: #ffffff; stroke-linejoin: miter"/>
      </g>
      <!-- 30 -->
      <g transform="translate(746.914811 435.030034) scale(0.1 -0.1)">
       <use xlink:href="#DejaVuSans-33"/>
       <use xlink:href="#DejaVuSans-30" x="63.623047"/>
      </g>
     </g>
    </g>
    <g id="xtick_18">
     <g id="line2d_32">
      <defs>
       <path id="ma0c9fef112" d="M 0 0 
L 0 2 
" style="stroke: #000000; stroke-width: 0.6"/>
      </defs>
      <g>
       <use xlink:href="#ma0c9fef112" x="388.436975" y="420.431597" style="stroke: #000000; stroke-width: 0.6"/>
      </g>
     </g>
    </g>
    <g id="xtick_19">
     <g id="line2d_33">
      <g>
       <use xlink:href="#ma0c9fef112" x="449.243697" y="420.431597" style="stroke: #000000; stroke-width: 0.6"/>
      </g>
     </g>
    </g>
    <g id="xtick_20">
     <g id="line2d_34">
      <g>
       <use xlink:href="#ma0c9fef112" x="510.05042" y="420.431597" style="stroke: #000000; stroke-width: 0.6"/>
      </g>
     </g>
    </g>
    <g id="xtick_21">
     <g id="line2d_35">
      <g>
       <use xlink:href="#ma0c9fef112" x="631.663866" y="420.431597" style="stroke: #000000; stroke-width: 0.6"/>
      </g>
     </g>
    </g>
    <g id="xtick_22">
     <g id="line2d_36">
      <g>
       <use xlink:href="#ma0c9fef112" x="692.470588" y="420.431597" style="stroke: #000000; stroke-width: 0.6"/>
      </g>
     </g>
    </g>
    <g id="text_18">
     <!-- $\theta$ / ° -->
     <g transform="translate(783.706 423.747534) scale(0.14 -0.14)">
      <defs>
       <path id="DejaVuSans-Oblique-3b8" d="M 2913 2219 
L 925 2219 
Q 791 1284 928 888 
Q 1100 400 1566 400 
Q 2034 400 2391 891 
Q 2703 1322 2913 2219 
z
M 3009 2750 
Q 3094 3638 2984 3950 
Q 2813 4444 2353 4444 
Q 1875 4444 1525 3956 
Q 1250 3563 1034 2750 
L 3009 2750 
z
M 2444 4913 
Q 3194 4913 3494 4250 
Q 3794 3591 3566 2422 
Q 3341 1256 2781 594 
Q 2225 -72 1475 -72 
Q 722 -72 425 594 
Q 128 1256 353 2422 
Q 581 3591 1134 4250 
Q 1691 4913 2444 4913 
z
" transform="scale(0.015625)"/>
       <path id="DejaVuSans-20" transform="scale(0.015625)"/>
       <path id="DejaVuSans-2f" d="M 1625 4666 
L 2156 4666 
L 531 -594 
L 0 -594 
L 1625 4666 
z
" transform="scale(0.015625)"/>
      </defs>
      <use xlink:href="#DejaVuSans-Oblique-3b8" transform="translate(0 0.234375)"/>
      <use xlink:href="#DejaVuSans-20" transform="translate(61.181641 0.234375)"/>
      <use xlink:href="#DejaVuSans-2f" transform="translate(92.96875 0.234375)"/>
      <use xlink:href="#DejaVuSans-20" transform="translate(126.660156 0.234375)"/>
      <use xlink:href="#DejaVuSans-b0" transform="translate(158.447266 0.234375)"/>
     </g>
    </g>
   </g>
   <g id="matplotlib.axis_6">
    <g id="ytick_14">
     <g id="line2d_37">
      <g>
       <use xlink:href="#mfcd4557dde" x="388.436975" y="373.96437" style="stroke: #000000; stroke-width: 0.8"/>
      </g>
     </g>
     <g id="text_19">
      <g id="patch_12">
       <path d="M 398.436975 382.843276 
L 411.161975 382.843276 
Q 414.161975 382.843276 414.161975 379.843276 
L 414.161975 370.165151 
Q 414.161975 367.165151 411.161975 367.165151 
L 398.436975 367.165151 
Q 395.436975 367.165151 395.436975 370.165151 
L 395.436975 379.843276 
Q 395.436975 382.843276 398.436975 382.843276 
z
" style="fill: #ffffff; opacity: 0.7; stroke: #ffffff; stroke-linejoin: miter"/>
      </g>
      <!-- 20 -->
      <g transform="translate(398.436975 377.763588) scale(0.1 -0.1)">
       <use xlink:href="#DejaVuSans-32"/>
       <use xlink:href="#DejaVuSans-30" x="63.623047"/>
      </g>
     </g>
    </g>
    <g id="ytick_15">
     <g id="line2d_38">
      <g>
       <use xlink:href="#mfcd4557dde" x="388.436975" y="327.497143" style="stroke: #000000; stroke-width: 0.8"/>
      </g>
     </g>
     <g id="text_20">
      <g id="patch_13">
       <path d="M 398.436975 336.376049 
L 411.161975 336.376049 
Q 414.161975 336.376049 414.161975 333.376049 
L 414.161975 323.697924 
Q 414.161975 320.697924 411.161975 320.697924 
L 398.436975 320.697924 
Q 395.436975 320.697924 395.436975 323.697924 
L 395.436975 333.376049 
Q 395.436975 336.376049 398.436975 336.376049 
z
" style="fill: #ffffff; opacity: 0.7; stroke: #ffffff; stroke-linejoin: miter"/>
      </g>
      <!-- 40 -->
      <g transform="translate(398.436975 331.296362) scale(0.1 -0.1)">
       <use xlink:href="#DejaVuSans-34"/>
       <use xlink:href="#DejaVuSans-30" x="63.623047"/>
      </g>
     </g>
    </g>
    <g id="ytick_16">
     <g id="line2d_39">
      <g>
       <use xlink:href="#mfcd4557dde" x="388.436975" y="281.029916" style="stroke: #000000; stroke-width: 0.8"/>
      </g>
     </g>
     <g id="text_21">
      <g id="patch_14">
       <path d="M 398.436975 289.908822 
L 411.161975 289.908822 
Q 414.161975 289.908822 414.161975 286.908822 
L 414.161975 277.230697 
Q 414.161975 274.230697 411.161975 274.230697 
L 398.436975 274.230697 
Q 395.436975 274.230697 395.436975 277.230697 
L 395.436975 286.908822 
Q 395.436975 289.908822 398.436975 289.908822 
z
" style="fill: #ffffff; opacity: 0.7; stroke: #ffffff; stroke-linejoin: miter"/>
      </g>
      <!-- 60 -->
      <g transform="translate(398.436975 284.829135) scale(0.1 -0.1)">
       <use xlink:href="#DejaVuSans-36"/>
       <use xlink:href="#DejaVuSans-30" x="63.623047"/>
      </g>
     </g>
    </g>
    <g id="ytick_17">
     <g id="line2d_40">
      <g>
       <use xlink:href="#mfcd4557dde" x="388.436975" y="234.562689" style="stroke: #000000; stroke-width: 0.8"/>
      </g>
     </g>
     <g id="text_22">
      <g id="patch_15">
       <path d="M 398.436975 243.441595 
L 411.161975 243.441595 
Q 414.161975 243.441595 414.161975 240.441595 
L 414.161975 230.76347 
Q 414.161975 227.76347 411.161975 227.76347 
L 398.436975 227.76347 
Q 395.436975 227.76347 395.436975 230.76347 
L 395.436975 240.441595 
Q 395.436975 243.441595 398.436975 243.441595 
z
" style="fill: #ffffff; opacity: 0.7; stroke: #ffffff; stroke-linejoin: miter"/>
      </g>
      <!-- 80 -->
      <g transform="translate(398.436975 238.361908) scale(0.1 -0.1)">
       <use xlink:href="#DejaVuSans-38"/>
       <use xlink:href="#DejaVuSans-30" x="63.623047"/>
      </g>
     </g>
    </g>
    <g id="ytick_18">
     <g id="line2d_41">
      <g>
       <use xlink:href="#mfcd4557dde" x="388.436975" y="188.095462" style="stroke: #000000; stroke-width: 0.8"/>
      </g>
     </g>
     <g id="text_23">
      <g id="patch_16">
       <path d="M 398.436975 196.974368 
L 417.524475 196.974368 
Q 420.524475 196.974368 420.524475 193.974368 
L 420.524475 184.296243 
Q 420.524475 181.296243 417.524475 181.296243 
L 398.436975 181.296243 
Q 395.436975 181.296243 395.436975 184.296243 
L 395.436975 193.974368 
Q 395.436975 196.974368 398.436975 196.974368 
z
" style="fill: #ffffff; opacity: 0.7; stroke: #ffffff; stroke-linejoin: miter"/>
      </g>
      <!-- 100 -->
      <g transform="translate(398.436975 191.894681) scale(0.1 -0.1)">
       <use xlink:href="#DejaVuSans-31"/>
       <use xlink:href="#DejaVuSans-30" x="63.623047"/>
       <use xlink:href="#DejaVuSans-30" x="127.246094"/>
      </g>
     </g>
    </g>
    <g id="ytick_19">
     <g id="line2d_42">
      <g>
       <use xlink:href="#mfcd4557dde" x="388.436975" y="141.628235" style="stroke: #000000; stroke-width: 0.8"/>
      </g>
     </g>
     <g id="text_24">
      <g id="patch_17">
       <path d="M 398.436975 150.507142 
L 417.524475 150.507142 
Q 420.524475 150.507142 420.524475 147.507142 
L 420.524475 137.829017 
Q 420.524475 134.829017 417.524475 134.829017 
L 398.436975 134.829017 
Q 395.436975 134.829017 395.436975 137.829017 
L 395.436975 147.507142 
Q 395.436975 150.507142 398.436975 150.507142 
z
" style="fill: #ffffff; opacity: 0.7; stroke: #ffffff; stroke-linejoin: miter"/>
      </g>
      <!-- 120 -->
      <g transform="translate(398.436975 145.427454) scale(0.1 -0.1)">
       <use xlink:href="#DejaVuSans-31"/>
       <use xlink:href="#DejaVuSans-32" x="63.623047"/>
       <use xlink:href="#DejaVuSans-30" x="127.246094"/>
      </g>
     </g>
    </g>
    <g id="ytick_20">
     <g id="line2d_43">
      <defs>
       <path id="mb05cc9fd1e" d="M 0 0 
L 2 0 
" style="stroke: #000000; stroke-width: 0.6"/>
      </defs>
      <g>
       <use xlink:href="#mb05cc9fd1e" x="388.436975" y="420.431597" style="stroke: #000000; stroke-width: 0.6"/>
      </g>
     </g>
    </g>
    <g id="ytick_21">
     <g id="line2d_44">
      <g>
       <use xlink:href="#mb05cc9fd1e" x="388.436975" y="397.197983" style="stroke: #000000; stroke-width: 0.6"/>
      </g>
     </g>
    </g>
    <g id="ytick_22">
     <g id="line2d_45">
      <g>
       <use xlink:href="#mb05cc9fd1e" x="388.436975" y="350.730756" style="stroke: #000000; stroke-width: 0.6"/>
      </g>
     </g>
    </g>
    <g id="ytick_23">
     <g id="line2d_46">
      <g>
       <use xlink:href="#mb05cc9fd1e" x="388.436975" y="304.263529" style="stroke: #000000; stroke-width: 0.6"/>
      </g>
     </g>
    </g>
    <g id="ytick_24">
     <g id="line2d_47">
      <g>
       <use xlink:href="#mb05cc9fd1e" x="388.436975" y="257.796303" style="stroke: #000000; stroke-width: 0.6"/>
      </g>
     </g>
    </g>
    <g id="ytick_25">
     <g id="line2d_48">
      <g>
       <use xlink:href="#mb05cc9fd1e" x="388.436975" y="211.329076" style="stroke: #000000; stroke-width: 0.6"/>
      </g>
     </g>
    </g>
    <g id="ytick_26">
     <g id="line2d_49">
      <g>
       <use xlink:href="#mb05cc9fd1e" x="388.436975" y="164.861849" style="stroke: #000000; stroke-width: 0.6"/>
      </g>
     </g>
    </g>
    <g id="ytick_27">
     <g id="line2d_50">
      <g>
       <use xlink:href="#mb05cc9fd1e" x="388.436975" y="118.394622" style="stroke: #000000; stroke-width: 0.6"/>
      </g>
     </g>
    </g>
    <g id="text_25">
     <!-- $I$ / $cd$ -->
     <g transform="translate(376.216975 99.033661) scale(0.14 -0.14)">
      <defs>
       <path id="DejaVuSans-Oblique-49" d="M 1081 4666 
L 1716 4666 
L 806 0 
L 172 0 
L 1081 4666 
z
" transform="scale(0.015625)"/>
       <path id="DejaVuSans-Oblique-63" d="M 3431 3366 
L 3316 2797 
Q 3109 2947 2876 3022 
Q 2644 3097 2394 3097 
Q 2119 3097 1870 3000 
Q 1622 2903 1453 2725 
Q 1184 2453 1037 2087 
Q 891 1722 891 1331 
Q 891 859 1127 628 
Q 1363 397 1844 397 
Q 2081 397 2348 469 
Q 2616 541 2906 684 
L 2797 116 
Q 2547 13 2283 -39 
Q 2019 -91 1741 -91 
Q 1044 -91 669 257 
Q 294 606 294 1253 
Q 294 1797 489 2255 
Q 684 2713 1069 3078 
Q 1331 3328 1684 3456 
Q 2038 3584 2456 3584 
Q 2700 3584 2940 3529 
Q 3181 3475 3431 3366 
z
" transform="scale(0.015625)"/>
       <path id="DejaVuSans-Oblique-64" d="M 2675 525 
Q 2444 222 2128 65 
Q 1813 -91 1428 -91 
Q 903 -91 598 267 
Q 294 625 294 1247 
Q 294 1766 478 2236 
Q 663 2706 1013 3078 
Q 1244 3325 1534 3454 
Q 1825 3584 2144 3584 
Q 2481 3584 2739 3421 
Q 2997 3259 3138 2956 
L 3513 4863 
L 4091 4863 
L 3144 0 
L 2566 0 
L 2675 525 
z
M 891 1350 
Q 891 897 1095 644 
Q 1300 391 1663 391 
Q 1931 391 2161 520 
Q 2391 650 2566 903 
Q 2750 1166 2856 1509 
Q 2963 1853 2963 2188 
Q 2963 2622 2758 2865 
Q 2553 3109 2194 3109 
Q 1922 3109 1687 2981 
Q 1453 2853 1288 2613 
Q 1106 2353 998 2009 
Q 891 1666 891 1350 
z
" transform="scale(0.015625)"/>
      </defs>
      <use xlink:href="#DejaVuSans-Oblique-49" transform="translate(0 0.015625)"/>
      <use xlink:href="#DejaVuSans-20" transform="translate(29.492188 0.015625)"/>
      <use xlink:href="#DejaVuSans-2f" transform="translate(61.279297 0.015625)"/>
      <use xlink:href="#DejaVuSans-20" transform="translate(94.970703 0.015625)"/>
      <use xlink:href="#DejaVuSans-Oblique-63" transform="translate(126.757812 0.015625)"/>
      <use xlink:href="#DejaVuSans-Oblique-64" transform="translate(181.738281 0.015625)"/>
     </g>
    </g>
   </g>
   <g id="legend_1">
    <g id="patch_18">
     <path d="M 648.8 131.779301 
L 770.6 131.779301 
Q 772.6 131.779301 772.6 129.779301 
L 772.6 116.101176 
Q 772.6 114.101176 770.6 114.101176 
L 648.8 114.101176 
Q 646.8 114.101176 646.8 116.101176 
L 646.8 129.779301 
Q 646.8 131.779301 648.8 131.779301 
z
" style="fill: #ffffff; opacity: 0.8; stroke: #cccccc; stroke-linejoin: miter"/>
    </g>
    <g id="line2d_51">
     <path d="M 650.8 122.199614 
L 660.8 122.199614 
L 670.8 122.199614 
" style="fill: none; stroke: #00008b; stroke-width: 1.5; stroke-linecap: square"/>
    </g>
    <g id="text_26">
     <!-- error relative to $I_0$ -->
     <g transform="translate(678.8 125.699614) scale(0.1 -0.1)">
      <defs>
       <path id="DejaVuSans-65" d="M 3597 1894 
L 3597 1613 
L 953 1613 
Q 991 1019 1311 708 
Q 1631 397 2203 397 
Q 2534 397 2845 478 
Q 3156 559 3463 722 
L 3463 178 
Q 3153 47 2828 -22 
Q 2503 -91 2169 -91 
Q 1331 -91 842 396 
Q 353 884 353 1716 
Q 353 2575 817 3079 
Q 1281 3584 2069 3584 
Q 2775 3584 3186 3129 
Q 3597 2675 3597 1894 
z
M 3022 2063 
Q 3016 2534 2758 2815 
Q 2500 3097 2075 3097 
Q 1594 3097 1305 2825 
Q 1016 2553 972 2059 
L 3022 2063 
z
" transform="scale(0.015625)"/>
       <path id="DejaVuSans-72" d="M 2631 2963 
Q 2534 3019 2420 3045 
Q 2306 3072 2169 3072 
Q 1681 3072 1420 2755 
Q 1159 2438 1159 1844 
L 1159 0 
L 581 0 
L 581 3500 
L 1159 3500 
L 1159 2956 
Q 1341 3275 1631 3429 
Q 1922 3584 2338 3584 
Q 2397 3584 2469 3576 
Q 2541 3569 2628 3553 
L 2631 2963 
z
" transform="scale(0.015625)"/>
       <path id="DejaVuSans-6f" d="M 1959 3097 
Q 1497 3097 1228 2736 
Q 959 2375 959 1747 
Q 959 1119 1226 758 
Q 1494 397 1959 397 
Q 2419 397 2687 759 
Q 2956 1122 2956 1747 
Q 2956 2369 2687 2733 
Q 2419 3097 1959 3097 
z
M 1959 3584 
Q 2709 3584 3137 3096 
Q 3566 2609 3566 1747 
Q 3566 888 3137 398 
Q 2709 -91 1959 -91 
Q 1206 -91 779 398 
Q 353 888 353 1747 
Q 353 2609 779 3096 
Q 1206 3584 1959 3584 
z
" transform="scale(0.015625)"/>
       <path id="DejaVuSans-6c" d="M 603 4863 
L 1178 4863 
L 1178 0 
L 603 0 
L 603 4863 
z
" transform="scale(0.015625)"/>
       <path id="DejaVuSans-61" d="M 2194 1759 
Q 1497 1759 1228 1600 
Q 959 1441 959 1056 
Q 959 750 1161 570 
Q 1363 391 1709 391 
Q 2188 391 2477 730 
Q 2766 1069 2766 1631 
L 2766 1759 
L 2194 1759 
z
M 3341 1997 
L 3341 0 
L 2766 0 
L 2766 531 
Q 2569 213 2275 61 
Q 1981 -91 1556 -91 
Q 1019 -91 701 211 
Q 384 513 384 1019 
Q 384 1609 779 1909 
Q 1175 2209 1959 2209 
L 2766 2209 
L 2766 2266 
Q 2766 2663 2505 2880 
Q 2244 3097 1772 3097 
Q 1472 3097 1187 3025 
Q 903 2953 641 2809 
L 641 3341 
Q 956 3463 1253 3523 
Q 1550 3584 1831 3584 
Q 2591 3584 2966 3190 
Q 3341 2797 3341 1997 
z
" transform="scale(0.015625)"/>
       <path id="DejaVuSans-74" d="M 1172 4494 
L 1172 3500 
L 2356 3500 
L 2356 3053 
L 1172 3053 
L 1172 1153 
Q 1172 725 1289 603 
Q 1406 481 1766 481 
L 2356 481 
L 2356 0 
L 1766 0 
Q 1100 0 847 248 
Q 594 497 594 1153 
L 594 3053 
L 172 3053 
L 172 3500 
L 594 3500 
L 594 4494 
L 1172 4494 
z
" transform="scale(0.015625)"/>
       <path id="DejaVuSans-69" d="M 603 3500 
L 1178 3500 
L 1178 0 
L 603 0 
L 603 3500 
z
M 603 4863 
L 1178 4863 
L 1178 4134 
L 603 4134 
L 603 4863 
z
" transform="scale(0.015625)"/>
       <path id="DejaVuSans-76" d="M 191 3500 
L 800 3500 
L 1894 563 
L 2988 3500 
L 3597 3500 
L 2284 0 
L 1503 0 
L 191 3500 
z
" transform="scale(0.015625)"/>
      </defs>
      <use xlink:href="#DejaVuSans-65" transform="translate(0 0.015625)"/>
      <use xlink:href="#DejaVuSans-72" transform="translate(61.523438 0.015625)"/>
      <use xlink:href="#DejaVuSans-72" transform="translate(102.636719 0.015625)"/>
      <use xlink:href="#DejaVuSans-6f" transform="translate(143.75 0.015625)"/>
      <use xlink:href="#DejaVuSans-72" transform="translate(204.931641 0.015625)"/>
      <use xlink:href="#DejaVuSans-20" transform="translate(246.044922 0.015625)"/>
      <use xlink:href="#DejaVuSans-72" transform="translate(277.832031 0.015625)"/>
      <use xlink:href="#DejaVuSans-65" transform="translate(318.945312 0.015625)"/>
      <use xlink:href="#DejaVuSans-6c" transform="translate(380.46875 0.015625)"/>
      <use xlink:href="#DejaVuSans-61" transform="translate(408.251953 0.015625)"/>
      <use xlink:href="#DejaVuSans-74" transform="translate(469.53125 0.015625)"/>
      <use xlink:href="#DejaVuSans-69" transform="translate(508.740234 0.015625)"/>
      <use xlink:href="#DejaVuSans-76" transform="translate(536.523438 0.015625)"/>
      <use xlink:href="#DejaVuSans-65" transform="translate(595.703125 0.015625)"/>
      <use xlink:href="#DejaVuSans-20" transform="translate(657.226562 0.015625)"/>
      <use xlink:href="#DejaVuSans-74" transform="translate(689.013672 0.015625)"/>
      <use xlink:href="#DejaVuSans-6f" transform="translate(728.222656 0.015625)"/>
      <use xlink:href="#DejaVuSans-20" transform="translate(789.404297 0.015625)"/>
      <use xlink:href="#DejaVuSans-Oblique-49" transform="translate(821.191406 0.015625)"/>
      <use xlink:href="#DejaVuSans-30" transform="translate(850.683594 -16.390625) scale(0.7)"/>
     </g>
    </g>
   </g>
   <g id="legend_2">
    <g id="patch_19">
     <path d="M 88.4 466.898824 
L 351.3 466.898824 
Q 353.3 466.898824 353.3 464.898824 
L 353.3 436.520699 
Q 353.3 434.520699 351.3 434.520699 
L 88.4 434.520699 
Q 86.4 434.520699 86.4 436.520699 
L 86.4 464.898824 
Q 86.4 466.898824 88.4 466.898824 
z
" style="fill: #ffffff; opacity: 0.8; stroke: #cccccc; stroke-linejoin: miter"/>
    </g>
    <g id="line2d_52">
     <path d="M 90.4 442.619136 
L 100.4 442.619136 
L 110.4 442.619136 
" style="fill: none; stroke: #90ee90; stroke-width: 1.5; stroke-linecap: square"/>
    </g>
    <g id="text_27">
     <!-- $C_0$-Plane of the source LID -->
     <g transform="translate(118.4 446.119136) scale(0.1 -0.1)">
      <defs>
       <path id="DejaVuSans-Oblique-43" d="M 4447 4306 
L 4319 3641 
Q 4019 3944 3683 4091 
Q 3347 4238 2956 4238 
Q 2422 4238 2017 3981 
Q 1613 3725 1319 3200 
Q 1131 2863 1032 2486 
Q 934 2109 934 1728 
Q 934 1091 1264 756 
Q 1594 422 2222 422 
Q 2656 422 3056 561 
Q 3456 700 3834 978 
L 3688 231 
Q 3316 72 2936 -9 
Q 2556 -91 2175 -91 
Q 1278 -91 773 396 
Q 269 884 269 1753 
Q 269 2309 461 2846 
Q 653 3384 1013 3828 
Q 1394 4300 1883 4525 
Q 2372 4750 3022 4750 
Q 3422 4750 3780 4639 
Q 4138 4528 4447 4306 
z
" transform="scale(0.015625)"/>
       <path id="DejaVuSans-50" d="M 1259 4147 
L 1259 2394 
L 2053 2394 
Q 2494 2394 2734 2622 
Q 2975 2850 2975 3272 
Q 2975 3691 2734 3919 
Q 2494 4147 2053 4147 
L 1259 4147 
z
M 628 4666 
L 2053 4666 
Q 2838 4666 3239 4311 
Q 3641 3956 3641 3272 
Q 3641 2581 3239 2228 
Q 2838 1875 2053 1875 
L 1259 1875 
L 1259 0 
L 628 0 
L 628 4666 
z
" transform="scale(0.015625)"/>
       <path id="DejaVuSans-6e" d="M 3513 2113 
L 3513 0 
L 2938 0 
L 2938 2094 
Q 2938 2591 2744 2837 
Q 2550 3084 2163 3084 
Q 1697 3084 1428 2787 
Q 1159 2491 1159 1978 
L 1159 0 
L 581 0 
L 581 3500 
L 1159 3500 
L 1159 2956 
Q 1366 3272 1645 3428 
Q 1925 3584 2291 3584 
Q 2894 3584 3203 3211 
Q 3513 2838 3513 2113 
z
" transform="scale(0.015625)"/>
       <path id="DejaVuSans-66" d="M 2375 4863 
L 2375 4384 
L 1825 4384 
Q 1516 4384 1395 4259 
Q 1275 4134 1275 3809 
L 1275 3500 
L 2222 3500 
L 2222 3053 
L 1275 3053 
L 1275 0 
L 697 0 
L 697 3053 
L 147 3053 
L 147 3500 
L 697 3500 
L 697 3744 
Q 697 4328 969 4595 
Q 1241 4863 1831 4863 
L 2375 4863 
z
" transform="scale(0.015625)"/>
       <path id="DejaVuSans-68" d="M 3513 2113 
L 3513 0 
L 2938 0 
L 2938 2094 
Q 2938 2591 2744 2837 
Q 2550 3084 2163 3084 
Q 1697 3084 1428 2787 
Q 1159 2491 1159 1978 
L 1159 0 
L 581 0 
L 581 4863 
L 1159 4863 
L 1159 2956 
Q 1366 3272 1645 3428 
Q 1925 3584 2291 3584 
Q 2894 3584 3203 3211 
Q 3513 2838 3513 2113 
z
" transform="scale(0.015625)"/>
       <path id="DejaVuSans-73" d="M 2834 3397 
L 2834 2853 
Q 2591 2978 2328 3040 
Q 2066 3103 1784 3103 
Q 1356 3103 1142 2972 
Q 928 2841 928 2578 
Q 928 2378 1081 2264 
Q 1234 2150 1697 2047 
L 1894 2003 
Q 2506 1872 2764 1633 
Q 3022 1394 3022 966 
Q 3022 478 2636 193 
Q 2250 -91 1575 -91 
Q 1294 -91 989 -36 
Q 684 19 347 128 
L 347 722 
Q 666 556 975 473 
Q 1284 391 1588 391 
Q 1994 391 2212 530 
Q 2431 669 2431 922 
Q 2431 1156 2273 1281 
Q 2116 1406 1581 1522 
L 1381 1569 
Q 847 1681 609 1914 
Q 372 2147 372 2553 
Q 372 3047 722 3315 
Q 1072 3584 1716 3584 
Q 2034 3584 2315 3537 
Q 2597 3491 2834 3397 
z
" transform="scale(0.015625)"/>
       <path id="DejaVuSans-75" d="M 544 1381 
L 544 3500 
L 1119 3500 
L 1119 1403 
Q 1119 906 1312 657 
Q 1506 409 1894 409 
Q 2359 409 2629 706 
Q 2900 1003 2900 1516 
L 2900 3500 
L 3475 3500 
L 3475 0 
L 2900 0 
L 2900 538 
Q 2691 219 2414 64 
Q 2138 -91 1772 -91 
Q 1169 -91 856 284 
Q 544 659 544 1381 
z
M 1991 3584 
L 1991 3584 
z
" transform="scale(0.015625)"/>
       <path id="DejaVuSans-63" d="M 3122 3366 
L 3122 2828 
Q 2878 2963 2633 3030 
Q 2388 3097 2138 3097 
Q 1578 3097 1268 2742 
Q 959 2388 959 1747 
Q 959 1106 1268 751 
Q 1578 397 2138 397 
Q 2388 397 2633 464 
Q 2878 531 3122 666 
L 3122 134 
Q 2881 22 2623 -34 
Q 2366 -91 2075 -91 
Q 1284 -91 818 406 
Q 353 903 353 1747 
Q 353 2603 823 3093 
Q 1294 3584 2113 3584 
Q 2378 3584 2631 3529 
Q 2884 3475 3122 3366 
z
" transform="scale(0.015625)"/>
       <path id="DejaVuSans-4c" d="M 628 4666 
L 1259 4666 
L 1259 531 
L 3531 531 
L 3531 0 
L 628 0 
L 628 4666 
z
" transform="scale(0.015625)"/>
       <path id="DejaVuSans-49" d="M 628 4666 
L 1259 4666 
L 1259 0 
L 628 0 
L 628 4666 
z
" transform="scale(0.015625)"/>
       <path id="DejaVuSans-44" d="M 1259 4147 
L 1259 519 
L 2022 519 
Q 2988 519 3436 956 
Q 3884 1394 3884 2338 
Q 3884 3275 3436 3711 
Q 2988 4147 2022 4147 
L 1259 4147 
z
M 628 4666 
L 1925 4666 
Q 3281 4666 3915 4102 
Q 4550 3538 4550 2338 
Q 4550 1131 3912 565 
Q 3275 0 1925 0 
L 628 0 
L 628 4666 
z
" transform="scale(0.015625)"/>
      </defs>
      <use xlink:href="#DejaVuSans-Oblique-43" transform="translate(0 0.015625)"/>
      <use xlink:href="#DejaVuSans-30" transform="translate(69.824219 -16.390625) scale(0.7)"/>
      <use xlink:href="#DejaVuSans-2d" transform="translate(117.094727 0.015625)"/>
      <use xlink:href="#DejaVuSans-50" transform="translate(153.178711 0.015625)"/>
      <use xlink:href="#DejaVuSans-6c" transform="translate(213.481445 0.015625)"/>
      <use xlink:href="#DejaVuSans-61" transform="translate(241.264648 0.015625)"/>
      <use xlink:href="#DejaVuSans-6e" transform="translate(302.543945 0.015625)"/>
      <use xlink:href="#DejaVuSans-65" transform="translate(365.922852 0.015625)"/>
      <use xlink:href="#DejaVuSans-20" transform="translate(427.446289 0.015625)"/>
      <use xlink:href="#DejaVuSans-6f" transform="translate(459.233398 0.015625)"/>
      <use xlink:href="#DejaVuSans-66" transform="translate(520.415039 0.015625)"/>
      <use xlink:href="#DejaVuSans-20" transform="translate(555.620117 0.015625)"/>
      <use xlink:href="#DejaVuSans-74" transform="translate(587.407227 0.015625)"/>
      <use xlink:href="#DejaVuSans-68" transform="translate(626.616211 0.015625)"/>
      <use xlink:href="#DejaVuSans-65" transform="translate(689.995117 0.015625)"/>
      <use xlink:href="#DejaVuSans-20" transform="translate(751.518555 0.015625)"/>
      <use xlink:href="#DejaVuSans-73" transform="translate(783.305664 0.015625)"/>
      <use xlink:href="#DejaVuSans-6f" transform="translate(835.405273 0.015625)"/>
      <use xlink:href="#DejaVuSans-75" transform="translate(896.586914 0.015625)"/>
      <use xlink:href="#DejaVuSans-72" transform="translate(959.96582 0.015625)"/>
      <use xlink:href="#DejaVuSans-63" transform="translate(1001.079102 0.015625)"/>
      <use xlink:href="#DejaVuSans-65" transform="translate(1056.05957 0.015625)"/>
      <use xlink:href="#DejaVuSans-20" transform="translate(1117.583008 0.015625)"/>
      <use xlink:href="#DejaVuSans-4c" transform="translate(1149.370117 0.015625)"/>
      <use xlink:href="#DejaVuSans-49" transform="translate(1205.083008 0.015625)"/>
      <use xlink:href="#DejaVuSans-44" transform="translate(1234.575195 0.015625)"/>
     </g>
    </g>
    <g id="line2d_53">
     <path d="M 90.4 457.298824 
L 100.4 457.298824 
L 110.4 457.298824 
" style="fill: none; stroke: #ff0000; stroke-width: 1.5; stroke-linecap: square"/>
    </g>
    <g id="text_28">
     <!-- $C_0$-Plane of measured LID, error amplified 10x -->
     <g transform="translate(118.4 460.798824) scale(0.1 -0.1)">
      <defs>
       <path id="DejaVuSans-6d" d="M 3328 2828 
Q 3544 3216 3844 3400 
Q 4144 3584 4550 3584 
Q 5097 3584 5394 3201 
Q 5691 2819 5691 2113 
L 5691 0 
L 5113 0 
L 5113 2094 
Q 5113 2597 4934 2840 
Q 4756 3084 4391 3084 
Q 3944 3084 3684 2787 
Q 3425 2491 3425 1978 
L 3425 0 
L 2847 0 
L 2847 2094 
Q 2847 2600 2669 2842 
Q 2491 3084 2119 3084 
Q 1678 3084 1418 2786 
Q 1159 2488 1159 1978 
L 1159 0 
L 581 0 
L 581 3500 
L 1159 3500 
L 1159 2956 
Q 1356 3278 1631 3431 
Q 1906 3584 2284 3584 
Q 2666 3584 2933 3390 
Q 3200 3197 3328 2828 
z
" transform="scale(0.015625)"/>
       <path id="DejaVuSans-64" d="M 2906 2969 
L 2906 4863 
L 3481 4863 
L 3481 0 
L 2906 0 
L 2906 525 
Q 2725 213 2448 61 
Q 2172 -91 1784 -91 
Q 1150 -91 751 415 
Q 353 922 353 1747 
Q 353 2572 751 3078 
Q 1150 3584 1784 3584 
Q 2172 3584 2448 3432 
Q 2725 3281 2906 2969 
z
M 947 1747 
Q 947 1113 1208 752 
Q 1469 391 1925 391 
Q 2381 391 2643 752 
Q 2906 1113 2906 1747 
Q 2906 2381 2643 2742 
Q 2381 3103 1925 3103 
Q 1469 3103 1208 2742 
Q 947 2381 947 1747 
z
" transform="scale(0.015625)"/>
       <path id="DejaVuSans-2c" d="M 750 794 
L 1409 794 
L 1409 256 
L 897 -744 
L 494 -744 
L 750 256 
L 750 794 
z
" transform="scale(0.015625)"/>
       <path id="DejaVuSans-70" d="M 1159 525 
L 1159 -1331 
L 581 -1331 
L 581 3500 
L 1159 3500 
L 1159 2969 
Q 1341 3281 1617 3432 
Q 1894 3584 2278 3584 
Q 2916 3584 3314 3078 
Q 3713 2572 3713 1747 
Q 3713 922 3314 415 
Q 2916 -91 2278 -91 
Q 1894 -91 1617 61 
Q 1341 213 1159 525 
z
M 3116 1747 
Q 3116 2381 2855 2742 
Q 2594 3103 2138 3103 
Q 1681 3103 1420 2742 
Q 1159 2381 1159 1747 
Q 1159 1113 1420 752 
Q 1681 391 2138 391 
Q 2594 391 2855 752 
Q 3116 1113 3116 1747 
z
" transform="scale(0.015625)"/>
       <path id="DejaVuSans-78" d="M 3513 3500 
L 2247 1797 
L 3578 0 
L 2900 0 
L 1881 1375 
L 863 0 
L 184 0 
L 1544 1831 
L 300 3500 
L 978 3500 
L 1906 2253 
L 2834 3500 
L 3513 3500 
z
" transform="scale(0.015625)"/>
      </defs>
      <use xlink:href="#DejaVuSans-Oblique-43" transform="translate(0 0.015625)"/>
      <use xlink:href="#DejaVuSans-30" transform="translate(69.824219 -16.390625) scale(0.7)"/>
      <use xlink:href="#DejaVuSans-2d" transform="translate(117.094727 0.015625)"/>
      <use xlink:href="#DejaVuSans-50" transform="translate(153.178711 0.015625)"/>
      <use xlink:href="#DejaVuSans-6c" transform="translate(213.481445 0.015625)"/>
      <use xlink:href="#DejaVuSans-61" transform="translate(241.264648 0.015625)"/>
      <use xlink:href="#DejaVuSans-6e" transform="translate(302.543945 0.015625)"/>
      <use xlink:href="#DejaVuSans-65" transform="translate(365.922852 0.015625)"/>
      <use xlink:href="#DejaVuSans-20" transform="translate(427.446289 0.015625)"/>
      <use xlink:href="#DejaVuSans-6f" transform="translate(459.233398 0.015625)"/>
      <use xlink:href="#DejaVuSans-66" transform="translate(520.415039 0.015625)"/>
      <use xlink:href="#DejaVuSans-20" transform="translate(555.620117 0.015625)"/>
      <use xlink:href="#DejaVuSans-6d" transform="translate(587.407227 0.015625)"/>
      <use xlink:href="#DejaVuSans-65" transform="translate(684.819336 0.015625)"/>
      <use xlink:href="#DejaVuSans-61" transform="translate(746.342773 0.015625)"/>
      <use xlink:href="#DejaVuSans-73" transform="translate(807.62207 0.015625)"/>
      <use xlink:href="#DejaVuSans-75" transform="translate(859.72168 0.015625)"/>
      <use xlink:href="#DejaVuSans-72" transform="translate(923.100586 0.015625)"/>
      <use xlink:href="#DejaVuSans-65" transform="translate(964.213867 0.015625)"/>
      <use xlink:href="#DejaVuSans-64" transform="translate(1025.737305 0.015625)"/>
      <use xlink:href="#DejaVuSans-20" transform="translate(1089.213867 0.015625)"/>
      <use xlink:href="#DejaVuSans-4c" transform="translate(1121.000977 0.015625)"/>
      <use xlink:href="#DejaVuSans-49" transform="translate(1176.713867 0.015625)"/>
      <use xlink:href="#DejaVuSans-44" transform="translate(1206.206055 0.015625)"/>
      <use xlink:href="#DejaVuSans-2c" transform="translate(1283.208008 0.015625)"/>
      <use xlink:href="#DejaVuSans-20" transform="translate(1314.995117 0.015625)"/>
      <use xlink:href="#DejaVuSans-65" transform="translate(1346.782227 0.015625)"/>
      <use xlink:href="#DejaVuSans-72" transform="translate(1408.305664 0.015625)"/>
      <use xlink:href="#DejaVuSans-72" transform="translate(1449.418945 0.015625)"/>
      <use xlink:href="#DejaVuSans-6f" transform="translate(1490.532227 0.015625)"/>
      <use xlink:href="#DejaVuSans-72" transform="translate(1551.713867 0.015625)"/>
      <use xlink:href="#DejaVuSans-20" transform="translate(1592.827148 0.015625)"/>
      <use xlink:href="#DejaVuSans-61" transform="translate(1624.614258 0.015625)"/>
      <use xlink:href="#DejaVuSans-6d" transform="translate(1685.893555 0.015625)"/>
      <use xlink:href="#DejaVuSans-70" transform="translate(1783.305664 0.015625)"/>
      <use xlink:href="#DejaVuSans-6c" transform="translate(1846.782227 0.015625)"/>
      <use xlink:href="#DejaVuSans-69" transform="translate(1874.56543 0.015625)"/>
      <use xlink:href="#DejaVuSans-66" transform="translate(1902.348633 0.015625)"/>
      <use xlink:href="#DejaVuSans-69" transform="translate(1937.553711 0.015625)"/>
      <use xlink:href="#DejaVuSans-65" transform="translate(1965.336914 0.015625)"/>
      <use xlink:href="#DejaVuSans-64" transform="translate(2026.860352 0.015625)"/>
      <use xlink:href="#DejaVuSans-20" transform="translate(2090.336914 0.015625)"/>
      <use xlink:href="#DejaVuSans-31" transform="translate(2122.124023 0.015625)"/>
      <use xlink:href="#DejaVuSans-30" transform="translate(2185.74707 0.015625)"/>
      <use xlink:href="#DejaVuSans-78" transform="translate(2249.370117 0.015625)"/>
     </g>
    </g>
   </g>
  </g>
 </g>
 <defs>
  <clipPath id="p063b1a6871">
   <path d="M 388.436975 118.394622 
C 308.362511 118.394622 231.485778 150.238007 174.864582 206.859204 
C 118.243385 263.4804 86.4 340.357132 86.4 420.431597 
L 388.436975 420.431597 
C 388.436975 420.431597 388.436975 420.431597 388.436975 420.431597 
C 388.436975 420.431597 388.436975 420.431597 388.436975 420.431597 
z
"/>
  </clipPath>
  <clipPath id="p16e1b88347">
   <rect x="86.4" y="109.101176" width="691.2" height="357.797647"/>
  </clipPath>
 </defs>
</svg>
