<?xml version="1.0" encoding="utf-8" standalone="no"?>
<!DOCTYPE svg PUBLIC "-//W3C//DTD SVG 1.1//EN"
  "http://www.w3.org/Graphics/SVG/1.1/DTD/svg11.dtd">
<svg xmlns:xlink="http://www.w3.org/1999/xlink" width="864pt" height="576pt" viewBox="0 0 864 576" xmlns="http://www.w3.org/2000/svg" version="1.1">
 <metadata>
  <rdf:RDF xmlns:dc="http://purl.org/dc/elements/1.1/" xmlns:cc="http://creativecommons.org/ns#" xmlns:rdf="http://www.w3.org/1999/02/22-rdf-syntax-ns#">
   <cc:Work>
    <dc:type rdf:resource="http://purl.org/dc/dcmitype/StillImage"/>
    <dc:date>2023-08-24T15:07:43.671120</dc:date>
    <dc:format>image/svg+xml</dc:format>
    <dc:creator>
     <cc:Agent>
      <dc:title>Matplotlib v3.7.1, https://matplotlib.org/</dc:title>
     </cc:Agent>
    </dc:creator>
   </cc:Work>
  </rdf:RDF>
 </metadata>
 <defs>
  <style type="text/css">*{stroke-linejoin: round; stroke-linecap: butt}</style>
 </defs>
 <g id="figure_1">
  <g id="patch_1">
   <path d="M 0 576 
L 864 576 
L 864 0 
L 0 0 
z
" style="fill: #ffffff"/>
  </g>
  <g id="axes_1">
   <g id="patch_2">
    <path d="M 392.32 67.84 
C 321.735843 67.84 253.970427 95.909354 204.059891 145.819891 
C 154.149354 195.730427 126.08 263.495843 126.08 334.08 
L 392.32 334.08 
C 392.32 334.08 392.32 334.08 392.32 334.08 
C 392.32 334.08 392.32 334.08 392.32 334.08 
L 392.32 67.84 
z
" style="fill: none; opacity: 0"/>
   </g>
   <g id="matplotlib.axis_1">
    <g id="xtick_1">
     <g id="line2d_1">
      <path d="M 392.32 334.08 
L 130.124784 287.847909 
" clip-path="url(#p6c5ea94b03)" style="fill: none; stroke: #b0b0b0; stroke-width: 0.8; stroke-linecap: square"/>
     </g>
     <g id="text_1">
      <!-- -80° -->
      <g transform="translate(94.34578 286.179256) scale(0.1 -0.1)">
       <defs>
        <path id="DejaVuSans-2d" d="M 313 2009 
L 1997 2009 
L 1997 1497 
L 313 1497 
L 313 2009 
z
" transform="scale(0.015625)"/>
        <path id="DejaVuSans-38" d="M 2034 2216 
Q 1584 2216 1326 1975 
Q 1069 1734 1069 1313 
Q 1069 891 1326 650 
Q 1584 409 2034 409 
Q 2484 409 2743 651 
Q 3003 894 3003 1313 
Q 3003 1734 2745 1975 
Q 2488 2216 2034 2216 
z
M 1403 2484 
Q 997 2584 770 2862 
Q 544 3141 544 3541 
Q 544 4100 942 4425 
Q 1341 4750 2034 4750 
Q 2731 4750 3128 4425 
Q 3525 4100 3525 3541 
Q 3525 3141 3298 2862 
Q 3072 2584 2669 2484 
Q 3125 2378 3379 2068 
Q 3634 1759 3634 1313 
Q 3634 634 3220 271 
Q 2806 -91 2034 -91 
Q 1263 -91 848 271 
Q 434 634 434 1313 
Q 434 1759 690 2068 
Q 947 2378 1403 2484 
z
M 1172 3481 
Q 1172 3119 1398 2916 
Q 1625 2713 2034 2713 
Q 2441 2713 2670 2916 
Q 2900 3119 2900 3481 
Q 2900 3844 2670 4047 
Q 2441 4250 2034 4250 
Q 1625 4250 1398 4047 
Q 1172 3844 1172 3481 
z
" transform="scale(0.015625)"/>
        <path id="DejaVuSans-30" d="M 2034 4250 
Q 1547 4250 1301 3770 
Q 1056 3291 1056 2328 
Q 1056 1369 1301 889 
Q 1547 409 2034 409 
Q 2525 409 2770 889 
Q 3016 1369 3016 2328 
Q 3016 3291 2770 3770 
Q 2525 4250 2034 4250 
z
M 2034 4750 
Q 2819 4750 3233 4129 
Q 3647 3509 3647 2328 
Q 3647 1150 3233 529 
Q 2819 -91 2034 -91 
Q 1250 -91 836 529 
Q 422 1150 422 2328 
Q 422 3509 836 4129 
Q 1250 4750 2034 4750 
z
" transform="scale(0.015625)"/>
        <path id="DejaVuSans-b0" d="M 1600 4347 
Q 1350 4347 1178 4173 
Q 1006 4000 1006 3750 
Q 1006 3503 1178 3333 
Q 1350 3163 1600 3163 
Q 1850 3163 2022 3333 
Q 2194 3503 2194 3750 
Q 2194 3997 2020 4172 
Q 1847 4347 1600 4347 
z
M 1600 4750 
Q 1800 4750 1984 4673 
Q 2169 4597 2303 4453 
Q 2447 4313 2519 4134 
Q 2591 3956 2591 3750 
Q 2591 3338 2302 3052 
Q 2013 2766 1594 2766 
Q 1172 2766 890 3047 
Q 609 3328 609 3750 
Q 609 4169 896 4459 
Q 1184 4750 1600 4750 
z
" transform="scale(0.015625)"/>
       </defs>
       <use xlink:href="#DejaVuSans-2d"/>
       <use xlink:href="#DejaVuSans-38" x="36.083984"/>
       <use xlink:href="#DejaVuSans-30" x="99.707031"/>
       <use xlink:href="#DejaVuSans-b0" x="163.330078"/>
      </g>
     </g>
    </g>
    <g id="xtick_2">
     <g id="line2d_2">
      <path d="M 392.32 334.08 
L 142.136237 243.020557 
" clip-path="url(#p6c5ea94b03)" style="fill: none; stroke: #b0b0b0; stroke-width: 0.8; stroke-linecap: square"/>
     </g>
     <g id="text_2">
      <!-- -70° -->
      <g transform="translate(107.507669 237.058418) scale(0.1 -0.1)">
       <defs>
        <path id="DejaVuSans-37" d="M 525 4666 
L 3525 4666 
L 3525 4397 
L 1831 0 
L 1172 0 
L 2766 4134 
L 525 4134 
L 525 4666 
z
" transform="scale(0.015625)"/>
       </defs>
       <use xlink:href="#DejaVuSans-2d"/>
       <use xlink:href="#DejaVuSans-37" x="36.083984"/>
       <use xlink:href="#DejaVuSans-30" x="99.707031"/>
       <use xlink:href="#DejaVuSans-b0" x="163.330078"/>
      </g>
     </g>
    </g>
    <g id="xtick_3">
     <g id="line2d_3">
      <path d="M 392.32 334.08 
L 161.749396 200.96 
" clip-path="url(#p6c5ea94b03)" style="fill: none; stroke: #b0b0b0; stroke-width: 0.8; stroke-linecap: square"/>
     </g>
     <g id="text_3">
      <!-- -60° -->
      <g transform="translate(128.999342 190.969375) scale(0.1 -0.1)">
       <defs>
        <path id="DejaVuSans-36" d="M 2113 2584 
Q 1688 2584 1439 2293 
Q 1191 2003 1191 1497 
Q 1191 994 1439 701 
Q 1688 409 2113 409 
Q 2538 409 2786 701 
Q 3034 994 3034 1497 
Q 3034 2003 2786 2293 
Q 2538 2584 2113 2584 
z
M 3366 4563 
L 3366 3988 
Q 3128 4100 2886 4159 
Q 2644 4219 2406 4219 
Q 1781 4219 1451 3797 
Q 1122 3375 1075 2522 
Q 1259 2794 1537 2939 
Q 1816 3084 2150 3084 
Q 2853 3084 3261 2657 
Q 3669 2231 3669 1497 
Q 3669 778 3244 343 
Q 2819 -91 2113 -91 
Q 1303 -91 875 529 
Q 447 1150 447 2328 
Q 447 3434 972 4092 
Q 1497 4750 2381 4750 
Q 2619 4750 2861 4703 
Q 3103 4656 3366 4563 
z
" transform="scale(0.015625)"/>
       </defs>
       <use xlink:href="#DejaVuSans-2d"/>
       <use xlink:href="#DejaVuSans-36" x="36.083984"/>
       <use xlink:href="#DejaVuSans-30" x="99.707031"/>
       <use xlink:href="#DejaVuSans-b0" x="163.330078"/>
      </g>
     </g>
    </g>
    <g id="xtick_4">
     <g id="line2d_4">
      <path d="M 392.32 334.08 
L 188.368327 162.944227 
" clip-path="url(#p6c5ea94b03)" style="fill: none; stroke: #b0b0b0; stroke-width: 0.8; stroke-linecap: square"/>
     </g>
     <g id="text_4">
      <!-- -50° -->
      <g transform="translate(158.167788 149.312518) scale(0.1 -0.1)">
       <defs>
        <path id="DejaVuSans-35" d="M 691 4666 
L 3169 4666 
L 3169 4134 
L 1269 4134 
L 1269 2991 
Q 1406 3038 1543 3061 
Q 1681 3084 1819 3084 
Q 2600 3084 3056 2656 
Q 3513 2228 3513 1497 
Q 3513 744 3044 326 
Q 2575 -91 1722 -91 
Q 1428 -91 1123 -41 
Q 819 9 494 109 
L 494 744 
Q 775 591 1075 516 
Q 1375 441 1709 441 
Q 2250 441 2565 725 
Q 2881 1009 2881 1497 
Q 2881 1984 2565 2268 
Q 2250 2553 1709 2553 
Q 1456 2553 1204 2497 
Q 953 2441 691 2322 
L 691 4666 
z
" transform="scale(0.015625)"/>
       </defs>
       <use xlink:href="#DejaVuSans-2d"/>
       <use xlink:href="#DejaVuSans-35" x="36.083984"/>
       <use xlink:href="#DejaVuSans-30" x="99.707031"/>
       <use xlink:href="#DejaVuSans-b0" x="163.330078"/>
      </g>
     </g>
    </g>
    <g id="xtick_5">
     <g id="line2d_5">
      <path d="M 392.32 334.08 
L 221.184227 130.128327 
" clip-path="url(#p6c5ea94b03)" style="fill: none; stroke: #b0b0b0; stroke-width: 0.8; stroke-linecap: square"/>
     </g>
     <g id="text_5">
      <!-- -40° -->
      <g transform="translate(194.126737 113.353569) scale(0.1 -0.1)">
       <defs>
        <path id="DejaVuSans-34" d="M 2419 4116 
L 825 1625 
L 2419 1625 
L 2419 4116 
z
M 2253 4666 
L 3047 4666 
L 3047 1625 
L 3713 1625 
L 3713 1100 
L 3047 1100 
L 3047 0 
L 2419 0 
L 2419 1100 
L 313 1100 
L 313 1709 
L 2253 4666 
z
" transform="scale(0.015625)"/>
       </defs>
       <use xlink:href="#DejaVuSans-2d"/>
       <use xlink:href="#DejaVuSans-34" x="36.083984"/>
       <use xlink:href="#DejaVuSans-30" x="99.707031"/>
       <use xlink:href="#DejaVuSans-b0" x="163.330078"/>
      </g>
     </g>
    </g>
    <g id="xtick_6">
     <g id="line2d_6">
      <path d="M 392.32 334.08 
L 259.2 103.509396 
" clip-path="url(#p6c5ea94b03)" style="fill: none; stroke: #b0b0b0; stroke-width: 0.8; stroke-linecap: square"/>
     </g>
     <g id="text_6">
      <!-- -30° -->
      <g transform="translate(235.783594 84.185124) scale(0.1 -0.1)">
       <defs>
        <path id="DejaVuSans-33" d="M 2597 2516 
Q 3050 2419 3304 2112 
Q 3559 1806 3559 1356 
Q 3559 666 3084 287 
Q 2609 -91 1734 -91 
Q 1441 -91 1130 -33 
Q 819 25 488 141 
L 488 750 
Q 750 597 1062 519 
Q 1375 441 1716 441 
Q 2309 441 2620 675 
Q 2931 909 2931 1356 
Q 2931 1769 2642 2001 
Q 2353 2234 1838 2234 
L 1294 2234 
L 1294 2753 
L 1863 2753 
Q 2328 2753 2575 2939 
Q 2822 3125 2822 3475 
Q 2822 3834 2567 4026 
Q 2313 4219 1838 4219 
Q 1578 4219 1281 4162 
Q 984 4106 628 3988 
L 628 4550 
Q 988 4650 1302 4700 
Q 1616 4750 1894 4750 
Q 2613 4750 3031 4423 
Q 3450 4097 3450 3541 
Q 3450 3153 3228 2886 
Q 3006 2619 2597 2516 
z
" transform="scale(0.015625)"/>
       </defs>
       <use xlink:href="#DejaVuSans-2d"/>
       <use xlink:href="#DejaVuSans-33" x="36.083984"/>
       <use xlink:href="#DejaVuSans-30" x="99.707031"/>
       <use xlink:href="#DejaVuSans-b0" x="163.330078"/>
      </g>
     </g>
    </g>
    <g id="xtick_7">
     <g id="line2d_7">
      <path d="M 392.32 334.08 
L 301.260557 83.896237 
" clip-path="url(#p6c5ea94b03)" style="fill: none; stroke: #b0b0b0; stroke-width: 0.8; stroke-linecap: square"/>
     </g>
     <g id="text_7">
      <!-- -20° -->
      <g transform="translate(281.872637 62.69345) scale(0.1 -0.1)">
       <defs>
        <path id="DejaVuSans-32" d="M 1228 531 
L 3431 531 
L 3431 0 
L 469 0 
L 469 531 
Q 828 903 1448 1529 
Q 2069 2156 2228 2338 
Q 2531 2678 2651 2914 
Q 2772 3150 2772 3378 
Q 2772 3750 2511 3984 
Q 2250 4219 1831 4219 
Q 1534 4219 1204 4116 
Q 875 4013 500 3803 
L 500 4441 
Q 881 4594 1212 4672 
Q 1544 4750 1819 4750 
Q 2544 4750 2975 4387 
Q 3406 4025 3406 3419 
Q 3406 3131 3298 2873 
Q 3191 2616 2906 2266 
Q 2828 2175 2409 1742 
Q 1991 1309 1228 531 
z
" transform="scale(0.015625)"/>
       </defs>
       <use xlink:href="#DejaVuSans-2d"/>
       <use xlink:href="#DejaVuSans-32" x="36.083984"/>
       <use xlink:href="#DejaVuSans-30" x="99.707031"/>
       <use xlink:href="#DejaVuSans-b0" x="163.330078"/>
      </g>
     </g>
    </g>
    <g id="xtick_8">
     <g id="line2d_8">
      <path d="M 392.32 334.08 
L 346.087909 71.884784 
" clip-path="url(#p6c5ea94b03)" style="fill: none; stroke: #b0b0b0; stroke-width: 0.8; stroke-linecap: square"/>
     </g>
     <g id="text_8">
      <!-- -10° -->
      <g transform="translate(330.993474 49.531561) scale(0.1 -0.1)">
       <defs>
        <path id="DejaVuSans-31" d="M 794 531 
L 1825 531 
L 1825 4091 
L 703 3866 
L 703 4441 
L 1819 4666 
L 2450 4666 
L 2450 531 
L 3481 531 
L 3481 0 
L 794 0 
L 794 531 
z
" transform="scale(0.015625)"/>
       </defs>
       <use xlink:href="#DejaVuSans-2d"/>
       <use xlink:href="#DejaVuSans-31" x="36.083984"/>
       <use xlink:href="#DejaVuSans-30" x="99.707031"/>
       <use xlink:href="#DejaVuSans-b0" x="163.330078"/>
      </g>
     </g>
    </g>
   </g>
   <g id="matplotlib.axis_2">
    <g id="ytick_1">
     <g id="line2d_9">
      <path d="M 392.32 334.08 
C 392.32 334.08 392.32 334.08 392.32 334.08 
C 392.32 334.08 392.32 334.08 392.32 334.08 
" clip-path="url(#p6c5ea94b03)" style="fill: none; stroke: #b0b0b0; stroke-width: 0.8; stroke-linecap: square"/>
     </g>
    </g>
    <g id="ytick_2">
     <g id="line2d_10">
      <path d="M 351.36 334.08 
C 351.36 323.220899 355.678362 312.79545 363.356906 305.116906 
C 371.03545 297.438362 381.460899 293.12 392.32 293.12 
" clip-path="url(#p6c5ea94b03)" style="fill: none; stroke: #b0b0b0; stroke-width: 0.8; stroke-linecap: square"/>
     </g>
    </g>
    <g id="ytick_3">
     <g id="line2d_11">
      <path d="M 310.4 334.08 
C 310.4 312.361798 319.036724 291.510901 334.393812 276.153812 
C 349.750901 260.796724 370.601798 252.16 392.32 252.16 
" clip-path="url(#p6c5ea94b03)" style="fill: none; stroke: #b0b0b0; stroke-width: 0.8; stroke-linecap: square"/>
     </g>
    </g>
    <g id="ytick_4">
     <g id="line2d_12">
      <path d="M 269.44 334.08 
C 269.44 301.502697 282.395087 270.226351 305.430719 247.190719 
C 328.466351 224.155087 359.742697 211.2 392.32 211.2 
" clip-path="url(#p6c5ea94b03)" style="fill: none; stroke: #b0b0b0; stroke-width: 0.8; stroke-linecap: square"/>
     </g>
    </g>
    <g id="ytick_5">
     <g id="line2d_13">
      <path d="M 228.48 334.08 
C 228.48 290.643596 245.753449 248.941801 276.467625 218.227625 
C 307.181801 187.513449 348.883596 170.24 392.32 170.24 
" clip-path="url(#p6c5ea94b03)" style="fill: none; stroke: #b0b0b0; stroke-width: 0.8; stroke-linecap: square"/>
     </g>
    </g>
    <g id="ytick_6">
     <g id="line2d_14">
      <path d="M 187.52 334.08 
C 187.52 279.784494 209.111811 227.657251 247.504531 189.264531 
C 285.897251 150.871811 338.024494 129.28 392.32 129.28 
" clip-path="url(#p6c5ea94b03)" style="fill: none; stroke: #b0b0b0; stroke-width: 0.8; stroke-linecap: square"/>
     </g>
    </g>
    <g id="ytick_7">
     <g id="line2d_15">
      <path d="M 146.56 334.08 
C 146.56 268.925393 172.470173 206.372702 218.541437 160.301437 
C 264.612702 114.230173 327.165393 88.32 392.32 88.32 
" clip-path="url(#p6c5ea94b03)" style="fill: none; stroke: #b0b0b0; stroke-width: 0.8; stroke-linecap: square"/>
     </g>
    </g>
   </g>
   <g id="line2d_16">
    <path d="M 388.746292 334.017621 
L 383.395252 333.690337 
L 378.068674 333.08345 
L 372.781159 332.198624 
L 367.547198 331.038282 
L 362.381137 329.605607 
L 357.297137 327.904524 
L 352.309132 325.939697 
L 347.430795 323.71651 
L 342.675495 321.241058 
L 338.056267 318.520125 
L 333.585773 315.561169 
L 329.276265 312.372301 
L 325.139555 308.962261 
L 321.186983 305.340396 
L 317.429381 301.516632 
L 313.877049 297.501451 
L 310.539724 293.305858 
L 307.426553 288.941353 
L 304.546068 284.419899 
L 301.906166 279.753888 
L 299.514083 274.95611 
L 297.376373 270.039715 
L 295.498898 265.018179 
L 293.886802 259.905265 
L 292.544505 254.714988 
L 291.475686 249.461573 
L 290.683274 244.159421 
L 290.169441 238.823063 
L 289.935596 233.467126 
L 289.982379 228.106292 
L 290.309663 222.755252 
L 290.91655 217.428674 
L 291.801376 212.141159 
L 292.961718 206.907198 
L 294.394393 201.741137 
L 296.095476 196.657137 
L 298.060303 191.669132 
L 300.28349 186.790795 
L 302.758942 182.035495 
L 305.479875 177.416267 
L 308.438831 172.945773 
L 311.627699 168.636265 
L 315.037739 164.499555 
L 318.659604 160.546983 
L 322.483368 156.789381 
L 326.498549 153.237049 
L 330.694142 149.899724 
L 335.058647 146.786553 
L 339.580101 143.906068 
L 344.246112 141.266166 
L 349.04389 138.874083 
L 353.960285 136.736373 
L 358.981821 134.858898 
L 364.094735 133.246802 
L 369.285012 131.904505 
L 374.538427 130.835686 
L 379.840579 130.043274 
L 385.176937 129.529441 
L 390.532874 129.295596 
L 392.32 129.28 
L 392.32 129.28 
" clip-path="url(#p6c5ea94b03)" style="fill: none; stroke: #90ee90; stroke-width: 1.5; stroke-linecap: square"/>
   </g>
   <g id="line2d_17">
    <path d="M 368.289949 333.660554 
L 363.056021 332.802307 
L 357.943909 331.67619 
L 352.966922 330.29073 
L 348.137694 328.655095 
L 343.468145 326.779041 
L 338.969468 324.672862 
L 334.652099 322.347333 
L 330.525708 319.813664 
L 326.59918 317.08344 
L 322.88061 314.168575 
L 319.377295 311.081254 
L 316.095736 307.833881 
L 313.041636 304.439034 
L 310.219905 300.909408 
L 307.634672 297.257772 
L 305.289295 293.496916 
L 303.186372 289.639613 
L 301.327764 285.69857 
L 299.714608 281.68639 
L 298.347346 277.615533 
L 297.225743 273.498277 
L 296.348917 269.346687 
L 295.715363 265.172582 
L 295.322985 260.987507 
L 295.169126 256.802705 
L 295.250596 252.629099 
L 295.563707 248.477263 
L 296.104306 244.357414 
L 296.867804 240.279388 
L 297.84921 236.252633 
L 299.043167 232.286199 
L 300.443979 228.388728 
L 302.045646 224.568451 
L 303.841892 220.833186 
L 305.826198 217.190336 
L 307.991831 213.646893 
L 310.331865 210.209441 
L 312.839218 206.88416 
L 315.506667 203.676837 
L 318.326875 200.59287 
L 321.292416 197.637281 
L 324.395788 194.814727 
L 327.629435 192.129511 
L 330.985764 189.585595 
L 334.457156 187.186612 
L 338.035981 184.935884 
L 341.714609 182.836429 
L 345.485416 180.89098 
L 349.340796 179.101997 
L 353.27316 177.47168 
L 357.274947 176.001982 
L 361.33862 174.694619 
L 365.456672 173.551084 
L 369.621623 172.572658 
L 373.826019 171.760414 
L 378.06243 171.115231 
L 382.323447 170.637798 
L 386.601676 170.328618 
L 390.889736 170.188017 
L 392.32 170.178642 
L 392.32 170.178642 
" clip-path="url(#p6c5ea94b03)" style="fill: none; stroke: #ff0000; stroke-width: 1.5; stroke-linecap: square"/>
   </g>
   <g id="line2d_18">
    <path d="M 392.115437 334.076429 
L 392.218103 334.036747 
L 392.230065 334.039014 
L 392.318042 334.078629 
L 392.318042 334.078629 
" clip-path="url(#p6c5ea94b03)" style="fill: none; stroke: #00008b; stroke-width: 1.5; stroke-linecap: square"/>
   </g>
   <g id="patch_3">
    <path d="M 392.32 67.84 
C 321.735843 67.84 253.970427 95.909354 204.059891 145.819891 
C 154.149354 195.730427 126.08 263.495843 126.08 334.08 
" style="fill: none; stroke: #000000; stroke-width: 0.8; stroke-linejoin: miter; stroke-linecap: square"/>
   </g>
   <g id="patch_4">
    <path d="M 392.32 334.08 
L 126.08 334.08 
" style="fill: none; stroke: #000000; stroke-width: 0.8; stroke-linejoin: miter; stroke-linecap: square"/>
   </g>
   <g id="patch_5">
    <path d="M 392.32 334.08 
L 392.32 67.84 
" style="fill: none; stroke: #000000; stroke-width: 0.8; stroke-linejoin: miter; stroke-linecap: square"/>
   </g>
  </g>
  <g id="axes_2">
   <g id="patch_6">
    <path d="M 126.08 518.4 
L 737.92 518.4 
L 737.92 57.6 
L 126.08 57.6 
L 126.08 518.4 
z
" style="fill: none; opacity: 0"/>
   </g>
   <g id="matplotlib.axis_3">
    <g id="xtick_9"/>
    <g id="xtick_10"/>
    <g id="xtick_11"/>
    <g id="xtick_12"/>
    <g id="xtick_13"/>
    <g id="xtick_14"/>
    <g id="xtick_15"/>
    <g id="xtick_16"/>
    <g id="xtick_17"/>
    <g id="xtick_18"/>
    <g id="xtick_19"/>
    <g id="xtick_20"/>
    <g id="xtick_21"/>
    <g id="xtick_22"/>
    <g id="xtick_23"/>
    <g id="xtick_24"/>
    <g id="xtick_25"/>
    <g id="xtick_26"/>
    <g id="xtick_27"/>
   </g>
   <g id="matplotlib.axis_4">
    <g id="ytick_8">
     <g id="line2d_19">
      <defs>
       <path id="mdbd08aba88" d="M 0 0 
L 3.5 0 
" style="stroke: #000000; stroke-width: 0.8"/>
      </defs>
      <g>
       <use xlink:href="#mdbd08aba88" x="780.7488" y="514.381505" style="stroke: #000000; stroke-width: 0.8"/>
      </g>
     </g>
     <g id="text_9">
      <!-- −0.3 -->
      <g transform="translate(787.7488 518.180724) scale(0.1 -0.1)">
       <defs>
        <path id="DejaVuSans-2212" d="M 678 2272 
L 4684 2272 
L 4684 1741 
L 678 1741 
L 678 2272 
z
" transform="scale(0.015625)"/>
        <path id="DejaVuSans-2e" d="M 684 794 
L 1344 794 
L 1344 0 
L 684 0 
L 684 794 
z
" transform="scale(0.015625)"/>
       </defs>
       <use xlink:href="#DejaVuSans-2212"/>
       <use xlink:href="#DejaVuSans-30" x="83.789062"/>
       <use xlink:href="#DejaVuSans-2e" x="147.412109"/>
       <use xlink:href="#DejaVuSans-33" x="179.199219"/>
      </g>
     </g>
    </g>
    <g id="ytick_9">
     <g id="line2d_20">
      <g>
       <use xlink:href="#mdbd08aba88" x="780.7488" y="454.281003" style="stroke: #000000; stroke-width: 0.8"/>
      </g>
     </g>
     <g id="text_10">
      <!-- −0.2 -->
      <g transform="translate(787.7488 458.080222) scale(0.1 -0.1)">
       <use xlink:href="#DejaVuSans-2212"/>
       <use xlink:href="#DejaVuSans-30" x="83.789062"/>
       <use xlink:href="#DejaVuSans-2e" x="147.412109"/>
       <use xlink:href="#DejaVuSans-32" x="179.199219"/>
      </g>
     </g>
    </g>
    <g id="ytick_10">
     <g id="line2d_21">
      <g>
       <use xlink:href="#mdbd08aba88" x="780.7488" y="394.180502" style="stroke: #000000; stroke-width: 0.8"/>
      </g>
     </g>
     <g id="text_11">
      <!-- −0.1 -->
      <g transform="translate(787.7488 397.97972) scale(0.1 -0.1)">
       <use xlink:href="#DejaVuSans-2212"/>
       <use xlink:href="#DejaVuSans-30" x="83.789062"/>
       <use xlink:href="#DejaVuSans-2e" x="147.412109"/>
       <use xlink:href="#DejaVuSans-31" x="179.199219"/>
      </g>
     </g>
    </g>
    <g id="ytick_11">
     <g id="line2d_22">
      <g>
       <use xlink:href="#mdbd08aba88" x="780.7488" y="334.08" style="stroke: #000000; stroke-width: 0.8"/>
      </g>
     </g>
     <g id="text_12">
      <!-- 0.0 -->
      <g transform="translate(787.7488 337.879219) scale(0.1 -0.1)">
       <use xlink:href="#DejaVuSans-30"/>
       <use xlink:href="#DejaVuSans-2e" x="63.623047"/>
       <use xlink:href="#DejaVuSans-30" x="95.410156"/>
      </g>
     </g>
    </g>
    <g id="ytick_12">
     <g id="line2d_23">
      <g>
       <use xlink:href="#mdbd08aba88" x="780.7488" y="273.979498" style="stroke: #000000; stroke-width: 0.8"/>
      </g>
     </g>
     <g id="text_13">
      <!-- 0.1 -->
      <g transform="translate(787.7488 277.778717) scale(0.1 -0.1)">
       <use xlink:href="#DejaVuSans-30"/>
       <use xlink:href="#DejaVuSans-2e" x="63.623047"/>
       <use xlink:href="#DejaVuSans-31" x="95.410156"/>
      </g>
     </g>
    </g>
    <g id="ytick_13">
     <g id="line2d_24">
      <g>
       <use xlink:href="#mdbd08aba88" x="780.7488" y="213.878997" style="stroke: #000000; stroke-width: 0.8"/>
      </g>
     </g>
     <g id="text_14">
      <!-- 0.2 -->
      <g transform="translate(787.7488 217.678216) scale(0.1 -0.1)">
       <use xlink:href="#DejaVuSans-30"/>
       <use xlink:href="#DejaVuSans-2e" x="63.623047"/>
       <use xlink:href="#DejaVuSans-32" x="95.410156"/>
      </g>
     </g>
    </g>
    <g id="ytick_14">
     <g id="line2d_25">
      <g>
       <use xlink:href="#mdbd08aba88" x="780.7488" y="153.778495" style="stroke: #000000; stroke-width: 0.8"/>
      </g>
     </g>
     <g id="text_15">
      <!-- 0.3 -->
      <g transform="translate(787.7488 157.577714) scale(0.1 -0.1)">
       <use xlink:href="#DejaVuSans-30"/>
       <use xlink:href="#DejaVuSans-2e" x="63.623047"/>
       <use xlink:href="#DejaVuSans-33" x="95.410156"/>
      </g>
     </g>
    </g>
    <g id="ytick_15">
     <g id="line2d_26">
      <g>
       <use xlink:href="#mdbd08aba88" x="780.7488" y="93.677994" style="stroke: #000000; stroke-width: 0.8"/>
      </g>
     </g>
     <g id="text_16">
      <!-- 0.4 -->
      <g transform="translate(787.7488 97.477212) scale(0.1 -0.1)">
       <use xlink:href="#DejaVuSans-30"/>
       <use xlink:href="#DejaVuSans-2e" x="63.623047"/>
       <use xlink:href="#DejaVuSans-34" x="95.410156"/>
      </g>
     </g>
    </g>
    <g id="text_17">
     <!-- % -->
     <g transform="translate(773.380519 45.197813) scale(0.14 -0.14)">
      <defs>
       <path id="DejaVuSans-25" d="M 4653 2053 
Q 4381 2053 4226 1822 
Q 4072 1591 4072 1178 
Q 4072 772 4226 539 
Q 4381 306 4653 306 
Q 4919 306 5073 539 
Q 5228 772 5228 1178 
Q 5228 1588 5073 1820 
Q 4919 2053 4653 2053 
z
M 4653 2450 
Q 5147 2450 5437 2106 
Q 5728 1763 5728 1178 
Q 5728 594 5436 251 
Q 5144 -91 4653 -91 
Q 4153 -91 3862 251 
Q 3572 594 3572 1178 
Q 3572 1766 3864 2108 
Q 4156 2450 4653 2450 
z
M 1428 4353 
Q 1159 4353 1004 4120 
Q 850 3888 850 3481 
Q 850 3069 1003 2837 
Q 1156 2606 1428 2606 
Q 1700 2606 1854 2837 
Q 2009 3069 2009 3481 
Q 2009 3884 1853 4118 
Q 1697 4353 1428 4353 
z
M 4250 4750 
L 4750 4750 
L 1831 -91 
L 1331 -91 
L 4250 4750 
z
M 1428 4750 
Q 1922 4750 2215 4408 
Q 2509 4066 2509 3481 
Q 2509 2891 2217 2550 
Q 1925 2209 1428 2209 
Q 931 2209 642 2551 
Q 353 2894 353 3481 
Q 353 4063 643 4406 
Q 934 4750 1428 4750 
z
" transform="scale(0.015625)"/>
      </defs>
      <use xlink:href="#DejaVuSans-25"/>
     </g>
    </g>
   </g>
   <g id="line2d_27">
    <path d="M 392.32 57.6 
" style="fill: none; stroke: #000000; stroke-width: 1.5; stroke-linecap: square"/>
    <defs>
     <path id="m8acece25a4" d="M 0 -2 
L -2 2 
L 2 2 
z
" style="stroke: #000000; stroke-linejoin: miter"/>
    </defs>
    <g>
     <use xlink:href="#m8acece25a4" x="392.32" y="57.6" style="stroke: #000000; stroke-linejoin: miter"/>
    </g>
   </g>
   <g id="line2d_28">
    <path d="M 737.92 334.08 
" style="fill: none; stroke: #000000; stroke-width: 1.5; stroke-linecap: square"/>
    <defs>
     <path id="mccbffc8e58" d="M 2 0 
L -2 -2 
L -2 2 
z
" style="stroke: #000000; stroke-linejoin: miter"/>
    </defs>
    <g>
     <use xlink:href="#mccbffc8e58" x="737.92" y="334.08" style="stroke: #000000; stroke-linejoin: miter"/>
    </g>
   </g>
   <g id="line2d_29">
    <path d="M 392.32 129.28 
L 399.833043 129.404759 
L 407.346087 129.778883 
L 414.85913 130.401916 
L 422.372174 131.2731 
L 429.885217 132.391372 
L 437.398261 133.755371 
L 444.911304 135.363435 
L 452.424348 137.213605 
L 459.937391 139.303625 
L 467.450435 141.630951 
L 474.963478 144.192747 
L 482.476522 146.98589 
L 489.989565 150.006979 
L 497.502609 153.252333 
L 505.015652 156.717997 
L 512.528696 160.39975 
L 520.041739 164.293105 
L 527.554783 168.39332 
L 536.946087 173.801849 
L 546.337391 179.515478 
L 555.728696 185.523329 
L 565.12 191.813966 
L 574.511304 198.375414 
L 583.902609 205.195184 
L 593.293913 212.260293 
L 604.563478 221.043305 
L 615.833043 230.136143 
L 627.102609 239.513884 
L 640.250435 250.780335 
L 653.398261 262.357528 
L 668.424348 275.913657 
L 685.328696 291.499686 
L 705.989565 310.895982 
L 726.650435 330.505747 
L 726.650435 330.505747 
" clip-path="url(#p1963075455)" style="fill: none; stroke: #90ee90; stroke-width: 1.5; stroke-linecap: square"/>
   </g>
   <g id="line2d_30">
    <path d="M 392.32 170.178642 
L 403.589565 170.291557 
L 414.85913 170.631364 
L 426.128696 171.201232 
L 437.398261 172.006381 
L 448.667826 173.053999 
L 459.937391 174.353117 
L 471.206957 175.914453 
L 480.598261 177.424653 
L 489.989565 179.133187 
L 499.38087 181.048355 
L 508.772174 183.178883 
L 518.163478 185.533813 
L 527.554783 188.122385 
L 536.946087 190.953921 
L 546.337391 194.037692 
L 555.728696 197.382796 
L 565.12 200.998024 
L 574.511304 204.891732 
L 583.902609 209.071703 
L 593.293913 213.545025 
L 602.685217 218.317957 
L 612.076522 223.39581 
L 621.467826 228.782822 
L 630.85913 234.48205 
L 640.250435 240.49526 
L 649.641739 246.822826 
L 659.033043 253.463642 
L 668.424348 260.415041 
L 677.815652 267.672719 
L 687.206957 275.230682 
L 696.598261 283.081189 
L 705.989565 291.214724 
L 715.38087 299.619966 
L 724.772174 308.28378 
L 726.650435 310.046288 
L 726.650435 310.046288 
" clip-path="url(#p1963075455)" style="fill: none; stroke: #ff0000; stroke-width: 1.5; stroke-linecap: square"/>
   </g>
   <g id="line2d_31">
    <path d="M 780.7488 57.6 
" style="fill: none; stroke: #000000; stroke-width: 1.5; stroke-linecap: square"/>
    <g>
     <use xlink:href="#m8acece25a4" x="780.7488" y="57.6" style="stroke: #000000; stroke-linejoin: miter"/>
    </g>
   </g>
   <g id="line2d_32">
    <path d="M 392.32 454.100942 
L 397.954783 453.977784 
L 403.589565 453.608645 
L 409.224348 452.994535 
L 414.85913 452.13713 
L 420.493913 451.038771 
L 426.128696 449.702459 
L 431.763478 448.131844 
L 437.398261 446.331215 
L 443.033043 444.30549 
L 448.667826 442.060202 
L 454.302609 439.601485 
L 459.937391 436.936055 
L 465.572174 434.071194 
L 473.085217 429.954755 
L 480.598261 425.517737 
L 488.111304 420.781688 
L 495.624348 415.769612 
L 503.137391 410.505856 
L 512.528696 403.6113 
L 521.92 396.415861 
L 533.189565 387.461216 
L 546.337391 376.696812 
L 595.172174 336.351018 
L 604.563478 328.990464 
L 613.954783 321.896036 
L 623.346087 315.121721 
L 630.85913 309.967498 
L 638.372174 305.076333 
L 645.885217 300.472082 
L 653.398261 296.177207 
L 659.033043 293.17175 
L 664.667826 290.360399 
L 670.302609 287.750882 
L 675.937391 285.350376 
L 681.572174 283.165485 
L 687.206957 281.202225 
L 692.841739 279.466007 
L 698.476522 277.961619 
L 704.111304 276.693217 
L 709.746087 275.66431 
L 715.38087 274.877753 
L 721.015652 274.335735 
L 726.650435 274.039778 
L 726.650435 274.039778 
" clip-path="url(#p1963075455)" style="fill: none; stroke: #00008b; stroke-width: 1.5; stroke-linecap: square"/>
   </g>
   <g id="patch_7">
    <path d="M 780.7488 518.4 
L 780.7488 57.6 
" style="fill: none; stroke: #000000; stroke-width: 0.8; stroke-linejoin: miter; stroke-linecap: square"/>
   </g>
   <g id="patch_8">
    <path d="M 392.32 518.4 
L 392.32 57.6 
" style="fill: none; stroke: #000000; stroke-width: 0.8; stroke-linejoin: miter; stroke-linecap: square"/>
   </g>
   <g id="patch_9">
    <path d="M 126.08 334.08 
L 737.92 334.08 
" style="fill: none; stroke: #000000; stroke-width: 0.8; stroke-linejoin: miter; stroke-linecap: square"/>
   </g>
   <g id="matplotlib.axis_5">
    <g id="xtick_28">
     <g id="line2d_33">
      <defs>
       <path id="mbee7ab4df6" d="M 0 0 
L 0 3.5 
" style="stroke: #000000; stroke-width: 0.8"/>
      </defs>
      <g>
       <use xlink:href="#mbee7ab4df6" x="448.667826" y="334.08" style="stroke: #000000; stroke-width: 0.8"/>
      </g>
     </g>
     <g id="text_18">
      <g id="patch_10">
       <path d="M 442.305326 353.758125 
L 455.030326 353.758125 
Q 458.030326 353.758125 458.030326 350.758125 
L 458.030326 341.08 
Q 458.030326 338.08 455.030326 338.08 
L 442.305326 338.08 
Q 439.305326 338.08 439.305326 341.08 
L 439.305326 350.758125 
Q 439.305326 353.758125 442.305326 353.758125 
z
" style="fill: #ffffff; opacity: 0.7; stroke: #ffffff; stroke-linejoin: miter"/>
      </g>
      <!-- 15 -->
      <g transform="translate(442.305326 348.678437) scale(0.1 -0.1)">
       <use xlink:href="#DejaVuSans-31"/>
       <use xlink:href="#DejaVuSans-35" x="63.623047"/>
      </g>
     </g>
    </g>
    <g id="xtick_29">
     <g id="line2d_34">
      <g>
       <use xlink:href="#mbee7ab4df6" x="505.015652" y="334.08" style="stroke: #000000; stroke-width: 0.8"/>
      </g>
     </g>
     <g id="text_19">
      <g id="patch_11">
       <path d="M 498.653152 353.758125 
L 511.378152 353.758125 
Q 514.378152 353.758125 514.378152 350.758125 
L 514.378152 341.08 
Q 514.378152 338.08 511.378152 338.08 
L 498.653152 338.08 
Q 495.653152 338.08 495.653152 341.08 
L 495.653152 350.758125 
Q 495.653152 353.758125 498.653152 353.758125 
z
" style="fill: #ffffff; opacity: 0.7; stroke: #ffffff; stroke-linejoin: miter"/>
      </g>
      <!-- 30 -->
      <g transform="translate(498.653152 348.678437) scale(0.1 -0.1)">
       <use xlink:href="#DejaVuSans-33"/>
       <use xlink:href="#DejaVuSans-30" x="63.623047"/>
      </g>
     </g>
    </g>
    <g id="xtick_30">
     <g id="line2d_35">
      <g>
       <use xlink:href="#mbee7ab4df6" x="561.363478" y="334.08" style="stroke: #000000; stroke-width: 0.8"/>
      </g>
     </g>
     <g id="text_20">
      <g id="patch_12">
       <path d="M 555.000978 353.758125 
L 567.725978 353.758125 
Q 570.725978 353.758125 570.725978 350.758125 
L 570.725978 341.08 
Q 570.725978 338.08 567.725978 338.08 
L 555.000978 338.08 
Q 552.000978 338.08 552.000978 341.08 
L 552.000978 350.758125 
Q 552.000978 353.758125 555.000978 353.758125 
z
" style="fill: #ffffff; opacity: 0.7; stroke: #ffffff; stroke-linejoin: miter"/>
      </g>
      <!-- 45 -->
      <g transform="translate(555.000978 348.678437) scale(0.1 -0.1)">
       <use xlink:href="#DejaVuSans-34"/>
       <use xlink:href="#DejaVuSans-35" x="63.623047"/>
      </g>
     </g>
    </g>
    <g id="xtick_31">
     <g id="line2d_36">
      <g>
       <use xlink:href="#mbee7ab4df6" x="617.711304" y="334.08" style="stroke: #000000; stroke-width: 0.8"/>
      </g>
     </g>
     <g id="text_21">
      <g id="patch_13">
       <path d="M 611.348804 353.758125 
L 624.073804 353.758125 
Q 627.073804 353.758125 627.073804 350.758125 
L 627.073804 341.08 
Q 627.073804 338.08 624.073804 338.08 
L 611.348804 338.08 
Q 608.348804 338.08 608.348804 341.08 
L 608.348804 350.758125 
Q 608.348804 353.758125 611.348804 353.758125 
z
" style="fill: #ffffff; opacity: 0.7; stroke: #ffffff; stroke-linejoin: miter"/>
      </g>
      <!-- 60 -->
      <g transform="translate(611.348804 348.678437) scale(0.1 -0.1)">
       <use xlink:href="#DejaVuSans-36"/>
       <use xlink:href="#DejaVuSans-30" x="63.623047"/>
      </g>
     </g>
    </g>
    <g id="xtick_32">
     <g id="line2d_37">
      <g>
       <use xlink:href="#mbee7ab4df6" x="674.05913" y="334.08" style="stroke: #000000; stroke-width: 0.8"/>
      </g>
     </g>
     <g id="text_22">
      <g id="patch_14">
       <path d="M 667.69663 353.758125 
L 680.42163 353.758125 
Q 683.42163 353.758125 683.42163 350.758125 
L 683.42163 341.08 
Q 683.42163 338.08 680.42163 338.08 
L 667.69663 338.08 
Q 664.69663 338.08 664.69663 341.08 
L 664.69663 350.758125 
Q 664.69663 353.758125 667.69663 353.758125 
z
" style="fill: #ffffff; opacity: 0.7; stroke: #ffffff; stroke-linejoin: miter"/>
      </g>
      <!-- 75 -->
      <g transform="translate(667.69663 348.678437) scale(0.1 -0.1)">
       <use xlink:href="#DejaVuSans-37"/>
       <use xlink:href="#DejaVuSans-35" x="63.623047"/>
      </g>
     </g>
    </g>
    <g id="xtick_33">
     <g id="line2d_38">
      <g>
       <use xlink:href="#mbee7ab4df6" x="730.406957" y="334.08" style="stroke: #000000; stroke-width: 0.8"/>
      </g>
     </g>
     <g id="text_23">
      <g id="patch_15">
       <path d="M 724.044457 353.758125 
L 736.769457 353.758125 
Q 739.769457 353.758125 739.769457 350.758125 
L 739.769457 341.08 
Q 739.769457 338.08 736.769457 338.08 
L 724.044457 338.08 
Q 721.044457 338.08 721.044457 341.08 
L 721.044457 350.758125 
Q 721.044457 353.758125 724.044457 353.758125 
z
" style="fill: #ffffff; opacity: 0.7; stroke: #ffffff; stroke-linejoin: miter"/>
      </g>
      <!-- 90 -->
      <g transform="translate(724.044457 348.678437) scale(0.1 -0.1)">
       <defs>
        <path id="DejaVuSans-39" d="M 703 97 
L 703 672 
Q 941 559 1184 500 
Q 1428 441 1663 441 
Q 2288 441 2617 861 
Q 2947 1281 2994 2138 
Q 2813 1869 2534 1725 
Q 2256 1581 1919 1581 
Q 1219 1581 811 2004 
Q 403 2428 403 3163 
Q 403 3881 828 4315 
Q 1253 4750 1959 4750 
Q 2769 4750 3195 4129 
Q 3622 3509 3622 2328 
Q 3622 1225 3098 567 
Q 2575 -91 1691 -91 
Q 1453 -91 1209 -44 
Q 966 3 703 97 
z
M 1959 2075 
Q 2384 2075 2632 2365 
Q 2881 2656 2881 3163 
Q 2881 3666 2632 3958 
Q 2384 4250 1959 4250 
Q 1534 4250 1286 3958 
Q 1038 3666 1038 3163 
Q 1038 2656 1286 2365 
Q 1534 2075 1959 2075 
z
" transform="scale(0.015625)"/>
       </defs>
       <use xlink:href="#DejaVuSans-39"/>
       <use xlink:href="#DejaVuSans-30" x="63.623047"/>
      </g>
     </g>
    </g>
    <g id="xtick_34">
     <g id="line2d_39">
      <defs>
       <path id="me351b4a17d" d="M 0 0 
L 0 2 
" style="stroke: #000000; stroke-width: 0.6"/>
      </defs>
      <g>
       <use xlink:href="#me351b4a17d" x="392.32" y="334.08" style="stroke: #000000; stroke-width: 0.6"/>
      </g>
     </g>
    </g>
    <g id="xtick_35">
     <g id="line2d_40">
      <g>
       <use xlink:href="#me351b4a17d" x="411.102609" y="334.08" style="stroke: #000000; stroke-width: 0.6"/>
      </g>
     </g>
    </g>
    <g id="xtick_36">
     <g id="line2d_41">
      <g>
       <use xlink:href="#me351b4a17d" x="429.885217" y="334.08" style="stroke: #000000; stroke-width: 0.6"/>
      </g>
     </g>
    </g>
    <g id="xtick_37">
     <g id="line2d_42">
      <g>
       <use xlink:href="#me351b4a17d" x="467.450435" y="334.08" style="stroke: #000000; stroke-width: 0.6"/>
      </g>
     </g>
    </g>
    <g id="xtick_38">
     <g id="line2d_43">
      <g>
       <use xlink:href="#me351b4a17d" x="486.233043" y="334.08" style="stroke: #000000; stroke-width: 0.6"/>
      </g>
     </g>
    </g>
    <g id="xtick_39">
     <g id="line2d_44">
      <g>
       <use xlink:href="#me351b4a17d" x="523.798261" y="334.08" style="stroke: #000000; stroke-width: 0.6"/>
      </g>
     </g>
    </g>
    <g id="xtick_40">
     <g id="line2d_45">
      <g>
       <use xlink:href="#me351b4a17d" x="542.58087" y="334.08" style="stroke: #000000; stroke-width: 0.6"/>
      </g>
     </g>
    </g>
    <g id="xtick_41">
     <g id="line2d_46">
      <g>
       <use xlink:href="#me351b4a17d" x="580.146087" y="334.08" style="stroke: #000000; stroke-width: 0.6"/>
      </g>
     </g>
    </g>
    <g id="xtick_42">
     <g id="line2d_47">
      <g>
       <use xlink:href="#me351b4a17d" x="598.928696" y="334.08" style="stroke: #000000; stroke-width: 0.6"/>
      </g>
     </g>
    </g>
    <g id="xtick_43">
     <g id="line2d_48">
      <g>
       <use xlink:href="#me351b4a17d" x="636.493913" y="334.08" style="stroke: #000000; stroke-width: 0.6"/>
      </g>
     </g>
    </g>
    <g id="xtick_44">
     <g id="line2d_49">
      <g>
       <use xlink:href="#me351b4a17d" x="655.276522" y="334.08" style="stroke: #000000; stroke-width: 0.6"/>
      </g>
     </g>
    </g>
    <g id="xtick_45">
     <g id="line2d_50">
      <g>
       <use xlink:href="#me351b4a17d" x="692.841739" y="334.08" style="stroke: #000000; stroke-width: 0.6"/>
      </g>
     </g>
    </g>
    <g id="xtick_46">
     <g id="line2d_51">
      <g>
       <use xlink:href="#me351b4a17d" x="711.624348" y="334.08" style="stroke: #000000; stroke-width: 0.6"/>
      </g>
     </g>
    </g>
    <g id="text_24">
     <!-- $\theta$ / ° -->
     <g transform="translate(741.6452 337.395938) scale(0.14 -0.14)">
      <defs>
       <path id="DejaVuSans-Oblique-3b8" d="M 2913 2219 
L 925 2219 
Q 791 1284 928 888 
Q 1100 400 1566 400 
Q 2034 400 2391 891 
Q 2703 1322 2913 2219 
z
M 3009 2750 
Q 3094 3638 2984 3950 
Q 2813 4444 2353 4444 
Q 1875 4444 1525 3956 
Q 1250 3563 1034 2750 
L 3009 2750 
z
M 2444 4913 
Q 3194 4913 3494 4250 
Q 3794 3591 3566 2422 
Q 3341 1256 2781 594 
Q 2225 -72 1475 -72 
Q 722 -72 425 594 
Q 128 1256 353 2422 
Q 581 3591 1134 4250 
Q 1691 4913 2444 4913 
z
" transform="scale(0.015625)"/>
       <path id="DejaVuSans-20" transform="scale(0.015625)"/>
       <path id="DejaVuSans-2f" d="M 1625 4666 
L 2156 4666 
L 531 -594 
L 0 -594 
L 1625 4666 
z
" transform="scale(0.015625)"/>
      </defs>
      <use xlink:href="#DejaVuSans-Oblique-3b8" transform="translate(0 0.234375)"/>
      <use xlink:href="#DejaVuSans-20" transform="translate(61.181641 0.234375)"/>
      <use xlink:href="#DejaVuSans-2f" transform="translate(92.96875 0.234375)"/>
      <use xlink:href="#DejaVuSans-20" transform="translate(126.660156 0.234375)"/>
      <use xlink:href="#DejaVuSans-b0" transform="translate(158.447266 0.234375)"/>
     </g>
    </g>
   </g>
   <g id="matplotlib.axis_6">
    <g id="ytick_16">
     <g id="line2d_52">
      <g>
       <use xlink:href="#mdbd08aba88" x="392.32" y="293.12" style="stroke: #000000; stroke-width: 0.8"/>
      </g>
     </g>
     <g id="text_25">
      <g id="patch_16">
       <path d="M 402.32 301.998906 
L 415.045 301.998906 
Q 418.045 301.998906 418.045 298.998906 
L 418.045 289.320781 
Q 418.045 286.320781 415.045 286.320781 
L 402.32 286.320781 
Q 399.32 286.320781 399.32 289.320781 
L 399.32 298.998906 
Q 399.32 301.998906 402.32 301.998906 
z
" style="fill: #ffffff; opacity: 0.7; stroke: #ffffff; stroke-linejoin: miter"/>
      </g>
      <!-- 20 -->
      <g transform="translate(402.32 296.919219) scale(0.1 -0.1)">
       <use xlink:href="#DejaVuSans-32"/>
       <use xlink:href="#DejaVuSans-30" x="63.623047"/>
      </g>
     </g>
    </g>
    <g id="ytick_17">
     <g id="line2d_53">
      <g>
       <use xlink:href="#mdbd08aba88" x="392.32" y="252.16" style="stroke: #000000; stroke-width: 0.8"/>
      </g>
     </g>
     <g id="text_26">
      <g id="patch_17">
       <path d="M 402.32 261.038906 
L 415.045 261.038906 
Q 418.045 261.038906 418.045 258.038906 
L 418.045 248.360781 
Q 418.045 245.360781 415.045 245.360781 
L 402.32 245.360781 
Q 399.32 245.360781 399.32 248.360781 
L 399.32 258.038906 
Q 399.32 261.038906 402.32 261.038906 
z
" style="fill: #ffffff; opacity: 0.7; stroke: #ffffff; stroke-linejoin: miter"/>
      </g>
      <!-- 40 -->
      <g transform="translate(402.32 255.959219) scale(0.1 -0.1)">
       <use xlink:href="#DejaVuSans-34"/>
       <use xlink:href="#DejaVuSans-30" x="63.623047"/>
      </g>
     </g>
    </g>
    <g id="ytick_18">
     <g id="line2d_54">
      <g>
       <use xlink:href="#mdbd08aba88" x="392.32" y="211.2" style="stroke: #000000; stroke-width: 0.8"/>
      </g>
     </g>
     <g id="text_27">
      <g id="patch_18">
       <path d="M 402.32 220.078906 
L 415.045 220.078906 
Q 418.045 220.078906 418.045 217.078906 
L 418.045 207.400781 
Q 418.045 204.400781 415.045 204.400781 
L 402.32 204.400781 
Q 399.32 204.400781 399.32 207.400781 
L 399.32 217.078906 
Q 399.32 220.078906 402.32 220.078906 
z
" style="fill: #ffffff; opacity: 0.7; stroke: #ffffff; stroke-linejoin: miter"/>
      </g>
      <!-- 60 -->
      <g transform="translate(402.32 214.999219) scale(0.1 -0.1)">
       <use xlink:href="#DejaVuSans-36"/>
       <use xlink:href="#DejaVuSans-30" x="63.623047"/>
      </g>
     </g>
    </g>
    <g id="ytick_19">
     <g id="line2d_55">
      <g>
       <use xlink:href="#mdbd08aba88" x="392.32" y="170.24" style="stroke: #000000; stroke-width: 0.8"/>
      </g>
     </g>
     <g id="text_28">
      <g id="patch_19">
       <path d="M 402.32 179.118906 
L 415.045 179.118906 
Q 418.045 179.118906 418.045 176.118906 
L 418.045 166.440781 
Q 418.045 163.440781 415.045 163.440781 
L 402.32 163.440781 
Q 399.32 163.440781 399.32 166.440781 
L 399.32 176.118906 
Q 399.32 179.118906 402.32 179.118906 
z
" style="fill: #ffffff; opacity: 0.7; stroke: #ffffff; stroke-linejoin: miter"/>
      </g>
      <!-- 80 -->
      <g transform="translate(402.32 174.039219) scale(0.1 -0.1)">
       <use xlink:href="#DejaVuSans-38"/>
       <use xlink:href="#DejaVuSans-30" x="63.623047"/>
      </g>
     </g>
    </g>
    <g id="ytick_20">
     <g id="line2d_56">
      <g>
       <use xlink:href="#mdbd08aba88" x="392.32" y="129.28" style="stroke: #000000; stroke-width: 0.8"/>
      </g>
     </g>
     <g id="text_29">
      <g id="patch_20">
       <path d="M 402.32 138.158906 
L 421.4075 138.158906 
Q 424.4075 138.158906 424.4075 135.158906 
L 424.4075 125.480781 
Q 424.4075 122.480781 421.4075 122.480781 
L 402.32 122.480781 
Q 399.32 122.480781 399.32 125.480781 
L 399.32 135.158906 
Q 399.32 138.158906 402.32 138.158906 
z
" style="fill: #ffffff; opacity: 0.7; stroke: #ffffff; stroke-linejoin: miter"/>
      </g>
      <!-- 100 -->
      <g transform="translate(402.32 133.079219) scale(0.1 -0.1)">
       <use xlink:href="#DejaVuSans-31"/>
       <use xlink:href="#DejaVuSans-30" x="63.623047"/>
       <use xlink:href="#DejaVuSans-30" x="127.246094"/>
      </g>
     </g>
    </g>
    <g id="ytick_21">
     <g id="line2d_57">
      <g>
       <use xlink:href="#mdbd08aba88" x="392.32" y="88.32" style="stroke: #000000; stroke-width: 0.8"/>
      </g>
     </g>
     <g id="text_30">
      <g id="patch_21">
       <path d="M 402.32 97.198906 
L 421.4075 97.198906 
Q 424.4075 97.198906 424.4075 94.198906 
L 424.4075 84.520781 
Q 424.4075 81.520781 421.4075 81.520781 
L 402.32 81.520781 
Q 399.32 81.520781 399.32 84.520781 
L 399.32 94.198906 
Q 399.32 97.198906 402.32 97.198906 
z
" style="fill: #ffffff; opacity: 0.7; stroke: #ffffff; stroke-linejoin: miter"/>
      </g>
      <!-- 120 -->
      <g transform="translate(402.32 92.119219) scale(0.1 -0.1)">
       <use xlink:href="#DejaVuSans-31"/>
       <use xlink:href="#DejaVuSans-32" x="63.623047"/>
       <use xlink:href="#DejaVuSans-30" x="127.246094"/>
      </g>
     </g>
    </g>
    <g id="ytick_22">
     <g id="line2d_58">
      <defs>
       <path id="m799df28ac0" d="M 0 0 
L 2 0 
" style="stroke: #000000; stroke-width: 0.6"/>
      </defs>
      <g>
       <use xlink:href="#m799df28ac0" x="392.32" y="334.08" style="stroke: #000000; stroke-width: 0.6"/>
      </g>
     </g>
    </g>
    <g id="ytick_23">
     <g id="line2d_59">
      <g>
       <use xlink:href="#m799df28ac0" x="392.32" y="313.6" style="stroke: #000000; stroke-width: 0.6"/>
      </g>
     </g>
    </g>
    <g id="ytick_24">
     <g id="line2d_60">
      <g>
       <use xlink:href="#m799df28ac0" x="392.32" y="272.64" style="stroke: #000000; stroke-width: 0.6"/>
      </g>
     </g>
    </g>
    <g id="ytick_25">
     <g id="line2d_61">
      <g>
       <use xlink:href="#m799df28ac0" x="392.32" y="231.68" style="stroke: #000000; stroke-width: 0.6"/>
      </g>
     </g>
    </g>
    <g id="ytick_26">
     <g id="line2d_62">
      <g>
       <use xlink:href="#m799df28ac0" x="392.32" y="190.72" style="stroke: #000000; stroke-width: 0.6"/>
      </g>
     </g>
    </g>
    <g id="ytick_27">
     <g id="line2d_63">
      <g>
       <use xlink:href="#m799df28ac0" x="392.32" y="149.76" style="stroke: #000000; stroke-width: 0.6"/>
      </g>
     </g>
    </g>
    <g id="ytick_28">
     <g id="line2d_64">
      <g>
       <use xlink:href="#m799df28ac0" x="392.32" y="108.8" style="stroke: #000000; stroke-width: 0.6"/>
      </g>
     </g>
    </g>
    <g id="ytick_29">
     <g id="line2d_65">
      <g>
       <use xlink:href="#m799df28ac0" x="392.32" y="67.84" style="stroke: #000000; stroke-width: 0.6"/>
      </g>
     </g>
    </g>
    <g id="text_31">
     <!-- $I$ / $cd$ -->
     <g transform="translate(380.1 45.472438) scale(0.14 -0.14)">
      <defs>
       <path id="DejaVuSans-Oblique-49" d="M 1081 4666 
L 1716 4666 
L 806 0 
L 172 0 
L 1081 4666 
z
" transform="scale(0.015625)"/>
       <path id="DejaVuSans-Oblique-63" d="M 3431 3366 
L 3316 2797 
Q 3109 2947 2876 3022 
Q 2644 3097 2394 3097 
Q 2119 3097 1870 3000 
Q 1622 2903 1453 2725 
Q 1184 2453 1037 2087 
Q 891 1722 891 1331 
Q 891 859 1127 628 
Q 1363 397 1844 397 
Q 2081 397 2348 469 
Q 2616 541 2906 684 
L 2797 116 
Q 2547 13 2283 -39 
Q 2019 -91 1741 -91 
Q 1044 -91 669 257 
Q 294 606 294 1253 
Q 294 1797 489 2255 
Q 684 2713 1069 3078 
Q 1331 3328 1684 3456 
Q 2038 3584 2456 3584 
Q 2700 3584 2940 3529 
Q 3181 3475 3431 3366 
z
" transform="scale(0.015625)"/>
       <path id="DejaVuSans-Oblique-64" d="M 2675 525 
Q 2444 222 2128 65 
Q 1813 -91 1428 -91 
Q 903 -91 598 267 
Q 294 625 294 1247 
Q 294 1766 478 2236 
Q 663 2706 1013 3078 
Q 1244 3325 1534 3454 
Q 1825 3584 2144 3584 
Q 2481 3584 2739 3421 
Q 2997 3259 3138 2956 
L 3513 4863 
L 4091 4863 
L 3144 0 
L 2566 0 
L 2675 525 
z
M 891 1350 
Q 891 897 1095 644 
Q 1300 391 1663 391 
Q 1931 391 2161 520 
Q 2391 650 2566 903 
Q 2750 1166 2856 1509 
Q 2963 1853 2963 2188 
Q 2963 2622 2758 2865 
Q 2553 3109 2194 3109 
Q 1922 3109 1687 2981 
Q 1453 2853 1288 2613 
Q 1106 2353 998 2009 
Q 891 1666 891 1350 
z
" transform="scale(0.015625)"/>
      </defs>
      <use xlink:href="#DejaVuSans-Oblique-49" transform="translate(0 0.015625)"/>
      <use xlink:href="#DejaVuSans-20" transform="translate(29.492188 0.015625)"/>
      <use xlink:href="#DejaVuSans-2f" transform="translate(61.279297 0.015625)"/>
      <use xlink:href="#DejaVuSans-20" transform="translate(94.970703 0.015625)"/>
      <use xlink:href="#DejaVuSans-Oblique-63" transform="translate(126.757812 0.015625)"/>
      <use xlink:href="#DejaVuSans-Oblique-64" transform="translate(181.738281 0.015625)"/>
     </g>
    </g>
   </g>
   <g id="legend_1">
    <g id="patch_22">
     <path d="M 609.12 80.278125 
L 730.92 80.278125 
Q 732.92 80.278125 732.92 78.278125 
L 732.92 64.6 
Q 732.92 62.6 730.92 62.6 
L 609.12 62.6 
Q 607.12 62.6 607.12 64.6 
L 607.12 78.278125 
Q 607.12 80.278125 609.12 80.278125 
z
" style="fill: #ffffff; opacity: 0.8; stroke: #cccccc; stroke-linejoin: miter"/>
    </g>
    <g id="line2d_66">
     <path d="M 611.12 70.698438 
L 621.12 70.698438 
L 631.12 70.698438 
" style="fill: none; stroke: #00008b; stroke-width: 1.5; stroke-linecap: square"/>
    </g>
    <g id="text_32">
     <!-- error relative to $I_0$ -->
     <g transform="translate(639.12 74.198438) scale(0.1 -0.1)">
      <defs>
       <path id="DejaVuSans-65" d="M 3597 1894 
L 3597 1613 
L 953 1613 
Q 991 1019 1311 708 
Q 1631 397 2203 397 
Q 2534 397 2845 478 
Q 3156 559 3463 722 
L 3463 178 
Q 3153 47 2828 -22 
Q 2503 -91 2169 -91 
Q 1331 -91 842 396 
Q 353 884 353 1716 
Q 353 2575 817 3079 
Q 1281 3584 2069 3584 
Q 2775 3584 3186 3129 
Q 3597 2675 3597 1894 
z
M 3022 2063 
Q 3016 2534 2758 2815 
Q 2500 3097 2075 3097 
Q 1594 3097 1305 2825 
Q 1016 2553 972 2059 
L 3022 2063 
z
" transform="scale(0.015625)"/>
       <path id="DejaVuSans-72" d="M 2631 2963 
Q 2534 3019 2420 3045 
Q 2306 3072 2169 3072 
Q 1681 3072 1420 2755 
Q 1159 2438 1159 1844 
L 1159 0 
L 581 0 
L 581 3500 
L 1159 3500 
L 1159 2956 
Q 1341 3275 1631 3429 
Q 1922 3584 2338 3584 
Q 2397 3584 2469 3576 
Q 2541 3569 2628 3553 
L 2631 2963 
z
" transform="scale(0.015625)"/>
       <path id="DejaVuSans-6f" d="M 1959 3097 
Q 1497 3097 1228 2736 
Q 959 2375 959 1747 
Q 959 1119 1226 758 
Q 1494 397 1959 397 
Q 2419 397 2687 759 
Q 2956 1122 2956 1747 
Q 2956 2369 2687 2733 
Q 2419 3097 1959 3097 
z
M 1959 3584 
Q 2709 3584 3137 3096 
Q 3566 2609 3566 1747 
Q 3566 888 3137 398 
Q 2709 -91 1959 -91 
Q 1206 -91 779 398 
Q 353 888 353 1747 
Q 353 2609 779 3096 
Q 1206 3584 1959 3584 
z
" transform="scale(0.015625)"/>
       <path id="DejaVuSans-6c" d="M 603 4863 
L 1178 4863 
L 1178 0 
L 603 0 
L 603 4863 
z
" transform="scale(0.015625)"/>
       <path id="DejaVuSans-61" d="M 2194 1759 
Q 1497 1759 1228 1600 
Q 959 1441 959 1056 
Q 959 750 1161 570 
Q 1363 391 1709 391 
Q 2188 391 2477 730 
Q 2766 1069 2766 1631 
L 2766 1759 
L 2194 1759 
z
M 3341 1997 
L 3341 0 
L 2766 0 
L 2766 531 
Q 2569 213 2275 61 
Q 1981 -91 1556 -91 
Q 1019 -91 701 211 
Q 384 513 384 1019 
Q 384 1609 779 1909 
Q 1175 2209 1959 2209 
L 2766 2209 
L 2766 2266 
Q 2766 2663 2505 2880 
Q 2244 3097 1772 3097 
Q 1472 3097 1187 3025 
Q 903 2953 641 2809 
L 641 3341 
Q 956 3463 1253 3523 
Q 1550 3584 1831 3584 
Q 2591 3584 2966 3190 
Q 3341 2797 3341 1997 
z
" transform="scale(0.015625)"/>
       <path id="DejaVuSans-74" d="M 1172 4494 
L 1172 3500 
L 2356 3500 
L 2356 3053 
L 1172 3053 
L 1172 1153 
Q 1172 725 1289 603 
Q 1406 481 1766 481 
L 2356 481 
L 2356 0 
L 1766 0 
Q 1100 0 847 248 
Q 594 497 594 1153 
L 594 3053 
L 172 3053 
L 172 3500 
L 594 3500 
L 594 4494 
L 1172 4494 
z
" transform="scale(0.015625)"/>
       <path id="DejaVuSans-69" d="M 603 3500 
L 1178 3500 
L 1178 0 
L 603 0 
L 603 3500 
z
M 603 4863 
L 1178 4863 
L 1178 4134 
L 603 4134 
L 603 4863 
z
" transform="scale(0.015625)"/>
       <path id="DejaVuSans-76" d="M 191 3500 
L 800 3500 
L 1894 563 
L 2988 3500 
L 3597 3500 
L 2284 0 
L 1503 0 
L 191 3500 
z
" transform="scale(0.015625)"/>
      </defs>
      <use xlink:href="#DejaVuSans-65" transform="translate(0 0.015625)"/>
      <use xlink:href="#DejaVuSans-72" transform="translate(61.523438 0.015625)"/>
      <use xlink:href="#DejaVuSans-72" transform="translate(102.636719 0.015625)"/>
      <use xlink:href="#DejaVuSans-6f" transform="translate(143.75 0.015625)"/>
      <use xlink:href="#DejaVuSans-72" transform="translate(204.931641 0.015625)"/>
      <use xlink:href="#DejaVuSans-20" transform="translate(246.044922 0.015625)"/>
      <use xlink:href="#DejaVuSans-72" transform="translate(277.832031 0.015625)"/>
      <use xlink:href="#DejaVuSans-65" transform="translate(318.945312 0.015625)"/>
      <use xlink:href="#DejaVuSans-6c" transform="translate(380.46875 0.015625)"/>
      <use xlink:href="#DejaVuSans-61" transform="translate(408.251953 0.015625)"/>
      <use xlink:href="#DejaVuSans-74" transform="translate(469.53125 0.015625)"/>
      <use xlink:href="#DejaVuSans-69" transform="translate(508.740234 0.015625)"/>
      <use xlink:href="#DejaVuSans-76" transform="translate(536.523438 0.015625)"/>
      <use xlink:href="#DejaVuSans-65" transform="translate(595.703125 0.015625)"/>
      <use xlink:href="#DejaVuSans-20" transform="translate(657.226562 0.015625)"/>
      <use xlink:href="#DejaVuSans-74" transform="translate(689.013672 0.015625)"/>
      <use xlink:href="#DejaVuSans-6f" transform="translate(728.222656 0.015625)"/>
      <use xlink:href="#DejaVuSans-20" transform="translate(789.404297 0.015625)"/>
      <use xlink:href="#DejaVuSans-Oblique-49" transform="translate(821.191406 0.015625)"/>
      <use xlink:href="#DejaVuSans-30" transform="translate(850.683594 -16.390625) scale(0.7)"/>
     </g>
    </g>
   </g>
   <g id="legend_2">
    <g id="patch_23">
     <path d="M 97.488 472.32 
L 366.788 472.32 
Q 368.788 472.32 368.788 470.32 
L 368.788 441.941875 
Q 368.788 439.941875 366.788 439.941875 
L 97.488 439.941875 
Q 95.488 439.941875 95.488 441.941875 
L 95.488 470.32 
Q 95.488 472.32 97.488 472.32 
z
" style="fill: #ffffff; opacity: 0.8; stroke: #cccccc; stroke-linejoin: miter"/>
    </g>
    <g id="line2d_67">
     <path d="M 99.488 448.040313 
L 109.488 448.040313 
L 119.488 448.040313 
" style="fill: none; stroke: #90ee90; stroke-width: 1.5; stroke-linecap: square"/>
    </g>
    <g id="text_33">
     <!-- $C_0$-Plane of the source LID -->
     <g transform="translate(127.488 451.540313) scale(0.1 -0.1)">
      <defs>
       <path id="DejaVuSans-Oblique-43" d="M 4447 4306 
L 4319 3641 
Q 4019 3944 3683 4091 
Q 3347 4238 2956 4238 
Q 2422 4238 2017 3981 
Q 1613 3725 1319 3200 
Q 1131 2863 1032 2486 
Q 934 2109 934 1728 
Q 934 1091 1264 756 
Q 1594 422 2222 422 
Q 2656 422 3056 561 
Q 3456 700 3834 978 
L 3688 231 
Q 3316 72 2936 -9 
Q 2556 -91 2175 -91 
Q 1278 -91 773 396 
Q 269 884 269 1753 
Q 269 2309 461 2846 
Q 653 3384 1013 3828 
Q 1394 4300 1883 4525 
Q 2372 4750 3022 4750 
Q 3422 4750 3780 4639 
Q 4138 4528 4447 4306 
z
" transform="scale(0.015625)"/>
       <path id="DejaVuSans-50" d="M 1259 4147 
L 1259 2394 
L 2053 2394 
Q 2494 2394 2734 2622 
Q 2975 2850 2975 3272 
Q 2975 3691 2734 3919 
Q 2494 4147 2053 4147 
L 1259 4147 
z
M 628 4666 
L 2053 4666 
Q 2838 4666 3239 4311 
Q 3641 3956 3641 3272 
Q 3641 2581 3239 2228 
Q 2838 1875 2053 1875 
L 1259 1875 
L 1259 0 
L 628 0 
L 628 4666 
z
" transform="scale(0.015625)"/>
       <path id="DejaVuSans-6e" d="M 3513 2113 
L 3513 0 
L 2938 0 
L 2938 2094 
Q 2938 2591 2744 2837 
Q 2550 3084 2163 3084 
Q 1697 3084 1428 2787 
Q 1159 2491 1159 1978 
L 1159 0 
L 581 0 
L 581 3500 
L 1159 3500 
L 1159 2956 
Q 1366 3272 1645 3428 
Q 1925 3584 2291 3584 
Q 2894 3584 3203 3211 
Q 3513 2838 3513 2113 
z
" transform="scale(0.015625)"/>
       <path id="DejaVuSans-66" d="M 2375 4863 
L 2375 4384 
L 1825 4384 
Q 1516 4384 1395 4259 
Q 1275 4134 1275 3809 
L 1275 3500 
L 2222 3500 
L 2222 3053 
L 1275 3053 
L 1275 0 
L 697 0 
L 697 3053 
L 147 3053 
L 147 3500 
L 697 3500 
L 697 3744 
Q 697 4328 969 4595 
Q 1241 4863 1831 4863 
L 2375 4863 
z
" transform="scale(0.015625)"/>
       <path id="DejaVuSans-68" d="M 3513 2113 
L 3513 0 
L 2938 0 
L 2938 2094 
Q 2938 2591 2744 2837 
Q 2550 3084 2163 3084 
Q 1697 3084 1428 2787 
Q 1159 2491 1159 1978 
L 1159 0 
L 581 0 
L 581 4863 
L 1159 4863 
L 1159 2956 
Q 1366 3272 1645 3428 
Q 1925 3584 2291 3584 
Q 2894 3584 3203 3211 
Q 3513 2838 3513 2113 
z
" transform="scale(0.015625)"/>
       <path id="DejaVuSans-73" d="M 2834 3397 
L 2834 2853 
Q 2591 2978 2328 3040 
Q 2066 3103 1784 3103 
Q 1356 3103 1142 2972 
Q 928 2841 928 2578 
Q 928 2378 1081 2264 
Q 1234 2150 1697 2047 
L 1894 2003 
Q 2506 1872 2764 1633 
Q 3022 1394 3022 966 
Q 3022 478 2636 193 
Q 2250 -91 1575 -91 
Q 1294 -91 989 -36 
Q 684 19 347 128 
L 347 722 
Q 666 556 975 473 
Q 1284 391 1588 391 
Q 1994 391 2212 530 
Q 2431 669 2431 922 
Q 2431 1156 2273 1281 
Q 2116 1406 1581 1522 
L 1381 1569 
Q 847 1681 609 1914 
Q 372 2147 372 2553 
Q 372 3047 722 3315 
Q 1072 3584 1716 3584 
Q 2034 3584 2315 3537 
Q 2597 3491 2834 3397 
z
" transform="scale(0.015625)"/>
       <path id="DejaVuSans-75" d="M 544 1381 
L 544 3500 
L 1119 3500 
L 1119 1403 
Q 1119 906 1312 657 
Q 1506 409 1894 409 
Q 2359 409 2629 706 
Q 2900 1003 2900 1516 
L 2900 3500 
L 3475 3500 
L 3475 0 
L 2900 0 
L 2900 538 
Q 2691 219 2414 64 
Q 2138 -91 1772 -91 
Q 1169 -91 856 284 
Q 544 659 544 1381 
z
M 1991 3584 
L 1991 3584 
z
" transform="scale(0.015625)"/>
       <path id="DejaVuSans-63" d="M 3122 3366 
L 3122 2828 
Q 2878 2963 2633 3030 
Q 2388 3097 2138 3097 
Q 1578 3097 1268 2742 
Q 959 2388 959 1747 
Q 959 1106 1268 751 
Q 1578 397 2138 397 
Q 2388 397 2633 464 
Q 2878 531 3122 666 
L 3122 134 
Q 2881 22 2623 -34 
Q 2366 -91 2075 -91 
Q 1284 -91 818 406 
Q 353 903 353 1747 
Q 353 2603 823 3093 
Q 1294 3584 2113 3584 
Q 2378 3584 2631 3529 
Q 2884 3475 3122 3366 
z
" transform="scale(0.015625)"/>
       <path id="DejaVuSans-4c" d="M 628 4666 
L 1259 4666 
L 1259 531 
L 3531 531 
L 3531 0 
L 628 0 
L 628 4666 
z
" transform="scale(0.015625)"/>
       <path id="DejaVuSans-49" d="M 628 4666 
L 1259 4666 
L 1259 0 
L 628 0 
L 628 4666 
z
" transform="scale(0.015625)"/>
       <path id="DejaVuSans-44" d="M 1259 4147 
L 1259 519 
L 2022 519 
Q 2988 519 3436 956 
Q 3884 1394 3884 2338 
Q 3884 3275 3436 3711 
Q 2988 4147 2022 4147 
L 1259 4147 
z
M 628 4666 
L 1925 4666 
Q 3281 4666 3915 4102 
Q 4550 3538 4550 2338 
Q 4550 1131 3912 565 
Q 3275 0 1925 0 
L 628 0 
L 628 4666 
z
" transform="scale(0.015625)"/>
      </defs>
      <use xlink:href="#DejaVuSans-Oblique-43" transform="translate(0 0.015625)"/>
      <use xlink:href="#DejaVuSans-30" transform="translate(69.824219 -16.390625) scale(0.7)"/>
      <use xlink:href="#DejaVuSans-2d" transform="translate(117.094727 0.015625)"/>
      <use xlink:href="#DejaVuSans-50" transform="translate(153.178711 0.015625)"/>
      <use xlink:href="#DejaVuSans-6c" transform="translate(213.481445 0.015625)"/>
      <use xlink:href="#DejaVuSans-61" transform="translate(241.264648 0.015625)"/>
      <use xlink:href="#DejaVuSans-6e" transform="translate(302.543945 0.015625)"/>
      <use xlink:href="#DejaVuSans-65" transform="translate(365.922852 0.015625)"/>
      <use xlink:href="#DejaVuSans-20" transform="translate(427.446289 0.015625)"/>
      <use xlink:href="#DejaVuSans-6f" transform="translate(459.233398 0.015625)"/>
      <use xlink:href="#DejaVuSans-66" transform="translate(520.415039 0.015625)"/>
      <use xlink:href="#DejaVuSans-20" transform="translate(555.620117 0.015625)"/>
      <use xlink:href="#DejaVuSans-74" transform="translate(587.407227 0.015625)"/>
      <use xlink:href="#DejaVuSans-68" transform="translate(626.616211 0.015625)"/>
      <use xlink:href="#DejaVuSans-65" transform="translate(689.995117 0.015625)"/>
      <use xlink:href="#DejaVuSans-20" transform="translate(751.518555 0.015625)"/>
      <use xlink:href="#DejaVuSans-73" transform="translate(783.305664 0.015625)"/>
      <use xlink:href="#DejaVuSans-6f" transform="translate(835.405273 0.015625)"/>
      <use xlink:href="#DejaVuSans-75" transform="translate(896.586914 0.015625)"/>
      <use xlink:href="#DejaVuSans-72" transform="translate(959.96582 0.015625)"/>
      <use xlink:href="#DejaVuSans-63" transform="translate(1001.079102 0.015625)"/>
      <use xlink:href="#DejaVuSans-65" transform="translate(1056.05957 0.015625)"/>
      <use xlink:href="#DejaVuSans-20" transform="translate(1117.583008 0.015625)"/>
      <use xlink:href="#DejaVuSans-4c" transform="translate(1149.370117 0.015625)"/>
      <use xlink:href="#DejaVuSans-49" transform="translate(1205.083008 0.015625)"/>
      <use xlink:href="#DejaVuSans-44" transform="translate(1234.575195 0.015625)"/>
     </g>
    </g>
    <g id="line2d_68">
     <path d="M 99.488 462.72 
L 109.488 462.72 
L 119.488 462.72 
" style="fill: none; stroke: #ff0000; stroke-width: 1.5; stroke-linecap: square"/>
    </g>
    <g id="text_34">
     <!-- $C_0$-Plane of measured LID, error amplified 100x -->
     <g transform="translate(127.488 466.22) scale(0.1 -0.1)">
      <defs>
       <path id="DejaVuSans-6d" d="M 3328 2828 
Q 3544 3216 3844 3400 
Q 4144 3584 4550 3584 
Q 5097 3584 5394 3201 
Q 5691 2819 5691 2113 
L 5691 0 
L 5113 0 
L 5113 2094 
Q 5113 2597 4934 2840 
Q 4756 3084 4391 3084 
Q 3944 3084 3684 2787 
Q 3425 2491 3425 1978 
L 3425 0 
L 2847 0 
L 2847 2094 
Q 2847 2600 2669 2842 
Q 2491 3084 2119 3084 
Q 1678 3084 1418 2786 
Q 1159 2488 1159 1978 
L 1159 0 
L 581 0 
L 581 3500 
L 1159 3500 
L 1159 2956 
Q 1356 3278 1631 3431 
Q 1906 3584 2284 3584 
Q 2666 3584 2933 3390 
Q 3200 3197 3328 2828 
z
" transform="scale(0.015625)"/>
       <path id="DejaVuSans-64" d="M 2906 2969 
L 2906 4863 
L 3481 4863 
L 3481 0 
L 2906 0 
L 2906 525 
Q 2725 213 2448 61 
Q 2172 -91 1784 -91 
Q 1150 -91 751 415 
Q 353 922 353 1747 
Q 353 2572 751 3078 
Q 1150 3584 1784 3584 
Q 2172 3584 2448 3432 
Q 2725 3281 2906 2969 
z
M 947 1747 
Q 947 1113 1208 752 
Q 1469 391 1925 391 
Q 2381 391 2643 752 
Q 2906 1113 2906 1747 
Q 2906 2381 2643 2742 
Q 2381 3103 1925 3103 
Q 1469 3103 1208 2742 
Q 947 2381 947 1747 
z
" transform="scale(0.015625)"/>
       <path id="DejaVuSans-2c" d="M 750 794 
L 1409 794 
L 1409 256 
L 897 -744 
L 494 -744 
L 750 256 
L 750 794 
z
" transform="scale(0.015625)"/>
       <path id="DejaVuSans-70" d="M 1159 525 
L 1159 -1331 
L 581 -1331 
L 581 3500 
L 1159 3500 
L 1159 2969 
Q 1341 3281 1617 3432 
Q 1894 3584 2278 3584 
Q 2916 3584 3314 3078 
Q 3713 2572 3713 1747 
Q 3713 922 3314 415 
Q 2916 -91 2278 -91 
Q 1894 -91 1617 61 
Q 1341 213 1159 525 
z
M 3116 1747 
Q 3116 2381 2855 2742 
Q 2594 3103 2138 3103 
Q 1681 3103 1420 2742 
Q 1159 2381 1159 1747 
Q 1159 1113 1420 752 
Q 1681 391 2138 391 
Q 2594 391 2855 752 
Q 3116 1113 3116 1747 
z
" transform="scale(0.015625)"/>
       <path id="DejaVuSans-78" d="M 3513 3500 
L 2247 1797 
L 3578 0 
L 2900 0 
L 1881 1375 
L 863 0 
L 184 0 
L 1544 1831 
L 300 3500 
L 978 3500 
L 1906 2253 
L 2834 3500 
L 3513 3500 
z
" transform="scale(0.015625)"/>
      </defs>
      <use xlink:href="#DejaVuSans-Oblique-43" transform="translate(0 0.015625)"/>
      <use xlink:href="#DejaVuSans-30" transform="translate(69.824219 -16.390625) scale(0.7)"/>
      <use xlink:href="#DejaVuSans-2d" transform="translate(117.094727 0.015625)"/>
      <use xlink:href="#DejaVuSans-50" transform="translate(153.178711 0.015625)"/>
      <use xlink:href="#DejaVuSans-6c" transform="translate(213.481445 0.015625)"/>
      <use xlink:href="#DejaVuSans-61" transform="translate(241.264648 0.015625)"/>
      <use xlink:href="#DejaVuSans-6e" transform="translate(302.543945 0.015625)"/>
      <use xlink:href="#DejaVuSans-65" transform="translate(365.922852 0.015625)"/>
      <use xlink:href="#DejaVuSans-20" transform="translate(427.446289 0.015625)"/>
      <use xlink:href="#DejaVuSans-6f" transform="translate(459.233398 0.015625)"/>
      <use xlink:href="#DejaVuSans-66" transform="translate(520.415039 0.015625)"/>
      <use xlink:href="#DejaVuSans-20" transform="translate(555.620117 0.015625)"/>
      <use xlink:href="#DejaVuSans-6d" transform="translate(587.407227 0.015625)"/>
      <use xlink:href="#DejaVuSans-65" transform="translate(684.819336 0.015625)"/>
      <use xlink:href="#DejaVuSans-61" transform="translate(746.342773 0.015625)"/>
      <use xlink:href="#DejaVuSans-73" transform="translate(807.62207 0.015625)"/>
      <use xlink:href="#DejaVuSans-75" transform="translate(859.72168 0.015625)"/>
      <use xlink:href="#DejaVuSans-72" transform="translate(923.100586 0.015625)"/>
      <use xlink:href="#DejaVuSans-65" transform="translate(964.213867 0.015625)"/>
      <use xlink:href="#DejaVuSans-64" transform="translate(1025.737305 0.015625)"/>
      <use xlink:href="#DejaVuSans-20" transform="translate(1089.213867 0.015625)"/>
      <use xlink:href="#DejaVuSans-4c" transform="translate(1121.000977 0.015625)"/>
      <use xlink:href="#DejaVuSans-49" transform="translate(1176.713867 0.015625)"/>
      <use xlink:href="#DejaVuSans-44" transform="translate(1206.206055 0.015625)"/>
      <use xlink:href="#DejaVuSans-2c" transform="translate(1283.208008 0.015625)"/>
      <use xlink:href="#DejaVuSans-20" transform="translate(1314.995117 0.015625)"/>
      <use xlink:href="#DejaVuSans-65" transform="translate(1346.782227 0.015625)"/>
      <use xlink:href="#DejaVuSans-72" transform="translate(1408.305664 0.015625)"/>
      <use xlink:href="#DejaVuSans-72" transform="translate(1449.418945 0.015625)"/>
      <use xlink:href="#DejaVuSans-6f" transform="translate(1490.532227 0.015625)"/>
      <use xlink:href="#DejaVuSans-72" transform="translate(1551.713867 0.015625)"/>
      <use xlink:href="#DejaVuSans-20" transform="translate(1592.827148 0.015625)"/>
      <use xlink:href="#DejaVuSans-61" transform="translate(1624.614258 0.015625)"/>
      <use xlink:href="#DejaVuSans-6d" transform="translate(1685.893555 0.015625)"/>
      <use xlink:href="#DejaVuSans-70" transform="translate(1783.305664 0.015625)"/>
      <use xlink:href="#DejaVuSans-6c" transform="translate(1846.782227 0.015625)"/>
      <use xlink:href="#DejaVuSans-69" transform="translate(1874.56543 0.015625)"/>
      <use xlink:href="#DejaVuSans-66" transform="translate(1902.348633 0.015625)"/>
      <use xlink:href="#DejaVuSans-69" transform="translate(1937.553711 0.015625)"/>
      <use xlink:href="#DejaVuSans-65" transform="translate(1965.336914 0.015625)"/>
      <use xlink:href="#DejaVuSans-64" transform="translate(2026.860352 0.015625)"/>
      <use xlink:href="#DejaVuSans-20" transform="translate(2090.336914 0.015625)"/>
      <use xlink:href="#DejaVuSans-31" transform="translate(2122.124023 0.015625)"/>
      <use xlink:href="#DejaVuSans-30" transform="translate(2185.74707 0.015625)"/>
      <use xlink:href="#DejaVuSans-30" transform="translate(2249.370117 0.015625)"/>
      <use xlink:href="#DejaVuSans-78" transform="translate(2312.993164 0.015625)"/>
     </g>
    </g>
   </g>
  </g>
 </g>
 <defs>
  <clipPath id="p6c5ea94b03">
   <path d="M 392.32 67.84 
C 321.735843 67.84 253.970427 95.909354 204.059891 145.819891 
C 154.149354 195.730427 126.08 263.495843 126.08 334.08 
L 392.32 334.08 
C 392.32 334.08 392.32 334.08 392.32 334.08 
C 392.32 334.08 392.32 334.08 392.32 334.08 
z
"/>
  </clipPath>
  <clipPath id="p1963075455">
   <rect x="126.08" y="57.6" width="611.84" height="460.8"/>
  </clipPath>
 </defs>
</svg>
