<?xml version="1.0" encoding="utf-8" standalone="no"?>
<!DOCTYPE svg PUBLIC "-//W3C//DTD SVG 1.1//EN"
  "http://www.w3.org/Graphics/SVG/1.1/DTD/svg11.dtd">
<svg xmlns:xlink="http://www.w3.org/1999/xlink" width="864pt" height="576pt" viewBox="0 0 864 576" xmlns="http://www.w3.org/2000/svg" version="1.1">
 <metadata>
  <rdf:RDF xmlns:dc="http://purl.org/dc/elements/1.1/" xmlns:cc="http://creativecommons.org/ns#" xmlns:rdf="http://www.w3.org/1999/02/22-rdf-syntax-ns#">
   <cc:Work>
    <dc:type rdf:resource="http://purl.org/dc/dcmitype/StillImage"/>
    <dc:date>2023-08-24T16:37:20.811974</dc:date>
    <dc:format>image/svg+xml</dc:format>
    <dc:creator>
     <cc:Agent>
      <dc:title>Matplotlib v3.7.1, https://matplotlib.org/</dc:title>
     </cc:Agent>
    </dc:creator>
   </cc:Work>
  </rdf:RDF>
 </metadata>
 <defs>
  <style type="text/css">*{stroke-linejoin: round; stroke-linecap: butt}</style>
 </defs>
 <g id="figure_1">
  <g id="patch_1">
   <path d="M 0 576 
L 864 576 
L 864 0 
L 0 0 
z
" style="fill: #ffffff"/>
  </g>
  <g id="axes_1">
   <g id="patch_2">
    <path d="M 388.8 70.4 
C 314.14368 70.4 242.468721 100.08874 189.67873 152.87873 
C 136.88874 205.668721 107.2 277.34368 107.2 352 
L 388.8 352 
C 388.8 352 388.8 352 388.8 352 
C 388.8 352 388.8 352 388.8 352 
L 388.8 70.4 
z
" style="fill: none; opacity: 0"/>
   </g>
   <g id="matplotlib.axis_1">
    <g id="xtick_1">
     <g id="line2d_1">
      <path d="M 388.8 352 
L 111.478137 303.100673 
" clip-path="url(#pc8687117fc)" style="fill: none; stroke: #b0b0b0; stroke-width: 0.8; stroke-linecap: square"/>
     </g>
     <g id="text_1">
      <!-- -80° -->
      <g transform="translate(75.699133 301.43202) scale(0.1 -0.1)">
       <defs>
        <path id="DejaVuSans-2d" d="M 313 2009 
L 1997 2009 
L 1997 1497 
L 313 1497 
L 313 2009 
z
" transform="scale(0.015625)"/>
        <path id="DejaVuSans-38" d="M 2034 2216 
Q 1584 2216 1326 1975 
Q 1069 1734 1069 1313 
Q 1069 891 1326 650 
Q 1584 409 2034 409 
Q 2484 409 2743 651 
Q 3003 894 3003 1313 
Q 3003 1734 2745 1975 
Q 2488 2216 2034 2216 
z
M 1403 2484 
Q 997 2584 770 2862 
Q 544 3141 544 3541 
Q 544 4100 942 4425 
Q 1341 4750 2034 4750 
Q 2731 4750 3128 4425 
Q 3525 4100 3525 3541 
Q 3525 3141 3298 2862 
Q 3072 2584 2669 2484 
Q 3125 2378 3379 2068 
Q 3634 1759 3634 1313 
Q 3634 634 3220 271 
Q 2806 -91 2034 -91 
Q 1263 -91 848 271 
Q 434 634 434 1313 
Q 434 1759 690 2068 
Q 947 2378 1403 2484 
z
M 1172 3481 
Q 1172 3119 1398 2916 
Q 1625 2713 2034 2713 
Q 2441 2713 2670 2916 
Q 2900 3119 2900 3481 
Q 2900 3844 2670 4047 
Q 2441 4250 2034 4250 
Q 1625 4250 1398 4047 
Q 1172 3844 1172 3481 
z
" transform="scale(0.015625)"/>
        <path id="DejaVuSans-30" d="M 2034 4250 
Q 1547 4250 1301 3770 
Q 1056 3291 1056 2328 
Q 1056 1369 1301 889 
Q 1547 409 2034 409 
Q 2525 409 2770 889 
Q 3016 1369 3016 2328 
Q 3016 3291 2770 3770 
Q 2525 4250 2034 4250 
z
M 2034 4750 
Q 2819 4750 3233 4129 
Q 3647 3509 3647 2328 
Q 3647 1150 3233 529 
Q 2819 -91 2034 -91 
Q 1250 -91 836 529 
Q 422 1150 422 2328 
Q 422 3509 836 4129 
Q 1250 4750 2034 4750 
z
" transform="scale(0.015625)"/>
        <path id="DejaVuSans-b0" d="M 1600 4347 
Q 1350 4347 1178 4173 
Q 1006 4000 1006 3750 
Q 1006 3503 1178 3333 
Q 1350 3163 1600 3163 
Q 1850 3163 2022 3333 
Q 2194 3503 2194 3750 
Q 2194 3997 2020 4172 
Q 1847 4347 1600 4347 
z
M 1600 4750 
Q 1800 4750 1984 4673 
Q 2169 4597 2303 4453 
Q 2447 4313 2519 4134 
Q 2591 3956 2591 3750 
Q 2591 3338 2302 3052 
Q 2013 2766 1594 2766 
Q 1172 2766 890 3047 
Q 609 3328 609 3750 
Q 609 4169 896 4459 
Q 1184 4750 1600 4750 
z
" transform="scale(0.015625)"/>
       </defs>
       <use xlink:href="#DejaVuSans-2d"/>
       <use xlink:href="#DejaVuSans-38" x="36.083984"/>
       <use xlink:href="#DejaVuSans-30" x="99.707031"/>
       <use xlink:href="#DejaVuSans-b0" x="163.330078"/>
      </g>
     </g>
    </g>
    <g id="xtick_2">
     <g id="line2d_2">
      <path d="M 388.8 352 
L 124.182558 255.687128 
" clip-path="url(#pc8687117fc)" style="fill: none; stroke: #b0b0b0; stroke-width: 0.8; stroke-linecap: square"/>
     </g>
     <g id="text_2">
      <!-- -70° -->
      <g transform="translate(89.55399 249.724989) scale(0.1 -0.1)">
       <defs>
        <path id="DejaVuSans-37" d="M 525 4666 
L 3525 4666 
L 3525 4397 
L 1831 0 
L 1172 0 
L 2766 4134 
L 525 4134 
L 525 4666 
z
" transform="scale(0.015625)"/>
       </defs>
       <use xlink:href="#DejaVuSans-2d"/>
       <use xlink:href="#DejaVuSans-37" x="36.083984"/>
       <use xlink:href="#DejaVuSans-30" x="99.707031"/>
       <use xlink:href="#DejaVuSans-b0" x="163.330078"/>
      </g>
     </g>
    </g>
    <g id="xtick_3">
     <g id="line2d_3">
      <path d="M 388.8 352 
L 144.927246 211.2 
" clip-path="url(#pc8687117fc)" style="fill: none; stroke: #b0b0b0; stroke-width: 0.8; stroke-linecap: square"/>
     </g>
     <g id="text_3">
      <!-- -60° -->
      <g transform="translate(112.177192 201.209375) scale(0.1 -0.1)">
       <defs>
        <path id="DejaVuSans-36" d="M 2113 2584 
Q 1688 2584 1439 2293 
Q 1191 2003 1191 1497 
Q 1191 994 1439 701 
Q 1688 409 2113 409 
Q 2538 409 2786 701 
Q 3034 994 3034 1497 
Q 3034 2003 2786 2293 
Q 2538 2584 2113 2584 
z
M 3366 4563 
L 3366 3988 
Q 3128 4100 2886 4159 
Q 2644 4219 2406 4219 
Q 1781 4219 1451 3797 
Q 1122 3375 1075 2522 
Q 1259 2794 1537 2939 
Q 1816 3084 2150 3084 
Q 2853 3084 3261 2657 
Q 3669 2231 3669 1497 
Q 3669 778 3244 343 
Q 2819 -91 2113 -91 
Q 1303 -91 875 529 
Q 447 1150 447 2328 
Q 447 3434 972 4092 
Q 1497 4750 2381 4750 
Q 2619 4750 2861 4703 
Q 3103 4656 3366 4563 
z
" transform="scale(0.015625)"/>
       </defs>
       <use xlink:href="#DejaVuSans-2d"/>
       <use xlink:href="#DejaVuSans-36" x="36.083984"/>
       <use xlink:href="#DejaVuSans-30" x="99.707031"/>
       <use xlink:href="#DejaVuSans-b0" x="163.330078"/>
      </g>
     </g>
    </g>
    <g id="xtick_4">
     <g id="line2d_4">
      <path d="M 388.8 352 
L 173.081885 170.991009 
" clip-path="url(#pc8687117fc)" style="fill: none; stroke: #b0b0b0; stroke-width: 0.8; stroke-linecap: square"/>
     </g>
     <g id="text_4">
      <!-- -50° -->
      <g transform="translate(142.881345 157.3593) scale(0.1 -0.1)">
       <defs>
        <path id="DejaVuSans-35" d="M 691 4666 
L 3169 4666 
L 3169 4134 
L 1269 4134 
L 1269 2991 
Q 1406 3038 1543 3061 
Q 1681 3084 1819 3084 
Q 2600 3084 3056 2656 
Q 3513 2228 3513 1497 
Q 3513 744 3044 326 
Q 2575 -91 1722 -91 
Q 1428 -91 1123 -41 
Q 819 9 494 109 
L 494 744 
Q 775 591 1075 516 
Q 1375 441 1709 441 
Q 2250 441 2565 725 
Q 2881 1009 2881 1497 
Q 2881 1984 2565 2268 
Q 2250 2553 1709 2553 
Q 1456 2553 1204 2497 
Q 953 2441 691 2322 
L 691 4666 
z
" transform="scale(0.015625)"/>
       </defs>
       <use xlink:href="#DejaVuSans-2d"/>
       <use xlink:href="#DejaVuSans-35" x="36.083984"/>
       <use xlink:href="#DejaVuSans-30" x="99.707031"/>
       <use xlink:href="#DejaVuSans-b0" x="163.330078"/>
      </g>
     </g>
    </g>
    <g id="xtick_5">
     <g id="line2d_5">
      <path d="M 388.8 352 
L 207.791009 136.281885 
" clip-path="url(#pc8687117fc)" style="fill: none; stroke: #b0b0b0; stroke-width: 0.8; stroke-linecap: square"/>
     </g>
     <g id="text_5">
      <!-- -40° -->
      <g transform="translate(180.733519 119.507127) scale(0.1 -0.1)">
       <defs>
        <path id="DejaVuSans-34" d="M 2419 4116 
L 825 1625 
L 2419 1625 
L 2419 4116 
z
M 2253 4666 
L 3047 4666 
L 3047 1625 
L 3713 1625 
L 3713 1100 
L 3047 1100 
L 3047 0 
L 2419 0 
L 2419 1100 
L 313 1100 
L 313 1709 
L 2253 4666 
z
" transform="scale(0.015625)"/>
       </defs>
       <use xlink:href="#DejaVuSans-2d"/>
       <use xlink:href="#DejaVuSans-34" x="36.083984"/>
       <use xlink:href="#DejaVuSans-30" x="99.707031"/>
       <use xlink:href="#DejaVuSans-b0" x="163.330078"/>
      </g>
     </g>
    </g>
    <g id="xtick_6">
     <g id="line2d_6">
      <path d="M 388.8 352 
L 248 108.127246 
" clip-path="url(#pc8687117fc)" style="fill: none; stroke: #b0b0b0; stroke-width: 0.8; stroke-linecap: square"/>
     </g>
     <g id="text_6">
      <!-- -30° -->
      <g transform="translate(224.583594 88.802973) scale(0.1 -0.1)">
       <defs>
        <path id="DejaVuSans-33" d="M 2597 2516 
Q 3050 2419 3304 2112 
Q 3559 1806 3559 1356 
Q 3559 666 3084 287 
Q 2609 -91 1734 -91 
Q 1441 -91 1130 -33 
Q 819 25 488 141 
L 488 750 
Q 750 597 1062 519 
Q 1375 441 1716 441 
Q 2309 441 2620 675 
Q 2931 909 2931 1356 
Q 2931 1769 2642 2001 
Q 2353 2234 1838 2234 
L 1294 2234 
L 1294 2753 
L 1863 2753 
Q 2328 2753 2575 2939 
Q 2822 3125 2822 3475 
Q 2822 3834 2567 4026 
Q 2313 4219 1838 4219 
Q 1578 4219 1281 4162 
Q 984 4106 628 3988 
L 628 4550 
Q 988 4650 1302 4700 
Q 1616 4750 1894 4750 
Q 2613 4750 3031 4423 
Q 3450 4097 3450 3541 
Q 3450 3153 3228 2886 
Q 3006 2619 2597 2516 
z
" transform="scale(0.015625)"/>
       </defs>
       <use xlink:href="#DejaVuSans-2d"/>
       <use xlink:href="#DejaVuSans-33" x="36.083984"/>
       <use xlink:href="#DejaVuSans-30" x="99.707031"/>
       <use xlink:href="#DejaVuSans-b0" x="163.330078"/>
      </g>
     </g>
    </g>
    <g id="xtick_7">
     <g id="line2d_7">
      <path d="M 388.8 352 
L 292.487128 87.382558 
" clip-path="url(#pc8687117fc)" style="fill: none; stroke: #b0b0b0; stroke-width: 0.8; stroke-linecap: square"/>
     </g>
     <g id="text_7">
      <!-- -20° -->
      <g transform="translate(273.099208 66.179771) scale(0.1 -0.1)">
       <defs>
        <path id="DejaVuSans-32" d="M 1228 531 
L 3431 531 
L 3431 0 
L 469 0 
L 469 531 
Q 828 903 1448 1529 
Q 2069 2156 2228 2338 
Q 2531 2678 2651 2914 
Q 2772 3150 2772 3378 
Q 2772 3750 2511 3984 
Q 2250 4219 1831 4219 
Q 1534 4219 1204 4116 
Q 875 4013 500 3803 
L 500 4441 
Q 881 4594 1212 4672 
Q 1544 4750 1819 4750 
Q 2544 4750 2975 4387 
Q 3406 4025 3406 3419 
Q 3406 3131 3298 2873 
Q 3191 2616 2906 2266 
Q 2828 2175 2409 1742 
Q 1991 1309 1228 531 
z
" transform="scale(0.015625)"/>
       </defs>
       <use xlink:href="#DejaVuSans-2d"/>
       <use xlink:href="#DejaVuSans-32" x="36.083984"/>
       <use xlink:href="#DejaVuSans-30" x="99.707031"/>
       <use xlink:href="#DejaVuSans-b0" x="163.330078"/>
      </g>
     </g>
    </g>
    <g id="xtick_8">
     <g id="line2d_8">
      <path d="M 388.8 352 
L 339.900673 74.678137 
" clip-path="url(#pc8687117fc)" style="fill: none; stroke: #b0b0b0; stroke-width: 0.8; stroke-linecap: square"/>
     </g>
     <g id="text_8">
      <!-- -10° -->
      <g transform="translate(324.806238 52.324914) scale(0.1 -0.1)">
       <defs>
        <path id="DejaVuSans-31" d="M 794 531 
L 1825 531 
L 1825 4091 
L 703 3866 
L 703 4441 
L 1819 4666 
L 2450 4666 
L 2450 531 
L 3481 531 
L 3481 0 
L 794 0 
L 794 531 
z
" transform="scale(0.015625)"/>
       </defs>
       <use xlink:href="#DejaVuSans-2d"/>
       <use xlink:href="#DejaVuSans-31" x="36.083984"/>
       <use xlink:href="#DejaVuSans-30" x="99.707031"/>
       <use xlink:href="#DejaVuSans-b0" x="163.330078"/>
      </g>
     </g>
    </g>
   </g>
   <g id="matplotlib.axis_2">
    <g id="ytick_1">
     <g id="line2d_9">
      <path d="M 388.8 352 
C 388.8 352 388.8 352 388.8 352 
C 388.8 352 388.8 352 388.8 352 
" clip-path="url(#pc8687117fc)" style="fill: none; stroke: #b0b0b0; stroke-width: 0.8; stroke-linecap: square"/>
     </g>
    </g>
    <g id="ytick_2">
     <g id="line2d_10">
      <path d="M 337.6 352 
C 337.6 338.426124 342.997953 325.394313 352.596133 315.796133 
C 362.194313 306.197953 375.226124 300.8 388.8 300.8 
" clip-path="url(#pc8687117fc)" style="fill: none; stroke: #b0b0b0; stroke-width: 0.8; stroke-linecap: square"/>
     </g>
    </g>
    <g id="ytick_3">
     <g id="line2d_11">
      <path d="M 286.4 352 
C 286.4 324.852247 297.195906 298.788626 316.392266 279.592266 
C 335.588626 260.395906 361.652247 249.6 388.8 249.6 
" clip-path="url(#pc8687117fc)" style="fill: none; stroke: #b0b0b0; stroke-width: 0.8; stroke-linecap: square"/>
     </g>
    </g>
    <g id="ytick_4">
     <g id="line2d_12">
      <path d="M 235.2 352 
C 235.2 311.278371 251.393858 272.182939 280.188398 243.388398 
C 308.982939 214.593858 348.078371 198.4 388.8 198.4 
" clip-path="url(#pc8687117fc)" style="fill: none; stroke: #b0b0b0; stroke-width: 0.8; stroke-linecap: square"/>
     </g>
    </g>
    <g id="ytick_5">
     <g id="line2d_13">
      <path d="M 184 352 
C 184 297.704494 205.591811 245.577251 243.984531 207.184531 
C 282.377251 168.791811 334.504494 147.2 388.8 147.2 
" clip-path="url(#pc8687117fc)" style="fill: none; stroke: #b0b0b0; stroke-width: 0.8; stroke-linecap: square"/>
     </g>
    </g>
    <g id="ytick_6">
     <g id="line2d_14">
      <path d="M 132.8 352 
C 132.8 284.130618 159.789764 218.971564 207.780664 170.980664 
C 255.771564 122.989764 320.930618 96 388.8 96 
" clip-path="url(#pc8687117fc)" style="fill: none; stroke: #b0b0b0; stroke-width: 0.8; stroke-linecap: square"/>
     </g>
    </g>
   </g>
   <g id="line2d_15">
    <path d="M 384.332864 351.922026 
L 379.871171 351.688198 
L 375.420357 351.298803 
L 370.985843 350.754313 
L 366.573033 350.055392 
L 362.187304 349.202893 
L 357.833997 348.197853 
L 353.518418 347.041497 
L 349.245825 345.735234 
L 345.021422 344.280655 
L 340.850356 342.679533 
L 336.73771 340.933819 
L 332.688493 339.045638 
L 328.70764 337.017292 
L 324.8 334.851252 
L 320.970334 332.550156 
L 317.223308 330.116809 
L 313.563488 327.554175 
L 309.995331 324.865376 
L 306.523186 322.053689 
L 303.151282 319.122538 
L 299.883729 316.075494 
L 296.724506 312.916271 
L 293.677462 309.648718 
L 290.746311 306.276814 
L 287.934624 302.804669 
L 285.245825 299.236512 
L 282.683191 295.576692 
L 280.249844 291.829666 
L 277.948748 288 
L 275.782708 284.09236 
L 273.754362 280.111507 
L 271.866181 276.06229 
L 270.120467 271.949644 
L 268.519345 267.778578 
L 267.064766 263.554175 
L 265.758503 259.281582 
L 264.602147 254.966003 
L 263.597107 250.612696 
L 262.744608 246.226967 
L 262.045687 241.814157 
L 261.501197 237.379643 
L 261.111802 232.928829 
L 260.877974 228.467136 
L 260.8 224 
L 260.877974 219.532864 
L 261.111802 215.071171 
L 261.501197 210.620357 
L 262.045687 206.185843 
L 262.744608 201.773033 
L 263.597107 197.387304 
L 264.602147 193.033997 
L 265.758503 188.718418 
L 267.064766 184.445825 
L 268.519345 180.221422 
L 270.120467 176.050356 
L 271.866181 171.93771 
L 273.754362 167.888493 
L 275.782708 163.90764 
L 277.948748 160 
L 280.249844 156.170334 
L 282.683191 152.423308 
L 285.245825 148.763488 
L 287.934624 145.195331 
L 290.746311 141.723186 
L 293.677462 138.351282 
L 296.724506 135.083729 
L 299.883729 131.924506 
L 303.151282 128.877462 
L 306.523186 125.946311 
L 309.995331 123.134624 
L 313.563488 120.445825 
L 317.223308 117.883191 
L 320.970334 115.449844 
L 324.8 113.148748 
L 328.70764 110.982708 
L 332.688493 108.954362 
L 336.73771 107.066181 
L 340.850356 105.320467 
L 345.021422 103.719345 
L 349.245825 102.264766 
L 353.518418 100.958503 
L 357.833997 99.802147 
L 362.187304 98.797107 
L 366.573033 97.944608 
L 370.985843 97.245687 
L 375.420357 96.701197 
L 379.871171 96.311802 
L 384.332864 96.077974 
L 388.8 96 
L 388.8 96 
" clip-path="url(#pc8687117fc)" style="fill: none; stroke: #90ee90; stroke-width: 1.5; stroke-linecap: square"/>
   </g>
   <g id="line2d_16">
    <path d="M 358.762436 351.475692 
L 354.384756 350.798193 
L 350.072222 349.970363 
L 345.829886 348.995237 
L 341.662637 347.876015 
L 337.575198 346.616056 
L 333.572117 345.218869 
L 329.657766 343.688101 
L 325.836336 342.027535 
L 322.111835 340.241077 
L 318.48808 338.332747 
L 314.968701 336.306673 
L 311.557135 334.167079 
L 308.256624 331.918281 
L 305.070217 329.564672 
L 302.000762 327.110719 
L 299.050915 324.560951 
L 296.223131 321.919952 
L 292.215214 317.797533 
L 288.493775 313.496048 
L 285.064627 309.031402 
L 281.932607 304.419571 
L 279.101593 299.676544 
L 276.574524 294.818264 
L 274.353421 289.860578 
L 272.439413 284.819184 
L 270.832767 279.709587 
L 269.532915 274.54705 
L 268.538492 269.346556 
L 267.847366 264.122768 
L 267.45668 258.889995 
L 267.362884 253.662162 
L 267.56178 248.452778 
L 268.048561 243.274916 
L 268.817847 238.141188 
L 269.863731 233.063731 
L 271.179817 228.054189 
L 272.759264 223.123706 
L 274.594819 218.282913 
L 276.678864 213.541928 
L 279.00345 208.91035 
L 281.560333 204.397262 
L 284.341014 200.011232 
L 287.336766 195.760321 
L 290.538674 191.65209 
L 293.93766 187.693607 
L 297.524513 183.891465 
L 301.289914 180.251785 
L 305.224462 176.780241 
L 309.318695 173.482066 
L 313.563108 170.362075 
L 317.948172 167.424677 
L 322.464347 164.673895 
L 327.102098 162.113384 
L 331.851902 159.746442 
L 336.704255 157.576034 
L 341.649686 155.604806 
L 346.67875 153.835098 
L 351.78204 152.268962 
L 356.950184 150.908174 
L 362.173842 149.754247 
L 367.443707 148.808441 
L 372.750501 148.071774 
L 378.084969 147.545029 
L 383.437876 147.228761 
L 388.8 147.123302 
L 388.8 147.123302 
" clip-path="url(#pc8687117fc)" style="fill: none; stroke: #ff0000; stroke-width: 1.5; stroke-linecap: square"/>
   </g>
   <g id="line2d_17">
    <path d="M 388.544296 351.995537 
L 388.662912 351.944613 
L 388.797552 351.998286 
L 388.797552 351.998286 
" clip-path="url(#pc8687117fc)" style="fill: none; stroke: #00008b; stroke-width: 1.5; stroke-linecap: square"/>
   </g>
   <g id="patch_3">
    <path d="M 388.8 70.4 
C 314.14368 70.4 242.468721 100.08874 189.67873 152.87873 
C 136.88874 205.668721 107.2 277.34368 107.2 352 
" style="fill: none; stroke: #000000; stroke-width: 0.8; stroke-linejoin: miter; stroke-linecap: square"/>
   </g>
   <g id="patch_4">
    <path d="M 388.8 352 
L 107.2 352 
" style="fill: none; stroke: #000000; stroke-width: 0.8; stroke-linejoin: miter; stroke-linecap: square"/>
   </g>
   <g id="patch_5">
    <path d="M 388.8 352 
L 388.8 70.4 
" style="fill: none; stroke: #000000; stroke-width: 0.8; stroke-linejoin: miter; stroke-linecap: square"/>
   </g>
  </g>
  <g id="axes_2">
   <g id="patch_6">
    <path d="M 107.2 518.4 
L 756.8 518.4 
L 756.8 57.6 
L 107.2 57.6 
L 107.2 518.4 
z
" style="fill: none; opacity: 0"/>
   </g>
   <g id="matplotlib.axis_3">
    <g id="xtick_9"/>
    <g id="xtick_10"/>
    <g id="xtick_11"/>
    <g id="xtick_12"/>
    <g id="xtick_13"/>
    <g id="xtick_14"/>
    <g id="xtick_15"/>
    <g id="xtick_16"/>
    <g id="xtick_17"/>
    <g id="xtick_18"/>
    <g id="xtick_19"/>
    <g id="xtick_20"/>
    <g id="xtick_21"/>
    <g id="xtick_22"/>
    <g id="xtick_23"/>
    <g id="xtick_24"/>
    <g id="xtick_25"/>
    <g id="xtick_26"/>
    <g id="xtick_27"/>
   </g>
   <g id="matplotlib.axis_4">
    <g id="ytick_7">
     <g id="line2d_18">
      <defs>
       <path id="m894e19bdc7" d="M 0 0 
L 3.5 0 
" style="stroke: #000000; stroke-width: 0.8"/>
      </defs>
      <g>
       <use xlink:href="#m894e19bdc7" x="802.272" y="476.016908" style="stroke: #000000; stroke-width: 0.8"/>
      </g>
     </g>
     <g id="text_9">
      <!-- −0.2 -->
      <g transform="translate(809.272 479.816127) scale(0.1 -0.1)">
       <defs>
        <path id="DejaVuSans-2212" d="M 678 2272 
L 4684 2272 
L 4684 1741 
L 678 1741 
L 678 2272 
z
" transform="scale(0.015625)"/>
        <path id="DejaVuSans-2e" d="M 684 794 
L 1344 794 
L 1344 0 
L 684 0 
L 684 794 
z
" transform="scale(0.015625)"/>
       </defs>
       <use xlink:href="#DejaVuSans-2212"/>
       <use xlink:href="#DejaVuSans-30" x="83.789062"/>
       <use xlink:href="#DejaVuSans-2e" x="147.412109"/>
       <use xlink:href="#DejaVuSans-32" x="179.199219"/>
      </g>
     </g>
    </g>
    <g id="ytick_8">
     <g id="line2d_19">
      <g>
       <use xlink:href="#m894e19bdc7" x="802.272" y="414.008454" style="stroke: #000000; stroke-width: 0.8"/>
      </g>
     </g>
     <g id="text_10">
      <!-- −0.1 -->
      <g transform="translate(809.272 417.807673) scale(0.1 -0.1)">
       <use xlink:href="#DejaVuSans-2212"/>
       <use xlink:href="#DejaVuSans-30" x="83.789062"/>
       <use xlink:href="#DejaVuSans-2e" x="147.412109"/>
       <use xlink:href="#DejaVuSans-31" x="179.199219"/>
      </g>
     </g>
    </g>
    <g id="ytick_9">
     <g id="line2d_20">
      <g>
       <use xlink:href="#m894e19bdc7" x="802.272" y="352" style="stroke: #000000; stroke-width: 0.8"/>
      </g>
     </g>
     <g id="text_11">
      <!-- 0.0 -->
      <g transform="translate(809.272 355.799219) scale(0.1 -0.1)">
       <use xlink:href="#DejaVuSans-30"/>
       <use xlink:href="#DejaVuSans-2e" x="63.623047"/>
       <use xlink:href="#DejaVuSans-30" x="95.410156"/>
      </g>
     </g>
    </g>
    <g id="ytick_10">
     <g id="line2d_21">
      <g>
       <use xlink:href="#m894e19bdc7" x="802.272" y="289.991546" style="stroke: #000000; stroke-width: 0.8"/>
      </g>
     </g>
     <g id="text_12">
      <!-- 0.1 -->
      <g transform="translate(809.272 293.790765) scale(0.1 -0.1)">
       <use xlink:href="#DejaVuSans-30"/>
       <use xlink:href="#DejaVuSans-2e" x="63.623047"/>
       <use xlink:href="#DejaVuSans-31" x="95.410156"/>
      </g>
     </g>
    </g>
    <g id="ytick_11">
     <g id="line2d_22">
      <g>
       <use xlink:href="#m894e19bdc7" x="802.272" y="227.983092" style="stroke: #000000; stroke-width: 0.8"/>
      </g>
     </g>
     <g id="text_13">
      <!-- 0.2 -->
      <g transform="translate(809.272 231.782311) scale(0.1 -0.1)">
       <use xlink:href="#DejaVuSans-30"/>
       <use xlink:href="#DejaVuSans-2e" x="63.623047"/>
       <use xlink:href="#DejaVuSans-32" x="95.410156"/>
      </g>
     </g>
    </g>
    <g id="ytick_12">
     <g id="line2d_23">
      <g>
       <use xlink:href="#m894e19bdc7" x="802.272" y="165.974638" style="stroke: #000000; stroke-width: 0.8"/>
      </g>
     </g>
     <g id="text_14">
      <!-- 0.3 -->
      <g transform="translate(809.272 169.773857) scale(0.1 -0.1)">
       <use xlink:href="#DejaVuSans-30"/>
       <use xlink:href="#DejaVuSans-2e" x="63.623047"/>
       <use xlink:href="#DejaVuSans-33" x="95.410156"/>
      </g>
     </g>
    </g>
    <g id="ytick_13">
     <g id="line2d_24">
      <g>
       <use xlink:href="#m894e19bdc7" x="802.272" y="103.966184" style="stroke: #000000; stroke-width: 0.8"/>
      </g>
     </g>
     <g id="text_15">
      <!-- 0.4 -->
      <g transform="translate(809.272 107.765403) scale(0.1 -0.1)">
       <use xlink:href="#DejaVuSans-30"/>
       <use xlink:href="#DejaVuSans-2e" x="63.623047"/>
       <use xlink:href="#DejaVuSans-34" x="95.410156"/>
      </g>
     </g>
    </g>
    <g id="text_16">
     <!-- % -->
     <g transform="translate(794.903719 45.197813) scale(0.14 -0.14)">
      <defs>
       <path id="DejaVuSans-25" d="M 4653 2053 
Q 4381 2053 4226 1822 
Q 4072 1591 4072 1178 
Q 4072 772 4226 539 
Q 4381 306 4653 306 
Q 4919 306 5073 539 
Q 5228 772 5228 1178 
Q 5228 1588 5073 1820 
Q 4919 2053 4653 2053 
z
M 4653 2450 
Q 5147 2450 5437 2106 
Q 5728 1763 5728 1178 
Q 5728 594 5436 251 
Q 5144 -91 4653 -91 
Q 4153 -91 3862 251 
Q 3572 594 3572 1178 
Q 3572 1766 3864 2108 
Q 4156 2450 4653 2450 
z
M 1428 4353 
Q 1159 4353 1004 4120 
Q 850 3888 850 3481 
Q 850 3069 1003 2837 
Q 1156 2606 1428 2606 
Q 1700 2606 1854 2837 
Q 2009 3069 2009 3481 
Q 2009 3884 1853 4118 
Q 1697 4353 1428 4353 
z
M 4250 4750 
L 4750 4750 
L 1831 -91 
L 1331 -91 
L 4250 4750 
z
M 1428 4750 
Q 1922 4750 2215 4408 
Q 2509 4066 2509 3481 
Q 2509 2891 2217 2550 
Q 1925 2209 1428 2209 
Q 931 2209 642 2551 
Q 353 2894 353 3481 
Q 353 4063 643 4406 
Q 934 4750 1428 4750 
z
" transform="scale(0.015625)"/>
      </defs>
      <use xlink:href="#DejaVuSans-25"/>
     </g>
    </g>
   </g>
   <g id="line2d_25">
    <path d="M 388.8 57.6 
" style="fill: none; stroke: #000000; stroke-width: 1.5; stroke-linecap: square"/>
    <defs>
     <path id="m8dce7ca7bd" d="M 0 -2 
L -2 2 
L 2 2 
z
" style="stroke: #000000; stroke-linejoin: miter"/>
    </defs>
    <g>
     <use xlink:href="#m8dce7ca7bd" x="388.8" y="57.6" style="stroke: #000000; stroke-linejoin: miter"/>
    </g>
   </g>
   <g id="line2d_26">
    <path d="M 756.8 352 
" style="fill: none; stroke: #000000; stroke-width: 1.5; stroke-linecap: square"/>
    <defs>
     <path id="m07e0e2d93c" d="M 2 0 
L -2 -2 
L -2 2 
z
" style="stroke: #000000; stroke-linejoin: miter"/>
    </defs>
    <g>
     <use xlink:href="#m07e0e2d93c" x="756.8" y="352" style="stroke: #000000; stroke-linejoin: miter"/>
    </g>
   </g>
   <g id="line2d_27">
    <path d="M 388.8 96 
L 394.865934 96.087725 
L 400.931868 96.350839 
L 406.997802 96.789163 
L 413.063736 97.402395 
L 419.12967 98.190115 
L 425.195604 99.151785 
L 431.261538 100.286744 
L 437.327473 101.594214 
L 445.415385 103.604294 
L 453.503297 105.917006 
L 461.591209 108.529532 
L 469.679121 111.438689 
L 477.767033 114.640933 
L 485.854945 118.132363 
L 493.942857 121.908724 
L 502.030769 125.965416 
L 510.118681 130.297497 
L 518.206593 134.899687 
L 526.294505 139.766381 
L 534.382418 144.891649 
L 542.47033 150.269247 
L 550.558242 155.892623 
L 558.646154 161.754925 
L 566.734066 167.849011 
L 576.843956 175.781229 
L 586.953846 184.048889 
L 597.063736 192.636253 
L 607.173626 201.526975 
L 617.283516 210.704132 
L 627.393407 220.150253 
L 639.525275 231.81528 
L 651.657143 243.809725 
L 663.789011 256.100712 
L 677.942857 270.770008 
L 694.118681 287.902719 
L 712.316484 307.546067 
L 734.558242 331.914471 
L 748.712088 347.532184 
L 748.712088 347.532184 
" clip-path="url(#pa432453e7a)" style="fill: none; stroke: #90ee90; stroke-width: 1.5; stroke-linecap: square"/>
   </g>
   <g id="line2d_28">
    <path d="M 388.8 147.123302 
L 398.90989 147.221295 
L 409.01978 147.515915 
L 419.12967 148.009076 
L 429.23956 148.703946 
L 439.349451 149.604905 
L 449.459341 150.717499 
L 459.569231 152.048371 
L 469.679121 153.605183 
L 479.789011 155.396526 
L 489.898901 157.431816 
L 500.008791 159.721177 
L 510.118681 162.27532 
L 520.228571 165.105406 
L 528.316484 167.575854 
L 536.404396 170.236197 
L 544.492308 173.092401 
L 552.58022 176.150398 
L 560.668132 179.416029 
L 568.756044 182.894991 
L 576.843956 186.592787 
L 584.931868 190.514665 
L 593.01978 194.665571 
L 601.107692 199.050092 
L 609.195604 203.672406 
L 617.283516 208.536228 
L 625.371429 213.644762 
L 633.459341 219.000652 
L 641.547253 224.605937 
L 649.635165 230.462004 
L 657.723077 236.569547 
L 665.810989 242.928532 
L 673.898901 249.538155 
L 681.986813 256.396812 
L 690.074725 263.50207 
L 698.162637 270.850639 
L 708.272527 280.372073 
L 718.382418 290.256988 
L 728.492308 300.493037 
L 738.602198 311.065619 
L 748.712088 321.95786 
L 748.712088 321.95786 
" clip-path="url(#pa432453e7a)" style="fill: none; stroke: #ff0000; stroke-width: 1.5; stroke-linecap: square"/>
   </g>
   <g id="line2d_29">
    <path d="M 802.272 57.6 
" style="fill: none; stroke: #000000; stroke-width: 1.5; stroke-linecap: square"/>
    <g>
     <use xlink:href="#m8dce7ca7bd" x="802.272" y="57.6" style="stroke: #000000; stroke-linejoin: miter"/>
    </g>
   </g>
   <g id="line2d_30">
    <path d="M 388.8 475.83113 
L 394.865934 475.704062 
L 400.931868 475.323205 
L 406.997802 474.689599 
L 413.063736 473.804975 
L 419.12967 472.671748 
L 425.195604 471.293014 
L 431.261538 469.672537 
L 437.327473 467.814745 
L 443.393407 465.724711 
L 449.459341 463.408145 
L 455.525275 460.871374 
L 461.591209 458.121327 
L 467.657143 455.165517 
L 473.723077 452.012021 
L 481.810989 447.51481 
L 489.898901 442.703373 
L 497.986813 437.601078 
L 506.074725 432.23271 
L 514.162637 426.624348 
L 524.272527 419.318017 
L 534.382418 411.734808 
L 546.514286 402.350666 
L 562.69011 389.525042 
L 597.063736 362.154139 
L 609.195604 352.80505 
L 619.305495 345.261181 
L 629.415385 338.003206 
L 637.503297 332.439871 
L 645.591209 327.122021 
L 653.679121 322.075582 
L 661.767033 317.325164 
L 669.854945 312.893944 
L 675.920879 309.793075 
L 681.986813 306.892475 
L 688.052747 304.200117 
L 694.118681 301.723404 
L 700.184615 299.469151 
L 706.250549 297.443566 
L 712.316484 295.652229 
L 718.382418 294.100083 
L 724.448352 292.791414 
L 730.514286 291.729844 
L 736.58022 290.918317 
L 742.646154 290.359092 
L 748.712088 290.053739 
L 748.712088 290.053739 
" clip-path="url(#pa432453e7a)" style="fill: none; stroke: #00008b; stroke-width: 1.5; stroke-linecap: square"/>
   </g>
   <g id="patch_7">
    <path d="M 802.272 518.4 
L 802.272 57.6 
" style="fill: none; stroke: #000000; stroke-width: 0.8; stroke-linejoin: miter; stroke-linecap: square"/>
   </g>
   <g id="patch_8">
    <path d="M 388.8 518.4 
L 388.8 57.6 
" style="fill: none; stroke: #000000; stroke-width: 0.8; stroke-linejoin: miter; stroke-linecap: square"/>
   </g>
   <g id="patch_9">
    <path d="M 107.2 352 
L 756.8 352 
" style="fill: none; stroke: #000000; stroke-width: 0.8; stroke-linejoin: miter; stroke-linecap: square"/>
   </g>
   <g id="matplotlib.axis_5">
    <g id="xtick_28">
     <g id="line2d_31">
      <defs>
       <path id="m7273dda63a" d="M 0 0 
L 0 3.5 
" style="stroke: #000000; stroke-width: 0.8"/>
      </defs>
      <g>
       <use xlink:href="#m7273dda63a" x="449.459341" y="352" style="stroke: #000000; stroke-width: 0.8"/>
      </g>
     </g>
     <g id="text_17">
      <g id="patch_10">
       <path d="M 443.096841 371.678125 
L 455.821841 371.678125 
Q 458.821841 371.678125 458.821841 368.678125 
L 458.821841 359 
Q 458.821841 356 455.821841 356 
L 443.096841 356 
Q 440.096841 356 440.096841 359 
L 440.096841 368.678125 
Q 440.096841 371.678125 443.096841 371.678125 
z
" style="fill: #ffffff; opacity: 0.7; stroke: #ffffff; stroke-linejoin: miter"/>
      </g>
      <!-- 15 -->
      <g transform="translate(443.096841 366.598438) scale(0.1 -0.1)">
       <use xlink:href="#DejaVuSans-31"/>
       <use xlink:href="#DejaVuSans-35" x="63.623047"/>
      </g>
     </g>
    </g>
    <g id="xtick_29">
     <g id="line2d_32">
      <g>
       <use xlink:href="#m7273dda63a" x="510.118681" y="352" style="stroke: #000000; stroke-width: 0.8"/>
      </g>
     </g>
     <g id="text_18">
      <g id="patch_11">
       <path d="M 503.756181 371.678125 
L 516.481181 371.678125 
Q 519.481181 371.678125 519.481181 368.678125 
L 519.481181 359 
Q 519.481181 356 516.481181 356 
L 503.756181 356 
Q 500.756181 356 500.756181 359 
L 500.756181 368.678125 
Q 500.756181 371.678125 503.756181 371.678125 
z
" style="fill: #ffffff; opacity: 0.7; stroke: #ffffff; stroke-linejoin: miter"/>
      </g>
      <!-- 30 -->
      <g transform="translate(503.756181 366.598438) scale(0.1 -0.1)">
       <use xlink:href="#DejaVuSans-33"/>
       <use xlink:href="#DejaVuSans-30" x="63.623047"/>
      </g>
     </g>
    </g>
    <g id="xtick_30">
     <g id="line2d_33">
      <g>
       <use xlink:href="#m7273dda63a" x="570.778022" y="352" style="stroke: #000000; stroke-width: 0.8"/>
      </g>
     </g>
     <g id="text_19">
      <g id="patch_12">
       <path d="M 564.415522 371.678125 
L 577.140522 371.678125 
Q 580.140522 371.678125 580.140522 368.678125 
L 580.140522 359 
Q 580.140522 356 577.140522 356 
L 564.415522 356 
Q 561.415522 356 561.415522 359 
L 561.415522 368.678125 
Q 561.415522 371.678125 564.415522 371.678125 
z
" style="fill: #ffffff; opacity: 0.7; stroke: #ffffff; stroke-linejoin: miter"/>
      </g>
      <!-- 45 -->
      <g transform="translate(564.415522 366.598438) scale(0.1 -0.1)">
       <use xlink:href="#DejaVuSans-34"/>
       <use xlink:href="#DejaVuSans-35" x="63.623047"/>
      </g>
     </g>
    </g>
    <g id="xtick_31">
     <g id="line2d_34">
      <g>
       <use xlink:href="#m7273dda63a" x="631.437363" y="352" style="stroke: #000000; stroke-width: 0.8"/>
      </g>
     </g>
     <g id="text_20">
      <g id="patch_13">
       <path d="M 625.074863 371.678125 
L 637.799863 371.678125 
Q 640.799863 371.678125 640.799863 368.678125 
L 640.799863 359 
Q 640.799863 356 637.799863 356 
L 625.074863 356 
Q 622.074863 356 622.074863 359 
L 622.074863 368.678125 
Q 622.074863 371.678125 625.074863 371.678125 
z
" style="fill: #ffffff; opacity: 0.7; stroke: #ffffff; stroke-linejoin: miter"/>
      </g>
      <!-- 60 -->
      <g transform="translate(625.074863 366.598438) scale(0.1 -0.1)">
       <use xlink:href="#DejaVuSans-36"/>
       <use xlink:href="#DejaVuSans-30" x="63.623047"/>
      </g>
     </g>
    </g>
    <g id="xtick_32">
     <g id="line2d_35">
      <g>
       <use xlink:href="#m7273dda63a" x="692.096703" y="352" style="stroke: #000000; stroke-width: 0.8"/>
      </g>
     </g>
     <g id="text_21">
      <g id="patch_14">
       <path d="M 685.734203 371.678125 
L 698.459203 371.678125 
Q 701.459203 371.678125 701.459203 368.678125 
L 701.459203 359 
Q 701.459203 356 698.459203 356 
L 685.734203 356 
Q 682.734203 356 682.734203 359 
L 682.734203 368.678125 
Q 682.734203 371.678125 685.734203 371.678125 
z
" style="fill: #ffffff; opacity: 0.7; stroke: #ffffff; stroke-linejoin: miter"/>
      </g>
      <!-- 75 -->
      <g transform="translate(685.734203 366.598438) scale(0.1 -0.1)">
       <use xlink:href="#DejaVuSans-37"/>
       <use xlink:href="#DejaVuSans-35" x="63.623047"/>
      </g>
     </g>
    </g>
    <g id="xtick_33">
     <g id="line2d_36">
      <g>
       <use xlink:href="#m7273dda63a" x="752.756044" y="352" style="stroke: #000000; stroke-width: 0.8"/>
      </g>
     </g>
     <g id="text_22">
      <g id="patch_15">
       <path d="M 746.393544 371.678125 
L 759.118544 371.678125 
Q 762.118544 371.678125 762.118544 368.678125 
L 762.118544 359 
Q 762.118544 356 759.118544 356 
L 746.393544 356 
Q 743.393544 356 743.393544 359 
L 743.393544 368.678125 
Q 743.393544 371.678125 746.393544 371.678125 
z
" style="fill: #ffffff; opacity: 0.7; stroke: #ffffff; stroke-linejoin: miter"/>
      </g>
      <!-- 90 -->
      <g transform="translate(746.393544 366.598438) scale(0.1 -0.1)">
       <defs>
        <path id="DejaVuSans-39" d="M 703 97 
L 703 672 
Q 941 559 1184 500 
Q 1428 441 1663 441 
Q 2288 441 2617 861 
Q 2947 1281 2994 2138 
Q 2813 1869 2534 1725 
Q 2256 1581 1919 1581 
Q 1219 1581 811 2004 
Q 403 2428 403 3163 
Q 403 3881 828 4315 
Q 1253 4750 1959 4750 
Q 2769 4750 3195 4129 
Q 3622 3509 3622 2328 
Q 3622 1225 3098 567 
Q 2575 -91 1691 -91 
Q 1453 -91 1209 -44 
Q 966 3 703 97 
z
M 1959 2075 
Q 2384 2075 2632 2365 
Q 2881 2656 2881 3163 
Q 2881 3666 2632 3958 
Q 2384 4250 1959 4250 
Q 1534 4250 1286 3958 
Q 1038 3666 1038 3163 
Q 1038 2656 1286 2365 
Q 1534 2075 1959 2075 
z
" transform="scale(0.015625)"/>
       </defs>
       <use xlink:href="#DejaVuSans-39"/>
       <use xlink:href="#DejaVuSans-30" x="63.623047"/>
      </g>
     </g>
    </g>
    <g id="xtick_34">
     <g id="line2d_37">
      <defs>
       <path id="m28ddfd0985" d="M 0 0 
L 0 2 
" style="stroke: #000000; stroke-width: 0.6"/>
      </defs>
      <g>
       <use xlink:href="#m28ddfd0985" x="388.8" y="352" style="stroke: #000000; stroke-width: 0.6"/>
      </g>
     </g>
    </g>
    <g id="xtick_35">
     <g id="line2d_38">
      <g>
       <use xlink:href="#m28ddfd0985" x="409.01978" y="352" style="stroke: #000000; stroke-width: 0.6"/>
      </g>
     </g>
    </g>
    <g id="xtick_36">
     <g id="line2d_39">
      <g>
       <use xlink:href="#m28ddfd0985" x="429.23956" y="352" style="stroke: #000000; stroke-width: 0.6"/>
      </g>
     </g>
    </g>
    <g id="xtick_37">
     <g id="line2d_40">
      <g>
       <use xlink:href="#m28ddfd0985" x="469.679121" y="352" style="stroke: #000000; stroke-width: 0.6"/>
      </g>
     </g>
    </g>
    <g id="xtick_38">
     <g id="line2d_41">
      <g>
       <use xlink:href="#m28ddfd0985" x="489.898901" y="352" style="stroke: #000000; stroke-width: 0.6"/>
      </g>
     </g>
    </g>
    <g id="xtick_39">
     <g id="line2d_42">
      <g>
       <use xlink:href="#m28ddfd0985" x="530.338462" y="352" style="stroke: #000000; stroke-width: 0.6"/>
      </g>
     </g>
    </g>
    <g id="xtick_40">
     <g id="line2d_43">
      <g>
       <use xlink:href="#m28ddfd0985" x="550.558242" y="352" style="stroke: #000000; stroke-width: 0.6"/>
      </g>
     </g>
    </g>
    <g id="xtick_41">
     <g id="line2d_44">
      <g>
       <use xlink:href="#m28ddfd0985" x="590.997802" y="352" style="stroke: #000000; stroke-width: 0.6"/>
      </g>
     </g>
    </g>
    <g id="xtick_42">
     <g id="line2d_45">
      <g>
       <use xlink:href="#m28ddfd0985" x="611.217582" y="352" style="stroke: #000000; stroke-width: 0.6"/>
      </g>
     </g>
    </g>
    <g id="xtick_43">
     <g id="line2d_46">
      <g>
       <use xlink:href="#m28ddfd0985" x="651.657143" y="352" style="stroke: #000000; stroke-width: 0.6"/>
      </g>
     </g>
    </g>
    <g id="xtick_44">
     <g id="line2d_47">
      <g>
       <use xlink:href="#m28ddfd0985" x="671.876923" y="352" style="stroke: #000000; stroke-width: 0.6"/>
      </g>
     </g>
    </g>
    <g id="xtick_45">
     <g id="line2d_48">
      <g>
       <use xlink:href="#m28ddfd0985" x="712.316484" y="352" style="stroke: #000000; stroke-width: 0.6"/>
      </g>
     </g>
    </g>
    <g id="xtick_46">
     <g id="line2d_49">
      <g>
       <use xlink:href="#m28ddfd0985" x="732.536264" y="352" style="stroke: #000000; stroke-width: 0.6"/>
      </g>
     </g>
    </g>
    <g id="text_23">
     <!-- $\theta$ / ° -->
     <g transform="translate(761.658 355.315938) scale(0.14 -0.14)">
      <defs>
       <path id="DejaVuSans-Oblique-3b8" d="M 2913 2219 
L 925 2219 
Q 791 1284 928 888 
Q 1100 400 1566 400 
Q 2034 400 2391 891 
Q 2703 1322 2913 2219 
z
M 3009 2750 
Q 3094 3638 2984 3950 
Q 2813 4444 2353 4444 
Q 1875 4444 1525 3956 
Q 1250 3563 1034 2750 
L 3009 2750 
z
M 2444 4913 
Q 3194 4913 3494 4250 
Q 3794 3591 3566 2422 
Q 3341 1256 2781 594 
Q 2225 -72 1475 -72 
Q 722 -72 425 594 
Q 128 1256 353 2422 
Q 581 3591 1134 4250 
Q 1691 4913 2444 4913 
z
" transform="scale(0.015625)"/>
       <path id="DejaVuSans-20" transform="scale(0.015625)"/>
       <path id="DejaVuSans-2f" d="M 1625 4666 
L 2156 4666 
L 531 -594 
L 0 -594 
L 1625 4666 
z
" transform="scale(0.015625)"/>
      </defs>
      <use xlink:href="#DejaVuSans-Oblique-3b8" transform="translate(0 0.234375)"/>
      <use xlink:href="#DejaVuSans-20" transform="translate(61.181641 0.234375)"/>
      <use xlink:href="#DejaVuSans-2f" transform="translate(92.96875 0.234375)"/>
      <use xlink:href="#DejaVuSans-20" transform="translate(126.660156 0.234375)"/>
      <use xlink:href="#DejaVuSans-b0" transform="translate(158.447266 0.234375)"/>
     </g>
    </g>
   </g>
   <g id="matplotlib.axis_6">
    <g id="ytick_14">
     <g id="line2d_50">
      <g>
       <use xlink:href="#m894e19bdc7" x="388.8" y="300.8" style="stroke: #000000; stroke-width: 0.8"/>
      </g>
     </g>
     <g id="text_24">
      <g id="patch_16">
       <path d="M 398.8 309.678906 
L 411.525 309.678906 
Q 414.525 309.678906 414.525 306.678906 
L 414.525 297.000781 
Q 414.525 294.000781 411.525 294.000781 
L 398.8 294.000781 
Q 395.8 294.000781 395.8 297.000781 
L 395.8 306.678906 
Q 395.8 309.678906 398.8 309.678906 
z
" style="fill: #ffffff; opacity: 0.7; stroke: #ffffff; stroke-linejoin: miter"/>
      </g>
      <!-- 20 -->
      <g transform="translate(398.8 304.599219) scale(0.1 -0.1)">
       <use xlink:href="#DejaVuSans-32"/>
       <use xlink:href="#DejaVuSans-30" x="63.623047"/>
      </g>
     </g>
    </g>
    <g id="ytick_15">
     <g id="line2d_51">
      <g>
       <use xlink:href="#m894e19bdc7" x="388.8" y="249.6" style="stroke: #000000; stroke-width: 0.8"/>
      </g>
     </g>
     <g id="text_25">
      <g id="patch_17">
       <path d="M 398.8 258.478906 
L 411.525 258.478906 
Q 414.525 258.478906 414.525 255.478906 
L 414.525 245.800781 
Q 414.525 242.800781 411.525 242.800781 
L 398.8 242.800781 
Q 395.8 242.800781 395.8 245.800781 
L 395.8 255.478906 
Q 395.8 258.478906 398.8 258.478906 
z
" style="fill: #ffffff; opacity: 0.7; stroke: #ffffff; stroke-linejoin: miter"/>
      </g>
      <!-- 40 -->
      <g transform="translate(398.8 253.399219) scale(0.1 -0.1)">
       <use xlink:href="#DejaVuSans-34"/>
       <use xlink:href="#DejaVuSans-30" x="63.623047"/>
      </g>
     </g>
    </g>
    <g id="ytick_16">
     <g id="line2d_52">
      <g>
       <use xlink:href="#m894e19bdc7" x="388.8" y="198.4" style="stroke: #000000; stroke-width: 0.8"/>
      </g>
     </g>
     <g id="text_26">
      <g id="patch_18">
       <path d="M 398.8 207.278906 
L 411.525 207.278906 
Q 414.525 207.278906 414.525 204.278906 
L 414.525 194.600781 
Q 414.525 191.600781 411.525 191.600781 
L 398.8 191.600781 
Q 395.8 191.600781 395.8 194.600781 
L 395.8 204.278906 
Q 395.8 207.278906 398.8 207.278906 
z
" style="fill: #ffffff; opacity: 0.7; stroke: #ffffff; stroke-linejoin: miter"/>
      </g>
      <!-- 60 -->
      <g transform="translate(398.8 202.199219) scale(0.1 -0.1)">
       <use xlink:href="#DejaVuSans-36"/>
       <use xlink:href="#DejaVuSans-30" x="63.623047"/>
      </g>
     </g>
    </g>
    <g id="ytick_17">
     <g id="line2d_53">
      <g>
       <use xlink:href="#m894e19bdc7" x="388.8" y="147.2" style="stroke: #000000; stroke-width: 0.8"/>
      </g>
     </g>
     <g id="text_27">
      <g id="patch_19">
       <path d="M 398.8 156.078906 
L 411.525 156.078906 
Q 414.525 156.078906 414.525 153.078906 
L 414.525 143.400781 
Q 414.525 140.400781 411.525 140.400781 
L 398.8 140.400781 
Q 395.8 140.400781 395.8 143.400781 
L 395.8 153.078906 
Q 395.8 156.078906 398.8 156.078906 
z
" style="fill: #ffffff; opacity: 0.7; stroke: #ffffff; stroke-linejoin: miter"/>
      </g>
      <!-- 80 -->
      <g transform="translate(398.8 150.999219) scale(0.1 -0.1)">
       <use xlink:href="#DejaVuSans-38"/>
       <use xlink:href="#DejaVuSans-30" x="63.623047"/>
      </g>
     </g>
    </g>
    <g id="ytick_18">
     <g id="line2d_54">
      <g>
       <use xlink:href="#m894e19bdc7" x="388.8" y="96" style="stroke: #000000; stroke-width: 0.8"/>
      </g>
     </g>
     <g id="text_28">
      <g id="patch_20">
       <path d="M 398.8 104.878906 
L 417.8875 104.878906 
Q 420.8875 104.878906 420.8875 101.878906 
L 420.8875 92.200781 
Q 420.8875 89.200781 417.8875 89.200781 
L 398.8 89.200781 
Q 395.8 89.200781 395.8 92.200781 
L 395.8 101.878906 
Q 395.8 104.878906 398.8 104.878906 
z
" style="fill: #ffffff; opacity: 0.7; stroke: #ffffff; stroke-linejoin: miter"/>
      </g>
      <!-- 100 -->
      <g transform="translate(398.8 99.799219) scale(0.1 -0.1)">
       <use xlink:href="#DejaVuSans-31"/>
       <use xlink:href="#DejaVuSans-30" x="63.623047"/>
       <use xlink:href="#DejaVuSans-30" x="127.246094"/>
      </g>
     </g>
    </g>
    <g id="ytick_19">
     <g id="line2d_55">
      <defs>
       <path id="m81c93b19a5" d="M 0 0 
L 2 0 
" style="stroke: #000000; stroke-width: 0.6"/>
      </defs>
      <g>
       <use xlink:href="#m81c93b19a5" x="388.8" y="352" style="stroke: #000000; stroke-width: 0.6"/>
      </g>
     </g>
    </g>
    <g id="ytick_20">
     <g id="line2d_56">
      <g>
       <use xlink:href="#m81c93b19a5" x="388.8" y="326.4" style="stroke: #000000; stroke-width: 0.6"/>
      </g>
     </g>
    </g>
    <g id="ytick_21">
     <g id="line2d_57">
      <g>
       <use xlink:href="#m81c93b19a5" x="388.8" y="275.2" style="stroke: #000000; stroke-width: 0.6"/>
      </g>
     </g>
    </g>
    <g id="ytick_22">
     <g id="line2d_58">
      <g>
       <use xlink:href="#m81c93b19a5" x="388.8" y="224" style="stroke: #000000; stroke-width: 0.6"/>
      </g>
     </g>
    </g>
    <g id="ytick_23">
     <g id="line2d_59">
      <g>
       <use xlink:href="#m81c93b19a5" x="388.8" y="172.8" style="stroke: #000000; stroke-width: 0.6"/>
      </g>
     </g>
    </g>
    <g id="ytick_24">
     <g id="line2d_60">
      <g>
       <use xlink:href="#m81c93b19a5" x="388.8" y="121.6" style="stroke: #000000; stroke-width: 0.6"/>
      </g>
     </g>
    </g>
    <g id="ytick_25">
     <g id="line2d_61">
      <g>
       <use xlink:href="#m81c93b19a5" x="388.8" y="70.4" style="stroke: #000000; stroke-width: 0.6"/>
      </g>
     </g>
    </g>
    <g id="text_29">
     <!-- $I$ / $cd$ -->
     <g transform="translate(376.58 45.472438) scale(0.14 -0.14)">
      <defs>
       <path id="DejaVuSans-Oblique-49" d="M 1081 4666 
L 1716 4666 
L 806 0 
L 172 0 
L 1081 4666 
z
" transform="scale(0.015625)"/>
       <path id="DejaVuSans-Oblique-63" d="M 3431 3366 
L 3316 2797 
Q 3109 2947 2876 3022 
Q 2644 3097 2394 3097 
Q 2119 3097 1870 3000 
Q 1622 2903 1453 2725 
Q 1184 2453 1037 2087 
Q 891 1722 891 1331 
Q 891 859 1127 628 
Q 1363 397 1844 397 
Q 2081 397 2348 469 
Q 2616 541 2906 684 
L 2797 116 
Q 2547 13 2283 -39 
Q 2019 -91 1741 -91 
Q 1044 -91 669 257 
Q 294 606 294 1253 
Q 294 1797 489 2255 
Q 684 2713 1069 3078 
Q 1331 3328 1684 3456 
Q 2038 3584 2456 3584 
Q 2700 3584 2940 3529 
Q 3181 3475 3431 3366 
z
" transform="scale(0.015625)"/>
       <path id="DejaVuSans-Oblique-64" d="M 2675 525 
Q 2444 222 2128 65 
Q 1813 -91 1428 -91 
Q 903 -91 598 267 
Q 294 625 294 1247 
Q 294 1766 478 2236 
Q 663 2706 1013 3078 
Q 1244 3325 1534 3454 
Q 1825 3584 2144 3584 
Q 2481 3584 2739 3421 
Q 2997 3259 3138 2956 
L 3513 4863 
L 4091 4863 
L 3144 0 
L 2566 0 
L 2675 525 
z
M 891 1350 
Q 891 897 1095 644 
Q 1300 391 1663 391 
Q 1931 391 2161 520 
Q 2391 650 2566 903 
Q 2750 1166 2856 1509 
Q 2963 1853 2963 2188 
Q 2963 2622 2758 2865 
Q 2553 3109 2194 3109 
Q 1922 3109 1687 2981 
Q 1453 2853 1288 2613 
Q 1106 2353 998 2009 
Q 891 1666 891 1350 
z
" transform="scale(0.015625)"/>
      </defs>
      <use xlink:href="#DejaVuSans-Oblique-49" transform="translate(0 0.015625)"/>
      <use xlink:href="#DejaVuSans-20" transform="translate(29.492188 0.015625)"/>
      <use xlink:href="#DejaVuSans-2f" transform="translate(61.279297 0.015625)"/>
      <use xlink:href="#DejaVuSans-20" transform="translate(94.970703 0.015625)"/>
      <use xlink:href="#DejaVuSans-Oblique-63" transform="translate(126.757812 0.015625)"/>
      <use xlink:href="#DejaVuSans-Oblique-64" transform="translate(181.738281 0.015625)"/>
     </g>
    </g>
   </g>
   <g id="legend_1">
    <g id="patch_21">
     <path d="M 628 80.278125 
L 749.8 80.278125 
Q 751.8 80.278125 751.8 78.278125 
L 751.8 64.6 
Q 751.8 62.6 749.8 62.6 
L 628 62.6 
Q 626 62.6 626 64.6 
L 626 78.278125 
Q 626 80.278125 628 80.278125 
z
" style="fill: #ffffff; opacity: 0.8; stroke: #cccccc; stroke-linejoin: miter"/>
    </g>
    <g id="line2d_62">
     <path d="M 630 70.698438 
L 640 70.698438 
L 650 70.698438 
" style="fill: none; stroke: #00008b; stroke-width: 1.5; stroke-linecap: square"/>
    </g>
    <g id="text_30">
     <!-- error relative to $I_0$ -->
     <g transform="translate(658 74.198438) scale(0.1 -0.1)">
      <defs>
       <path id="DejaVuSans-65" d="M 3597 1894 
L 3597 1613 
L 953 1613 
Q 991 1019 1311 708 
Q 1631 397 2203 397 
Q 2534 397 2845 478 
Q 3156 559 3463 722 
L 3463 178 
Q 3153 47 2828 -22 
Q 2503 -91 2169 -91 
Q 1331 -91 842 396 
Q 353 884 353 1716 
Q 353 2575 817 3079 
Q 1281 3584 2069 3584 
Q 2775 3584 3186 3129 
Q 3597 2675 3597 1894 
z
M 3022 2063 
Q 3016 2534 2758 2815 
Q 2500 3097 2075 3097 
Q 1594 3097 1305 2825 
Q 1016 2553 972 2059 
L 3022 2063 
z
" transform="scale(0.015625)"/>
       <path id="DejaVuSans-72" d="M 2631 2963 
Q 2534 3019 2420 3045 
Q 2306 3072 2169 3072 
Q 1681 3072 1420 2755 
Q 1159 2438 1159 1844 
L 1159 0 
L 581 0 
L 581 3500 
L 1159 3500 
L 1159 2956 
Q 1341 3275 1631 3429 
Q 1922 3584 2338 3584 
Q 2397 3584 2469 3576 
Q 2541 3569 2628 3553 
L 2631 2963 
z
" transform="scale(0.015625)"/>
       <path id="DejaVuSans-6f" d="M 1959 3097 
Q 1497 3097 1228 2736 
Q 959 2375 959 1747 
Q 959 1119 1226 758 
Q 1494 397 1959 397 
Q 2419 397 2687 759 
Q 2956 1122 2956 1747 
Q 2956 2369 2687 2733 
Q 2419 3097 1959 3097 
z
M 1959 3584 
Q 2709 3584 3137 3096 
Q 3566 2609 3566 1747 
Q 3566 888 3137 398 
Q 2709 -91 1959 -91 
Q 1206 -91 779 398 
Q 353 888 353 1747 
Q 353 2609 779 3096 
Q 1206 3584 1959 3584 
z
" transform="scale(0.015625)"/>
       <path id="DejaVuSans-6c" d="M 603 4863 
L 1178 4863 
L 1178 0 
L 603 0 
L 603 4863 
z
" transform="scale(0.015625)"/>
       <path id="DejaVuSans-61" d="M 2194 1759 
Q 1497 1759 1228 1600 
Q 959 1441 959 1056 
Q 959 750 1161 570 
Q 1363 391 1709 391 
Q 2188 391 2477 730 
Q 2766 1069 2766 1631 
L 2766 1759 
L 2194 1759 
z
M 3341 1997 
L 3341 0 
L 2766 0 
L 2766 531 
Q 2569 213 2275 61 
Q 1981 -91 1556 -91 
Q 1019 -91 701 211 
Q 384 513 384 1019 
Q 384 1609 779 1909 
Q 1175 2209 1959 2209 
L 2766 2209 
L 2766 2266 
Q 2766 2663 2505 2880 
Q 2244 3097 1772 3097 
Q 1472 3097 1187 3025 
Q 903 2953 641 2809 
L 641 3341 
Q 956 3463 1253 3523 
Q 1550 3584 1831 3584 
Q 2591 3584 2966 3190 
Q 3341 2797 3341 1997 
z
" transform="scale(0.015625)"/>
       <path id="DejaVuSans-74" d="M 1172 4494 
L 1172 3500 
L 2356 3500 
L 2356 3053 
L 1172 3053 
L 1172 1153 
Q 1172 725 1289 603 
Q 1406 481 1766 481 
L 2356 481 
L 2356 0 
L 1766 0 
Q 1100 0 847 248 
Q 594 497 594 1153 
L 594 3053 
L 172 3053 
L 172 3500 
L 594 3500 
L 594 4494 
L 1172 4494 
z
" transform="scale(0.015625)"/>
       <path id="DejaVuSans-69" d="M 603 3500 
L 1178 3500 
L 1178 0 
L 603 0 
L 603 3500 
z
M 603 4863 
L 1178 4863 
L 1178 4134 
L 603 4134 
L 603 4863 
z
" transform="scale(0.015625)"/>
       <path id="DejaVuSans-76" d="M 191 3500 
L 800 3500 
L 1894 563 
L 2988 3500 
L 3597 3500 
L 2284 0 
L 1503 0 
L 191 3500 
z
" transform="scale(0.015625)"/>
      </defs>
      <use xlink:href="#DejaVuSans-65" transform="translate(0 0.015625)"/>
      <use xlink:href="#DejaVuSans-72" transform="translate(61.523438 0.015625)"/>
      <use xlink:href="#DejaVuSans-72" transform="translate(102.636719 0.015625)"/>
      <use xlink:href="#DejaVuSans-6f" transform="translate(143.75 0.015625)"/>
      <use xlink:href="#DejaVuSans-72" transform="translate(204.931641 0.015625)"/>
      <use xlink:href="#DejaVuSans-20" transform="translate(246.044922 0.015625)"/>
      <use xlink:href="#DejaVuSans-72" transform="translate(277.832031 0.015625)"/>
      <use xlink:href="#DejaVuSans-65" transform="translate(318.945312 0.015625)"/>
      <use xlink:href="#DejaVuSans-6c" transform="translate(380.46875 0.015625)"/>
      <use xlink:href="#DejaVuSans-61" transform="translate(408.251953 0.015625)"/>
      <use xlink:href="#DejaVuSans-74" transform="translate(469.53125 0.015625)"/>
      <use xlink:href="#DejaVuSans-69" transform="translate(508.740234 0.015625)"/>
      <use xlink:href="#DejaVuSans-76" transform="translate(536.523438 0.015625)"/>
      <use xlink:href="#DejaVuSans-65" transform="translate(595.703125 0.015625)"/>
      <use xlink:href="#DejaVuSans-20" transform="translate(657.226562 0.015625)"/>
      <use xlink:href="#DejaVuSans-74" transform="translate(689.013672 0.015625)"/>
      <use xlink:href="#DejaVuSans-6f" transform="translate(728.222656 0.015625)"/>
      <use xlink:href="#DejaVuSans-20" transform="translate(789.404297 0.015625)"/>
      <use xlink:href="#DejaVuSans-Oblique-49" transform="translate(821.191406 0.015625)"/>
      <use xlink:href="#DejaVuSans-30" transform="translate(850.683594 -16.390625) scale(0.7)"/>
     </g>
    </g>
   </g>
   <g id="legend_2">
    <g id="patch_22">
     <path d="M 109.2 472.32 
L 378.5 472.32 
Q 380.5 472.32 380.5 470.32 
L 380.5 441.941875 
Q 380.5 439.941875 378.5 439.941875 
L 109.2 439.941875 
Q 107.2 439.941875 107.2 441.941875 
L 107.2 470.32 
Q 107.2 472.32 109.2 472.32 
z
" style="fill: #ffffff; opacity: 0.8; stroke: #cccccc; stroke-linejoin: miter"/>
    </g>
    <g id="line2d_63">
     <path d="M 111.2 448.040313 
L 121.2 448.040313 
L 131.2 448.040313 
" style="fill: none; stroke: #90ee90; stroke-width: 1.5; stroke-linecap: square"/>
    </g>
    <g id="text_31">
     <!-- $C_0$-Plane of the source LID -->
     <g transform="translate(139.2 451.540313) scale(0.1 -0.1)">
      <defs>
       <path id="DejaVuSans-Oblique-43" d="M 4447 4306 
L 4319 3641 
Q 4019 3944 3683 4091 
Q 3347 4238 2956 4238 
Q 2422 4238 2017 3981 
Q 1613 3725 1319 3200 
Q 1131 2863 1032 2486 
Q 934 2109 934 1728 
Q 934 1091 1264 756 
Q 1594 422 2222 422 
Q 2656 422 3056 561 
Q 3456 700 3834 978 
L 3688 231 
Q 3316 72 2936 -9 
Q 2556 -91 2175 -91 
Q 1278 -91 773 396 
Q 269 884 269 1753 
Q 269 2309 461 2846 
Q 653 3384 1013 3828 
Q 1394 4300 1883 4525 
Q 2372 4750 3022 4750 
Q 3422 4750 3780 4639 
Q 4138 4528 4447 4306 
z
" transform="scale(0.015625)"/>
       <path id="DejaVuSans-50" d="M 1259 4147 
L 1259 2394 
L 2053 2394 
Q 2494 2394 2734 2622 
Q 2975 2850 2975 3272 
Q 2975 3691 2734 3919 
Q 2494 4147 2053 4147 
L 1259 4147 
z
M 628 4666 
L 2053 4666 
Q 2838 4666 3239 4311 
Q 3641 3956 3641 3272 
Q 3641 2581 3239 2228 
Q 2838 1875 2053 1875 
L 1259 1875 
L 1259 0 
L 628 0 
L 628 4666 
z
" transform="scale(0.015625)"/>
       <path id="DejaVuSans-6e" d="M 3513 2113 
L 3513 0 
L 2938 0 
L 2938 2094 
Q 2938 2591 2744 2837 
Q 2550 3084 2163 3084 
Q 1697 3084 1428 2787 
Q 1159 2491 1159 1978 
L 1159 0 
L 581 0 
L 581 3500 
L 1159 3500 
L 1159 2956 
Q 1366 3272 1645 3428 
Q 1925 3584 2291 3584 
Q 2894 3584 3203 3211 
Q 3513 2838 3513 2113 
z
" transform="scale(0.015625)"/>
       <path id="DejaVuSans-66" d="M 2375 4863 
L 2375 4384 
L 1825 4384 
Q 1516 4384 1395 4259 
Q 1275 4134 1275 3809 
L 1275 3500 
L 2222 3500 
L 2222 3053 
L 1275 3053 
L 1275 0 
L 697 0 
L 697 3053 
L 147 3053 
L 147 3500 
L 697 3500 
L 697 3744 
Q 697 4328 969 4595 
Q 1241 4863 1831 4863 
L 2375 4863 
z
" transform="scale(0.015625)"/>
       <path id="DejaVuSans-68" d="M 3513 2113 
L 3513 0 
L 2938 0 
L 2938 2094 
Q 2938 2591 2744 2837 
Q 2550 3084 2163 3084 
Q 1697 3084 1428 2787 
Q 1159 2491 1159 1978 
L 1159 0 
L 581 0 
L 581 4863 
L 1159 4863 
L 1159 2956 
Q 1366 3272 1645 3428 
Q 1925 3584 2291 3584 
Q 2894 3584 3203 3211 
Q 3513 2838 3513 2113 
z
" transform="scale(0.015625)"/>
       <path id="DejaVuSans-73" d="M 2834 3397 
L 2834 2853 
Q 2591 2978 2328 3040 
Q 2066 3103 1784 3103 
Q 1356 3103 1142 2972 
Q 928 2841 928 2578 
Q 928 2378 1081 2264 
Q 1234 2150 1697 2047 
L 1894 2003 
Q 2506 1872 2764 1633 
Q 3022 1394 3022 966 
Q 3022 478 2636 193 
Q 2250 -91 1575 -91 
Q 1294 -91 989 -36 
Q 684 19 347 128 
L 347 722 
Q 666 556 975 473 
Q 1284 391 1588 391 
Q 1994 391 2212 530 
Q 2431 669 2431 922 
Q 2431 1156 2273 1281 
Q 2116 1406 1581 1522 
L 1381 1569 
Q 847 1681 609 1914 
Q 372 2147 372 2553 
Q 372 3047 722 3315 
Q 1072 3584 1716 3584 
Q 2034 3584 2315 3537 
Q 2597 3491 2834 3397 
z
" transform="scale(0.015625)"/>
       <path id="DejaVuSans-75" d="M 544 1381 
L 544 3500 
L 1119 3500 
L 1119 1403 
Q 1119 906 1312 657 
Q 1506 409 1894 409 
Q 2359 409 2629 706 
Q 2900 1003 2900 1516 
L 2900 3500 
L 3475 3500 
L 3475 0 
L 2900 0 
L 2900 538 
Q 2691 219 2414 64 
Q 2138 -91 1772 -91 
Q 1169 -91 856 284 
Q 544 659 544 1381 
z
M 1991 3584 
L 1991 3584 
z
" transform="scale(0.015625)"/>
       <path id="DejaVuSans-63" d="M 3122 3366 
L 3122 2828 
Q 2878 2963 2633 3030 
Q 2388 3097 2138 3097 
Q 1578 3097 1268 2742 
Q 959 2388 959 1747 
Q 959 1106 1268 751 
Q 1578 397 2138 397 
Q 2388 397 2633 464 
Q 2878 531 3122 666 
L 3122 134 
Q 2881 22 2623 -34 
Q 2366 -91 2075 -91 
Q 1284 -91 818 406 
Q 353 903 353 1747 
Q 353 2603 823 3093 
Q 1294 3584 2113 3584 
Q 2378 3584 2631 3529 
Q 2884 3475 3122 3366 
z
" transform="scale(0.015625)"/>
       <path id="DejaVuSans-4c" d="M 628 4666 
L 1259 4666 
L 1259 531 
L 3531 531 
L 3531 0 
L 628 0 
L 628 4666 
z
" transform="scale(0.015625)"/>
       <path id="DejaVuSans-49" d="M 628 4666 
L 1259 4666 
L 1259 0 
L 628 0 
L 628 4666 
z
" transform="scale(0.015625)"/>
       <path id="DejaVuSans-44" d="M 1259 4147 
L 1259 519 
L 2022 519 
Q 2988 519 3436 956 
Q 3884 1394 3884 2338 
Q 3884 3275 3436 3711 
Q 2988 4147 2022 4147 
L 1259 4147 
z
M 628 4666 
L 1925 4666 
Q 3281 4666 3915 4102 
Q 4550 3538 4550 2338 
Q 4550 1131 3912 565 
Q 3275 0 1925 0 
L 628 0 
L 628 4666 
z
" transform="scale(0.015625)"/>
      </defs>
      <use xlink:href="#DejaVuSans-Oblique-43" transform="translate(0 0.015625)"/>
      <use xlink:href="#DejaVuSans-30" transform="translate(69.824219 -16.390625) scale(0.7)"/>
      <use xlink:href="#DejaVuSans-2d" transform="translate(117.094727 0.015625)"/>
      <use xlink:href="#DejaVuSans-50" transform="translate(153.178711 0.015625)"/>
      <use xlink:href="#DejaVuSans-6c" transform="translate(213.481445 0.015625)"/>
      <use xlink:href="#DejaVuSans-61" transform="translate(241.264648 0.015625)"/>
      <use xlink:href="#DejaVuSans-6e" transform="translate(302.543945 0.015625)"/>
      <use xlink:href="#DejaVuSans-65" transform="translate(365.922852 0.015625)"/>
      <use xlink:href="#DejaVuSans-20" transform="translate(427.446289 0.015625)"/>
      <use xlink:href="#DejaVuSans-6f" transform="translate(459.233398 0.015625)"/>
      <use xlink:href="#DejaVuSans-66" transform="translate(520.415039 0.015625)"/>
      <use xlink:href="#DejaVuSans-20" transform="translate(555.620117 0.015625)"/>
      <use xlink:href="#DejaVuSans-74" transform="translate(587.407227 0.015625)"/>
      <use xlink:href="#DejaVuSans-68" transform="translate(626.616211 0.015625)"/>
      <use xlink:href="#DejaVuSans-65" transform="translate(689.995117 0.015625)"/>
      <use xlink:href="#DejaVuSans-20" transform="translate(751.518555 0.015625)"/>
      <use xlink:href="#DejaVuSans-73" transform="translate(783.305664 0.015625)"/>
      <use xlink:href="#DejaVuSans-6f" transform="translate(835.405273 0.015625)"/>
      <use xlink:href="#DejaVuSans-75" transform="translate(896.586914 0.015625)"/>
      <use xlink:href="#DejaVuSans-72" transform="translate(959.96582 0.015625)"/>
      <use xlink:href="#DejaVuSans-63" transform="translate(1001.079102 0.015625)"/>
      <use xlink:href="#DejaVuSans-65" transform="translate(1056.05957 0.015625)"/>
      <use xlink:href="#DejaVuSans-20" transform="translate(1117.583008 0.015625)"/>
      <use xlink:href="#DejaVuSans-4c" transform="translate(1149.370117 0.015625)"/>
      <use xlink:href="#DejaVuSans-49" transform="translate(1205.083008 0.015625)"/>
      <use xlink:href="#DejaVuSans-44" transform="translate(1234.575195 0.015625)"/>
     </g>
    </g>
    <g id="line2d_64">
     <path d="M 111.2 462.72 
L 121.2 462.72 
L 131.2 462.72 
" style="fill: none; stroke: #ff0000; stroke-width: 1.5; stroke-linecap: square"/>
    </g>
    <g id="text_32">
     <!-- $C_0$-Plane of measured LID, error amplified 100x -->
     <g transform="translate(139.2 466.22) scale(0.1 -0.1)">
      <defs>
       <path id="DejaVuSans-6d" d="M 3328 2828 
Q 3544 3216 3844 3400 
Q 4144 3584 4550 3584 
Q 5097 3584 5394 3201 
Q 5691 2819 5691 2113 
L 5691 0 
L 5113 0 
L 5113 2094 
Q 5113 2597 4934 2840 
Q 4756 3084 4391 3084 
Q 3944 3084 3684 2787 
Q 3425 2491 3425 1978 
L 3425 0 
L 2847 0 
L 2847 2094 
Q 2847 2600 2669 2842 
Q 2491 3084 2119 3084 
Q 1678 3084 1418 2786 
Q 1159 2488 1159 1978 
L 1159 0 
L 581 0 
L 581 3500 
L 1159 3500 
L 1159 2956 
Q 1356 3278 1631 3431 
Q 1906 3584 2284 3584 
Q 2666 3584 2933 3390 
Q 3200 3197 3328 2828 
z
" transform="scale(0.015625)"/>
       <path id="DejaVuSans-64" d="M 2906 2969 
L 2906 4863 
L 3481 4863 
L 3481 0 
L 2906 0 
L 2906 525 
Q 2725 213 2448 61 
Q 2172 -91 1784 -91 
Q 1150 -91 751 415 
Q 353 922 353 1747 
Q 353 2572 751 3078 
Q 1150 3584 1784 3584 
Q 2172 3584 2448 3432 
Q 2725 3281 2906 2969 
z
M 947 1747 
Q 947 1113 1208 752 
Q 1469 391 1925 391 
Q 2381 391 2643 752 
Q 2906 1113 2906 1747 
Q 2906 2381 2643 2742 
Q 2381 3103 1925 3103 
Q 1469 3103 1208 2742 
Q 947 2381 947 1747 
z
" transform="scale(0.015625)"/>
       <path id="DejaVuSans-2c" d="M 750 794 
L 1409 794 
L 1409 256 
L 897 -744 
L 494 -744 
L 750 256 
L 750 794 
z
" transform="scale(0.015625)"/>
       <path id="DejaVuSans-70" d="M 1159 525 
L 1159 -1331 
L 581 -1331 
L 581 3500 
L 1159 3500 
L 1159 2969 
Q 1341 3281 1617 3432 
Q 1894 3584 2278 3584 
Q 2916 3584 3314 3078 
Q 3713 2572 3713 1747 
Q 3713 922 3314 415 
Q 2916 -91 2278 -91 
Q 1894 -91 1617 61 
Q 1341 213 1159 525 
z
M 3116 1747 
Q 3116 2381 2855 2742 
Q 2594 3103 2138 3103 
Q 1681 3103 1420 2742 
Q 1159 2381 1159 1747 
Q 1159 1113 1420 752 
Q 1681 391 2138 391 
Q 2594 391 2855 752 
Q 3116 1113 3116 1747 
z
" transform="scale(0.015625)"/>
       <path id="DejaVuSans-78" d="M 3513 3500 
L 2247 1797 
L 3578 0 
L 2900 0 
L 1881 1375 
L 863 0 
L 184 0 
L 1544 1831 
L 300 3500 
L 978 3500 
L 1906 2253 
L 2834 3500 
L 3513 3500 
z
" transform="scale(0.015625)"/>
      </defs>
      <use xlink:href="#DejaVuSans-Oblique-43" transform="translate(0 0.015625)"/>
      <use xlink:href="#DejaVuSans-30" transform="translate(69.824219 -16.390625) scale(0.7)"/>
      <use xlink:href="#DejaVuSans-2d" transform="translate(117.094727 0.015625)"/>
      <use xlink:href="#DejaVuSans-50" transform="translate(153.178711 0.015625)"/>
      <use xlink:href="#DejaVuSans-6c" transform="translate(213.481445 0.015625)"/>
      <use xlink:href="#DejaVuSans-61" transform="translate(241.264648 0.015625)"/>
      <use xlink:href="#DejaVuSans-6e" transform="translate(302.543945 0.015625)"/>
      <use xlink:href="#DejaVuSans-65" transform="translate(365.922852 0.015625)"/>
      <use xlink:href="#DejaVuSans-20" transform="translate(427.446289 0.015625)"/>
      <use xlink:href="#DejaVuSans-6f" transform="translate(459.233398 0.015625)"/>
      <use xlink:href="#DejaVuSans-66" transform="translate(520.415039 0.015625)"/>
      <use xlink:href="#DejaVuSans-20" transform="translate(555.620117 0.015625)"/>
      <use xlink:href="#DejaVuSans-6d" transform="translate(587.407227 0.015625)"/>
      <use xlink:href="#DejaVuSans-65" transform="translate(684.819336 0.015625)"/>
      <use xlink:href="#DejaVuSans-61" transform="translate(746.342773 0.015625)"/>
      <use xlink:href="#DejaVuSans-73" transform="translate(807.62207 0.015625)"/>
      <use xlink:href="#DejaVuSans-75" transform="translate(859.72168 0.015625)"/>
      <use xlink:href="#DejaVuSans-72" transform="translate(923.100586 0.015625)"/>
      <use xlink:href="#DejaVuSans-65" transform="translate(964.213867 0.015625)"/>
      <use xlink:href="#DejaVuSans-64" transform="translate(1025.737305 0.015625)"/>
      <use xlink:href="#DejaVuSans-20" transform="translate(1089.213867 0.015625)"/>
      <use xlink:href="#DejaVuSans-4c" transform="translate(1121.000977 0.015625)"/>
      <use xlink:href="#DejaVuSans-49" transform="translate(1176.713867 0.015625)"/>
      <use xlink:href="#DejaVuSans-44" transform="translate(1206.206055 0.015625)"/>
      <use xlink:href="#DejaVuSans-2c" transform="translate(1283.208008 0.015625)"/>
      <use xlink:href="#DejaVuSans-20" transform="translate(1314.995117 0.015625)"/>
      <use xlink:href="#DejaVuSans-65" transform="translate(1346.782227 0.015625)"/>
      <use xlink:href="#DejaVuSans-72" transform="translate(1408.305664 0.015625)"/>
      <use xlink:href="#DejaVuSans-72" transform="translate(1449.418945 0.015625)"/>
      <use xlink:href="#DejaVuSans-6f" transform="translate(1490.532227 0.015625)"/>
      <use xlink:href="#DejaVuSans-72" transform="translate(1551.713867 0.015625)"/>
      <use xlink:href="#DejaVuSans-20" transform="translate(1592.827148 0.015625)"/>
      <use xlink:href="#DejaVuSans-61" transform="translate(1624.614258 0.015625)"/>
      <use xlink:href="#DejaVuSans-6d" transform="translate(1685.893555 0.015625)"/>
      <use xlink:href="#DejaVuSans-70" transform="translate(1783.305664 0.015625)"/>
      <use xlink:href="#DejaVuSans-6c" transform="translate(1846.782227 0.015625)"/>
      <use xlink:href="#DejaVuSans-69" transform="translate(1874.56543 0.015625)"/>
      <use xlink:href="#DejaVuSans-66" transform="translate(1902.348633 0.015625)"/>
      <use xlink:href="#DejaVuSans-69" transform="translate(1937.553711 0.015625)"/>
      <use xlink:href="#DejaVuSans-65" transform="translate(1965.336914 0.015625)"/>
      <use xlink:href="#DejaVuSans-64" transform="translate(2026.860352 0.015625)"/>
      <use xlink:href="#DejaVuSans-20" transform="translate(2090.336914 0.015625)"/>
      <use xlink:href="#DejaVuSans-31" transform="translate(2122.124023 0.015625)"/>
      <use xlink:href="#DejaVuSans-30" transform="translate(2185.74707 0.015625)"/>
      <use xlink:href="#DejaVuSans-30" transform="translate(2249.370117 0.015625)"/>
      <use xlink:href="#DejaVuSans-78" transform="translate(2312.993164 0.015625)"/>
     </g>
    </g>
   </g>
  </g>
 </g>
 <defs>
  <clipPath id="pc8687117fc">
   <path d="M 388.8 70.4 
C 314.14368 70.4 242.468721 100.08874 189.67873 152.87873 
C 136.88874 205.668721 107.2 277.34368 107.2 352 
L 388.8 352 
C 388.8 352 388.8 352 388.8 352 
C 388.8 352 388.8 352 388.8 352 
z
"/>
  </clipPath>
  <clipPath id="pa432453e7a">
   <rect x="107.2" y="57.6" width="649.6" height="460.8"/>
  </clipPath>
 </defs>
</svg>
