<?xml version="1.0" encoding="utf-8" standalone="no"?>
<!DOCTYPE svg PUBLIC "-//W3C//DTD SVG 1.1//EN"
  "http://www.w3.org/Graphics/SVG/1.1/DTD/svg11.dtd">
<svg xmlns:xlink="http://www.w3.org/1999/xlink" width="864pt" height="576pt" viewBox="0 0 864 576" xmlns="http://www.w3.org/2000/svg" version="1.1">
 <metadata>
  <rdf:RDF xmlns:dc="http://purl.org/dc/elements/1.1/" xmlns:cc="http://creativecommons.org/ns#" xmlns:rdf="http://www.w3.org/1999/02/22-rdf-syntax-ns#">
   <cc:Work>
    <dc:type rdf:resource="http://purl.org/dc/dcmitype/StillImage"/>
    <dc:date>2023-08-24T16:10:35.272665</dc:date>
    <dc:format>image/svg+xml</dc:format>
    <dc:creator>
     <cc:Agent>
      <dc:title>Matplotlib v3.7.1, https://matplotlib.org/</dc:title>
     </cc:Agent>
    </dc:creator>
   </cc:Work>
  </rdf:RDF>
 </metadata>
 <defs>
  <style type="text/css">*{stroke-linejoin: round; stroke-linecap: butt}</style>
 </defs>
 <g id="figure_1">
  <g id="patch_1">
   <path d="M 0 576 
L 864 576 
L 864 0 
L 0 0 
z
" style="fill: #ffffff"/>
  </g>
  <g id="axes_1">
   <g id="patch_2">
    <path d="M 100.8 518.4 
L 763.2 518.4 
L 763.2 57.6 
L 100.8 57.6 
L 100.8 518.4 
z
" style="fill: none; opacity: 0"/>
   </g>
   <g id="matplotlib.axis_1">
    <g id="xtick_1"/>
    <g id="xtick_2"/>
    <g id="xtick_3"/>
    <g id="xtick_4"/>
    <g id="xtick_5"/>
    <g id="xtick_6"/>
    <g id="xtick_7"/>
    <g id="xtick_8"/>
    <g id="xtick_9"/>
    <g id="xtick_10"/>
    <g id="xtick_11"/>
    <g id="xtick_12"/>
    <g id="xtick_13"/>
    <g id="xtick_14"/>
    <g id="xtick_15"/>
    <g id="xtick_16"/>
    <g id="xtick_17"/>
    <g id="xtick_18"/>
    <g id="xtick_19"/>
    <g id="xtick_20"/>
    <g id="xtick_21"/>
    <g id="xtick_22"/>
    <g id="xtick_23"/>
    <g id="xtick_24"/>
    <g id="xtick_25"/>
    <g id="xtick_26"/>
    <g id="xtick_27"/>
    <g id="xtick_28"/>
    <g id="xtick_29"/>
    <g id="xtick_30"/>
    <g id="xtick_31"/>
    <g id="xtick_32"/>
    <g id="xtick_33"/>
    <g id="xtick_34"/>
    <g id="xtick_35"/>
    <g id="xtick_36"/>
    <g id="xtick_37"/>
    <g id="xtick_38"/>
   </g>
   <g id="matplotlib.axis_2">
    <g id="ytick_1">
     <g id="line2d_1">
      <defs>
       <path id="mfbc5214ddf" d="M 0 0 
L 3.5 0 
" style="stroke: #000000; stroke-width: 0.8"/>
      </defs>
      <g>
       <use xlink:href="#mfbc5214ddf" x="809.568" y="514.937205" style="stroke: #000000; stroke-width: 0.8"/>
      </g>
     </g>
     <g id="text_1">
      <!-- −0.3 -->
      <g transform="translate(816.568 518.736424) scale(0.1 -0.1)">
       <defs>
        <path id="DejaVuSans-2212" d="M 678 2272 
L 4684 2272 
L 4684 1741 
L 678 1741 
L 678 2272 
z
" transform="scale(0.015625)"/>
        <path id="DejaVuSans-30" d="M 2034 4250 
Q 1547 4250 1301 3770 
Q 1056 3291 1056 2328 
Q 1056 1369 1301 889 
Q 1547 409 2034 409 
Q 2525 409 2770 889 
Q 3016 1369 3016 2328 
Q 3016 3291 2770 3770 
Q 2525 4250 2034 4250 
z
M 2034 4750 
Q 2819 4750 3233 4129 
Q 3647 3509 3647 2328 
Q 3647 1150 3233 529 
Q 2819 -91 2034 -91 
Q 1250 -91 836 529 
Q 422 1150 422 2328 
Q 422 3509 836 4129 
Q 1250 4750 2034 4750 
z
" transform="scale(0.015625)"/>
        <path id="DejaVuSans-2e" d="M 684 794 
L 1344 794 
L 1344 0 
L 684 0 
L 684 794 
z
" transform="scale(0.015625)"/>
        <path id="DejaVuSans-33" d="M 2597 2516 
Q 3050 2419 3304 2112 
Q 3559 1806 3559 1356 
Q 3559 666 3084 287 
Q 2609 -91 1734 -91 
Q 1441 -91 1130 -33 
Q 819 25 488 141 
L 488 750 
Q 750 597 1062 519 
Q 1375 441 1716 441 
Q 2309 441 2620 675 
Q 2931 909 2931 1356 
Q 2931 1769 2642 2001 
Q 2353 2234 1838 2234 
L 1294 2234 
L 1294 2753 
L 1863 2753 
Q 2328 2753 2575 2939 
Q 2822 3125 2822 3475 
Q 2822 3834 2567 4026 
Q 2313 4219 1838 4219 
Q 1578 4219 1281 4162 
Q 984 4106 628 3988 
L 628 4550 
Q 988 4650 1302 4700 
Q 1616 4750 1894 4750 
Q 2613 4750 3031 4423 
Q 3450 4097 3450 3541 
Q 3450 3153 3228 2886 
Q 3006 2619 2597 2516 
z
" transform="scale(0.015625)"/>
       </defs>
       <use xlink:href="#DejaVuSans-2212"/>
       <use xlink:href="#DejaVuSans-30" x="83.789062"/>
       <use xlink:href="#DejaVuSans-2e" x="147.412109"/>
       <use xlink:href="#DejaVuSans-33" x="179.199219"/>
      </g>
     </g>
    </g>
    <g id="ytick_2">
     <g id="line2d_2">
      <g>
       <use xlink:href="#mfbc5214ddf" x="809.568" y="450.81147" style="stroke: #000000; stroke-width: 0.8"/>
      </g>
     </g>
     <g id="text_2">
      <!-- −0.2 -->
      <g transform="translate(816.568 454.610689) scale(0.1 -0.1)">
       <defs>
        <path id="DejaVuSans-32" d="M 1228 531 
L 3431 531 
L 3431 0 
L 469 0 
L 469 531 
Q 828 903 1448 1529 
Q 2069 2156 2228 2338 
Q 2531 2678 2651 2914 
Q 2772 3150 2772 3378 
Q 2772 3750 2511 3984 
Q 2250 4219 1831 4219 
Q 1534 4219 1204 4116 
Q 875 4013 500 3803 
L 500 4441 
Q 881 4594 1212 4672 
Q 1544 4750 1819 4750 
Q 2544 4750 2975 4387 
Q 3406 4025 3406 3419 
Q 3406 3131 3298 2873 
Q 3191 2616 2906 2266 
Q 2828 2175 2409 1742 
Q 1991 1309 1228 531 
z
" transform="scale(0.015625)"/>
       </defs>
       <use xlink:href="#DejaVuSans-2212"/>
       <use xlink:href="#DejaVuSans-30" x="83.789062"/>
       <use xlink:href="#DejaVuSans-2e" x="147.412109"/>
       <use xlink:href="#DejaVuSans-32" x="179.199219"/>
      </g>
     </g>
    </g>
    <g id="ytick_3">
     <g id="line2d_3">
      <g>
       <use xlink:href="#mfbc5214ddf" x="809.568" y="386.685735" style="stroke: #000000; stroke-width: 0.8"/>
      </g>
     </g>
     <g id="text_3">
      <!-- −0.1 -->
      <g transform="translate(816.568 390.484954) scale(0.1 -0.1)">
       <defs>
        <path id="DejaVuSans-31" d="M 794 531 
L 1825 531 
L 1825 4091 
L 703 3866 
L 703 4441 
L 1819 4666 
L 2450 4666 
L 2450 531 
L 3481 531 
L 3481 0 
L 794 0 
L 794 531 
z
" transform="scale(0.015625)"/>
       </defs>
       <use xlink:href="#DejaVuSans-2212"/>
       <use xlink:href="#DejaVuSans-30" x="83.789062"/>
       <use xlink:href="#DejaVuSans-2e" x="147.412109"/>
       <use xlink:href="#DejaVuSans-31" x="179.199219"/>
      </g>
     </g>
    </g>
    <g id="ytick_4">
     <g id="line2d_4">
      <g>
       <use xlink:href="#mfbc5214ddf" x="809.568" y="322.56" style="stroke: #000000; stroke-width: 0.8"/>
      </g>
     </g>
     <g id="text_4">
      <!-- 0.0 -->
      <g transform="translate(816.568 326.359219) scale(0.1 -0.1)">
       <use xlink:href="#DejaVuSans-30"/>
       <use xlink:href="#DejaVuSans-2e" x="63.623047"/>
       <use xlink:href="#DejaVuSans-30" x="95.410156"/>
      </g>
     </g>
    </g>
    <g id="ytick_5">
     <g id="line2d_5">
      <g>
       <use xlink:href="#mfbc5214ddf" x="809.568" y="258.434265" style="stroke: #000000; stroke-width: 0.8"/>
      </g>
     </g>
     <g id="text_5">
      <!-- 0.1 -->
      <g transform="translate(816.568 262.233484) scale(0.1 -0.1)">
       <use xlink:href="#DejaVuSans-30"/>
       <use xlink:href="#DejaVuSans-2e" x="63.623047"/>
       <use xlink:href="#DejaVuSans-31" x="95.410156"/>
      </g>
     </g>
    </g>
    <g id="ytick_6">
     <g id="line2d_6">
      <g>
       <use xlink:href="#mfbc5214ddf" x="809.568" y="194.30853" style="stroke: #000000; stroke-width: 0.8"/>
      </g>
     </g>
     <g id="text_6">
      <!-- 0.2 -->
      <g transform="translate(816.568 198.107748) scale(0.1 -0.1)">
       <use xlink:href="#DejaVuSans-30"/>
       <use xlink:href="#DejaVuSans-2e" x="63.623047"/>
       <use xlink:href="#DejaVuSans-32" x="95.410156"/>
      </g>
     </g>
    </g>
    <g id="ytick_7">
     <g id="line2d_7">
      <g>
       <use xlink:href="#mfbc5214ddf" x="809.568" y="130.182795" style="stroke: #000000; stroke-width: 0.8"/>
      </g>
     </g>
     <g id="text_7">
      <!-- 0.3 -->
      <g transform="translate(816.568 133.982013) scale(0.1 -0.1)">
       <use xlink:href="#DejaVuSans-30"/>
       <use xlink:href="#DejaVuSans-2e" x="63.623047"/>
       <use xlink:href="#DejaVuSans-33" x="95.410156"/>
      </g>
     </g>
    </g>
    <g id="ytick_8">
     <g id="line2d_8">
      <g>
       <use xlink:href="#mfbc5214ddf" x="809.568" y="66.057059" style="stroke: #000000; stroke-width: 0.8"/>
      </g>
     </g>
     <g id="text_8">
      <!-- 0.4 -->
      <g transform="translate(816.568 69.856278) scale(0.1 -0.1)">
       <defs>
        <path id="DejaVuSans-34" d="M 2419 4116 
L 825 1625 
L 2419 1625 
L 2419 4116 
z
M 2253 4666 
L 3047 4666 
L 3047 1625 
L 3713 1625 
L 3713 1100 
L 3047 1100 
L 3047 0 
L 2419 0 
L 2419 1100 
L 313 1100 
L 313 1709 
L 2253 4666 
z
" transform="scale(0.015625)"/>
       </defs>
       <use xlink:href="#DejaVuSans-30"/>
       <use xlink:href="#DejaVuSans-2e" x="63.623047"/>
       <use xlink:href="#DejaVuSans-34" x="95.410156"/>
      </g>
     </g>
    </g>
    <g id="text_9">
     <!-- % -->
     <g transform="translate(802.199719 45.197813) scale(0.14 -0.14)">
      <defs>
       <path id="DejaVuSans-25" d="M 4653 2053 
Q 4381 2053 4226 1822 
Q 4072 1591 4072 1178 
Q 4072 772 4226 539 
Q 4381 306 4653 306 
Q 4919 306 5073 539 
Q 5228 772 5228 1178 
Q 5228 1588 5073 1820 
Q 4919 2053 4653 2053 
z
M 4653 2450 
Q 5147 2450 5437 2106 
Q 5728 1763 5728 1178 
Q 5728 594 5436 251 
Q 5144 -91 4653 -91 
Q 4153 -91 3862 251 
Q 3572 594 3572 1178 
Q 3572 1766 3864 2108 
Q 4156 2450 4653 2450 
z
M 1428 4353 
Q 1159 4353 1004 4120 
Q 850 3888 850 3481 
Q 850 3069 1003 2837 
Q 1156 2606 1428 2606 
Q 1700 2606 1854 2837 
Q 2009 3069 2009 3481 
Q 2009 3884 1853 4118 
Q 1697 4353 1428 4353 
z
M 4250 4750 
L 4750 4750 
L 1831 -91 
L 1331 -91 
L 4250 4750 
z
M 1428 4750 
Q 1922 4750 2215 4408 
Q 2509 4066 2509 3481 
Q 2509 2891 2217 2550 
Q 1925 2209 1428 2209 
Q 931 2209 642 2551 
Q 353 2894 353 3481 
Q 353 4063 643 4406 
Q 934 4750 1428 4750 
z
" transform="scale(0.015625)"/>
      </defs>
      <use xlink:href="#DejaVuSans-25"/>
     </g>
    </g>
   </g>
   <g id="line2d_9">
    <path d="M 432 57.6 
" style="fill: none; stroke: #000000; stroke-width: 1.5; stroke-linecap: square"/>
    <defs>
     <path id="m5b2def02f6" d="M 0 -2 
L -2 2 
L 2 2 
z
" style="stroke: #000000; stroke-linejoin: miter"/>
    </defs>
    <g>
     <use xlink:href="#m5b2def02f6" x="432" y="57.6" style="stroke: #000000; stroke-linejoin: miter"/>
    </g>
   </g>
   <g id="line2d_10">
    <path d="M 763.2 322.56 
" style="fill: none; stroke: #000000; stroke-width: 1.5; stroke-linecap: square"/>
    <defs>
     <path id="m80544e4c37" d="M 2 0 
L -2 -2 
L -2 2 
z
" style="stroke: #000000; stroke-linejoin: miter"/>
    </defs>
    <g>
     <use xlink:href="#m80544e4c37" x="763.2" y="322.56" style="stroke: #000000; stroke-linejoin: miter"/>
    </g>
   </g>
   <g id="line2d_11">
    <path d="M 111.6 318.538966 
L 142.2 284.533032 
L 160.2 264.872447 
L 174.6 249.453007 
L 187.2 236.250641 
L 199.8 223.370243 
L 210.6 212.622622 
L 221.4 202.176331 
L 232.2 192.060003 
L 241.2 183.901819 
L 250.2 176.007578 
L 259.2 168.392308 
L 268.2 161.070506 
L 277.2 154.056107 
L 286.2 147.362466 
L 295.2 141.002322 
L 302.4 136.162484 
L 309.6 131.549743 
L 316.8 127.169719 
L 324 123.027747 
L 331.2 119.128875 
L 338.4 115.477852 
L 345.6 112.079127 
L 352.8 108.93684 
L 360 106.05482 
L 367.2 103.436579 
L 374.4 101.085305 
L 381.6 99.003865 
L 388.8 97.194793 
L 396 95.660294 
L 403.2 94.402237 
L 410.4 93.422155 
L 417.6 92.721243 
L 424.8 92.300353 
L 432 92.16 
L 439.2 92.300353 
L 446.4 92.721243 
L 453.6 93.422155 
L 460.8 94.402237 
L 468 95.660294 
L 475.2 97.194793 
L 482.4 99.003865 
L 489.6 101.085305 
L 496.8 103.436579 
L 504 106.05482 
L 511.2 108.93684 
L 518.4 112.079127 
L 525.6 115.477852 
L 532.8 119.128875 
L 540 123.027747 
L 547.2 127.169719 
L 554.4 131.549743 
L 561.6 136.162484 
L 568.8 141.002322 
L 576 146.06336 
L 585 152.691302 
L 594 159.642598 
L 603 166.904016 
L 612 174.461735 
L 621 182.301367 
L 630 190.407989 
L 640.8 200.466602 
L 651.6 210.859863 
L 662.4 221.559288 
L 675 234.389737 
L 687.6 247.549097 
L 702 262.928092 
L 718.2 280.572935 
L 738 302.479317 
L 752.4 318.538966 
L 752.4 318.538966 
" clip-path="url(#p5a2b670283)" style="fill: none; stroke: #90ee90; stroke-width: 1.5; stroke-linecap: square"/>
   </g>
   <g id="line2d_12">
    <path d="M 111.6 319.742685 
L 163.8 278.75462 
L 199.8 250.183657 
L 282.6 184.276883 
L 298.8 171.759039 
L 313.2 160.895181 
L 325.8 151.654905 
L 336.6 143.976308 
L 347.4 136.560267 
L 358.2 129.446058 
L 367.2 123.777467 
L 376.2 118.370928 
L 385.2 113.251009 
L 392.4 109.378107 
L 399.6 105.717257 
L 406.8 102.28118 
L 414 99.082513 
L 421.2 96.13376 
L 428.4 93.44723 
L 435.6 91.034985 
L 442.8 88.908776 
L 450 87.07999 
L 455.4 85.910198 
L 460.8 84.918337 
L 466.2 84.108693 
L 471.6 83.485379 
L 477 83.052315 
L 482.4 82.813219 
L 487.8 82.771598 
L 493.2 82.93073 
L 498.6 83.293658 
L 504 83.863177 
L 509.4 84.641824 
L 514.8 85.631869 
L 520.2 86.835305 
L 525.6 88.253837 
L 531 89.888878 
L 536.4 91.741541 
L 541.8 93.812627 
L 547.2 96.102625 
L 552.6 98.611703 
L 558 101.339703 
L 563.4 104.286137 
L 568.8 107.450187 
L 574.2 110.830695 
L 579.6 114.426167 
L 585 118.234771 
L 590.4 122.254334 
L 597.6 127.937516 
L 604.8 133.98434 
L 612 140.386853 
L 619.2 147.136053 
L 626.4 154.221906 
L 633.6 161.633368 
L 640.8 169.358406 
L 648 177.384032 
L 655.2 185.696332 
L 664.2 196.467216 
L 673.2 207.632087 
L 682.2 219.158266 
L 691.2 231.011292 
L 702 245.615459 
L 712.8 260.5732 
L 725.4 278.380475 
L 741.6 301.66869 
L 752.4 317.330423 
L 752.4 317.330423 
" clip-path="url(#p5a2b670283)" style="fill: none; stroke: #ff0000; stroke-width: 1.5; stroke-linecap: square"/>
   </g>
   <g id="line2d_13">
    <path d="M 809.568 57.6 
" style="fill: none; stroke: #000000; stroke-width: 1.5; stroke-linecap: square"/>
    <g>
     <use xlink:href="#m5b2def02f6" x="809.568" y="57.6" style="stroke: #000000; stroke-linejoin: miter"/>
    </g>
   </g>
   <g id="line2d_14">
    <path d="M 111.6 514.523947 
L 118.8 514.290846 
L 126 513.824923 
L 133.2 513.126736 
L 140.4 512.197124 
L 147.6 511.0372 
L 154.8 509.648356 
L 162 508.032257 
L 169.2 506.190842 
L 176.4 504.12632 
L 183.6 501.841168 
L 190.8 499.338128 
L 198 496.620204 
L 205.2 493.690661 
L 212.4 490.553015 
L 219.6 487.211036 
L 226.8 483.668738 
L 235.8 478.965678 
L 244.8 473.965124 
L 253.8 468.676474 
L 262.8 463.10967 
L 271.8 457.275183 
L 280.8 451.183992 
L 289.8 444.847564 
L 300.6 436.936977 
L 311.4 428.711929 
L 322.2 420.194758 
L 333 411.408611 
L 345.6 400.850067 
L 358.2 389.997082 
L 372.6 377.284796 
L 388.8 362.663424 
L 408.6 344.459324 
L 441 314.295927 
L 468 289.266936 
L 486 272.863146 
L 502.2 258.414424 
L 516.6 245.896626 
L 529.2 235.245265 
L 540 226.371558 
L 550.8 217.760084 
L 561.6 209.434645 
L 572.4 201.418264 
L 581.4 194.990067 
L 590.4 188.80428 
L 599.4 182.872806 
L 608.4 177.207063 
L 617.4 171.817965 
L 626.4 166.715896 
L 635.4 161.910692 
L 644.4 157.41162 
L 651.6 154.03863 
L 658.8 150.871299 
L 666 147.913538 
L 673.2 145.169005 
L 680.4 142.641091 
L 687.6 140.332922 
L 694.8 138.247352 
L 702 136.386962 
L 709.2 134.754053 
L 716.4 133.350644 
L 723.6 132.178474 
L 730.8 131.238991 
L 738 130.53336 
L 745.2 130.062454 
L 752.4 129.826855 
L 752.4 129.826855 
" clip-path="url(#p5a2b670283)" style="fill: none; stroke: #00008b; stroke-width: 1.5; stroke-linecap: square"/>
   </g>
   <g id="patch_3">
    <path d="M 809.568 518.4 
L 809.568 57.6 
" style="fill: none; stroke: #000000; stroke-width: 0.8; stroke-linejoin: miter; stroke-linecap: square"/>
   </g>
   <g id="patch_4">
    <path d="M 432 518.4 
L 432 57.6 
" style="fill: none; stroke: #000000; stroke-width: 0.8; stroke-linejoin: miter; stroke-linecap: square"/>
   </g>
   <g id="patch_5">
    <path d="M 100.8 322.56 
L 763.2 322.56 
" style="fill: none; stroke: #000000; stroke-width: 0.8; stroke-linejoin: miter; stroke-linecap: square"/>
   </g>
   <g id="matplotlib.axis_3">
    <g id="xtick_39">
     <g id="line2d_15">
      <defs>
       <path id="m3b812f8025" d="M 0 0 
L 0 3.5 
" style="stroke: #000000; stroke-width: 0.8"/>
      </defs>
      <g>
       <use xlink:href="#m3b812f8025" x="108" y="322.56" style="stroke: #000000; stroke-width: 0.8"/>
      </g>
     </g>
     <g id="text_10">
      <g id="patch_6">
       <path d="M 97.447656 342.238125 
L 118.552344 342.238125 
Q 121.552344 342.238125 121.552344 339.238125 
L 121.552344 329.56 
Q 121.552344 326.56 118.552344 326.56 
L 97.447656 326.56 
Q 94.447656 326.56 94.447656 329.56 
L 94.447656 339.238125 
Q 94.447656 342.238125 97.447656 342.238125 
z
" style="fill: #ffffff; opacity: 0.7; stroke: #ffffff; stroke-linejoin: miter"/>
      </g>
      <!-- −90 -->
      <g transform="translate(97.447656 337.158437) scale(0.1 -0.1)">
       <defs>
        <path id="DejaVuSans-39" d="M 703 97 
L 703 672 
Q 941 559 1184 500 
Q 1428 441 1663 441 
Q 2288 441 2617 861 
Q 2947 1281 2994 2138 
Q 2813 1869 2534 1725 
Q 2256 1581 1919 1581 
Q 1219 1581 811 2004 
Q 403 2428 403 3163 
Q 403 3881 828 4315 
Q 1253 4750 1959 4750 
Q 2769 4750 3195 4129 
Q 3622 3509 3622 2328 
Q 3622 1225 3098 567 
Q 2575 -91 1691 -91 
Q 1453 -91 1209 -44 
Q 966 3 703 97 
z
M 1959 2075 
Q 2384 2075 2632 2365 
Q 2881 2656 2881 3163 
Q 2881 3666 2632 3958 
Q 2384 4250 1959 4250 
Q 1534 4250 1286 3958 
Q 1038 3666 1038 3163 
Q 1038 2656 1286 2365 
Q 1534 2075 1959 2075 
z
" transform="scale(0.015625)"/>
       </defs>
       <use xlink:href="#DejaVuSans-2212"/>
       <use xlink:href="#DejaVuSans-39" x="83.789062"/>
       <use xlink:href="#DejaVuSans-30" x="147.412109"/>
      </g>
     </g>
    </g>
    <g id="xtick_40">
     <g id="line2d_16">
      <g>
       <use xlink:href="#m3b812f8025" x="162" y="322.56" style="stroke: #000000; stroke-width: 0.8"/>
      </g>
     </g>
     <g id="text_11">
      <g id="patch_7">
       <path d="M 151.447656 342.238125 
L 172.552344 342.238125 
Q 175.552344 342.238125 175.552344 339.238125 
L 175.552344 329.56 
Q 175.552344 326.56 172.552344 326.56 
L 151.447656 326.56 
Q 148.447656 326.56 148.447656 329.56 
L 148.447656 339.238125 
Q 148.447656 342.238125 151.447656 342.238125 
z
" style="fill: #ffffff; opacity: 0.7; stroke: #ffffff; stroke-linejoin: miter"/>
      </g>
      <!-- −75 -->
      <g transform="translate(151.447656 337.158437) scale(0.1 -0.1)">
       <defs>
        <path id="DejaVuSans-37" d="M 525 4666 
L 3525 4666 
L 3525 4397 
L 1831 0 
L 1172 0 
L 2766 4134 
L 525 4134 
L 525 4666 
z
" transform="scale(0.015625)"/>
        <path id="DejaVuSans-35" d="M 691 4666 
L 3169 4666 
L 3169 4134 
L 1269 4134 
L 1269 2991 
Q 1406 3038 1543 3061 
Q 1681 3084 1819 3084 
Q 2600 3084 3056 2656 
Q 3513 2228 3513 1497 
Q 3513 744 3044 326 
Q 2575 -91 1722 -91 
Q 1428 -91 1123 -41 
Q 819 9 494 109 
L 494 744 
Q 775 591 1075 516 
Q 1375 441 1709 441 
Q 2250 441 2565 725 
Q 2881 1009 2881 1497 
Q 2881 1984 2565 2268 
Q 2250 2553 1709 2553 
Q 1456 2553 1204 2497 
Q 953 2441 691 2322 
L 691 4666 
z
" transform="scale(0.015625)"/>
       </defs>
       <use xlink:href="#DejaVuSans-2212"/>
       <use xlink:href="#DejaVuSans-37" x="83.789062"/>
       <use xlink:href="#DejaVuSans-35" x="147.412109"/>
      </g>
     </g>
    </g>
    <g id="xtick_41">
     <g id="line2d_17">
      <g>
       <use xlink:href="#m3b812f8025" x="216" y="322.56" style="stroke: #000000; stroke-width: 0.8"/>
      </g>
     </g>
     <g id="text_12">
      <g id="patch_8">
       <path d="M 205.447656 342.238125 
L 226.552344 342.238125 
Q 229.552344 342.238125 229.552344 339.238125 
L 229.552344 329.56 
Q 229.552344 326.56 226.552344 326.56 
L 205.447656 326.56 
Q 202.447656 326.56 202.447656 329.56 
L 202.447656 339.238125 
Q 202.447656 342.238125 205.447656 342.238125 
z
" style="fill: #ffffff; opacity: 0.7; stroke: #ffffff; stroke-linejoin: miter"/>
      </g>
      <!-- −60 -->
      <g transform="translate(205.447656 337.158437) scale(0.1 -0.1)">
       <defs>
        <path id="DejaVuSans-36" d="M 2113 2584 
Q 1688 2584 1439 2293 
Q 1191 2003 1191 1497 
Q 1191 994 1439 701 
Q 1688 409 2113 409 
Q 2538 409 2786 701 
Q 3034 994 3034 1497 
Q 3034 2003 2786 2293 
Q 2538 2584 2113 2584 
z
M 3366 4563 
L 3366 3988 
Q 3128 4100 2886 4159 
Q 2644 4219 2406 4219 
Q 1781 4219 1451 3797 
Q 1122 3375 1075 2522 
Q 1259 2794 1537 2939 
Q 1816 3084 2150 3084 
Q 2853 3084 3261 2657 
Q 3669 2231 3669 1497 
Q 3669 778 3244 343 
Q 2819 -91 2113 -91 
Q 1303 -91 875 529 
Q 447 1150 447 2328 
Q 447 3434 972 4092 
Q 1497 4750 2381 4750 
Q 2619 4750 2861 4703 
Q 3103 4656 3366 4563 
z
" transform="scale(0.015625)"/>
       </defs>
       <use xlink:href="#DejaVuSans-2212"/>
       <use xlink:href="#DejaVuSans-36" x="83.789062"/>
       <use xlink:href="#DejaVuSans-30" x="147.412109"/>
      </g>
     </g>
    </g>
    <g id="xtick_42">
     <g id="line2d_18">
      <g>
       <use xlink:href="#m3b812f8025" x="270" y="322.56" style="stroke: #000000; stroke-width: 0.8"/>
      </g>
     </g>
     <g id="text_13">
      <g id="patch_9">
       <path d="M 259.447656 342.238125 
L 280.552344 342.238125 
Q 283.552344 342.238125 283.552344 339.238125 
L 283.552344 329.56 
Q 283.552344 326.56 280.552344 326.56 
L 259.447656 326.56 
Q 256.447656 326.56 256.447656 329.56 
L 256.447656 339.238125 
Q 256.447656 342.238125 259.447656 342.238125 
z
" style="fill: #ffffff; opacity: 0.7; stroke: #ffffff; stroke-linejoin: miter"/>
      </g>
      <!-- −45 -->
      <g transform="translate(259.447656 337.158437) scale(0.1 -0.1)">
       <use xlink:href="#DejaVuSans-2212"/>
       <use xlink:href="#DejaVuSans-34" x="83.789062"/>
       <use xlink:href="#DejaVuSans-35" x="147.412109"/>
      </g>
     </g>
    </g>
    <g id="xtick_43">
     <g id="line2d_19">
      <g>
       <use xlink:href="#m3b812f8025" x="324" y="322.56" style="stroke: #000000; stroke-width: 0.8"/>
      </g>
     </g>
     <g id="text_14">
      <g id="patch_10">
       <path d="M 313.447656 342.238125 
L 334.552344 342.238125 
Q 337.552344 342.238125 337.552344 339.238125 
L 337.552344 329.56 
Q 337.552344 326.56 334.552344 326.56 
L 313.447656 326.56 
Q 310.447656 326.56 310.447656 329.56 
L 310.447656 339.238125 
Q 310.447656 342.238125 313.447656 342.238125 
z
" style="fill: #ffffff; opacity: 0.7; stroke: #ffffff; stroke-linejoin: miter"/>
      </g>
      <!-- −30 -->
      <g transform="translate(313.447656 337.158437) scale(0.1 -0.1)">
       <use xlink:href="#DejaVuSans-2212"/>
       <use xlink:href="#DejaVuSans-33" x="83.789062"/>
       <use xlink:href="#DejaVuSans-30" x="147.412109"/>
      </g>
     </g>
    </g>
    <g id="xtick_44">
     <g id="line2d_20">
      <g>
       <use xlink:href="#m3b812f8025" x="378" y="322.56" style="stroke: #000000; stroke-width: 0.8"/>
      </g>
     </g>
     <g id="text_15">
      <g id="patch_11">
       <path d="M 367.447656 342.238125 
L 388.552344 342.238125 
Q 391.552344 342.238125 391.552344 339.238125 
L 391.552344 329.56 
Q 391.552344 326.56 388.552344 326.56 
L 367.447656 326.56 
Q 364.447656 326.56 364.447656 329.56 
L 364.447656 339.238125 
Q 364.447656 342.238125 367.447656 342.238125 
z
" style="fill: #ffffff; opacity: 0.7; stroke: #ffffff; stroke-linejoin: miter"/>
      </g>
      <!-- −15 -->
      <g transform="translate(367.447656 337.158437) scale(0.1 -0.1)">
       <use xlink:href="#DejaVuSans-2212"/>
       <use xlink:href="#DejaVuSans-31" x="83.789062"/>
       <use xlink:href="#DejaVuSans-35" x="147.412109"/>
      </g>
     </g>
    </g>
    <g id="xtick_45">
     <g id="line2d_21">
      <g>
       <use xlink:href="#m3b812f8025" x="486" y="322.56" style="stroke: #000000; stroke-width: 0.8"/>
      </g>
     </g>
     <g id="text_16">
      <!-- 15 -->
      <g transform="translate(479.6375 337.158437) scale(0.1 -0.1)">
       <use xlink:href="#DejaVuSans-31"/>
       <use xlink:href="#DejaVuSans-35" x="63.623047"/>
      </g>
     </g>
    </g>
    <g id="xtick_46">
     <g id="line2d_22">
      <g>
       <use xlink:href="#m3b812f8025" x="540" y="322.56" style="stroke: #000000; stroke-width: 0.8"/>
      </g>
     </g>
     <g id="text_17">
      <!-- 30 -->
      <g transform="translate(533.6375 337.158437) scale(0.1 -0.1)">
       <use xlink:href="#DejaVuSans-33"/>
       <use xlink:href="#DejaVuSans-30" x="63.623047"/>
      </g>
     </g>
    </g>
    <g id="xtick_47">
     <g id="line2d_23">
      <g>
       <use xlink:href="#m3b812f8025" x="594" y="322.56" style="stroke: #000000; stroke-width: 0.8"/>
      </g>
     </g>
     <g id="text_18">
      <!-- 45 -->
      <g transform="translate(587.6375 337.158437) scale(0.1 -0.1)">
       <use xlink:href="#DejaVuSans-34"/>
       <use xlink:href="#DejaVuSans-35" x="63.623047"/>
      </g>
     </g>
    </g>
    <g id="xtick_48">
     <g id="line2d_24">
      <g>
       <use xlink:href="#m3b812f8025" x="648" y="322.56" style="stroke: #000000; stroke-width: 0.8"/>
      </g>
     </g>
     <g id="text_19">
      <!-- 60 -->
      <g transform="translate(641.6375 337.158437) scale(0.1 -0.1)">
       <use xlink:href="#DejaVuSans-36"/>
       <use xlink:href="#DejaVuSans-30" x="63.623047"/>
      </g>
     </g>
    </g>
    <g id="xtick_49">
     <g id="line2d_25">
      <g>
       <use xlink:href="#m3b812f8025" x="702" y="322.56" style="stroke: #000000; stroke-width: 0.8"/>
      </g>
     </g>
     <g id="text_20">
      <!-- 75 -->
      <g transform="translate(695.6375 337.158437) scale(0.1 -0.1)">
       <use xlink:href="#DejaVuSans-37"/>
       <use xlink:href="#DejaVuSans-35" x="63.623047"/>
      </g>
     </g>
    </g>
    <g id="xtick_50">
     <g id="line2d_26">
      <g>
       <use xlink:href="#m3b812f8025" x="756" y="322.56" style="stroke: #000000; stroke-width: 0.8"/>
      </g>
     </g>
     <g id="text_21">
      <!-- 90 -->
      <g transform="translate(749.6375 337.158437) scale(0.1 -0.1)">
       <use xlink:href="#DejaVuSans-39"/>
       <use xlink:href="#DejaVuSans-30" x="63.623047"/>
      </g>
     </g>
    </g>
    <g id="xtick_51">
     <g id="line2d_27">
      <defs>
       <path id="m0f1bc295c1" d="M 0 0 
L 0 2 
" style="stroke: #000000; stroke-width: 0.6"/>
      </defs>
      <g>
       <use xlink:href="#m0f1bc295c1" x="126" y="322.56" style="stroke: #000000; stroke-width: 0.6"/>
      </g>
     </g>
    </g>
    <g id="xtick_52">
     <g id="line2d_28">
      <g>
       <use xlink:href="#m0f1bc295c1" x="144" y="322.56" style="stroke: #000000; stroke-width: 0.6"/>
      </g>
     </g>
    </g>
    <g id="xtick_53">
     <g id="line2d_29">
      <g>
       <use xlink:href="#m0f1bc295c1" x="180" y="322.56" style="stroke: #000000; stroke-width: 0.6"/>
      </g>
     </g>
    </g>
    <g id="xtick_54">
     <g id="line2d_30">
      <g>
       <use xlink:href="#m0f1bc295c1" x="198" y="322.56" style="stroke: #000000; stroke-width: 0.6"/>
      </g>
     </g>
    </g>
    <g id="xtick_55">
     <g id="line2d_31">
      <g>
       <use xlink:href="#m0f1bc295c1" x="234" y="322.56" style="stroke: #000000; stroke-width: 0.6"/>
      </g>
     </g>
    </g>
    <g id="xtick_56">
     <g id="line2d_32">
      <g>
       <use xlink:href="#m0f1bc295c1" x="252" y="322.56" style="stroke: #000000; stroke-width: 0.6"/>
      </g>
     </g>
    </g>
    <g id="xtick_57">
     <g id="line2d_33">
      <g>
       <use xlink:href="#m0f1bc295c1" x="288" y="322.56" style="stroke: #000000; stroke-width: 0.6"/>
      </g>
     </g>
    </g>
    <g id="xtick_58">
     <g id="line2d_34">
      <g>
       <use xlink:href="#m0f1bc295c1" x="306" y="322.56" style="stroke: #000000; stroke-width: 0.6"/>
      </g>
     </g>
    </g>
    <g id="xtick_59">
     <g id="line2d_35">
      <g>
       <use xlink:href="#m0f1bc295c1" x="342" y="322.56" style="stroke: #000000; stroke-width: 0.6"/>
      </g>
     </g>
    </g>
    <g id="xtick_60">
     <g id="line2d_36">
      <g>
       <use xlink:href="#m0f1bc295c1" x="360" y="322.56" style="stroke: #000000; stroke-width: 0.6"/>
      </g>
     </g>
    </g>
    <g id="xtick_61">
     <g id="line2d_37">
      <g>
       <use xlink:href="#m0f1bc295c1" x="396" y="322.56" style="stroke: #000000; stroke-width: 0.6"/>
      </g>
     </g>
    </g>
    <g id="xtick_62">
     <g id="line2d_38">
      <g>
       <use xlink:href="#m0f1bc295c1" x="414" y="322.56" style="stroke: #000000; stroke-width: 0.6"/>
      </g>
     </g>
    </g>
    <g id="xtick_63">
     <g id="line2d_39">
      <g>
       <use xlink:href="#m0f1bc295c1" x="432" y="322.56" style="stroke: #000000; stroke-width: 0.6"/>
      </g>
     </g>
    </g>
    <g id="xtick_64">
     <g id="line2d_40">
      <g>
       <use xlink:href="#m0f1bc295c1" x="432" y="322.56" style="stroke: #000000; stroke-width: 0.6"/>
      </g>
     </g>
    </g>
    <g id="xtick_65">
     <g id="line2d_41">
      <g>
       <use xlink:href="#m0f1bc295c1" x="450" y="322.56" style="stroke: #000000; stroke-width: 0.6"/>
      </g>
     </g>
    </g>
    <g id="xtick_66">
     <g id="line2d_42">
      <g>
       <use xlink:href="#m0f1bc295c1" x="468" y="322.56" style="stroke: #000000; stroke-width: 0.6"/>
      </g>
     </g>
    </g>
    <g id="xtick_67">
     <g id="line2d_43">
      <g>
       <use xlink:href="#m0f1bc295c1" x="504" y="322.56" style="stroke: #000000; stroke-width: 0.6"/>
      </g>
     </g>
    </g>
    <g id="xtick_68">
     <g id="line2d_44">
      <g>
       <use xlink:href="#m0f1bc295c1" x="522" y="322.56" style="stroke: #000000; stroke-width: 0.6"/>
      </g>
     </g>
    </g>
    <g id="xtick_69">
     <g id="line2d_45">
      <g>
       <use xlink:href="#m0f1bc295c1" x="558" y="322.56" style="stroke: #000000; stroke-width: 0.6"/>
      </g>
     </g>
    </g>
    <g id="xtick_70">
     <g id="line2d_46">
      <g>
       <use xlink:href="#m0f1bc295c1" x="576" y="322.56" style="stroke: #000000; stroke-width: 0.6"/>
      </g>
     </g>
    </g>
    <g id="xtick_71">
     <g id="line2d_47">
      <g>
       <use xlink:href="#m0f1bc295c1" x="612" y="322.56" style="stroke: #000000; stroke-width: 0.6"/>
      </g>
     </g>
    </g>
    <g id="xtick_72">
     <g id="line2d_48">
      <g>
       <use xlink:href="#m0f1bc295c1" x="630" y="322.56" style="stroke: #000000; stroke-width: 0.6"/>
      </g>
     </g>
    </g>
    <g id="xtick_73">
     <g id="line2d_49">
      <g>
       <use xlink:href="#m0f1bc295c1" x="666" y="322.56" style="stroke: #000000; stroke-width: 0.6"/>
      </g>
     </g>
    </g>
    <g id="xtick_74">
     <g id="line2d_50">
      <g>
       <use xlink:href="#m0f1bc295c1" x="684" y="322.56" style="stroke: #000000; stroke-width: 0.6"/>
      </g>
     </g>
    </g>
    <g id="xtick_75">
     <g id="line2d_51">
      <g>
       <use xlink:href="#m0f1bc295c1" x="720" y="322.56" style="stroke: #000000; stroke-width: 0.6"/>
      </g>
     </g>
    </g>
    <g id="xtick_76">
     <g id="line2d_52">
      <g>
       <use xlink:href="#m0f1bc295c1" x="738" y="322.56" style="stroke: #000000; stroke-width: 0.6"/>
      </g>
     </g>
    </g>
    <g id="text_22">
     <!-- $\theta$ / ° -->
     <g transform="translate(768.442 325.875938) scale(0.14 -0.14)">
      <defs>
       <path id="DejaVuSans-Oblique-3b8" d="M 2913 2219 
L 925 2219 
Q 791 1284 928 888 
Q 1100 400 1566 400 
Q 2034 400 2391 891 
Q 2703 1322 2913 2219 
z
M 3009 2750 
Q 3094 3638 2984 3950 
Q 2813 4444 2353 4444 
Q 1875 4444 1525 3956 
Q 1250 3563 1034 2750 
L 3009 2750 
z
M 2444 4913 
Q 3194 4913 3494 4250 
Q 3794 3591 3566 2422 
Q 3341 1256 2781 594 
Q 2225 -72 1475 -72 
Q 722 -72 425 594 
Q 128 1256 353 2422 
Q 581 3591 1134 4250 
Q 1691 4913 2444 4913 
z
" transform="scale(0.015625)"/>
       <path id="DejaVuSans-20" transform="scale(0.015625)"/>
       <path id="DejaVuSans-2f" d="M 1625 4666 
L 2156 4666 
L 531 -594 
L 0 -594 
L 1625 4666 
z
" transform="scale(0.015625)"/>
       <path id="DejaVuSans-b0" d="M 1600 4347 
Q 1350 4347 1178 4173 
Q 1006 4000 1006 3750 
Q 1006 3503 1178 3333 
Q 1350 3163 1600 3163 
Q 1850 3163 2022 3333 
Q 2194 3503 2194 3750 
Q 2194 3997 2020 4172 
Q 1847 4347 1600 4347 
z
M 1600 4750 
Q 1800 4750 1984 4673 
Q 2169 4597 2303 4453 
Q 2447 4313 2519 4134 
Q 2591 3956 2591 3750 
Q 2591 3338 2302 3052 
Q 2013 2766 1594 2766 
Q 1172 2766 890 3047 
Q 609 3328 609 3750 
Q 609 4169 896 4459 
Q 1184 4750 1600 4750 
z
" transform="scale(0.015625)"/>
      </defs>
      <use xlink:href="#DejaVuSans-Oblique-3b8" transform="translate(0 0.234375)"/>
      <use xlink:href="#DejaVuSans-20" transform="translate(61.181641 0.234375)"/>
      <use xlink:href="#DejaVuSans-2f" transform="translate(92.96875 0.234375)"/>
      <use xlink:href="#DejaVuSans-20" transform="translate(126.660156 0.234375)"/>
      <use xlink:href="#DejaVuSans-b0" transform="translate(158.447266 0.234375)"/>
     </g>
    </g>
   </g>
   <g id="matplotlib.axis_4">
    <g id="ytick_9">
     <g id="line2d_53">
      <g>
       <use xlink:href="#mfbc5214ddf" x="432" y="276.48" style="stroke: #000000; stroke-width: 0.8"/>
      </g>
     </g>
     <g id="text_23">
      <g id="patch_12">
       <path d="M 442 285.358906 
L 454.725 285.358906 
Q 457.725 285.358906 457.725 282.358906 
L 457.725 272.680781 
Q 457.725 269.680781 454.725 269.680781 
L 442 269.680781 
Q 439 269.680781 439 272.680781 
L 439 282.358906 
Q 439 285.358906 442 285.358906 
z
" style="fill: #ffffff; opacity: 0.7; stroke: #ffffff; stroke-linejoin: miter"/>
      </g>
      <!-- 20 -->
      <g transform="translate(442 280.279219) scale(0.1 -0.1)">
       <use xlink:href="#DejaVuSans-32"/>
       <use xlink:href="#DejaVuSans-30" x="63.623047"/>
      </g>
     </g>
    </g>
    <g id="ytick_10">
     <g id="line2d_54">
      <g>
       <use xlink:href="#mfbc5214ddf" x="432" y="230.4" style="stroke: #000000; stroke-width: 0.8"/>
      </g>
     </g>
     <g id="text_24">
      <g id="patch_13">
       <path d="M 442 239.278906 
L 454.725 239.278906 
Q 457.725 239.278906 457.725 236.278906 
L 457.725 226.600781 
Q 457.725 223.600781 454.725 223.600781 
L 442 223.600781 
Q 439 223.600781 439 226.600781 
L 439 236.278906 
Q 439 239.278906 442 239.278906 
z
" style="fill: #ffffff; opacity: 0.7; stroke: #ffffff; stroke-linejoin: miter"/>
      </g>
      <!-- 40 -->
      <g transform="translate(442 234.199219) scale(0.1 -0.1)">
       <use xlink:href="#DejaVuSans-34"/>
       <use xlink:href="#DejaVuSans-30" x="63.623047"/>
      </g>
     </g>
    </g>
    <g id="ytick_11">
     <g id="line2d_55">
      <g>
       <use xlink:href="#mfbc5214ddf" x="432" y="184.32" style="stroke: #000000; stroke-width: 0.8"/>
      </g>
     </g>
     <g id="text_25">
      <g id="patch_14">
       <path d="M 442 193.198906 
L 454.725 193.198906 
Q 457.725 193.198906 457.725 190.198906 
L 457.725 180.520781 
Q 457.725 177.520781 454.725 177.520781 
L 442 177.520781 
Q 439 177.520781 439 180.520781 
L 439 190.198906 
Q 439 193.198906 442 193.198906 
z
" style="fill: #ffffff; opacity: 0.7; stroke: #ffffff; stroke-linejoin: miter"/>
      </g>
      <!-- 60 -->
      <g transform="translate(442 188.119219) scale(0.1 -0.1)">
       <use xlink:href="#DejaVuSans-36"/>
       <use xlink:href="#DejaVuSans-30" x="63.623047"/>
      </g>
     </g>
    </g>
    <g id="ytick_12">
     <g id="line2d_56">
      <g>
       <use xlink:href="#mfbc5214ddf" x="432" y="138.24" style="stroke: #000000; stroke-width: 0.8"/>
      </g>
     </g>
     <g id="text_26">
      <g id="patch_15">
       <path d="M 442 147.118906 
L 454.725 147.118906 
Q 457.725 147.118906 457.725 144.118906 
L 457.725 134.440781 
Q 457.725 131.440781 454.725 131.440781 
L 442 131.440781 
Q 439 131.440781 439 134.440781 
L 439 144.118906 
Q 439 147.118906 442 147.118906 
z
" style="fill: #ffffff; opacity: 0.7; stroke: #ffffff; stroke-linejoin: miter"/>
      </g>
      <!-- 80 -->
      <g transform="translate(442 142.039219) scale(0.1 -0.1)">
       <defs>
        <path id="DejaVuSans-38" d="M 2034 2216 
Q 1584 2216 1326 1975 
Q 1069 1734 1069 1313 
Q 1069 891 1326 650 
Q 1584 409 2034 409 
Q 2484 409 2743 651 
Q 3003 894 3003 1313 
Q 3003 1734 2745 1975 
Q 2488 2216 2034 2216 
z
M 1403 2484 
Q 997 2584 770 2862 
Q 544 3141 544 3541 
Q 544 4100 942 4425 
Q 1341 4750 2034 4750 
Q 2731 4750 3128 4425 
Q 3525 4100 3525 3541 
Q 3525 3141 3298 2862 
Q 3072 2584 2669 2484 
Q 3125 2378 3379 2068 
Q 3634 1759 3634 1313 
Q 3634 634 3220 271 
Q 2806 -91 2034 -91 
Q 1263 -91 848 271 
Q 434 634 434 1313 
Q 434 1759 690 2068 
Q 947 2378 1403 2484 
z
M 1172 3481 
Q 1172 3119 1398 2916 
Q 1625 2713 2034 2713 
Q 2441 2713 2670 2916 
Q 2900 3119 2900 3481 
Q 2900 3844 2670 4047 
Q 2441 4250 2034 4250 
Q 1625 4250 1398 4047 
Q 1172 3844 1172 3481 
z
" transform="scale(0.015625)"/>
       </defs>
       <use xlink:href="#DejaVuSans-38"/>
       <use xlink:href="#DejaVuSans-30" x="63.623047"/>
      </g>
     </g>
    </g>
    <g id="ytick_13">
     <g id="line2d_57">
      <g>
       <use xlink:href="#mfbc5214ddf" x="432" y="92.16" style="stroke: #000000; stroke-width: 0.8"/>
      </g>
     </g>
     <g id="text_27">
      <g id="patch_16">
       <path d="M 442 101.038906 
L 461.0875 101.038906 
Q 464.0875 101.038906 464.0875 98.038906 
L 464.0875 88.360781 
Q 464.0875 85.360781 461.0875 85.360781 
L 442 85.360781 
Q 439 85.360781 439 88.360781 
L 439 98.038906 
Q 439 101.038906 442 101.038906 
z
" style="fill: #ffffff; opacity: 0.7; stroke: #ffffff; stroke-linejoin: miter"/>
      </g>
      <!-- 100 -->
      <g transform="translate(442 95.959219) scale(0.1 -0.1)">
       <use xlink:href="#DejaVuSans-31"/>
       <use xlink:href="#DejaVuSans-30" x="63.623047"/>
       <use xlink:href="#DejaVuSans-30" x="127.246094"/>
      </g>
     </g>
    </g>
    <g id="ytick_14">
     <g id="line2d_58">
      <defs>
       <path id="mf2716b43e2" d="M 0 0 
L 2 0 
" style="stroke: #000000; stroke-width: 0.6"/>
      </defs>
      <g>
       <use xlink:href="#mf2716b43e2" x="432" y="322.56" style="stroke: #000000; stroke-width: 0.6"/>
      </g>
     </g>
    </g>
    <g id="ytick_15">
     <g id="line2d_59">
      <g>
       <use xlink:href="#mf2716b43e2" x="432" y="299.52" style="stroke: #000000; stroke-width: 0.6"/>
      </g>
     </g>
    </g>
    <g id="ytick_16">
     <g id="line2d_60">
      <g>
       <use xlink:href="#mf2716b43e2" x="432" y="253.44" style="stroke: #000000; stroke-width: 0.6"/>
      </g>
     </g>
    </g>
    <g id="ytick_17">
     <g id="line2d_61">
      <g>
       <use xlink:href="#mf2716b43e2" x="432" y="207.36" style="stroke: #000000; stroke-width: 0.6"/>
      </g>
     </g>
    </g>
    <g id="ytick_18">
     <g id="line2d_62">
      <g>
       <use xlink:href="#mf2716b43e2" x="432" y="161.28" style="stroke: #000000; stroke-width: 0.6"/>
      </g>
     </g>
    </g>
    <g id="ytick_19">
     <g id="line2d_63">
      <g>
       <use xlink:href="#mf2716b43e2" x="432" y="115.2" style="stroke: #000000; stroke-width: 0.6"/>
      </g>
     </g>
    </g>
    <g id="ytick_20">
     <g id="line2d_64">
      <g>
       <use xlink:href="#mf2716b43e2" x="432" y="69.12" style="stroke: #000000; stroke-width: 0.6"/>
      </g>
     </g>
    </g>
    <g id="text_28">
     <!-- $I$ / $cd$ -->
     <g transform="translate(419.78 45.472438) scale(0.14 -0.14)">
      <defs>
       <path id="DejaVuSans-Oblique-49" d="M 1081 4666 
L 1716 4666 
L 806 0 
L 172 0 
L 1081 4666 
z
" transform="scale(0.015625)"/>
       <path id="DejaVuSans-Oblique-63" d="M 3431 3366 
L 3316 2797 
Q 3109 2947 2876 3022 
Q 2644 3097 2394 3097 
Q 2119 3097 1870 3000 
Q 1622 2903 1453 2725 
Q 1184 2453 1037 2087 
Q 891 1722 891 1331 
Q 891 859 1127 628 
Q 1363 397 1844 397 
Q 2081 397 2348 469 
Q 2616 541 2906 684 
L 2797 116 
Q 2547 13 2283 -39 
Q 2019 -91 1741 -91 
Q 1044 -91 669 257 
Q 294 606 294 1253 
Q 294 1797 489 2255 
Q 684 2713 1069 3078 
Q 1331 3328 1684 3456 
Q 2038 3584 2456 3584 
Q 2700 3584 2940 3529 
Q 3181 3475 3431 3366 
z
" transform="scale(0.015625)"/>
       <path id="DejaVuSans-Oblique-64" d="M 2675 525 
Q 2444 222 2128 65 
Q 1813 -91 1428 -91 
Q 903 -91 598 267 
Q 294 625 294 1247 
Q 294 1766 478 2236 
Q 663 2706 1013 3078 
Q 1244 3325 1534 3454 
Q 1825 3584 2144 3584 
Q 2481 3584 2739 3421 
Q 2997 3259 3138 2956 
L 3513 4863 
L 4091 4863 
L 3144 0 
L 2566 0 
L 2675 525 
z
M 891 1350 
Q 891 897 1095 644 
Q 1300 391 1663 391 
Q 1931 391 2161 520 
Q 2391 650 2566 903 
Q 2750 1166 2856 1509 
Q 2963 1853 2963 2188 
Q 2963 2622 2758 2865 
Q 2553 3109 2194 3109 
Q 1922 3109 1687 2981 
Q 1453 2853 1288 2613 
Q 1106 2353 998 2009 
Q 891 1666 891 1350 
z
" transform="scale(0.015625)"/>
      </defs>
      <use xlink:href="#DejaVuSans-Oblique-49" transform="translate(0 0.015625)"/>
      <use xlink:href="#DejaVuSans-20" transform="translate(29.492188 0.015625)"/>
      <use xlink:href="#DejaVuSans-2f" transform="translate(61.279297 0.015625)"/>
      <use xlink:href="#DejaVuSans-20" transform="translate(94.970703 0.015625)"/>
      <use xlink:href="#DejaVuSans-Oblique-63" transform="translate(126.757812 0.015625)"/>
      <use xlink:href="#DejaVuSans-Oblique-64" transform="translate(181.738281 0.015625)"/>
     </g>
    </g>
   </g>
   <g id="legend_1">
    <g id="patch_17">
     <path d="M 659.101562 80.278125 
L 756.2 80.278125 
Q 758.2 80.278125 758.2 78.278125 
L 758.2 64.6 
Q 758.2 62.6 756.2 62.6 
L 659.101562 62.6 
Q 657.101562 62.6 657.101562 64.6 
L 657.101562 78.278125 
Q 657.101562 80.278125 659.101562 80.278125 
z
" style="fill: #ffffff; opacity: 0.8; stroke: #cccccc; stroke-linejoin: miter"/>
    </g>
    <g id="line2d_65">
     <path d="M 661.101562 70.698438 
L 671.101562 70.698438 
L 681.101562 70.698438 
" style="fill: none; stroke: #00008b; stroke-width: 1.5; stroke-linecap: square"/>
    </g>
    <g id="text_29">
     <!-- relative error -->
     <g transform="translate(689.101562 74.198438) scale(0.1 -0.1)">
      <defs>
       <path id="DejaVuSans-72" d="M 2631 2963 
Q 2534 3019 2420 3045 
Q 2306 3072 2169 3072 
Q 1681 3072 1420 2755 
Q 1159 2438 1159 1844 
L 1159 0 
L 581 0 
L 581 3500 
L 1159 3500 
L 1159 2956 
Q 1341 3275 1631 3429 
Q 1922 3584 2338 3584 
Q 2397 3584 2469 3576 
Q 2541 3569 2628 3553 
L 2631 2963 
z
" transform="scale(0.015625)"/>
       <path id="DejaVuSans-65" d="M 3597 1894 
L 3597 1613 
L 953 1613 
Q 991 1019 1311 708 
Q 1631 397 2203 397 
Q 2534 397 2845 478 
Q 3156 559 3463 722 
L 3463 178 
Q 3153 47 2828 -22 
Q 2503 -91 2169 -91 
Q 1331 -91 842 396 
Q 353 884 353 1716 
Q 353 2575 817 3079 
Q 1281 3584 2069 3584 
Q 2775 3584 3186 3129 
Q 3597 2675 3597 1894 
z
M 3022 2063 
Q 3016 2534 2758 2815 
Q 2500 3097 2075 3097 
Q 1594 3097 1305 2825 
Q 1016 2553 972 2059 
L 3022 2063 
z
" transform="scale(0.015625)"/>
       <path id="DejaVuSans-6c" d="M 603 4863 
L 1178 4863 
L 1178 0 
L 603 0 
L 603 4863 
z
" transform="scale(0.015625)"/>
       <path id="DejaVuSans-61" d="M 2194 1759 
Q 1497 1759 1228 1600 
Q 959 1441 959 1056 
Q 959 750 1161 570 
Q 1363 391 1709 391 
Q 2188 391 2477 730 
Q 2766 1069 2766 1631 
L 2766 1759 
L 2194 1759 
z
M 3341 1997 
L 3341 0 
L 2766 0 
L 2766 531 
Q 2569 213 2275 61 
Q 1981 -91 1556 -91 
Q 1019 -91 701 211 
Q 384 513 384 1019 
Q 384 1609 779 1909 
Q 1175 2209 1959 2209 
L 2766 2209 
L 2766 2266 
Q 2766 2663 2505 2880 
Q 2244 3097 1772 3097 
Q 1472 3097 1187 3025 
Q 903 2953 641 2809 
L 641 3341 
Q 956 3463 1253 3523 
Q 1550 3584 1831 3584 
Q 2591 3584 2966 3190 
Q 3341 2797 3341 1997 
z
" transform="scale(0.015625)"/>
       <path id="DejaVuSans-74" d="M 1172 4494 
L 1172 3500 
L 2356 3500 
L 2356 3053 
L 1172 3053 
L 1172 1153 
Q 1172 725 1289 603 
Q 1406 481 1766 481 
L 2356 481 
L 2356 0 
L 1766 0 
Q 1100 0 847 248 
Q 594 497 594 1153 
L 594 3053 
L 172 3053 
L 172 3500 
L 594 3500 
L 594 4494 
L 1172 4494 
z
" transform="scale(0.015625)"/>
       <path id="DejaVuSans-69" d="M 603 3500 
L 1178 3500 
L 1178 0 
L 603 0 
L 603 3500 
z
M 603 4863 
L 1178 4863 
L 1178 4134 
L 603 4134 
L 603 4863 
z
" transform="scale(0.015625)"/>
       <path id="DejaVuSans-76" d="M 191 3500 
L 800 3500 
L 1894 563 
L 2988 3500 
L 3597 3500 
L 2284 0 
L 1503 0 
L 191 3500 
z
" transform="scale(0.015625)"/>
       <path id="DejaVuSans-6f" d="M 1959 3097 
Q 1497 3097 1228 2736 
Q 959 2375 959 1747 
Q 959 1119 1226 758 
Q 1494 397 1959 397 
Q 2419 397 2687 759 
Q 2956 1122 2956 1747 
Q 2956 2369 2687 2733 
Q 2419 3097 1959 3097 
z
M 1959 3584 
Q 2709 3584 3137 3096 
Q 3566 2609 3566 1747 
Q 3566 888 3137 398 
Q 2709 -91 1959 -91 
Q 1206 -91 779 398 
Q 353 888 353 1747 
Q 353 2609 779 3096 
Q 1206 3584 1959 3584 
z
" transform="scale(0.015625)"/>
      </defs>
      <use xlink:href="#DejaVuSans-72"/>
      <use xlink:href="#DejaVuSans-65" x="38.863281"/>
      <use xlink:href="#DejaVuSans-6c" x="100.386719"/>
      <use xlink:href="#DejaVuSans-61" x="128.169922"/>
      <use xlink:href="#DejaVuSans-74" x="189.449219"/>
      <use xlink:href="#DejaVuSans-69" x="228.658203"/>
      <use xlink:href="#DejaVuSans-76" x="256.441406"/>
      <use xlink:href="#DejaVuSans-65" x="315.621094"/>
      <use xlink:href="#DejaVuSans-20" x="377.144531"/>
      <use xlink:href="#DejaVuSans-65" x="408.931641"/>
      <use xlink:href="#DejaVuSans-72" x="470.455078"/>
      <use xlink:href="#DejaVuSans-72" x="509.818359"/>
      <use xlink:href="#DejaVuSans-6f" x="548.681641"/>
      <use xlink:href="#DejaVuSans-72" x="609.863281"/>
     </g>
    </g>
   </g>
   <g id="legend_2">
    <g id="patch_18">
     <path d="M 107.8 94.978125 
L 377.1 94.978125 
Q 379.1 94.978125 379.1 92.978125 
L 379.1 64.6 
Q 379.1 62.6 377.1 62.6 
L 107.8 62.6 
Q 105.8 62.6 105.8 64.6 
L 105.8 92.978125 
Q 105.8 94.978125 107.8 94.978125 
z
" style="fill: #ffffff; opacity: 0.8; stroke: #cccccc; stroke-linejoin: miter"/>
    </g>
    <g id="line2d_66">
     <path d="M 109.8 70.698438 
L 119.8 70.698438 
L 129.8 70.698438 
" style="fill: none; stroke: #90ee90; stroke-width: 1.5; stroke-linecap: square"/>
    </g>
    <g id="text_30">
     <!-- $C_0$-Plane of the source LID -->
     <g transform="translate(137.8 74.198438) scale(0.1 -0.1)">
      <defs>
       <path id="DejaVuSans-Oblique-43" d="M 4447 4306 
L 4319 3641 
Q 4019 3944 3683 4091 
Q 3347 4238 2956 4238 
Q 2422 4238 2017 3981 
Q 1613 3725 1319 3200 
Q 1131 2863 1032 2486 
Q 934 2109 934 1728 
Q 934 1091 1264 756 
Q 1594 422 2222 422 
Q 2656 422 3056 561 
Q 3456 700 3834 978 
L 3688 231 
Q 3316 72 2936 -9 
Q 2556 -91 2175 -91 
Q 1278 -91 773 396 
Q 269 884 269 1753 
Q 269 2309 461 2846 
Q 653 3384 1013 3828 
Q 1394 4300 1883 4525 
Q 2372 4750 3022 4750 
Q 3422 4750 3780 4639 
Q 4138 4528 4447 4306 
z
" transform="scale(0.015625)"/>
       <path id="DejaVuSans-2d" d="M 313 2009 
L 1997 2009 
L 1997 1497 
L 313 1497 
L 313 2009 
z
" transform="scale(0.015625)"/>
       <path id="DejaVuSans-50" d="M 1259 4147 
L 1259 2394 
L 2053 2394 
Q 2494 2394 2734 2622 
Q 2975 2850 2975 3272 
Q 2975 3691 2734 3919 
Q 2494 4147 2053 4147 
L 1259 4147 
z
M 628 4666 
L 2053 4666 
Q 2838 4666 3239 4311 
Q 3641 3956 3641 3272 
Q 3641 2581 3239 2228 
Q 2838 1875 2053 1875 
L 1259 1875 
L 1259 0 
L 628 0 
L 628 4666 
z
" transform="scale(0.015625)"/>
       <path id="DejaVuSans-6e" d="M 3513 2113 
L 3513 0 
L 2938 0 
L 2938 2094 
Q 2938 2591 2744 2837 
Q 2550 3084 2163 3084 
Q 1697 3084 1428 2787 
Q 1159 2491 1159 1978 
L 1159 0 
L 581 0 
L 581 3500 
L 1159 3500 
L 1159 2956 
Q 1366 3272 1645 3428 
Q 1925 3584 2291 3584 
Q 2894 3584 3203 3211 
Q 3513 2838 3513 2113 
z
" transform="scale(0.015625)"/>
       <path id="DejaVuSans-66" d="M 2375 4863 
L 2375 4384 
L 1825 4384 
Q 1516 4384 1395 4259 
Q 1275 4134 1275 3809 
L 1275 3500 
L 2222 3500 
L 2222 3053 
L 1275 3053 
L 1275 0 
L 697 0 
L 697 3053 
L 147 3053 
L 147 3500 
L 697 3500 
L 697 3744 
Q 697 4328 969 4595 
Q 1241 4863 1831 4863 
L 2375 4863 
z
" transform="scale(0.015625)"/>
       <path id="DejaVuSans-68" d="M 3513 2113 
L 3513 0 
L 2938 0 
L 2938 2094 
Q 2938 2591 2744 2837 
Q 2550 3084 2163 3084 
Q 1697 3084 1428 2787 
Q 1159 2491 1159 1978 
L 1159 0 
L 581 0 
L 581 4863 
L 1159 4863 
L 1159 2956 
Q 1366 3272 1645 3428 
Q 1925 3584 2291 3584 
Q 2894 3584 3203 3211 
Q 3513 2838 3513 2113 
z
" transform="scale(0.015625)"/>
       <path id="DejaVuSans-73" d="M 2834 3397 
L 2834 2853 
Q 2591 2978 2328 3040 
Q 2066 3103 1784 3103 
Q 1356 3103 1142 2972 
Q 928 2841 928 2578 
Q 928 2378 1081 2264 
Q 1234 2150 1697 2047 
L 1894 2003 
Q 2506 1872 2764 1633 
Q 3022 1394 3022 966 
Q 3022 478 2636 193 
Q 2250 -91 1575 -91 
Q 1294 -91 989 -36 
Q 684 19 347 128 
L 347 722 
Q 666 556 975 473 
Q 1284 391 1588 391 
Q 1994 391 2212 530 
Q 2431 669 2431 922 
Q 2431 1156 2273 1281 
Q 2116 1406 1581 1522 
L 1381 1569 
Q 847 1681 609 1914 
Q 372 2147 372 2553 
Q 372 3047 722 3315 
Q 1072 3584 1716 3584 
Q 2034 3584 2315 3537 
Q 2597 3491 2834 3397 
z
" transform="scale(0.015625)"/>
       <path id="DejaVuSans-75" d="M 544 1381 
L 544 3500 
L 1119 3500 
L 1119 1403 
Q 1119 906 1312 657 
Q 1506 409 1894 409 
Q 2359 409 2629 706 
Q 2900 1003 2900 1516 
L 2900 3500 
L 3475 3500 
L 3475 0 
L 2900 0 
L 2900 538 
Q 2691 219 2414 64 
Q 2138 -91 1772 -91 
Q 1169 -91 856 284 
Q 544 659 544 1381 
z
M 1991 3584 
L 1991 3584 
z
" transform="scale(0.015625)"/>
       <path id="DejaVuSans-63" d="M 3122 3366 
L 3122 2828 
Q 2878 2963 2633 3030 
Q 2388 3097 2138 3097 
Q 1578 3097 1268 2742 
Q 959 2388 959 1747 
Q 959 1106 1268 751 
Q 1578 397 2138 397 
Q 2388 397 2633 464 
Q 2878 531 3122 666 
L 3122 134 
Q 2881 22 2623 -34 
Q 2366 -91 2075 -91 
Q 1284 -91 818 406 
Q 353 903 353 1747 
Q 353 2603 823 3093 
Q 1294 3584 2113 3584 
Q 2378 3584 2631 3529 
Q 2884 3475 3122 3366 
z
" transform="scale(0.015625)"/>
       <path id="DejaVuSans-4c" d="M 628 4666 
L 1259 4666 
L 1259 531 
L 3531 531 
L 3531 0 
L 628 0 
L 628 4666 
z
" transform="scale(0.015625)"/>
       <path id="DejaVuSans-49" d="M 628 4666 
L 1259 4666 
L 1259 0 
L 628 0 
L 628 4666 
z
" transform="scale(0.015625)"/>
       <path id="DejaVuSans-44" d="M 1259 4147 
L 1259 519 
L 2022 519 
Q 2988 519 3436 956 
Q 3884 1394 3884 2338 
Q 3884 3275 3436 3711 
Q 2988 4147 2022 4147 
L 1259 4147 
z
M 628 4666 
L 1925 4666 
Q 3281 4666 3915 4102 
Q 4550 3538 4550 2338 
Q 4550 1131 3912 565 
Q 3275 0 1925 0 
L 628 0 
L 628 4666 
z
" transform="scale(0.015625)"/>
      </defs>
      <use xlink:href="#DejaVuSans-Oblique-43" transform="translate(0 0.015625)"/>
      <use xlink:href="#DejaVuSans-30" transform="translate(69.824219 -16.390625) scale(0.7)"/>
      <use xlink:href="#DejaVuSans-2d" transform="translate(117.094727 0.015625)"/>
      <use xlink:href="#DejaVuSans-50" transform="translate(153.178711 0.015625)"/>
      <use xlink:href="#DejaVuSans-6c" transform="translate(213.481445 0.015625)"/>
      <use xlink:href="#DejaVuSans-61" transform="translate(241.264648 0.015625)"/>
      <use xlink:href="#DejaVuSans-6e" transform="translate(302.543945 0.015625)"/>
      <use xlink:href="#DejaVuSans-65" transform="translate(365.922852 0.015625)"/>
      <use xlink:href="#DejaVuSans-20" transform="translate(427.446289 0.015625)"/>
      <use xlink:href="#DejaVuSans-6f" transform="translate(459.233398 0.015625)"/>
      <use xlink:href="#DejaVuSans-66" transform="translate(520.415039 0.015625)"/>
      <use xlink:href="#DejaVuSans-20" transform="translate(555.620117 0.015625)"/>
      <use xlink:href="#DejaVuSans-74" transform="translate(587.407227 0.015625)"/>
      <use xlink:href="#DejaVuSans-68" transform="translate(626.616211 0.015625)"/>
      <use xlink:href="#DejaVuSans-65" transform="translate(689.995117 0.015625)"/>
      <use xlink:href="#DejaVuSans-20" transform="translate(751.518555 0.015625)"/>
      <use xlink:href="#DejaVuSans-73" transform="translate(783.305664 0.015625)"/>
      <use xlink:href="#DejaVuSans-6f" transform="translate(835.405273 0.015625)"/>
      <use xlink:href="#DejaVuSans-75" transform="translate(896.586914 0.015625)"/>
      <use xlink:href="#DejaVuSans-72" transform="translate(959.96582 0.015625)"/>
      <use xlink:href="#DejaVuSans-63" transform="translate(1001.079102 0.015625)"/>
      <use xlink:href="#DejaVuSans-65" transform="translate(1056.05957 0.015625)"/>
      <use xlink:href="#DejaVuSans-20" transform="translate(1117.583008 0.015625)"/>
      <use xlink:href="#DejaVuSans-4c" transform="translate(1149.370117 0.015625)"/>
      <use xlink:href="#DejaVuSans-49" transform="translate(1205.083008 0.015625)"/>
      <use xlink:href="#DejaVuSans-44" transform="translate(1234.575195 0.015625)"/>
     </g>
    </g>
    <g id="line2d_67">
     <path d="M 109.8 85.378125 
L 119.8 85.378125 
L 129.8 85.378125 
" style="fill: none; stroke: #ff0000; stroke-width: 1.5; stroke-linecap: square"/>
    </g>
    <g id="text_31">
     <!-- $C_0$-Plane of measured LID, error amplified 100x -->
     <g transform="translate(137.8 88.878125) scale(0.1 -0.1)">
      <defs>
       <path id="DejaVuSans-6d" d="M 3328 2828 
Q 3544 3216 3844 3400 
Q 4144 3584 4550 3584 
Q 5097 3584 5394 3201 
Q 5691 2819 5691 2113 
L 5691 0 
L 5113 0 
L 5113 2094 
Q 5113 2597 4934 2840 
Q 4756 3084 4391 3084 
Q 3944 3084 3684 2787 
Q 3425 2491 3425 1978 
L 3425 0 
L 2847 0 
L 2847 2094 
Q 2847 2600 2669 2842 
Q 2491 3084 2119 3084 
Q 1678 3084 1418 2786 
Q 1159 2488 1159 1978 
L 1159 0 
L 581 0 
L 581 3500 
L 1159 3500 
L 1159 2956 
Q 1356 3278 1631 3431 
Q 1906 3584 2284 3584 
Q 2666 3584 2933 3390 
Q 3200 3197 3328 2828 
z
" transform="scale(0.015625)"/>
       <path id="DejaVuSans-64" d="M 2906 2969 
L 2906 4863 
L 3481 4863 
L 3481 0 
L 2906 0 
L 2906 525 
Q 2725 213 2448 61 
Q 2172 -91 1784 -91 
Q 1150 -91 751 415 
Q 353 922 353 1747 
Q 353 2572 751 3078 
Q 1150 3584 1784 3584 
Q 2172 3584 2448 3432 
Q 2725 3281 2906 2969 
z
M 947 1747 
Q 947 1113 1208 752 
Q 1469 391 1925 391 
Q 2381 391 2643 752 
Q 2906 1113 2906 1747 
Q 2906 2381 2643 2742 
Q 2381 3103 1925 3103 
Q 1469 3103 1208 2742 
Q 947 2381 947 1747 
z
" transform="scale(0.015625)"/>
       <path id="DejaVuSans-2c" d="M 750 794 
L 1409 794 
L 1409 256 
L 897 -744 
L 494 -744 
L 750 256 
L 750 794 
z
" transform="scale(0.015625)"/>
       <path id="DejaVuSans-70" d="M 1159 525 
L 1159 -1331 
L 581 -1331 
L 581 3500 
L 1159 3500 
L 1159 2969 
Q 1341 3281 1617 3432 
Q 1894 3584 2278 3584 
Q 2916 3584 3314 3078 
Q 3713 2572 3713 1747 
Q 3713 922 3314 415 
Q 2916 -91 2278 -91 
Q 1894 -91 1617 61 
Q 1341 213 1159 525 
z
M 3116 1747 
Q 3116 2381 2855 2742 
Q 2594 3103 2138 3103 
Q 1681 3103 1420 2742 
Q 1159 2381 1159 1747 
Q 1159 1113 1420 752 
Q 1681 391 2138 391 
Q 2594 391 2855 752 
Q 3116 1113 3116 1747 
z
" transform="scale(0.015625)"/>
       <path id="DejaVuSans-78" d="M 3513 3500 
L 2247 1797 
L 3578 0 
L 2900 0 
L 1881 1375 
L 863 0 
L 184 0 
L 1544 1831 
L 300 3500 
L 978 3500 
L 1906 2253 
L 2834 3500 
L 3513 3500 
z
" transform="scale(0.015625)"/>
      </defs>
      <use xlink:href="#DejaVuSans-Oblique-43" transform="translate(0 0.015625)"/>
      <use xlink:href="#DejaVuSans-30" transform="translate(69.824219 -16.390625) scale(0.7)"/>
      <use xlink:href="#DejaVuSans-2d" transform="translate(117.094727 0.015625)"/>
      <use xlink:href="#DejaVuSans-50" transform="translate(153.178711 0.015625)"/>
      <use xlink:href="#DejaVuSans-6c" transform="translate(213.481445 0.015625)"/>
      <use xlink:href="#DejaVuSans-61" transform="translate(241.264648 0.015625)"/>
      <use xlink:href="#DejaVuSans-6e" transform="translate(302.543945 0.015625)"/>
      <use xlink:href="#DejaVuSans-65" transform="translate(365.922852 0.015625)"/>
      <use xlink:href="#DejaVuSans-20" transform="translate(427.446289 0.015625)"/>
      <use xlink:href="#DejaVuSans-6f" transform="translate(459.233398 0.015625)"/>
      <use xlink:href="#DejaVuSans-66" transform="translate(520.415039 0.015625)"/>
      <use xlink:href="#DejaVuSans-20" transform="translate(555.620117 0.015625)"/>
      <use xlink:href="#DejaVuSans-6d" transform="translate(587.407227 0.015625)"/>
      <use xlink:href="#DejaVuSans-65" transform="translate(684.819336 0.015625)"/>
      <use xlink:href="#DejaVuSans-61" transform="translate(746.342773 0.015625)"/>
      <use xlink:href="#DejaVuSans-73" transform="translate(807.62207 0.015625)"/>
      <use xlink:href="#DejaVuSans-75" transform="translate(859.72168 0.015625)"/>
      <use xlink:href="#DejaVuSans-72" transform="translate(923.100586 0.015625)"/>
      <use xlink:href="#DejaVuSans-65" transform="translate(964.213867 0.015625)"/>
      <use xlink:href="#DejaVuSans-64" transform="translate(1025.737305 0.015625)"/>
      <use xlink:href="#DejaVuSans-20" transform="translate(1089.213867 0.015625)"/>
      <use xlink:href="#DejaVuSans-4c" transform="translate(1121.000977 0.015625)"/>
      <use xlink:href="#DejaVuSans-49" transform="translate(1176.713867 0.015625)"/>
      <use xlink:href="#DejaVuSans-44" transform="translate(1206.206055 0.015625)"/>
      <use xlink:href="#DejaVuSans-2c" transform="translate(1283.208008 0.015625)"/>
      <use xlink:href="#DejaVuSans-20" transform="translate(1314.995117 0.015625)"/>
      <use xlink:href="#DejaVuSans-65" transform="translate(1346.782227 0.015625)"/>
      <use xlink:href="#DejaVuSans-72" transform="translate(1408.305664 0.015625)"/>
      <use xlink:href="#DejaVuSans-72" transform="translate(1449.418945 0.015625)"/>
      <use xlink:href="#DejaVuSans-6f" transform="translate(1490.532227 0.015625)"/>
      <use xlink:href="#DejaVuSans-72" transform="translate(1551.713867 0.015625)"/>
      <use xlink:href="#DejaVuSans-20" transform="translate(1592.827148 0.015625)"/>
      <use xlink:href="#DejaVuSans-61" transform="translate(1624.614258 0.015625)"/>
      <use xlink:href="#DejaVuSans-6d" transform="translate(1685.893555 0.015625)"/>
      <use xlink:href="#DejaVuSans-70" transform="translate(1783.305664 0.015625)"/>
      <use xlink:href="#DejaVuSans-6c" transform="translate(1846.782227 0.015625)"/>
      <use xlink:href="#DejaVuSans-69" transform="translate(1874.56543 0.015625)"/>
      <use xlink:href="#DejaVuSans-66" transform="translate(1902.348633 0.015625)"/>
      <use xlink:href="#DejaVuSans-69" transform="translate(1937.553711 0.015625)"/>
      <use xlink:href="#DejaVuSans-65" transform="translate(1965.336914 0.015625)"/>
      <use xlink:href="#DejaVuSans-64" transform="translate(2026.860352 0.015625)"/>
      <use xlink:href="#DejaVuSans-20" transform="translate(2090.336914 0.015625)"/>
      <use xlink:href="#DejaVuSans-31" transform="translate(2122.124023 0.015625)"/>
      <use xlink:href="#DejaVuSans-30" transform="translate(2185.74707 0.015625)"/>
      <use xlink:href="#DejaVuSans-30" transform="translate(2249.370117 0.015625)"/>
      <use xlink:href="#DejaVuSans-78" transform="translate(2312.993164 0.015625)"/>
     </g>
    </g>
   </g>
  </g>
 </g>
 <defs>
  <clipPath id="p5a2b670283">
   <rect x="100.8" y="57.6" width="662.4" height="460.8"/>
  </clipPath>
 </defs>
</svg>
