<?xml version="1.0" encoding="utf-8" standalone="no"?>
<!DOCTYPE svg PUBLIC "-//W3C//DTD SVG 1.1//EN"
  "http://www.w3.org/Graphics/SVG/1.1/DTD/svg11.dtd">
<svg xmlns:xlink="http://www.w3.org/1999/xlink" width="864pt" height="576pt" viewBox="0 0 864 576" xmlns="http://www.w3.org/2000/svg" version="1.1">
 <metadata>
  <rdf:RDF xmlns:dc="http://purl.org/dc/elements/1.1/" xmlns:cc="http://creativecommons.org/ns#" xmlns:rdf="http://www.w3.org/1999/02/22-rdf-syntax-ns#">
   <cc:Work>
    <dc:type rdf:resource="http://purl.org/dc/dcmitype/StillImage"/>
    <dc:date>2023-08-25T11:18:14.609029</dc:date>
    <dc:format>image/svg+xml</dc:format>
    <dc:creator>
     <cc:Agent>
      <dc:title>Matplotlib v3.7.1, https://matplotlib.org/</dc:title>
     </cc:Agent>
    </dc:creator>
   </cc:Work>
  </rdf:RDF>
 </metadata>
 <defs>
  <style type="text/css">*{stroke-linejoin: round; stroke-linecap: butt}</style>
 </defs>
 <g id="figure_1">
  <g id="patch_1">
   <path d="M 0 576 
L 864 576 
L 864 0 
L 0 0 
z
" style="fill: #ffffff"/>
  </g>
  <g id="axes_1">
   <g id="patch_2">
    <path d="M 386.033498 117.753695 
C 306.596231 117.753695 230.33125 149.343684 174.16062 205.514314 
C 117.98999 261.684944 86.4 337.949925 86.4 417.387192 
L 386.033498 417.387192 
C 386.033498 417.387192 386.033498 417.387192 386.033498 417.387192 
C 386.033498 417.387192 386.033498 417.387192 386.033498 417.387192 
L 386.033498 117.753695 
z
" style="fill: none; opacity: 0"/>
   </g>
   <g id="matplotlib.axis_1">
    <g id="xtick_1">
     <g id="line2d_1">
      <path d="M 386.033498 417.387192 
L 90.952106 365.356381 
" clip-path="url(#p2438c94552)" style="fill: none; stroke: #b0b0b0; stroke-width: 0.8; stroke-linecap: square"/>
     </g>
     <g id="text_1">
      <!-- -80° -->
      <g transform="translate(55.173102 363.687728) scale(0.1 -0.1)">
       <defs>
        <path id="DejaVuSans-2d" d="M 313 2009 
L 1997 2009 
L 1997 1497 
L 313 1497 
L 313 2009 
z
" transform="scale(0.015625)"/>
        <path id="DejaVuSans-38" d="M 2034 2216 
Q 1584 2216 1326 1975 
Q 1069 1734 1069 1313 
Q 1069 891 1326 650 
Q 1584 409 2034 409 
Q 2484 409 2743 651 
Q 3003 894 3003 1313 
Q 3003 1734 2745 1975 
Q 2488 2216 2034 2216 
z
M 1403 2484 
Q 997 2584 770 2862 
Q 544 3141 544 3541 
Q 544 4100 942 4425 
Q 1341 4750 2034 4750 
Q 2731 4750 3128 4425 
Q 3525 4100 3525 3541 
Q 3525 3141 3298 2862 
Q 3072 2584 2669 2484 
Q 3125 2378 3379 2068 
Q 3634 1759 3634 1313 
Q 3634 634 3220 271 
Q 2806 -91 2034 -91 
Q 1263 -91 848 271 
Q 434 634 434 1313 
Q 434 1759 690 2068 
Q 947 2378 1403 2484 
z
M 1172 3481 
Q 1172 3119 1398 2916 
Q 1625 2713 2034 2713 
Q 2441 2713 2670 2916 
Q 2900 3119 2900 3481 
Q 2900 3844 2670 4047 
Q 2441 4250 2034 4250 
Q 1625 4250 1398 4047 
Q 1172 3844 1172 3481 
z
" transform="scale(0.015625)"/>
        <path id="DejaVuSans-30" d="M 2034 4250 
Q 1547 4250 1301 3770 
Q 1056 3291 1056 2328 
Q 1056 1369 1301 889 
Q 1547 409 2034 409 
Q 2525 409 2770 889 
Q 3016 1369 3016 2328 
Q 3016 3291 2770 3770 
Q 2525 4250 2034 4250 
z
M 2034 4750 
Q 2819 4750 3233 4129 
Q 3647 3509 3647 2328 
Q 3647 1150 3233 529 
Q 2819 -91 2034 -91 
Q 1250 -91 836 529 
Q 422 1150 422 2328 
Q 422 3509 836 4129 
Q 1250 4750 2034 4750 
z
" transform="scale(0.015625)"/>
        <path id="DejaVuSans-b0" d="M 1600 4347 
Q 1350 4347 1178 4173 
Q 1006 4000 1006 3750 
Q 1006 3503 1178 3333 
Q 1350 3163 1600 3163 
Q 1850 3163 2022 3333 
Q 2194 3503 2194 3750 
Q 2194 3997 2020 4172 
Q 1847 4347 1600 4347 
z
M 1600 4750 
Q 1800 4750 1984 4673 
Q 2169 4597 2303 4453 
Q 2447 4313 2519 4134 
Q 2591 3956 2591 3750 
Q 2591 3338 2302 3052 
Q 2013 2766 1594 2766 
Q 1172 2766 890 3047 
Q 609 3328 609 3750 
Q 609 4169 896 4459 
Q 1184 4750 1600 4750 
z
" transform="scale(0.015625)"/>
       </defs>
       <use xlink:href="#DejaVuSans-2d"/>
       <use xlink:href="#DejaVuSans-38" x="36.083984"/>
       <use xlink:href="#DejaVuSans-30" x="99.707031"/>
       <use xlink:href="#DejaVuSans-b0" x="163.330078"/>
      </g>
     </g>
    </g>
    <g id="xtick_2">
     <g id="line2d_2">
      <path d="M 386.033498 417.387192 
L 104.470111 314.9065 
" clip-path="url(#p2438c94552)" style="fill: none; stroke: #b0b0b0; stroke-width: 0.8; stroke-linecap: square"/>
     </g>
     <g id="text_2">
      <!-- -70° -->
      <g transform="translate(69.841543 308.944362) scale(0.1 -0.1)">
       <defs>
        <path id="DejaVuSans-37" d="M 525 4666 
L 3525 4666 
L 3525 4397 
L 1831 0 
L 1172 0 
L 2766 4134 
L 525 4134 
L 525 4666 
z
" transform="scale(0.015625)"/>
       </defs>
       <use xlink:href="#DejaVuSans-2d"/>
       <use xlink:href="#DejaVuSans-37" x="36.083984"/>
       <use xlink:href="#DejaVuSans-30" x="99.707031"/>
       <use xlink:href="#DejaVuSans-b0" x="163.330078"/>
      </g>
     </g>
    </g>
    <g id="xtick_3">
     <g id="line2d_3">
      <path d="M 386.033498 417.387192 
L 126.543277 267.570443 
" clip-path="url(#p2438c94552)" style="fill: none; stroke: #b0b0b0; stroke-width: 0.8; stroke-linecap: square"/>
     </g>
     <g id="text_3">
      <!-- -60° -->
      <g transform="translate(93.793223 257.579818) scale(0.1 -0.1)">
       <defs>
        <path id="DejaVuSans-36" d="M 2113 2584 
Q 1688 2584 1439 2293 
Q 1191 2003 1191 1497 
Q 1191 994 1439 701 
Q 1688 409 2113 409 
Q 2538 409 2786 701 
Q 3034 994 3034 1497 
Q 3034 2003 2786 2293 
Q 2538 2584 2113 2584 
z
M 3366 4563 
L 3366 3988 
Q 3128 4100 2886 4159 
Q 2644 4219 2406 4219 
Q 1781 4219 1451 3797 
Q 1122 3375 1075 2522 
Q 1259 2794 1537 2939 
Q 1816 3084 2150 3084 
Q 2853 3084 3261 2657 
Q 3669 2231 3669 1497 
Q 3669 778 3244 343 
Q 2819 -91 2113 -91 
Q 1303 -91 875 529 
Q 447 1150 447 2328 
Q 447 3434 972 4092 
Q 1497 4750 2381 4750 
Q 2619 4750 2861 4703 
Q 3103 4656 3366 4563 
z
" transform="scale(0.015625)"/>
       </defs>
       <use xlink:href="#DejaVuSans-2d"/>
       <use xlink:href="#DejaVuSans-36" x="36.083984"/>
       <use xlink:href="#DejaVuSans-30" x="99.707031"/>
       <use xlink:href="#DejaVuSans-b0" x="163.330078"/>
      </g>
     </g>
    </g>
    <g id="xtick_4">
     <g id="line2d_4">
      <path d="M 386.033498 417.387192 
L 156.500922 224.786492 
" clip-path="url(#p2438c94552)" style="fill: none; stroke: #b0b0b0; stroke-width: 0.8; stroke-linecap: square"/>
     </g>
     <g id="text_4">
      <!-- -50° -->
      <g transform="translate(126.300382 211.154783) scale(0.1 -0.1)">
       <defs>
        <path id="DejaVuSans-35" d="M 691 4666 
L 3169 4666 
L 3169 4134 
L 1269 4134 
L 1269 2991 
Q 1406 3038 1543 3061 
Q 1681 3084 1819 3084 
Q 2600 3084 3056 2656 
Q 3513 2228 3513 1497 
Q 3513 744 3044 326 
Q 2575 -91 1722 -91 
Q 1428 -91 1123 -41 
Q 819 9 494 109 
L 494 744 
Q 775 591 1075 516 
Q 1375 441 1709 441 
Q 2250 441 2565 725 
Q 2881 1009 2881 1497 
Q 2881 1984 2565 2268 
Q 2250 2553 1709 2553 
Q 1456 2553 1204 2497 
Q 953 2441 691 2322 
L 691 4666 
z
" transform="scale(0.015625)"/>
       </defs>
       <use xlink:href="#DejaVuSans-2d"/>
       <use xlink:href="#DejaVuSans-35" x="36.083984"/>
       <use xlink:href="#DejaVuSans-30" x="99.707031"/>
       <use xlink:href="#DejaVuSans-b0" x="163.330078"/>
      </g>
     </g>
    </g>
    <g id="xtick_5">
     <g id="line2d_5">
      <path d="M 386.033498 417.387192 
L 193.432798 187.854616 
" clip-path="url(#p2438c94552)" style="fill: none; stroke: #b0b0b0; stroke-width: 0.8; stroke-linecap: square"/>
     </g>
     <g id="text_5">
      <!-- -40° -->
      <g transform="translate(166.375308 171.079858) scale(0.1 -0.1)">
       <defs>
        <path id="DejaVuSans-34" d="M 2419 4116 
L 825 1625 
L 2419 1625 
L 2419 4116 
z
M 2253 4666 
L 3047 4666 
L 3047 1625 
L 3713 1625 
L 3713 1100 
L 3047 1100 
L 3047 0 
L 2419 0 
L 2419 1100 
L 313 1100 
L 313 1709 
L 2253 4666 
z
" transform="scale(0.015625)"/>
       </defs>
       <use xlink:href="#DejaVuSans-2d"/>
       <use xlink:href="#DejaVuSans-34" x="36.083984"/>
       <use xlink:href="#DejaVuSans-30" x="99.707031"/>
       <use xlink:href="#DejaVuSans-b0" x="163.330078"/>
      </g>
     </g>
    </g>
    <g id="xtick_6">
     <g id="line2d_6">
      <path d="M 386.033498 417.387192 
L 236.216749 157.896971 
" clip-path="url(#p2438c94552)" style="fill: none; stroke: #b0b0b0; stroke-width: 0.8; stroke-linecap: square"/>
     </g>
     <g id="text_6">
      <!-- -30° -->
      <g transform="translate(212.800343 138.572699) scale(0.1 -0.1)">
       <defs>
        <path id="DejaVuSans-33" d="M 2597 2516 
Q 3050 2419 3304 2112 
Q 3559 1806 3559 1356 
Q 3559 666 3084 287 
Q 2609 -91 1734 -91 
Q 1441 -91 1130 -33 
Q 819 25 488 141 
L 488 750 
Q 750 597 1062 519 
Q 1375 441 1716 441 
Q 2309 441 2620 675 
Q 2931 909 2931 1356 
Q 2931 1769 2642 2001 
Q 2353 2234 1838 2234 
L 1294 2234 
L 1294 2753 
L 1863 2753 
Q 2328 2753 2575 2939 
Q 2822 3125 2822 3475 
Q 2822 3834 2567 4026 
Q 2313 4219 1838 4219 
Q 1578 4219 1281 4162 
Q 984 4106 628 3988 
L 628 4550 
Q 988 4650 1302 4700 
Q 1616 4750 1894 4750 
Q 2613 4750 3031 4423 
Q 3450 4097 3450 3541 
Q 3450 3153 3228 2886 
Q 3006 2619 2597 2516 
z
" transform="scale(0.015625)"/>
       </defs>
       <use xlink:href="#DejaVuSans-2d"/>
       <use xlink:href="#DejaVuSans-33" x="36.083984"/>
       <use xlink:href="#DejaVuSans-30" x="99.707031"/>
       <use xlink:href="#DejaVuSans-b0" x="163.330078"/>
      </g>
     </g>
    </g>
    <g id="xtick_7">
     <g id="line2d_7">
      <path d="M 386.033498 417.387192 
L 283.552806 135.823806 
" clip-path="url(#p2438c94552)" style="fill: none; stroke: #b0b0b0; stroke-width: 0.8; stroke-linecap: square"/>
     </g>
     <g id="text_7">
      <!-- -20° -->
      <g transform="translate(264.164886 114.621019) scale(0.1 -0.1)">
       <defs>
        <path id="DejaVuSans-32" d="M 1228 531 
L 3431 531 
L 3431 0 
L 469 0 
L 469 531 
Q 828 903 1448 1529 
Q 2069 2156 2228 2338 
Q 2531 2678 2651 2914 
Q 2772 3150 2772 3378 
Q 2772 3750 2511 3984 
Q 2250 4219 1831 4219 
Q 1534 4219 1204 4116 
Q 875 4013 500 3803 
L 500 4441 
Q 881 4594 1212 4672 
Q 1544 4750 1819 4750 
Q 2544 4750 2975 4387 
Q 3406 4025 3406 3419 
Q 3406 3131 3298 2873 
Q 3191 2616 2906 2266 
Q 2828 2175 2409 1742 
Q 1991 1309 1228 531 
z
" transform="scale(0.015625)"/>
       </defs>
       <use xlink:href="#DejaVuSans-2d"/>
       <use xlink:href="#DejaVuSans-32" x="36.083984"/>
       <use xlink:href="#DejaVuSans-30" x="99.707031"/>
       <use xlink:href="#DejaVuSans-b0" x="163.330078"/>
      </g>
     </g>
    </g>
    <g id="xtick_8">
     <g id="line2d_8">
      <path d="M 386.033498 417.387192 
L 334.002687 122.305801 
" clip-path="url(#p2438c94552)" style="fill: none; stroke: #b0b0b0; stroke-width: 0.8; stroke-linecap: square"/>
     </g>
     <g id="text_8">
      <!-- -10° -->
      <g transform="translate(318.908252 99.952578) scale(0.1 -0.1)">
       <defs>
        <path id="DejaVuSans-31" d="M 794 531 
L 1825 531 
L 1825 4091 
L 703 3866 
L 703 4441 
L 1819 4666 
L 2450 4666 
L 2450 531 
L 3481 531 
L 3481 0 
L 794 0 
L 794 531 
z
" transform="scale(0.015625)"/>
       </defs>
       <use xlink:href="#DejaVuSans-2d"/>
       <use xlink:href="#DejaVuSans-31" x="36.083984"/>
       <use xlink:href="#DejaVuSans-30" x="99.707031"/>
       <use xlink:href="#DejaVuSans-b0" x="163.330078"/>
      </g>
     </g>
    </g>
   </g>
   <g id="matplotlib.axis_2">
    <g id="ytick_1">
     <g id="line2d_9">
      <path d="M 386.033498 417.387192 
C 386.033498 417.387192 386.033498 417.387192 386.033498 417.387192 
C 386.033498 417.387192 386.033498 417.387192 386.033498 417.387192 
" clip-path="url(#p2438c94552)" style="fill: none; stroke: #b0b0b0; stroke-width: 0.8; stroke-linecap: square"/>
     </g>
    </g>
    <g id="ytick_2">
     <g id="line2d_10">
      <path d="M 331.55468 417.387192 
C 331.55468 402.944053 337.298314 389.077692 347.511156 378.864851 
C 357.723998 368.652009 371.590358 362.908374 386.033498 362.908374 
" clip-path="url(#p2438c94552)" style="fill: none; stroke: #b0b0b0; stroke-width: 0.8; stroke-linecap: square"/>
     </g>
    </g>
    <g id="ytick_3">
     <g id="line2d_11">
      <path d="M 277.075862 417.387192 
C 277.075862 388.500913 288.563131 360.768193 308.988815 340.342509 
C 329.414498 319.916826 357.147219 308.429557 386.033498 308.429557 
" clip-path="url(#p2438c94552)" style="fill: none; stroke: #b0b0b0; stroke-width: 0.8; stroke-linecap: square"/>
     </g>
    </g>
    <g id="ytick_4">
     <g id="line2d_12">
      <path d="M 222.597044 417.387192 
C 222.597044 374.057774 239.827948 332.458693 270.466473 301.820168 
C 301.104999 271.181642 342.704079 253.950739 386.033498 253.950739 
" clip-path="url(#p2438c94552)" style="fill: none; stroke: #b0b0b0; stroke-width: 0.8; stroke-linecap: square"/>
     </g>
    </g>
    <g id="ytick_5">
     <g id="line2d_13">
      <path d="M 168.118227 417.387192 
C 168.118227 359.614634 191.092764 304.149194 231.944132 263.297826 
C 272.795499 222.446459 328.26094 199.471921 386.033498 199.471921 
" clip-path="url(#p2438c94552)" style="fill: none; stroke: #b0b0b0; stroke-width: 0.8; stroke-linecap: square"/>
     </g>
    </g>
    <g id="ytick_6">
     <g id="line2d_14">
      <path d="M 113.639409 417.387192 
C 113.639409 345.171495 142.357581 275.839694 193.42179 224.775485 
C 244.485999 173.711276 313.8178 144.993103 386.033498 144.993103 
" clip-path="url(#p2438c94552)" style="fill: none; stroke: #b0b0b0; stroke-width: 0.8; stroke-linecap: square"/>
     </g>
    </g>
   </g>
   <g id="line2d_15">
    <path d="M 386.03342 417.387059 
L 386.033372 417.386971 
L 386.033297 417.38683 
L 386.033179 417.386605 
L 386.032996 417.386249 
L 386.032717 417.385692 
L 386.032294 417.384831 
L 386.031662 417.38351 
L 386.030724 417.381505 
L 386.029348 417.378492 
L 386.02735 417.374008 
L 386.024477 417.367399 
L 386.02039 417.357752 
L 386.014632 417.343804 
L 386.006602 417.32383 
L 385.995516 417.295497 
L 385.980365 417.255685 
L 385.959866 417.200268 
L 385.932409 417.123848 
L 385.896003 417.019446 
L 385.848216 416.878137 
L 385.786127 416.688639 
L 385.706273 416.436862 
L 385.604621 416.105415 
L 385.476552 415.673091 
L 385.316876 415.11436 
L 385.11988 414.398883 
L 384.879418 413.491083 
L 384.589058 412.349832 
L 384.242281 410.928273 
L 383.832742 409.173862 
L 383.354598 407.028656 
L 382.802886 404.429918 
L 382.173967 401.311089 
L 381.465993 397.603156 
L 380.679407 393.236449 
L 379.817426 388.142876 
L 378.8865 382.258575 
L 377.896688 375.526934 
L 376.861942 367.901908 
L 375.800242 359.351518 
L 374.733556 349.861402 
L 373.687596 339.438234 
L 372.691357 328.112844 
L 371.77642 315.942811 
L 370.976029 303.014363 
L 370.32397 289.443355 
L 369.853273 275.375187 
L 369.59481 260.983527 
L 369.575828 246.467764 
L 369.818522 232.049178 
L 370.3387 217.965887 
L 371.144647 204.466704 
L 372.236244 191.804092 
L 373.604432 180.226497 
L 375.231046 169.970364 
L 377.089066 161.252191 
L 379.143296 154.260992 
L 381.351427 149.151535 
L 383.665475 146.038677 
L 386.033498 144.993103 
" clip-path="url(#p2438c94552)" style="fill: none; stroke: #90ee90; stroke-width: 1.5; stroke-linecap: square"/>
   </g>
   <g id="line2d_16">
    <path d="M 386.033378 417.386985 
L 386.033306 417.386854 
L 386.033195 417.386646 
L 386.033023 417.386318 
L 386.032761 417.385807 
L 386.032366 417.385018 
L 386.031776 417.383813 
L 386.030904 417.38199 
L 386.029629 417.379259 
L 386.027781 417.375208 
L 386.025133 417.369255 
L 386.021375 417.360591 
L 386.016093 417.348102 
L 386.008746 417.330267 
L 385.998625 417.305037 
L 385.984821 417.269677 
L 385.966181 417.220579 
L 385.94126 417.153033 
L 385.908268 417.060959 
L 385.865026 416.936594 
L 385.808909 416.770141 
L 385.736811 416.549374 
L 385.645103 416.259211 
L 385.529625 415.881275 
L 385.385687 415.393435 
L 385.208105 414.76938 
L 384.991273 413.978229 
L 384.729279 412.984223 
L 384.416065 411.746535 
L 384.045649 410.219243 
L 383.612393 408.351506 
L 383.111327 406.087999 
L 382.538529 403.369637 
L 381.891526 400.134638 
L 381.169738 396.319936 
L 380.374915 391.862975 
L 379.511553 386.703854 
L 378.587271 380.787818 
L 377.613104 374.068021 
L 376.603689 366.5085 
L 375.577316 358.087242 
L 374.555807 348.799221 
L 373.564218 338.659262 
L 372.630338 327.704559 
L 371.783992 315.996688 
L 371.056151 303.622951 
L 370.477885 290.696894 
L 370.079173 277.357881 
L 369.887642 263.769637 
L 369.927278 250.117702 
L 370.217177 236.605823 
L 370.770415 223.451335 
L 371.593084 210.879661 
L 372.683588 199.118102 
L 374.032219 188.389159 
L 375.621081 178.903642 
L 377.424364 170.853859 
L 379.408983 164.407201 
L 381.535558 159.700403 
L 383.759691 156.834762 
L 386.033498 155.872545 
" clip-path="url(#p2438c94552)" style="fill: none; stroke: #ff0000; stroke-width: 1.5; stroke-linecap: square"/>
   </g>
   <g id="line2d_17">
    <path d="M 382.292899 410.908285 
L 382.48936 411.12295 
L 382.678784 411.335129 
L 382.861321 411.54477 
L 383.037116 411.751819 
L 383.206316 411.956226 
L 383.36906 412.15794 
L 383.525491 412.35691 
L 383.675746 412.553086 
L 383.819962 412.746419 
L 383.958274 412.936861 
L 384.090815 413.124364 
L 384.217716 413.30888 
L 384.339108 413.490363 
L 384.455119 413.668766 
L 384.565878 413.844046 
L 384.671511 414.016156 
L 384.772142 414.185055 
L 384.867897 414.350698 
L 384.958897 414.513043 
L 385.045267 414.67205 
L 385.127126 414.827678 
L 385.204596 414.979886 
L 385.277796 415.128637 
L 385.346845 415.273892 
L 385.411861 415.415614 
L 385.472963 415.553766 
L 385.530267 415.688314 
L 385.58389 415.819223 
L 385.633947 415.94646 
L 385.680554 416.06999 
L 385.723827 416.189784 
L 385.763879 416.30581 
L 385.800824 416.418039 
L 385.834777 416.52644 
L 385.865851 416.630988 
L 385.894159 416.731654 
L 385.919813 416.828413 
L 385.942926 416.92124 
L 385.96361 417.01011 
L 385.981976 417.095002 
L 385.998138 417.175892 
L 386.012206 417.252761 
L 386.024291 417.325588 
" clip-path="url(#p2438c94552)" style="fill: none; stroke: #00008b; stroke-width: 1.5; stroke-linecap: square"/>
   </g>
   <g id="patch_3">
    <path d="M 386.033498 117.753695 
C 306.596231 117.753695 230.33125 149.343684 174.16062 205.514314 
C 117.98999 261.684944 86.4 337.949925 86.4 417.387192 
" style="fill: none; stroke: #000000; stroke-width: 0.8; stroke-linejoin: miter; stroke-linecap: square"/>
   </g>
   <g id="patch_4">
    <path d="M 386.033498 417.387192 
L 86.4 417.387192 
" style="fill: none; stroke: #000000; stroke-width: 0.8; stroke-linejoin: miter; stroke-linecap: square"/>
   </g>
   <g id="patch_5">
    <path d="M 386.033498 417.387192 
L 386.033498 117.753695 
" style="fill: none; stroke: #000000; stroke-width: 0.8; stroke-linejoin: miter; stroke-linecap: square"/>
   </g>
  </g>
  <g id="axes_2">
   <g id="patch_6">
    <path d="M 86.4 471.86601 
L 777.6 471.86601 
L 777.6 104.13399 
L 86.4 104.13399 
L 86.4 471.86601 
z
" style="fill: none; opacity: 0"/>
   </g>
   <g id="matplotlib.axis_3">
    <g id="xtick_9"/>
    <g id="xtick_10"/>
    <g id="xtick_11"/>
    <g id="xtick_12"/>
    <g id="xtick_13"/>
    <g id="xtick_14"/>
    <g id="xtick_15"/>
   </g>
   <g id="matplotlib.axis_4">
    <g id="ytick_7">
     <g id="line2d_18">
      <defs>
       <path id="m87dc70314b" d="M 0 0 
L 3.5 0 
" style="stroke: #000000; stroke-width: 0.8"/>
      </defs>
      <g>
       <use xlink:href="#m87dc70314b" x="825.984" y="460.687568" style="stroke: #000000; stroke-width: 0.8"/>
      </g>
     </g>
     <g id="text_9">
      <!-- −0.5 -->
      <g transform="translate(832.984 464.486787) scale(0.1 -0.1)">
       <defs>
        <path id="DejaVuSans-2212" d="M 678 2272 
L 4684 2272 
L 4684 1741 
L 678 1741 
L 678 2272 
z
" transform="scale(0.015625)"/>
        <path id="DejaVuSans-2e" d="M 684 794 
L 1344 794 
L 1344 0 
L 684 0 
L 684 794 
z
" transform="scale(0.015625)"/>
       </defs>
       <use xlink:href="#DejaVuSans-2212"/>
       <use xlink:href="#DejaVuSans-30" x="83.789062"/>
       <use xlink:href="#DejaVuSans-2e" x="147.412109"/>
       <use xlink:href="#DejaVuSans-35" x="179.199219"/>
      </g>
     </g>
    </g>
    <g id="ytick_8">
     <g id="line2d_19">
      <g>
       <use xlink:href="#m87dc70314b" x="825.984" y="417.387192" style="stroke: #000000; stroke-width: 0.8"/>
      </g>
     </g>
     <g id="text_10">
      <!-- 0.0 -->
      <g transform="translate(832.984 421.186411) scale(0.1 -0.1)">
       <use xlink:href="#DejaVuSans-30"/>
       <use xlink:href="#DejaVuSans-2e" x="63.623047"/>
       <use xlink:href="#DejaVuSans-30" x="95.410156"/>
      </g>
     </g>
    </g>
    <g id="ytick_9">
     <g id="line2d_20">
      <g>
       <use xlink:href="#m87dc70314b" x="825.984" y="374.086816" style="stroke: #000000; stroke-width: 0.8"/>
      </g>
     </g>
     <g id="text_11">
      <!-- 0.5 -->
      <g transform="translate(832.984 377.886035) scale(0.1 -0.1)">
       <use xlink:href="#DejaVuSans-30"/>
       <use xlink:href="#DejaVuSans-2e" x="63.623047"/>
       <use xlink:href="#DejaVuSans-35" x="95.410156"/>
      </g>
     </g>
    </g>
    <g id="ytick_10">
     <g id="line2d_21">
      <g>
       <use xlink:href="#m87dc70314b" x="825.984" y="330.786441" style="stroke: #000000; stroke-width: 0.8"/>
      </g>
     </g>
     <g id="text_12">
      <!-- 1.0 -->
      <g transform="translate(832.984 334.58566) scale(0.1 -0.1)">
       <use xlink:href="#DejaVuSans-31"/>
       <use xlink:href="#DejaVuSans-2e" x="63.623047"/>
       <use xlink:href="#DejaVuSans-30" x="95.410156"/>
      </g>
     </g>
    </g>
    <g id="ytick_11">
     <g id="line2d_22">
      <g>
       <use xlink:href="#m87dc70314b" x="825.984" y="287.486065" style="stroke: #000000; stroke-width: 0.8"/>
      </g>
     </g>
     <g id="text_13">
      <!-- 1.5 -->
      <g transform="translate(832.984 291.285284) scale(0.1 -0.1)">
       <use xlink:href="#DejaVuSans-31"/>
       <use xlink:href="#DejaVuSans-2e" x="63.623047"/>
       <use xlink:href="#DejaVuSans-35" x="95.410156"/>
      </g>
     </g>
    </g>
    <g id="ytick_12">
     <g id="line2d_23">
      <g>
       <use xlink:href="#m87dc70314b" x="825.984" y="244.185689" style="stroke: #000000; stroke-width: 0.8"/>
      </g>
     </g>
     <g id="text_14">
      <!-- 2.0 -->
      <g transform="translate(832.984 247.984908) scale(0.1 -0.1)">
       <use xlink:href="#DejaVuSans-32"/>
       <use xlink:href="#DejaVuSans-2e" x="63.623047"/>
       <use xlink:href="#DejaVuSans-30" x="95.410156"/>
      </g>
     </g>
    </g>
    <g id="ytick_13">
     <g id="line2d_24">
      <g>
       <use xlink:href="#m87dc70314b" x="825.984" y="200.885314" style="stroke: #000000; stroke-width: 0.8"/>
      </g>
     </g>
     <g id="text_15">
      <!-- 2.5 -->
      <g transform="translate(832.984 204.684533) scale(0.1 -0.1)">
       <use xlink:href="#DejaVuSans-32"/>
       <use xlink:href="#DejaVuSans-2e" x="63.623047"/>
       <use xlink:href="#DejaVuSans-35" x="95.410156"/>
      </g>
     </g>
    </g>
    <g id="ytick_14">
     <g id="line2d_25">
      <g>
       <use xlink:href="#m87dc70314b" x="825.984" y="157.584938" style="stroke: #000000; stroke-width: 0.8"/>
      </g>
     </g>
     <g id="text_16">
      <!-- 3.0 -->
      <g transform="translate(832.984 161.384157) scale(0.1 -0.1)">
       <use xlink:href="#DejaVuSans-33"/>
       <use xlink:href="#DejaVuSans-2e" x="63.623047"/>
       <use xlink:href="#DejaVuSans-30" x="95.410156"/>
      </g>
     </g>
    </g>
    <g id="ytick_15">
     <g id="line2d_26">
      <g>
       <use xlink:href="#m87dc70314b" x="825.984" y="114.284562" style="stroke: #000000; stroke-width: 0.8"/>
      </g>
     </g>
     <g id="text_17">
      <!-- 3.5 -->
      <g transform="translate(832.984 118.083781) scale(0.1 -0.1)">
       <use xlink:href="#DejaVuSans-33"/>
       <use xlink:href="#DejaVuSans-2e" x="63.623047"/>
       <use xlink:href="#DejaVuSans-35" x="95.410156"/>
      </g>
     </g>
    </g>
    <g id="text_18">
     <!-- % -->
     <g transform="translate(820.615719 92.707881) scale(0.14 -0.14)">
      <defs>
       <path id="DejaVuSans-25" d="M 4653 2053 
Q 4381 2053 4226 1822 
Q 4072 1591 4072 1178 
Q 4072 772 4226 539 
Q 4381 306 4653 306 
Q 4919 306 5073 539 
Q 5228 772 5228 1178 
Q 5228 1588 5073 1820 
Q 4919 2053 4653 2053 
z
M 4653 2450 
Q 5147 2450 5437 2106 
Q 5728 1763 5728 1178 
Q 5728 594 5436 251 
Q 5144 -91 4653 -91 
Q 4153 -91 3862 251 
Q 3572 594 3572 1178 
Q 3572 1766 3864 2108 
Q 4156 2450 4653 2450 
z
M 1428 4353 
Q 1159 4353 1004 4120 
Q 850 3888 850 3481 
Q 850 3069 1003 2837 
Q 1156 2606 1428 2606 
Q 1700 2606 1854 2837 
Q 2009 3069 2009 3481 
Q 2009 3884 1853 4118 
Q 1697 4353 1428 4353 
z
M 4250 4750 
L 4750 4750 
L 1831 -91 
L 1331 -91 
L 4250 4750 
z
M 1428 4750 
Q 1922 4750 2215 4408 
Q 2509 4066 2509 3481 
Q 2509 2891 2217 2550 
Q 1925 2209 1428 2209 
Q 931 2209 642 2551 
Q 353 2894 353 3481 
Q 353 4063 643 4406 
Q 934 4750 1428 4750 
z
" transform="scale(0.015625)"/>
      </defs>
      <use xlink:href="#DejaVuSans-25"/>
     </g>
    </g>
   </g>
   <g id="line2d_27">
    <path d="M 386.033498 104.13399 
" style="fill: none; stroke: #000000; stroke-width: 1.5; stroke-linecap: square"/>
    <defs>
     <path id="m5de62ba1f1" d="M 0 -2 
L -2 2 
L 2 2 
z
" style="stroke: #000000; stroke-linejoin: miter"/>
    </defs>
    <g>
     <use xlink:href="#m5de62ba1f1" x="386.033498" y="104.13399" style="stroke: #000000; stroke-linejoin: miter"/>
    </g>
   </g>
   <g id="line2d_28">
    <path d="M 777.6 417.387192 
" style="fill: none; stroke: #000000; stroke-width: 1.5; stroke-linecap: square"/>
    <defs>
     <path id="m482adc615c" d="M 2 0 
L -2 -2 
L -2 2 
z
" style="stroke: #000000; stroke-linejoin: miter"/>
    </defs>
    <g>
     <use xlink:href="#m482adc615c" x="777.6" y="417.387192" style="stroke: #000000; stroke-linejoin: miter"/>
    </g>
   </g>
   <g id="line2d_29">
    <path d="M 386.033498 144.993103 
L 392.151724 146.028344 
L 398.269951 149.110675 
L 404.388177 154.170795 
L 410.506404 161.096065 
L 416.624631 169.734654 
L 422.742857 179.901031 
L 428.861084 191.382548 
L 434.97931 203.946774 
L 441.097537 217.349237 
L 447.215764 231.341216 
L 453.33399 245.677245 
L 459.452217 260.122012 
L 465.570443 274.456407 
L 471.68867 288.482519 
L 477.806897 302.027445 
L 483.925123 314.945859 
L 490.04335 327.121351 
L 496.161576 338.466591 
L 502.279803 348.922449 
L 508.39803 358.456224 
L 514.516256 367.05916 
L 520.634483 374.743448 
L 526.752709 381.53891 
L 532.870936 387.48954 
L 538.989163 392.65008 
L 545.107389 397.082755 
L 551.225616 400.854284 
L 557.343842 404.033249 
L 563.462069 406.687857 
L 569.580296 408.884127 
L 575.698522 410.684499 
L 581.816749 412.146829 
L 587.934975 413.32375 
L 594.053202 414.262342 
L 600.171429 415.004062 
L 606.289655 415.584879 
L 612.407882 416.035568 
L 618.526108 416.382104 
L 624.644335 416.646133 
L 630.762562 416.845467 
L 636.880788 416.994583 
L 642.999015 417.105113 
L 649.117241 417.186288 
L 655.235468 417.245357 
L 661.353695 417.287942 
L 667.471921 417.318358 
L 673.590148 417.33988 
L 679.708374 417.354966 
L 685.826601 417.365441 
L 691.944828 417.372645 
L 698.063054 417.377553 
L 704.181281 417.380865 
L 710.299507 417.383078 
L 716.417734 417.384542 
L 722.535961 417.385501 
L 728.654187 417.386124 
L 734.772414 417.386524 
L 740.89064 417.386778 
L 747.008867 417.386938 
L 753.127094 417.387038 
" clip-path="url(#p0046296a36)" style="fill: none; stroke: #90ee90; stroke-width: 1.5; stroke-linecap: square"/>
   </g>
   <g id="line2d_30">
    <path d="M 386.033498 155.872545 
L 392.151724 156.82484 
L 398.269951 159.66115 
L 404.388177 164.320482 
L 410.506404 170.703586 
L 416.624631 178.676442 
L 422.742857 188.074894 
L 428.861084 198.710225 
L 434.97931 210.37539 
L 441.097537 222.851647 
L 447.215764 235.915267 
L 453.33399 249.344064 
L 459.452217 262.923468 
L 465.570443 276.451929 
L 471.68867 289.745472 
L 477.806897 302.641284 
L 483.925123 315.000266 
L 490.04335 326.708532 
L 496.161576 337.677908 
L 502.279803 347.845498 
L 508.39803 357.172444 
L 514.516256 365.642022 
L 520.634483 373.257229 
L 526.752709 380.038022 
L 532.870936 386.01837 
L 538.989163 391.243259 
L 545.107389 395.765781 
L 551.225616 399.644403 
L 557.343842 402.940509 
L 563.462069 405.716252 
L 569.580296 408.032761 
L 575.698522 409.948708 
L 581.816749 411.51922 
L 587.934975 412.79512 
L 594.053202 413.822467 
L 600.171429 414.64234 
L 606.289655 415.290832 
L 612.407882 415.799214 
L 618.526108 416.194216 
L 624.644335 416.498394 
L 630.762562 416.730541 
L 636.880788 416.90613 
L 642.999015 417.037749 
L 649.117241 417.135521 
L 655.235468 417.207494 
L 661.353695 417.259995 
L 667.471921 417.297942 
L 673.590148 417.325118 
L 679.708374 417.344402 
L 685.826601 417.357959 
L 691.944828 417.367401 
L 698.063054 417.373915 
L 704.181281 417.378366 
L 710.299507 417.38138 
L 716.417734 417.3834 
L 722.535961 417.384741 
L 728.654187 417.385623 
L 734.772414 417.386197 
L 740.89064 417.386568 
L 747.008867 417.386804 
L 753.127094 417.386953 
" clip-path="url(#p0046296a36)" style="fill: none; stroke: #ff0000; stroke-width: 1.5; stroke-linecap: square"/>
   </g>
   <g id="line2d_31">
    <path d="M 825.984 104.13399 
" style="fill: none; stroke: #000000; stroke-width: 1.5; stroke-linecap: square"/>
    <g>
     <use xlink:href="#m5de62ba1f1" x="825.984" y="104.13399" style="stroke: #000000; stroke-linejoin: miter"/>
    </g>
   </g>
   <g id="line2d_32">
    <path d="M 386.033498 434.681397 
L 392.151724 434.615019 
L 398.269951 434.415873 
L 404.388177 434.08392 
L 410.506404 433.619095 
L 416.624631 433.021305 
L 422.742857 432.290434 
L 428.861084 431.426336 
L 434.97931 430.428842 
L 441.097537 429.297754 
L 447.215764 428.032847 
L 453.33399 426.633869 
L 459.452217 425.100541 
L 465.570443 423.432556 
L 471.68867 421.629578 
L 477.806897 419.691244 
L 483.925123 417.617161 
L 490.04335 415.406906 
L 496.161576 413.060027 
L 502.279803 410.576042 
L 508.39803 407.954436 
L 514.516256 405.194666 
L 520.634483 402.296153 
L 526.752709 399.258288 
L 532.870936 396.080426 
L 538.989163 392.76189 
L 545.107389 389.301967 
L 551.225616 385.699908 
L 557.343842 381.954926 
L 563.462069 378.066198 
L 569.580296 374.032862 
L 575.698522 369.854015 
L 581.816749 365.528714 
L 587.934975 361.055974 
L 594.053202 356.434766 
L 600.171429 351.664016 
L 606.289655 346.742606 
L 612.407882 341.669369 
L 618.526108 336.443089 
L 624.644335 331.0625 
L 630.762562 325.526285 
L 636.880788 319.833071 
L 642.999015 313.98143 
L 649.117241 307.969878 
L 655.235468 301.796869 
L 661.353695 295.460798 
L 667.471921 288.959993 
L 673.590148 282.292718 
L 679.708374 275.457167 
L 685.826601 268.451464 
L 691.944828 261.273657 
L 698.063054 253.921719 
L 704.181281 246.393543 
L 710.299507 238.686937 
L 716.417734 230.799625 
L 722.535961 222.729241 
L 728.654187 214.473323 
L 734.772414 206.029314 
L 740.89064 197.394555 
L 747.008867 188.566282 
L 753.127094 179.541619 
" clip-path="url(#p0046296a36)" style="fill: none; stroke: #00008b; stroke-width: 1.5; stroke-linecap: square"/>
   </g>
   <g id="patch_7">
    <path d="M 825.984 471.86601 
L 825.984 104.13399 
" style="fill: none; stroke: #000000; stroke-width: 0.8; stroke-linejoin: miter; stroke-linecap: square"/>
   </g>
   <g id="patch_8">
    <path d="M 386.033498 471.86601 
L 386.033498 104.13399 
" style="fill: none; stroke: #000000; stroke-width: 0.8; stroke-linejoin: miter; stroke-linecap: square"/>
   </g>
   <g id="patch_9">
    <path d="M 86.4 417.387192 
L 777.6 417.387192 
" style="fill: none; stroke: #000000; stroke-width: 0.8; stroke-linejoin: miter; stroke-linecap: square"/>
   </g>
   <g id="matplotlib.axis_5">
    <g id="xtick_16">
     <g id="line2d_33">
      <defs>
       <path id="m8903467942" d="M 0 0 
L 0 3.5 
" style="stroke: #000000; stroke-width: 0.8"/>
      </defs>
      <g>
       <use xlink:href="#m8903467942" x="569.580296" y="417.387192" style="stroke: #000000; stroke-width: 0.8"/>
      </g>
     </g>
     <g id="text_19">
      <g id="patch_10">
       <path d="M 563.217796 437.065317 
L 575.942796 437.065317 
Q 578.942796 437.065317 578.942796 434.065317 
L 578.942796 424.387192 
Q 578.942796 421.387192 575.942796 421.387192 
L 563.217796 421.387192 
Q 560.217796 421.387192 560.217796 424.387192 
L 560.217796 434.065317 
Q 560.217796 437.065317 563.217796 437.065317 
z
" style="fill: #ffffff; opacity: 0.7; stroke: #ffffff; stroke-linejoin: miter"/>
      </g>
      <!-- 15 -->
      <g transform="translate(563.217796 431.98563) scale(0.1 -0.1)">
       <use xlink:href="#DejaVuSans-31"/>
       <use xlink:href="#DejaVuSans-35" x="63.623047"/>
      </g>
     </g>
    </g>
    <g id="xtick_17">
     <g id="line2d_34">
      <g>
       <use xlink:href="#m8903467942" x="753.127094" y="417.387192" style="stroke: #000000; stroke-width: 0.8"/>
      </g>
     </g>
     <g id="text_20">
      <g id="patch_11">
       <path d="M 746.764594 437.065317 
L 759.489594 437.065317 
Q 762.489594 437.065317 762.489594 434.065317 
L 762.489594 424.387192 
Q 762.489594 421.387192 759.489594 421.387192 
L 746.764594 421.387192 
Q 743.764594 421.387192 743.764594 424.387192 
L 743.764594 434.065317 
Q 743.764594 437.065317 746.764594 437.065317 
z
" style="fill: #ffffff; opacity: 0.7; stroke: #ffffff; stroke-linejoin: miter"/>
      </g>
      <!-- 30 -->
      <g transform="translate(746.764594 431.98563) scale(0.1 -0.1)">
       <use xlink:href="#DejaVuSans-33"/>
       <use xlink:href="#DejaVuSans-30" x="63.623047"/>
      </g>
     </g>
    </g>
    <g id="xtick_18">
     <g id="line2d_35">
      <defs>
       <path id="me9892023dd" d="M 0 0 
L 0 2 
" style="stroke: #000000; stroke-width: 0.6"/>
      </defs>
      <g>
       <use xlink:href="#me9892023dd" x="386.033498" y="417.387192" style="stroke: #000000; stroke-width: 0.6"/>
      </g>
     </g>
    </g>
    <g id="xtick_19">
     <g id="line2d_36">
      <g>
       <use xlink:href="#me9892023dd" x="447.215764" y="417.387192" style="stroke: #000000; stroke-width: 0.6"/>
      </g>
     </g>
    </g>
    <g id="xtick_20">
     <g id="line2d_37">
      <g>
       <use xlink:href="#me9892023dd" x="508.39803" y="417.387192" style="stroke: #000000; stroke-width: 0.6"/>
      </g>
     </g>
    </g>
    <g id="xtick_21">
     <g id="line2d_38">
      <g>
       <use xlink:href="#me9892023dd" x="630.762562" y="417.387192" style="stroke: #000000; stroke-width: 0.6"/>
      </g>
     </g>
    </g>
    <g id="xtick_22">
     <g id="line2d_39">
      <g>
       <use xlink:href="#me9892023dd" x="691.944828" y="417.387192" style="stroke: #000000; stroke-width: 0.6"/>
      </g>
     </g>
    </g>
    <g id="text_21">
     <!-- $\theta$ / ° -->
     <g transform="translate(783.706 420.70313) scale(0.14 -0.14)">
      <defs>
       <path id="DejaVuSans-Oblique-3b8" d="M 2913 2219 
L 925 2219 
Q 791 1284 928 888 
Q 1100 400 1566 400 
Q 2034 400 2391 891 
Q 2703 1322 2913 2219 
z
M 3009 2750 
Q 3094 3638 2984 3950 
Q 2813 4444 2353 4444 
Q 1875 4444 1525 3956 
Q 1250 3563 1034 2750 
L 3009 2750 
z
M 2444 4913 
Q 3194 4913 3494 4250 
Q 3794 3591 3566 2422 
Q 3341 1256 2781 594 
Q 2225 -72 1475 -72 
Q 722 -72 425 594 
Q 128 1256 353 2422 
Q 581 3591 1134 4250 
Q 1691 4913 2444 4913 
z
" transform="scale(0.015625)"/>
       <path id="DejaVuSans-20" transform="scale(0.015625)"/>
       <path id="DejaVuSans-2f" d="M 1625 4666 
L 2156 4666 
L 531 -594 
L 0 -594 
L 1625 4666 
z
" transform="scale(0.015625)"/>
      </defs>
      <use xlink:href="#DejaVuSans-Oblique-3b8" transform="translate(0 0.234375)"/>
      <use xlink:href="#DejaVuSans-20" transform="translate(61.181641 0.234375)"/>
      <use xlink:href="#DejaVuSans-2f" transform="translate(92.96875 0.234375)"/>
      <use xlink:href="#DejaVuSans-20" transform="translate(126.660156 0.234375)"/>
      <use xlink:href="#DejaVuSans-b0" transform="translate(158.447266 0.234375)"/>
     </g>
    </g>
   </g>
   <g id="matplotlib.axis_6">
    <g id="ytick_16">
     <g id="line2d_40">
      <g>
       <use xlink:href="#m87dc70314b" x="386.033498" y="362.908374" style="stroke: #000000; stroke-width: 0.8"/>
      </g>
     </g>
     <g id="text_22">
      <g id="patch_12">
       <path d="M 396.033498 371.787281 
L 408.758498 371.787281 
Q 411.758498 371.787281 411.758498 368.787281 
L 411.758498 359.109156 
Q 411.758498 356.109156 408.758498 356.109156 
L 396.033498 356.109156 
Q 393.033498 356.109156 393.033498 359.109156 
L 393.033498 368.787281 
Q 393.033498 371.787281 396.033498 371.787281 
z
" style="fill: #ffffff; opacity: 0.7; stroke: #ffffff; stroke-linejoin: miter"/>
      </g>
      <!-- 20 -->
      <g transform="translate(396.033498 366.707593) scale(0.1 -0.1)">
       <use xlink:href="#DejaVuSans-32"/>
       <use xlink:href="#DejaVuSans-30" x="63.623047"/>
      </g>
     </g>
    </g>
    <g id="ytick_17">
     <g id="line2d_41">
      <g>
       <use xlink:href="#m87dc70314b" x="386.033498" y="308.429557" style="stroke: #000000; stroke-width: 0.8"/>
      </g>
     </g>
     <g id="text_23">
      <g id="patch_13">
       <path d="M 396.033498 317.308463 
L 408.758498 317.308463 
Q 411.758498 317.308463 411.758498 314.308463 
L 411.758498 304.630338 
Q 411.758498 301.630338 408.758498 301.630338 
L 396.033498 301.630338 
Q 393.033498 301.630338 393.033498 304.630338 
L 393.033498 314.308463 
Q 393.033498 317.308463 396.033498 317.308463 
z
" style="fill: #ffffff; opacity: 0.7; stroke: #ffffff; stroke-linejoin: miter"/>
      </g>
      <!-- 40 -->
      <g transform="translate(396.033498 312.228775) scale(0.1 -0.1)">
       <use xlink:href="#DejaVuSans-34"/>
       <use xlink:href="#DejaVuSans-30" x="63.623047"/>
      </g>
     </g>
    </g>
    <g id="ytick_18">
     <g id="line2d_42">
      <g>
       <use xlink:href="#m87dc70314b" x="386.033498" y="253.950739" style="stroke: #000000; stroke-width: 0.8"/>
      </g>
     </g>
     <g id="text_24">
      <g id="patch_14">
       <path d="M 396.033498 262.829645 
L 408.758498 262.829645 
Q 411.758498 262.829645 411.758498 259.829645 
L 411.758498 250.15152 
Q 411.758498 247.15152 408.758498 247.15152 
L 396.033498 247.15152 
Q 393.033498 247.15152 393.033498 250.15152 
L 393.033498 259.829645 
Q 393.033498 262.829645 396.033498 262.829645 
z
" style="fill: #ffffff; opacity: 0.7; stroke: #ffffff; stroke-linejoin: miter"/>
      </g>
      <!-- 60 -->
      <g transform="translate(396.033498 257.749958) scale(0.1 -0.1)">
       <use xlink:href="#DejaVuSans-36"/>
       <use xlink:href="#DejaVuSans-30" x="63.623047"/>
      </g>
     </g>
    </g>
    <g id="ytick_19">
     <g id="line2d_43">
      <g>
       <use xlink:href="#m87dc70314b" x="386.033498" y="199.471921" style="stroke: #000000; stroke-width: 0.8"/>
      </g>
     </g>
     <g id="text_25">
      <g id="patch_15">
       <path d="M 396.033498 208.350827 
L 408.758498 208.350827 
Q 411.758498 208.350827 411.758498 205.350827 
L 411.758498 195.672702 
Q 411.758498 192.672702 408.758498 192.672702 
L 396.033498 192.672702 
Q 393.033498 192.672702 393.033498 195.672702 
L 393.033498 205.350827 
Q 393.033498 208.350827 396.033498 208.350827 
z
" style="fill: #ffffff; opacity: 0.7; stroke: #ffffff; stroke-linejoin: miter"/>
      </g>
      <!-- 80 -->
      <g transform="translate(396.033498 203.27114) scale(0.1 -0.1)">
       <use xlink:href="#DejaVuSans-38"/>
       <use xlink:href="#DejaVuSans-30" x="63.623047"/>
      </g>
     </g>
    </g>
    <g id="ytick_20">
     <g id="line2d_44">
      <g>
       <use xlink:href="#m87dc70314b" x="386.033498" y="144.993103" style="stroke: #000000; stroke-width: 0.8"/>
      </g>
     </g>
     <g id="text_26">
      <g id="patch_16">
       <path d="M 396.033498 153.87201 
L 415.120998 153.87201 
Q 418.120998 153.87201 418.120998 150.87201 
L 418.120998 141.193885 
Q 418.120998 138.193885 415.120998 138.193885 
L 396.033498 138.193885 
Q 393.033498 138.193885 393.033498 141.193885 
L 393.033498 150.87201 
Q 393.033498 153.87201 396.033498 153.87201 
z
" style="fill: #ffffff; opacity: 0.7; stroke: #ffffff; stroke-linejoin: miter"/>
      </g>
      <!-- 100 -->
      <g transform="translate(396.033498 148.792322) scale(0.1 -0.1)">
       <use xlink:href="#DejaVuSans-31"/>
       <use xlink:href="#DejaVuSans-30" x="63.623047"/>
       <use xlink:href="#DejaVuSans-30" x="127.246094"/>
      </g>
     </g>
    </g>
    <g id="ytick_21">
     <g id="line2d_45">
      <defs>
       <path id="m1f41763ed7" d="M 0 0 
L 2 0 
" style="stroke: #000000; stroke-width: 0.6"/>
      </defs>
      <g>
       <use xlink:href="#m1f41763ed7" x="386.033498" y="417.387192" style="stroke: #000000; stroke-width: 0.6"/>
      </g>
     </g>
    </g>
    <g id="ytick_22">
     <g id="line2d_46">
      <g>
       <use xlink:href="#m1f41763ed7" x="386.033498" y="390.147783" style="stroke: #000000; stroke-width: 0.6"/>
      </g>
     </g>
    </g>
    <g id="ytick_23">
     <g id="line2d_47">
      <g>
       <use xlink:href="#m1f41763ed7" x="386.033498" y="335.668966" style="stroke: #000000; stroke-width: 0.6"/>
      </g>
     </g>
    </g>
    <g id="ytick_24">
     <g id="line2d_48">
      <g>
       <use xlink:href="#m1f41763ed7" x="386.033498" y="281.190148" style="stroke: #000000; stroke-width: 0.6"/>
      </g>
     </g>
    </g>
    <g id="ytick_25">
     <g id="line2d_49">
      <g>
       <use xlink:href="#m1f41763ed7" x="386.033498" y="226.71133" style="stroke: #000000; stroke-width: 0.6"/>
      </g>
     </g>
    </g>
    <g id="ytick_26">
     <g id="line2d_50">
      <g>
       <use xlink:href="#m1f41763ed7" x="386.033498" y="172.232512" style="stroke: #000000; stroke-width: 0.6"/>
      </g>
     </g>
    </g>
    <g id="ytick_27">
     <g id="line2d_51">
      <g>
       <use xlink:href="#m1f41763ed7" x="386.033498" y="117.753695" style="stroke: #000000; stroke-width: 0.6"/>
      </g>
     </g>
    </g>
    <g id="text_27">
     <!-- $I$ / $cd$ -->
     <g transform="translate(373.813498 93.867787) scale(0.14 -0.14)">
      <defs>
       <path id="DejaVuSans-Oblique-49" d="M 1081 4666 
L 1716 4666 
L 806 0 
L 172 0 
L 1081 4666 
z
" transform="scale(0.015625)"/>
       <path id="DejaVuSans-Oblique-63" d="M 3431 3366 
L 3316 2797 
Q 3109 2947 2876 3022 
Q 2644 3097 2394 3097 
Q 2119 3097 1870 3000 
Q 1622 2903 1453 2725 
Q 1184 2453 1037 2087 
Q 891 1722 891 1331 
Q 891 859 1127 628 
Q 1363 397 1844 397 
Q 2081 397 2348 469 
Q 2616 541 2906 684 
L 2797 116 
Q 2547 13 2283 -39 
Q 2019 -91 1741 -91 
Q 1044 -91 669 257 
Q 294 606 294 1253 
Q 294 1797 489 2255 
Q 684 2713 1069 3078 
Q 1331 3328 1684 3456 
Q 2038 3584 2456 3584 
Q 2700 3584 2940 3529 
Q 3181 3475 3431 3366 
z
" transform="scale(0.015625)"/>
       <path id="DejaVuSans-Oblique-64" d="M 2675 525 
Q 2444 222 2128 65 
Q 1813 -91 1428 -91 
Q 903 -91 598 267 
Q 294 625 294 1247 
Q 294 1766 478 2236 
Q 663 2706 1013 3078 
Q 1244 3325 1534 3454 
Q 1825 3584 2144 3584 
Q 2481 3584 2739 3421 
Q 2997 3259 3138 2956 
L 3513 4863 
L 4091 4863 
L 3144 0 
L 2566 0 
L 2675 525 
z
M 891 1350 
Q 891 897 1095 644 
Q 1300 391 1663 391 
Q 1931 391 2161 520 
Q 2391 650 2566 903 
Q 2750 1166 2856 1509 
Q 2963 1853 2963 2188 
Q 2963 2622 2758 2865 
Q 2553 3109 2194 3109 
Q 1922 3109 1687 2981 
Q 1453 2853 1288 2613 
Q 1106 2353 998 2009 
Q 891 1666 891 1350 
z
" transform="scale(0.015625)"/>
      </defs>
      <use xlink:href="#DejaVuSans-Oblique-49" transform="translate(0 0.015625)"/>
      <use xlink:href="#DejaVuSans-20" transform="translate(29.492188 0.015625)"/>
      <use xlink:href="#DejaVuSans-2f" transform="translate(61.279297 0.015625)"/>
      <use xlink:href="#DejaVuSans-20" transform="translate(94.970703 0.015625)"/>
      <use xlink:href="#DejaVuSans-Oblique-63" transform="translate(126.757812 0.015625)"/>
      <use xlink:href="#DejaVuSans-Oblique-64" transform="translate(181.738281 0.015625)"/>
     </g>
    </g>
   </g>
   <g id="legend_1">
    <g id="patch_17">
     <path d="M 673.501562 126.812115 
L 770.6 126.812115 
Q 772.6 126.812115 772.6 124.812115 
L 772.6 111.13399 
Q 772.6 109.13399 770.6 109.13399 
L 673.501562 109.13399 
Q 671.501562 109.13399 671.501562 111.13399 
L 671.501562 124.812115 
Q 671.501562 126.812115 673.501562 126.812115 
z
" style="fill: #ffffff; opacity: 0.8; stroke: #cccccc; stroke-linejoin: miter"/>
    </g>
    <g id="line2d_52">
     <path d="M 675.501562 117.232428 
L 685.501562 117.232428 
L 695.501562 117.232428 
" style="fill: none; stroke: #00008b; stroke-width: 1.5; stroke-linecap: square"/>
    </g>
    <g id="text_28">
     <!-- relative error -->
     <g transform="translate(703.501562 120.732428) scale(0.1 -0.1)">
      <defs>
       <path id="DejaVuSans-72" d="M 2631 2963 
Q 2534 3019 2420 3045 
Q 2306 3072 2169 3072 
Q 1681 3072 1420 2755 
Q 1159 2438 1159 1844 
L 1159 0 
L 581 0 
L 581 3500 
L 1159 3500 
L 1159 2956 
Q 1341 3275 1631 3429 
Q 1922 3584 2338 3584 
Q 2397 3584 2469 3576 
Q 2541 3569 2628 3553 
L 2631 2963 
z
" transform="scale(0.015625)"/>
       <path id="DejaVuSans-65" d="M 3597 1894 
L 3597 1613 
L 953 1613 
Q 991 1019 1311 708 
Q 1631 397 2203 397 
Q 2534 397 2845 478 
Q 3156 559 3463 722 
L 3463 178 
Q 3153 47 2828 -22 
Q 2503 -91 2169 -91 
Q 1331 -91 842 396 
Q 353 884 353 1716 
Q 353 2575 817 3079 
Q 1281 3584 2069 3584 
Q 2775 3584 3186 3129 
Q 3597 2675 3597 1894 
z
M 3022 2063 
Q 3016 2534 2758 2815 
Q 2500 3097 2075 3097 
Q 1594 3097 1305 2825 
Q 1016 2553 972 2059 
L 3022 2063 
z
" transform="scale(0.015625)"/>
       <path id="DejaVuSans-6c" d="M 603 4863 
L 1178 4863 
L 1178 0 
L 603 0 
L 603 4863 
z
" transform="scale(0.015625)"/>
       <path id="DejaVuSans-61" d="M 2194 1759 
Q 1497 1759 1228 1600 
Q 959 1441 959 1056 
Q 959 750 1161 570 
Q 1363 391 1709 391 
Q 2188 391 2477 730 
Q 2766 1069 2766 1631 
L 2766 1759 
L 2194 1759 
z
M 3341 1997 
L 3341 0 
L 2766 0 
L 2766 531 
Q 2569 213 2275 61 
Q 1981 -91 1556 -91 
Q 1019 -91 701 211 
Q 384 513 384 1019 
Q 384 1609 779 1909 
Q 1175 2209 1959 2209 
L 2766 2209 
L 2766 2266 
Q 2766 2663 2505 2880 
Q 2244 3097 1772 3097 
Q 1472 3097 1187 3025 
Q 903 2953 641 2809 
L 641 3341 
Q 956 3463 1253 3523 
Q 1550 3584 1831 3584 
Q 2591 3584 2966 3190 
Q 3341 2797 3341 1997 
z
" transform="scale(0.015625)"/>
       <path id="DejaVuSans-74" d="M 1172 4494 
L 1172 3500 
L 2356 3500 
L 2356 3053 
L 1172 3053 
L 1172 1153 
Q 1172 725 1289 603 
Q 1406 481 1766 481 
L 2356 481 
L 2356 0 
L 1766 0 
Q 1100 0 847 248 
Q 594 497 594 1153 
L 594 3053 
L 172 3053 
L 172 3500 
L 594 3500 
L 594 4494 
L 1172 4494 
z
" transform="scale(0.015625)"/>
       <path id="DejaVuSans-69" d="M 603 3500 
L 1178 3500 
L 1178 0 
L 603 0 
L 603 3500 
z
M 603 4863 
L 1178 4863 
L 1178 4134 
L 603 4134 
L 603 4863 
z
" transform="scale(0.015625)"/>
       <path id="DejaVuSans-76" d="M 191 3500 
L 800 3500 
L 1894 563 
L 2988 3500 
L 3597 3500 
L 2284 0 
L 1503 0 
L 191 3500 
z
" transform="scale(0.015625)"/>
       <path id="DejaVuSans-6f" d="M 1959 3097 
Q 1497 3097 1228 2736 
Q 959 2375 959 1747 
Q 959 1119 1226 758 
Q 1494 397 1959 397 
Q 2419 397 2687 759 
Q 2956 1122 2956 1747 
Q 2956 2369 2687 2733 
Q 2419 3097 1959 3097 
z
M 1959 3584 
Q 2709 3584 3137 3096 
Q 3566 2609 3566 1747 
Q 3566 888 3137 398 
Q 2709 -91 1959 -91 
Q 1206 -91 779 398 
Q 353 888 353 1747 
Q 353 2609 779 3096 
Q 1206 3584 1959 3584 
z
" transform="scale(0.015625)"/>
      </defs>
      <use xlink:href="#DejaVuSans-72"/>
      <use xlink:href="#DejaVuSans-65" x="38.863281"/>
      <use xlink:href="#DejaVuSans-6c" x="100.386719"/>
      <use xlink:href="#DejaVuSans-61" x="128.169922"/>
      <use xlink:href="#DejaVuSans-74" x="189.449219"/>
      <use xlink:href="#DejaVuSans-69" x="228.658203"/>
      <use xlink:href="#DejaVuSans-76" x="256.441406"/>
      <use xlink:href="#DejaVuSans-65" x="315.621094"/>
      <use xlink:href="#DejaVuSans-20" x="377.144531"/>
      <use xlink:href="#DejaVuSans-65" x="408.931641"/>
      <use xlink:href="#DejaVuSans-72" x="470.455078"/>
      <use xlink:href="#DejaVuSans-72" x="509.818359"/>
      <use xlink:href="#DejaVuSans-6f" x="548.681641"/>
      <use xlink:href="#DejaVuSans-72" x="609.863281"/>
     </g>
    </g>
   </g>
   <g id="legend_2">
    <g id="patch_18">
     <path d="M 88.4 471.86601 
L 351.3 471.86601 
Q 353.3 471.86601 353.3 469.86601 
L 353.3 441.487885 
Q 353.3 439.487885 351.3 439.487885 
L 88.4 439.487885 
Q 86.4 439.487885 86.4 441.487885 
L 86.4 469.86601 
Q 86.4 471.86601 88.4 471.86601 
z
" style="fill: #ffffff; opacity: 0.8; stroke: #cccccc; stroke-linejoin: miter"/>
    </g>
    <g id="line2d_53">
     <path d="M 90.4 447.586322 
L 100.4 447.586322 
L 110.4 447.586322 
" style="fill: none; stroke: #90ee90; stroke-width: 1.5; stroke-linecap: square"/>
    </g>
    <g id="text_29">
     <!-- $C_0$-Plane of the source LID -->
     <g transform="translate(118.4 451.086322) scale(0.1 -0.1)">
      <defs>
       <path id="DejaVuSans-Oblique-43" d="M 4447 4306 
L 4319 3641 
Q 4019 3944 3683 4091 
Q 3347 4238 2956 4238 
Q 2422 4238 2017 3981 
Q 1613 3725 1319 3200 
Q 1131 2863 1032 2486 
Q 934 2109 934 1728 
Q 934 1091 1264 756 
Q 1594 422 2222 422 
Q 2656 422 3056 561 
Q 3456 700 3834 978 
L 3688 231 
Q 3316 72 2936 -9 
Q 2556 -91 2175 -91 
Q 1278 -91 773 396 
Q 269 884 269 1753 
Q 269 2309 461 2846 
Q 653 3384 1013 3828 
Q 1394 4300 1883 4525 
Q 2372 4750 3022 4750 
Q 3422 4750 3780 4639 
Q 4138 4528 4447 4306 
z
" transform="scale(0.015625)"/>
       <path id="DejaVuSans-50" d="M 1259 4147 
L 1259 2394 
L 2053 2394 
Q 2494 2394 2734 2622 
Q 2975 2850 2975 3272 
Q 2975 3691 2734 3919 
Q 2494 4147 2053 4147 
L 1259 4147 
z
M 628 4666 
L 2053 4666 
Q 2838 4666 3239 4311 
Q 3641 3956 3641 3272 
Q 3641 2581 3239 2228 
Q 2838 1875 2053 1875 
L 1259 1875 
L 1259 0 
L 628 0 
L 628 4666 
z
" transform="scale(0.015625)"/>
       <path id="DejaVuSans-6e" d="M 3513 2113 
L 3513 0 
L 2938 0 
L 2938 2094 
Q 2938 2591 2744 2837 
Q 2550 3084 2163 3084 
Q 1697 3084 1428 2787 
Q 1159 2491 1159 1978 
L 1159 0 
L 581 0 
L 581 3500 
L 1159 3500 
L 1159 2956 
Q 1366 3272 1645 3428 
Q 1925 3584 2291 3584 
Q 2894 3584 3203 3211 
Q 3513 2838 3513 2113 
z
" transform="scale(0.015625)"/>
       <path id="DejaVuSans-66" d="M 2375 4863 
L 2375 4384 
L 1825 4384 
Q 1516 4384 1395 4259 
Q 1275 4134 1275 3809 
L 1275 3500 
L 2222 3500 
L 2222 3053 
L 1275 3053 
L 1275 0 
L 697 0 
L 697 3053 
L 147 3053 
L 147 3500 
L 697 3500 
L 697 3744 
Q 697 4328 969 4595 
Q 1241 4863 1831 4863 
L 2375 4863 
z
" transform="scale(0.015625)"/>
       <path id="DejaVuSans-68" d="M 3513 2113 
L 3513 0 
L 2938 0 
L 2938 2094 
Q 2938 2591 2744 2837 
Q 2550 3084 2163 3084 
Q 1697 3084 1428 2787 
Q 1159 2491 1159 1978 
L 1159 0 
L 581 0 
L 581 4863 
L 1159 4863 
L 1159 2956 
Q 1366 3272 1645 3428 
Q 1925 3584 2291 3584 
Q 2894 3584 3203 3211 
Q 3513 2838 3513 2113 
z
" transform="scale(0.015625)"/>
       <path id="DejaVuSans-73" d="M 2834 3397 
L 2834 2853 
Q 2591 2978 2328 3040 
Q 2066 3103 1784 3103 
Q 1356 3103 1142 2972 
Q 928 2841 928 2578 
Q 928 2378 1081 2264 
Q 1234 2150 1697 2047 
L 1894 2003 
Q 2506 1872 2764 1633 
Q 3022 1394 3022 966 
Q 3022 478 2636 193 
Q 2250 -91 1575 -91 
Q 1294 -91 989 -36 
Q 684 19 347 128 
L 347 722 
Q 666 556 975 473 
Q 1284 391 1588 391 
Q 1994 391 2212 530 
Q 2431 669 2431 922 
Q 2431 1156 2273 1281 
Q 2116 1406 1581 1522 
L 1381 1569 
Q 847 1681 609 1914 
Q 372 2147 372 2553 
Q 372 3047 722 3315 
Q 1072 3584 1716 3584 
Q 2034 3584 2315 3537 
Q 2597 3491 2834 3397 
z
" transform="scale(0.015625)"/>
       <path id="DejaVuSans-75" d="M 544 1381 
L 544 3500 
L 1119 3500 
L 1119 1403 
Q 1119 906 1312 657 
Q 1506 409 1894 409 
Q 2359 409 2629 706 
Q 2900 1003 2900 1516 
L 2900 3500 
L 3475 3500 
L 3475 0 
L 2900 0 
L 2900 538 
Q 2691 219 2414 64 
Q 2138 -91 1772 -91 
Q 1169 -91 856 284 
Q 544 659 544 1381 
z
M 1991 3584 
L 1991 3584 
z
" transform="scale(0.015625)"/>
       <path id="DejaVuSans-63" d="M 3122 3366 
L 3122 2828 
Q 2878 2963 2633 3030 
Q 2388 3097 2138 3097 
Q 1578 3097 1268 2742 
Q 959 2388 959 1747 
Q 959 1106 1268 751 
Q 1578 397 2138 397 
Q 2388 397 2633 464 
Q 2878 531 3122 666 
L 3122 134 
Q 2881 22 2623 -34 
Q 2366 -91 2075 -91 
Q 1284 -91 818 406 
Q 353 903 353 1747 
Q 353 2603 823 3093 
Q 1294 3584 2113 3584 
Q 2378 3584 2631 3529 
Q 2884 3475 3122 3366 
z
" transform="scale(0.015625)"/>
       <path id="DejaVuSans-4c" d="M 628 4666 
L 1259 4666 
L 1259 531 
L 3531 531 
L 3531 0 
L 628 0 
L 628 4666 
z
" transform="scale(0.015625)"/>
       <path id="DejaVuSans-49" d="M 628 4666 
L 1259 4666 
L 1259 0 
L 628 0 
L 628 4666 
z
" transform="scale(0.015625)"/>
       <path id="DejaVuSans-44" d="M 1259 4147 
L 1259 519 
L 2022 519 
Q 2988 519 3436 956 
Q 3884 1394 3884 2338 
Q 3884 3275 3436 3711 
Q 2988 4147 2022 4147 
L 1259 4147 
z
M 628 4666 
L 1925 4666 
Q 3281 4666 3915 4102 
Q 4550 3538 4550 2338 
Q 4550 1131 3912 565 
Q 3275 0 1925 0 
L 628 0 
L 628 4666 
z
" transform="scale(0.015625)"/>
      </defs>
      <use xlink:href="#DejaVuSans-Oblique-43" transform="translate(0 0.015625)"/>
      <use xlink:href="#DejaVuSans-30" transform="translate(69.824219 -16.390625) scale(0.7)"/>
      <use xlink:href="#DejaVuSans-2d" transform="translate(117.094727 0.015625)"/>
      <use xlink:href="#DejaVuSans-50" transform="translate(153.178711 0.015625)"/>
      <use xlink:href="#DejaVuSans-6c" transform="translate(213.481445 0.015625)"/>
      <use xlink:href="#DejaVuSans-61" transform="translate(241.264648 0.015625)"/>
      <use xlink:href="#DejaVuSans-6e" transform="translate(302.543945 0.015625)"/>
      <use xlink:href="#DejaVuSans-65" transform="translate(365.922852 0.015625)"/>
      <use xlink:href="#DejaVuSans-20" transform="translate(427.446289 0.015625)"/>
      <use xlink:href="#DejaVuSans-6f" transform="translate(459.233398 0.015625)"/>
      <use xlink:href="#DejaVuSans-66" transform="translate(520.415039 0.015625)"/>
      <use xlink:href="#DejaVuSans-20" transform="translate(555.620117 0.015625)"/>
      <use xlink:href="#DejaVuSans-74" transform="translate(587.407227 0.015625)"/>
      <use xlink:href="#DejaVuSans-68" transform="translate(626.616211 0.015625)"/>
      <use xlink:href="#DejaVuSans-65" transform="translate(689.995117 0.015625)"/>
      <use xlink:href="#DejaVuSans-20" transform="translate(751.518555 0.015625)"/>
      <use xlink:href="#DejaVuSans-73" transform="translate(783.305664 0.015625)"/>
      <use xlink:href="#DejaVuSans-6f" transform="translate(835.405273 0.015625)"/>
      <use xlink:href="#DejaVuSans-75" transform="translate(896.586914 0.015625)"/>
      <use xlink:href="#DejaVuSans-72" transform="translate(959.96582 0.015625)"/>
      <use xlink:href="#DejaVuSans-63" transform="translate(1001.079102 0.015625)"/>
      <use xlink:href="#DejaVuSans-65" transform="translate(1056.05957 0.015625)"/>
      <use xlink:href="#DejaVuSans-20" transform="translate(1117.583008 0.015625)"/>
      <use xlink:href="#DejaVuSans-4c" transform="translate(1149.370117 0.015625)"/>
      <use xlink:href="#DejaVuSans-49" transform="translate(1205.083008 0.015625)"/>
      <use xlink:href="#DejaVuSans-44" transform="translate(1234.575195 0.015625)"/>
     </g>
    </g>
    <g id="line2d_54">
     <path d="M 90.4 462.26601 
L 100.4 462.26601 
L 110.4 462.26601 
" style="fill: none; stroke: #ff0000; stroke-width: 1.5; stroke-linecap: square"/>
    </g>
    <g id="text_30">
     <!-- $C_0$-Plane of measured LID, error amplified 20x -->
     <g transform="translate(118.4 465.76601) scale(0.1 -0.1)">
      <defs>
       <path id="DejaVuSans-6d" d="M 3328 2828 
Q 3544 3216 3844 3400 
Q 4144 3584 4550 3584 
Q 5097 3584 5394 3201 
Q 5691 2819 5691 2113 
L 5691 0 
L 5113 0 
L 5113 2094 
Q 5113 2597 4934 2840 
Q 4756 3084 4391 3084 
Q 3944 3084 3684 2787 
Q 3425 2491 3425 1978 
L 3425 0 
L 2847 0 
L 2847 2094 
Q 2847 2600 2669 2842 
Q 2491 3084 2119 3084 
Q 1678 3084 1418 2786 
Q 1159 2488 1159 1978 
L 1159 0 
L 581 0 
L 581 3500 
L 1159 3500 
L 1159 2956 
Q 1356 3278 1631 3431 
Q 1906 3584 2284 3584 
Q 2666 3584 2933 3390 
Q 3200 3197 3328 2828 
z
" transform="scale(0.015625)"/>
       <path id="DejaVuSans-64" d="M 2906 2969 
L 2906 4863 
L 3481 4863 
L 3481 0 
L 2906 0 
L 2906 525 
Q 2725 213 2448 61 
Q 2172 -91 1784 -91 
Q 1150 -91 751 415 
Q 353 922 353 1747 
Q 353 2572 751 3078 
Q 1150 3584 1784 3584 
Q 2172 3584 2448 3432 
Q 2725 3281 2906 2969 
z
M 947 1747 
Q 947 1113 1208 752 
Q 1469 391 1925 391 
Q 2381 391 2643 752 
Q 2906 1113 2906 1747 
Q 2906 2381 2643 2742 
Q 2381 3103 1925 3103 
Q 1469 3103 1208 2742 
Q 947 2381 947 1747 
z
" transform="scale(0.015625)"/>
       <path id="DejaVuSans-2c" d="M 750 794 
L 1409 794 
L 1409 256 
L 897 -744 
L 494 -744 
L 750 256 
L 750 794 
z
" transform="scale(0.015625)"/>
       <path id="DejaVuSans-70" d="M 1159 525 
L 1159 -1331 
L 581 -1331 
L 581 3500 
L 1159 3500 
L 1159 2969 
Q 1341 3281 1617 3432 
Q 1894 3584 2278 3584 
Q 2916 3584 3314 3078 
Q 3713 2572 3713 1747 
Q 3713 922 3314 415 
Q 2916 -91 2278 -91 
Q 1894 -91 1617 61 
Q 1341 213 1159 525 
z
M 3116 1747 
Q 3116 2381 2855 2742 
Q 2594 3103 2138 3103 
Q 1681 3103 1420 2742 
Q 1159 2381 1159 1747 
Q 1159 1113 1420 752 
Q 1681 391 2138 391 
Q 2594 391 2855 752 
Q 3116 1113 3116 1747 
z
" transform="scale(0.015625)"/>
       <path id="DejaVuSans-78" d="M 3513 3500 
L 2247 1797 
L 3578 0 
L 2900 0 
L 1881 1375 
L 863 0 
L 184 0 
L 1544 1831 
L 300 3500 
L 978 3500 
L 1906 2253 
L 2834 3500 
L 3513 3500 
z
" transform="scale(0.015625)"/>
      </defs>
      <use xlink:href="#DejaVuSans-Oblique-43" transform="translate(0 0.015625)"/>
      <use xlink:href="#DejaVuSans-30" transform="translate(69.824219 -16.390625) scale(0.7)"/>
      <use xlink:href="#DejaVuSans-2d" transform="translate(117.094727 0.015625)"/>
      <use xlink:href="#DejaVuSans-50" transform="translate(153.178711 0.015625)"/>
      <use xlink:href="#DejaVuSans-6c" transform="translate(213.481445 0.015625)"/>
      <use xlink:href="#DejaVuSans-61" transform="translate(241.264648 0.015625)"/>
      <use xlink:href="#DejaVuSans-6e" transform="translate(302.543945 0.015625)"/>
      <use xlink:href="#DejaVuSans-65" transform="translate(365.922852 0.015625)"/>
      <use xlink:href="#DejaVuSans-20" transform="translate(427.446289 0.015625)"/>
      <use xlink:href="#DejaVuSans-6f" transform="translate(459.233398 0.015625)"/>
      <use xlink:href="#DejaVuSans-66" transform="translate(520.415039 0.015625)"/>
      <use xlink:href="#DejaVuSans-20" transform="translate(555.620117 0.015625)"/>
      <use xlink:href="#DejaVuSans-6d" transform="translate(587.407227 0.015625)"/>
      <use xlink:href="#DejaVuSans-65" transform="translate(684.819336 0.015625)"/>
      <use xlink:href="#DejaVuSans-61" transform="translate(746.342773 0.015625)"/>
      <use xlink:href="#DejaVuSans-73" transform="translate(807.62207 0.015625)"/>
      <use xlink:href="#DejaVuSans-75" transform="translate(859.72168 0.015625)"/>
      <use xlink:href="#DejaVuSans-72" transform="translate(923.100586 0.015625)"/>
      <use xlink:href="#DejaVuSans-65" transform="translate(964.213867 0.015625)"/>
      <use xlink:href="#DejaVuSans-64" transform="translate(1025.737305 0.015625)"/>
      <use xlink:href="#DejaVuSans-20" transform="translate(1089.213867 0.015625)"/>
      <use xlink:href="#DejaVuSans-4c" transform="translate(1121.000977 0.015625)"/>
      <use xlink:href="#DejaVuSans-49" transform="translate(1176.713867 0.015625)"/>
      <use xlink:href="#DejaVuSans-44" transform="translate(1206.206055 0.015625)"/>
      <use xlink:href="#DejaVuSans-2c" transform="translate(1283.208008 0.015625)"/>
      <use xlink:href="#DejaVuSans-20" transform="translate(1314.995117 0.015625)"/>
      <use xlink:href="#DejaVuSans-65" transform="translate(1346.782227 0.015625)"/>
      <use xlink:href="#DejaVuSans-72" transform="translate(1408.305664 0.015625)"/>
      <use xlink:href="#DejaVuSans-72" transform="translate(1449.418945 0.015625)"/>
      <use xlink:href="#DejaVuSans-6f" transform="translate(1490.532227 0.015625)"/>
      <use xlink:href="#DejaVuSans-72" transform="translate(1551.713867 0.015625)"/>
      <use xlink:href="#DejaVuSans-20" transform="translate(1592.827148 0.015625)"/>
      <use xlink:href="#DejaVuSans-61" transform="translate(1624.614258 0.015625)"/>
      <use xlink:href="#DejaVuSans-6d" transform="translate(1685.893555 0.015625)"/>
      <use xlink:href="#DejaVuSans-70" transform="translate(1783.305664 0.015625)"/>
      <use xlink:href="#DejaVuSans-6c" transform="translate(1846.782227 0.015625)"/>
      <use xlink:href="#DejaVuSans-69" transform="translate(1874.56543 0.015625)"/>
      <use xlink:href="#DejaVuSans-66" transform="translate(1902.348633 0.015625)"/>
      <use xlink:href="#DejaVuSans-69" transform="translate(1937.553711 0.015625)"/>
      <use xlink:href="#DejaVuSans-65" transform="translate(1965.336914 0.015625)"/>
      <use xlink:href="#DejaVuSans-64" transform="translate(2026.860352 0.015625)"/>
      <use xlink:href="#DejaVuSans-20" transform="translate(2090.336914 0.015625)"/>
      <use xlink:href="#DejaVuSans-32" transform="translate(2122.124023 0.015625)"/>
      <use xlink:href="#DejaVuSans-30" transform="translate(2185.74707 0.015625)"/>
      <use xlink:href="#DejaVuSans-78" transform="translate(2249.370117 0.015625)"/>
     </g>
    </g>
   </g>
  </g>
 </g>
 <defs>
  <clipPath id="p2438c94552">
   <path d="M 386.033498 117.753695 
C 306.596231 117.753695 230.33125 149.343684 174.16062 205.514314 
C 117.98999 261.684944 86.4 337.949925 86.4 417.387192 
L 386.033498 417.387192 
C 386.033498 417.387192 386.033498 417.387192 386.033498 417.387192 
C 386.033498 417.387192 386.033498 417.387192 386.033498 417.387192 
z
"/>
  </clipPath>
  <clipPath id="p0046296a36">
   <rect x="86.4" y="104.13399" width="691.2" height="367.73202"/>
  </clipPath>
 </defs>
</svg>
